<?xml version="1.0" standalone="no"?>
<!DOCTYPE svg PUBLIC "-//W3C//DTD SVG 1.1//EN" "http://www.w3.org/Graphics/SVG/1.1/DTD/svg11.dtd" >
<svg xmlns="http://www.w3.org/2000/svg" xmlns:xlink="http://www.w3.org/1999/xlink" version="1.1">
<metadata>
Created by FontForge 20170731 at Fri Apr 29 02:27:34 2011
 By Aleksey,,,
Copyright (c) 2010 by Ian Party, distributed by B&#38;P Foundry Srl, Switzerland, http://www.bpfoundry.com. All rights reserved.
</metadata>
<defs>
<font id="SuisseBPIntl-Light" horiz-adv-x="531" >
  <font-face 
    font-family="Suisse BP Int'l Light"
    font-weight="300"
    font-stretch="normal"
    units-per-em="1000"
    panose-1="0 0 0 0 0 0 0 0 0 0"
    ascent="750"
    descent="-250"
    x-height="490"
    cap-height="664"
    bbox="-219 -222 1170 922"
    underline-thickness="50"
    underline-position="-150"
    unicode-range="U+0020-FB06"
  />
<missing-glyph horiz-adv-x="220" 
 />
    <glyph glyph-name="f_f" unicode="ff" horiz-adv-x="512" 
d="M84 490v62q0 64 23.5 88t92.5 24h41v-53h-29q-47 0 -58.5 -10.5t-11.5 -56.5v-54h99v-50h-99v-440h-58v440h-69v50h69zM340 490v62q0 64 23.5 88t92.5 24h41v-53h-29q-47 0 -58.5 -10.5t-11.5 -56.5v-54h99v-50h-99v-440h-58v440h-69v50h69z" />
    <glyph glyph-name="fi" unicode="fi" horiz-adv-x="454" 
d="M84 490v62q0 64 23.5 88t92.5 24h41v-53h-29q-47 0 -58.5 -10.5t-11.5 -56.5v-54h99v-50h-99v-440h-58v440h-69v50h69zM326 490h58v-490h-58v490zM326 664h58v-92h-58v92z" />
    <glyph glyph-name="fl" unicode="fl" horiz-adv-x="454" 
d="M84 490v62q0 64 23.5 88t92.5 24h41v-53h-29q-47 0 -58.5 -10.5t-11.5 -56.5v-54h99v-50h-99v-440h-58v440h-69v50h69zM384 664v-664h-58v664h58z" />
    <glyph glyph-name="f_f_i" unicode="ffi" horiz-adv-x="710" 
d="M84 490v62q0 64 23.5 88t92.5 24h41v-53h-29q-47 0 -58.5 -10.5t-11.5 -56.5v-54h99v-50h-99v-440h-58v440h-69v50h69zM340 490v62q0 64 23.5 88t92.5 24h41v-53h-29q-47 0 -58.5 -10.5t-11.5 -56.5v-54h99v-50h-99v-440h-58v440h-69v50h69zM582 490h58v-490h-58v490z
M582 664h58v-92h-58v92z" />
    <glyph glyph-name="f_f_l" unicode="ffl" horiz-adv-x="710" 
d="M84 490v62q0 64 23.5 88t92.5 24h41v-53h-29q-47 0 -58.5 -10.5t-11.5 -56.5v-54h99v-50h-99v-440h-58v440h-69v50h69zM340 490v62q0 64 23.5 88t92.5 24h41v-53h-29q-47 0 -58.5 -10.5t-11.5 -56.5v-54h99v-50h-99v-440h-58v440h-69v50h69zM640 664v-664h-58v664h58z
" />
    <glyph glyph-name="s_t" unicode="st" horiz-adv-x="761" 
d="M429 363l-60 -8q-12 43 -47 67.5t-87 24.5q-46 0 -84.5 -19t-38.5 -60q0 -65 90 -82l70 -13q37 -7 62 -14.5t52 -22.5t41 -39.5t14 -58.5q0 -71 -56 -110.5t-141 -39.5q-79 0 -133 41t-66 116l60 8q10 -55 48 -84.5t96 -29.5q50 0 92 22t42 68q0 40 -30 59t-90 30l-78 15
q-59 11 -95.5 43.5t-36.5 87.5q0 59 52.5 96.5t137.5 37.5q76 0 125 -38.5t61 -96.5zM574 490v122h58v-122h99v-50h-99v-310q0 -51 10.5 -64.5t58.5 -13.5h30v-52h-48q-67 0 -88 22.5t-21 96.5v321h-83v50h83z" />
    <glyph glyph-name="f_b" unicode="fb" horiz-adv-x="787" 
d="M84 490v62q0 64 23.5 88t92.5 24h41v-53h-29q-47 0 -58.5 -10.5t-11.5 -56.5v-54h99v-50h-99v-440h-58v440h-69v50h69zM326 664v-664h56l2 75q22 -43 65.5 -65t93.5 -22q94 0 153.5 68.5t59.5 185.5q0 118 -57 187t-146 69q-117 0 -169 -90v256h-58zM541 447
q70 0 112 -55t42 -150q0 -94 -42 -148.5t-112 -54.5q-66 0 -113.5 51.5t-47.5 151.5q0 99 48.5 152t112.5 53z" />
    <glyph glyph-name="f_h" unicode="fh" horiz-adv-x="773" 
d="M84 490v62q0 64 23.5 88t92.5 24h41v-53h-29q-47 0 -58.5 -10.5t-11.5 -56.5v-54h99v-50h-99v-440h-58v440h-69v50h69zM384 664v-258q48 92 166 92q87 0 130 -52q38 -47 38 -141v-305h-58v290q0 81 -28 118q-29 39 -97 39q-65 0 -108 -49.5t-43 -128.5v-269h-58v664h58z
" />
    <glyph glyph-name="f_k" unicode="fk" horiz-adv-x="700" 
d="M84 490v62q0 64 23.5 88t92.5 24h41v-53h-29q-47 0 -58.5 -10.5t-11.5 -56.5v-54h99v-50h-99v-440h-58v440h-69v50h69zM384 664h-58v-664h58v175l72 76l177 -251h67l-206 291l189 199h-71l-228 -240v414z" />
    <glyph glyph-name="f_j" unicode="fj" horiz-adv-x="454" 
d="M84 490v62q0 64 23.5 88t92.5 24h41v-53h-29q-47 0 -58.5 -10.5t-11.5 -56.5v-54h99v-50h-99v-440h-58v440h-69v50h69zM326 -41v531h58v-532q0 -77 -20 -104t-85 -27h-31v53h11q45 0 56 14t11 65zM326 664h58v-92h-58v92z" />
    <glyph glyph-name="f_t" unicode="ft" horiz-adv-x="536" 
d="M84 490v62q0 64 23.5 88t92.5 24h41v-53h-29q-47 0 -58.5 -10.5t-11.5 -56.5v-54h99v-50h-99v-440h-58v440h-69v50h69zM349 490v122h58v-122h99v-50h-99v-310q0 -51 10.5 -64.5t58.5 -13.5h30v-52h-48q-67 0 -88 22.5t-21 96.5v321h-83v50h83z" />
    <glyph glyph-name="f_f_j" unicode="ffj" horiz-adv-x="710" 
d="M84 490v62q0 64 23.5 88t92.5 24h41v-53h-29q-47 0 -58.5 -10.5t-11.5 -56.5v-54h99v-50h-99v-440h-58v440h-69v50h69zM340 490v62q0 64 23.5 88t92.5 24h41v-53h-29q-47 0 -58.5 -10.5t-11.5 -56.5v-54h99v-50h-99v-440h-58v440h-69v50h69zM582 -41v531h58v-532
q0 -77 -20 -104t-85 -27h-31v53h11q45 0 56 14t11 65zM582 664h58v-92h-58v92z" />
    <glyph glyph-name="f_f_k" unicode="ffk" horiz-adv-x="956" 
d="M84 490v62q0 64 23.5 88t92.5 24h41v-53h-29q-47 0 -58.5 -10.5t-11.5 -56.5v-54h99v-50h-99v-440h-58v440h-69v50h69zM340 490v62q0 64 23.5 88t92.5 24h41v-53h-29q-47 0 -58.5 -10.5t-11.5 -56.5v-54h99v-50h-99v-440h-58v440h-69v50h69zM640 664h-58v-664h58v175
l72 76l177 -251h67l-206 291l189 199h-71l-228 -240v414z" />
    <glyph glyph-name="f_f_t" unicode="fft" horiz-adv-x="792" 
d="M84 490v62q0 64 23.5 88t92.5 24h41v-53h-29q-47 0 -58.5 -10.5t-11.5 -56.5v-54h99v-50h-99v-440h-58v440h-69v50h69zM340 490v62q0 64 23.5 88t92.5 24h41v-53h-29q-47 0 -58.5 -10.5t-11.5 -56.5v-54h99v-50h-99v-440h-58v440h-69v50h69zM605 490v122h58v-122h99v-50
h-99v-310q0 -51 10.5 -64.5t58.5 -13.5h30v-52h-48q-67 0 -88 22.5t-21 96.5v321h-83v50h83z" />
    <glyph glyph-name="f_f_b" unicode="ffb" horiz-adv-x="1043" 
d="M84 490v62q0 64 23.5 88t92.5 24h41v-53h-29q-47 0 -58.5 -10.5t-11.5 -56.5v-54h99v-50h-99v-440h-58v440h-69v50h69zM340 490v62q0 64 23.5 88t92.5 24h41v-53h-29q-47 0 -58.5 -10.5t-11.5 -56.5v-54h99v-50h-99v-440h-58v440h-69v50h69zM582 664v-664h56l2 75
q22 -43 65.5 -65t93.5 -22q94 0 153.5 68.5t59.5 185.5q0 118 -57 187t-146 69q-117 0 -169 -90v256h-58zM797 447q70 0 112 -55t42 -150q0 -94 -42 -148.5t-112 -54.5q-66 0 -113.5 51.5t-47.5 151.5q0 99 48.5 152t112.5 53z" />
    <glyph glyph-name="f_f_h" unicode="ffh" horiz-adv-x="1029" 
d="M84 490v62q0 64 23.5 88t92.5 24h41v-53h-29q-47 0 -58.5 -10.5t-11.5 -56.5v-54h99v-50h-99v-440h-58v440h-69v50h69zM340 490v62q0 64 23.5 88t92.5 24h41v-53h-29q-47 0 -58.5 -10.5t-11.5 -56.5v-54h99v-50h-99v-440h-58v440h-69v50h69zM640 664v-258q48 92 166 92
q87 0 130 -52q38 -47 38 -141v-305h-58v290q0 81 -28 118q-29 39 -97 39q-65 0 -108 -49.5t-43 -128.5v-269h-58v664h58z" />
    <glyph glyph-name="s_p" unicode="sp" horiz-adv-x="1012" 
d="M429 363l-60 -8q-12 43 -47 67.5t-87 24.5q-46 0 -84.5 -19t-38.5 -60q0 -65 90 -82l70 -13q37 -7 62 -14.5t52 -22.5t41 -39.5t14 -58.5q0 -71 -56 -110.5t-141 -39.5q-79 0 -133 41t-66 116l60 8q10 -55 48 -84.5t96 -29.5q50 0 92 22t42 68q0 40 -30 59t-90 30l-78 15
q-59 11 -95.5 43.5t-36.5 87.5q0 59 52.5 96.5t137.5 37.5q76 0 125 -38.5t61 -96.5zM609 -173v248q22 -43 65.5 -65t93.5 -22q94 0 153.5 68.5t59.5 185.5q0 118 -57 187t-146 69q-116 0 -169 -90l-1 82h-57v-663h58zM766 447q70 0 112 -55t42 -150q0 -94 -42 -148.5
t-112 -54.5q-66 0 -113.5 51.5t-47.5 151.5q0 99 48.5 152t112.5 53z" />
    <glyph glyph-name="c_t" unicode="ct" horiz-adv-x="766" 
d="M260 498q81 0 135.5 -45.5t66.5 -110.5l-60 -8q-13 55 -52.5 83.5t-95.5 28.5q-68 0 -115 -53.5t-47 -148.5q0 -98 47 -151t116 -53q62 0 101 31.5t50 80.5l60 -8q-15 -71 -72.5 -113.5t-140.5 -42.5q-104 0 -163 70.5t-59 184.5q0 115 60.5 185t168.5 70zM579 490v122
h58v-122h99v-50h-99v-310q0 -51 10.5 -64.5t58.5 -13.5h30v-52h-48q-67 0 -88 22.5t-21 96.5v321h-83v50h83z" />
    <glyph glyph-name="t_t" unicode="tt" horiz-adv-x="560" 
d="M93 490v122h58v-122h99v-50h-99v-310q0 -51 10.5 -64.5t58.5 -13.5h30v-52h-48q-67 0 -88 22.5t-21 96.5v321h-83v50h83zM373 490v122h58v-122h99v-50h-99v-310q0 -51 10.5 -64.5t58.5 -13.5h30v-52h-48q-67 0 -88 22.5t-21 96.5v321h-83v50h83z" />
    <glyph glyph-name="t_f" unicode="tf" horiz-adv-x="536" 
d="M93 490v122h58v-122h99v-50h-99v-310q0 -51 10.5 -64.5t58.5 -13.5h30v-52h-48q-67 0 -88 22.5t-21 96.5v321h-83v50h83zM364 490v62q0 64 23.5 88t92.5 24h41v-53h-29q-47 0 -58.5 -10.5t-11.5 -56.5v-54h99v-50h-99v-440h-58v440h-69v50h69z" />
    <glyph glyph-name=".notdef" horiz-adv-x="220" 
 />
    <glyph glyph-name=".null" horiz-adv-x="0" 
 />
    <glyph glyph-name="nonmarkingreturn" horiz-adv-x="333" 
 />
    <glyph glyph-name="space" unicode=" " horiz-adv-x="220" 
 />
    <glyph glyph-name="exclam" unicode="!" horiz-adv-x="201" 
d="M117 159h-34l-15 305v200h64v-200zM141 0h-81v87h81v-87z" />
    <glyph glyph-name="quotedbl" unicode="&#x22;" horiz-adv-x="287" 
d="M39 673h67l-19 -223h-29zM189 673h66l-19 -223h-28z" />
    <glyph glyph-name="numbersign" unicode="#" horiz-adv-x="580" 
d="M43 479h128l26 185h58l-26 -185h162l26 185h58l-26 -185h126l-8 -55h-126l-23 -160h127l-8 -55h-127l-29 -209h-58l29 209h-162l-29 -209h-58l29 209h-127l8 55h127l23 160h-128zM221 424l-23 -160h162l23 160h-162z" />
    <glyph glyph-name="dollar" unicode="$" horiz-adv-x="537" 
d="M241 768h48v-94q89 -8 145 -62.5t57 -140.5l-62 -1q-2 72 -40.5 109t-99.5 44v-257l9 -2q42 -12 71 -24t64 -33.5t53.5 -55t18.5 -76.5q0 -87 -62.5 -134.5t-153.5 -51.5v-84h-48v84q-90 8 -148 61t-65 148l62 1q3 -69 42 -110.5t109 -48.5v280l-32 10q-168 48 -168 178
q0 67 56 114.5t144 52.5v93zM446 166q0 57 -40.5 87.5t-116.5 52.5v-266q73 4 115 36.5t42 89.5zM100 511q0 -89 124 -125l17 -5v243q-63 -5 -102 -36t-39 -77z" />
    <glyph glyph-name="percent" unicode="%" horiz-adv-x="800" 
d="M190 278q-74 0 -111.5 52.5t-37.5 145.5q0 92 37 143.5t112 51.5q74 0 111.5 -51.5t37.5 -143.5q0 -93 -37.5 -145.5t-111.5 -52.5zM190 321q46 0 72 39t26 116q0 152 -98 152t-98 -152q0 -77 26 -116t72 -39zM136 0h64l465 664h-64zM610 -7q-74 0 -111.5 52.5
t-37.5 145.5q0 92 37 143.5t112 51.5q74 0 111.5 -51.5t37.5 -143.5q0 -93 -37.5 -145.5t-111.5 -52.5zM610 36q46 0 72 39t26 116q0 152 -98 152t-98 -152q0 -77 26 -116t72 -39z" />
    <glyph glyph-name="ampersand" unicode="&#x26;" horiz-adv-x="649" 
d="M250 -12q-101 0 -160.5 53.5t-59.5 138.5q0 141 179 200q-85 92 -85 160q0 62 48.5 99t125.5 37q67 0 116 -35.5t49 -106.5q0 -116 -157 -174l170 -180q45 78 55 175h59q-15 -118 -77 -214l135 -141h-78l-91 95q-95 -107 -229 -107zM249 39q116 0 194 94l-198 209
q-154 -45 -154 -162q0 -63 44 -102t114 -39zM185 542q0 -24 13.5 -50.5t26.5 -42.5t39 -44l6 -7q71 24 103 56t32 79q0 42 -31 67t-77 25q-47 0 -79.5 -21.5t-32.5 -61.5z" />
    <glyph glyph-name="quotesingle" unicode="'" horiz-adv-x="145" 
d="M41 673h67l-19 -223h-29z" />
    <glyph glyph-name="parenleft" unicode="(" horiz-adv-x="207" 
d="M40 246q0 124 35.5 234.5t84.5 183.5h47q-110 -194 -110 -418q0 -225 110 -419h-47q-49 73 -84.5 184t-35.5 235z" />
    <glyph glyph-name="parenright" unicode=")" horiz-adv-x="207" 
d="M167 246q0 -124 -35.5 -235t-84.5 -184h-47q110 194 110 419q0 224 -110 418h47q49 -73 84.5 -183.5t35.5 -234.5z" />
    <glyph glyph-name="asterisk" unicode="*" horiz-adv-x="352" 
d="M200 664v-110l112 36l15 -46l-111 -36l68 -94l-39 -29l-69 94l-68 -93l-40 28l68 93l-110 37l14 47l111 -37v110h49z" />
    <glyph glyph-name="plus" unicode="+" horiz-adv-x="568" 
d="M313 0h-58v225h-225v55h225v214h58v-214h225v-55h-225v-225z" />
    <glyph glyph-name="comma" unicode="," horiz-adv-x="201" 
d="M60 0v87h81v-94l-46 -121h-43l40 128h-32z" />
    <glyph glyph-name="hyphen" unicode="-" horiz-adv-x="340" 
d="M300 222h-260v65h260v-65z" />
    <glyph glyph-name="period" unicode="." horiz-adv-x="201" 
d="M141 0h-81v87h81v-87z" />
    <glyph glyph-name="slash" unicode="/" horiz-adv-x="328" 
d="M59 0h-59l269 664h59z" />
    <glyph glyph-name="zero" unicode="0" horiz-adv-x="618" 
d="M309 -12q-130 0 -194.5 89.5t-64.5 254.5t64.5 254.5t194.5 89.5t194.5 -89.5t64.5 -254.5t-64.5 -254.5t-194.5 -89.5zM309 39q94 0 146 73t52 220t-52 220t-146 73t-146 -73t-52 -220t52 -220t146 -73z" />
    <glyph glyph-name="one" unicode="1" horiz-adv-x="302" 
d="M212 0h-58v536h-154v39q90 0 122.5 17t50.5 77h39v-669z" />
    <glyph glyph-name="two" unicode="2" horiz-adv-x="529" 
d="M270 676q93 0 148 -46.5t55 -127.5q0 -99 -85 -199t-280 -247h386v-56h-466v58q206 157 295 253t89 185q0 62 -41 95.5t-101 33.5q-71 0 -117.5 -40t-47.5 -129l-61 1q4 105 64.5 162t161.5 57z" />
    <glyph glyph-name="three" unicode="3" horiz-adv-x="530" 
d="M252 39q79 0 128 38t49 106q0 143 -205 143h-5v50h5q187 0 187 127q0 53 -41.5 87.5t-112.5 34.5q-60 0 -108.5 -34t-58.5 -105l-61 5q13 84 73.5 134.5t158.5 50.5q97 0 154 -45t57 -123q0 -52 -28 -94t-82 -60q128 -34 128 -170q0 -94 -68.5 -145t-168.5 -51
q-98 0 -161.5 55t-75.5 139l61 5q15 -73 63 -110.5t112 -37.5z" />
    <glyph glyph-name="four" unicode="4" horiz-adv-x="571" 
d="M372 584l-293 -351h293v351zM561 233v-56h-131v-177h-58v177h-362v52l363 435h57v-431h131z" />
    <glyph glyph-name="five" unicode="5" horiz-adv-x="551" 
d="M276 39q74 0 124 47t50 131q0 87 -52 131t-124 44q-55 0 -99.5 -24.5t-59.5 -60.5l-56 6l43 351h381v-56h-331l-29 -226q24 27 70 44.5t95 17.5q97 0 160 -60t63 -166q0 -108 -68.5 -169t-166.5 -61t-161 55t-75 139l61 5q15 -73 63 -110.5t112 -37.5z" />
    <glyph glyph-name="six" unicode="6" horiz-adv-x="555" 
d="M110 211q0 -76 48 -124t124 -48t124 48t48 124q0 81 -47 129.5t-125 48.5t-125 -48.5t-47 -129.5zM293 625q-90 0 -142 -75t-52 -216q23 48 73.5 77t115.5 29q100 0 163.5 -63.5t63.5 -162.5q0 -96 -64.5 -161t-168.5 -65q-242 0 -242 317q0 169 62.5 270t199.5 101
q87 0 138.5 -44.5t63.5 -114.5l-62 -6q-9 57 -48.5 85.5t-100.5 28.5z" />
    <glyph glyph-name="seven" unicode="7" horiz-adv-x="470" 
d="M5 608v56h460v-56q-292 -213 -304 -608h-64q25 405 297 608h-389z" />
    <glyph glyph-name="eight" unicode="8" horiz-adv-x="562" 
d="M281 676q101 0 161 -46.5t60 -119.5q0 -56 -27.5 -96t-73.5 -58q121 -51 121 -172q0 -92 -67.5 -144t-173.5 -52t-173.5 52t-67.5 144q0 121 121 172q-46 18 -73.5 58t-27.5 96q0 73 60 119.5t161 46.5zM281 331q-82 0 -131 -40t-49 -107t49 -106t131 -39t131 39t49 106
t-49 107t-131 40zM442 501q0 58 -43.5 91t-117.5 33t-117.5 -33t-43.5 -91t43.5 -91t117.5 -33t117.5 33t43.5 91z" />
    <glyph glyph-name="nine" unicode="9" horiz-adv-x="543" 
d="M433 453q0 76 -48 124t-124 48t-124 -48t-48 -124q0 -81 47 -129.5t125 -48.5t125 48.5t47 129.5zM250 39q90 0 142 75t52 216q-24 -48 -74 -77t-115 -29q-100 0 -163.5 63.5t-63.5 162.5q0 96 64.5 161t168.5 65q242 0 242 -317q0 -169 -62.5 -270t-199.5 -101
q-87 0 -138.5 44.5t-63.5 114.5l62 6q9 -57 48.5 -85.5t100.5 -28.5z" />
    <glyph glyph-name="colon" unicode=":" horiz-adv-x="201" 
d="M60 0v87h81v-87h-81zM60 403v87h81v-87h-81z" />
    <glyph glyph-name="semicolon" unicode=";" horiz-adv-x="201" 
d="M59 403v87h81v-87h-81zM60 0v87h81v-94l-46 -121h-43l40 128h-32z" />
    <glyph glyph-name="less" unicode="&#x3c;" horiz-adv-x="547" 
d="M30 280l477 219v-63l-410 -184l410 -183v-63l-477 219v55z" />
    <glyph glyph-name="equal" unicode="=" horiz-adv-x="515" 
d="M475 323h-435v55h435v-55zM475 133h-435v55h435v-55z" />
    <glyph glyph-name="greater" unicode="&#x3e;" horiz-adv-x="547" 
d="M517 280v-55l-477 -219v63l410 183l-410 184v63z" />
    <glyph glyph-name="question" unicode="?" horiz-adv-x="440" 
d="M221 676q88 0 146 -41.5t58 -119.5q0 -59 -33 -101t-89 -81q-34 -24 -49 -37t-27 -37t-12 -58v-42h-59v42q0 62 25 95t89 79q31 23 47 36.5t31.5 41t15.5 60.5q0 53 -40.5 82.5t-107.5 29.5q-79 0 -118.5 -45t-39.5 -112l-60 1q0 101 63 154t160 53zM146 0v87h81v-87h-81
z" />
    <glyph glyph-name="at" unicode="@" horiz-adv-x="771" 
d="M580 147q-43 0 -68 28t-27 73q-46 -96 -150 -96q-58 0 -95 40t-37 119q0 88 54 153t139 65q44 0 72 -24.5t37 -62.5l10 70h47l-31 -211q-6 -40 6.5 -73t48.5 -33q44 0 74 48.5t30 132.5q0 122 -77 187t-203 65q-138 0 -224.5 -87.5t-86.5 -218.5q0 -126 75 -205t202 -79
q102 0 185 39l18 -48q-96 -41 -203 -41q-149 0 -240 94t-91 242q0 150 104 250.5t262 100.5q147 0 238.5 -77t91.5 -219q0 -106 -48 -169t-113 -63zM396 480q-60 0 -98.5 -49.5t-38.5 -120.5q0 -55 24 -82.5t66 -27.5q60 0 98 51.5t38 122.5q0 51 -23 78.5t-66 27.5z" />
    <glyph glyph-name="A" unicode="A" horiz-adv-x="583" 
d="M0 0l256 664h70l257 -664h-68l-65 169h-319l-64 -169h-67zM289 587l-136 -360h274z" />
    <glyph glyph-name="B" unicode="B" horiz-adv-x="606" 
d="M80 0v664h230q227 0 227 -168q0 -52 -24 -90.5t-63 -56.5q115 -33 115 -158q0 -99 -64 -145t-170 -46h-251zM142 316v-258h193q164 0 164 132q0 67 -41 96.5t-129 29.5h-187zM142 606v-234h180q73 0 111.5 27t38.5 93q0 114 -148 114h-182z" />
    <glyph glyph-name="C" unicode="C" horiz-adv-x="642" 
d="M553 203l65 -9q-22 -96 -95.5 -151t-186.5 -55q-142 0 -220.5 94t-78.5 250q0 157 80 250.5t222 93.5q109 0 181.5 -55t94.5 -151l-65 -9q-19 79 -77 117.5t-136 38.5q-103 0 -168.5 -75t-65.5 -210q0 -132 64.5 -208.5t169.5 -76.5q89 0 145 44t71 112z" />
    <glyph glyph-name="D" unicode="D" horiz-adv-x="636" 
d="M533 332q0 72 -19.5 124t-48.5 80.5t-74.5 44.5t-85.5 20.5t-93 4.5h-70v-548h70q53 0 93 4.5t85.5 20.5t74.5 44.5t48.5 80.5t19.5 124zM80 664h134q85 0 151 -16t120.5 -52.5t84 -103t29.5 -160.5t-29.5 -160.5t-84 -103t-120.5 -52.5t-151 -16h-134v664z" />
    <glyph glyph-name="E" unicode="E" horiz-adv-x="545" 
d="M80 0v664h432v-58h-370v-233h348v-58h-348v-257h370v-58h-432z" />
    <glyph glyph-name="F" unicode="F" horiz-adv-x="492" 
d="M80 0v664h412v-58h-350v-233h328v-58h-328v-315h-62z" />
    <glyph glyph-name="G" unicode="G" horiz-adv-x="692" 
d="M344 676q108 0 182 -54.5t96 -151.5l-65 -9q-19 79 -79 117.5t-136 38.5q-105 0 -172 -75t-67 -210q0 -132 64.5 -208.5t169.5 -76.5q32 0 62 5t60.5 19t52.5 36t36 58.5t14 83.5v25h-189v58h249v-332h-55l-1 95q-69 -107 -230 -107q-142 0 -220.5 94t-78.5 250
q0 157 82 250.5t225 93.5z" />
    <glyph glyph-name="H" unicode="H" horiz-adv-x="681" 
d="M539 664h62v-664h-62v315h-397v-315h-62v664h62v-291h397v291z" />
    <glyph glyph-name="I" unicode="I" horiz-adv-x="222" 
d="M142 664v-664h-62v664h62z" />
    <glyph glyph-name="J" unicode="J" horiz-adv-x="262" 
d="M30 0v58h8q60 0 71 15t11 85v506h62v-509q0 -97 -23 -126t-102 -29h-27z" />
    <glyph glyph-name="K" unicode="K" horiz-adv-x="572" 
d="M142 664v-337l340 337h80l-283 -282l294 -382h-77l-261 339l-93 -93v-246h-62v664h62z" />
    <glyph glyph-name="L" unicode="L" horiz-adv-x="499" 
d="M142 664v-606h357v-58h-419v664h62z" />
    <glyph glyph-name="M" unicode="M" horiz-adv-x="805" 
d="M434 0h-63l-229 604v-604h-62v664h100l223 -593l223 593h99v-664h-62v604z" />
    <glyph glyph-name="N" unicode="N" horiz-adv-x="681" 
d="M601 0h-90l-369 597v-597h-62v664h90l369 -598v598h62v-664z" />
    <glyph glyph-name="O" unicode="O" horiz-adv-x="691" 
d="M588 332q0 135 -67 210t-175 75t-175.5 -75t-67.5 -210t67.5 -210t175.5 -75t175 75t67 210zM654 332q0 -160 -84.5 -252t-224.5 -92q-142 0 -225 94.5t-83 249.5q0 154 85.5 249t224.5 95q140 0 223.5 -92t83.5 -252z" />
    <glyph glyph-name="P" unicode="P" horiz-adv-x="563" 
d="M80 664h192q133 0 204.5 -45t71.5 -159t-71 -157.5t-205 -43.5h-130v-259h-62v664zM280 606h-138v-289h138q37 0 64 2.5t55 11.5t45 24t28 41.5t11 63.5q0 45 -15.5 75t-45.5 45t-63 20.5t-79 5.5z" />
    <glyph glyph-name="Q" unicode="Q" horiz-adv-x="706" 
d="M654 332q0 -150 -77 -243l89 -88l-41 -40l-89 88q-78 -61 -191 -61q-142 0 -225 94.5t-83 249.5q0 154 85.5 249t224.5 95q140 0 223.5 -92t83.5 -252zM588 332q0 135 -68 210t-174 75q-107 0 -175 -75t-68 -210t68 -210t175 -75q85 0 145 48l-61 62l41 40l60 -61
q57 74 57 196z" />
    <glyph glyph-name="R" unicode="R" horiz-adv-x="587" 
d="M484 0l-150 289q-42 -2 -66 -2h-126v-287h-62v664h188q52 0 91 -4t75 -16t59 -32t36.5 -53.5t13.5 -79.5q0 -79 -37 -121.5t-107 -58.5l154 -299h-69zM276 606h-134v-261h134q48 0 79.5 4t62 17t45.5 40.5t15 70.5q0 35 -11 59t-27.5 37.5t-45 21t-54 9.5t-64.5 2z" />
    <glyph glyph-name="S" unicode="S" horiz-adv-x="565" 
d="M43 500q0 59 37 100.5t88 58.5t109 17q99 0 166 -47t85 -126l-65 -7q-36 121 -192 121q-39 0 -73.5 -9.5t-62 -36.5t-27.5 -68q0 -88 129 -116l80 -18q36 -8 62 -15.5t59.5 -23t54.5 -34t36 -48t15 -66.5q0 -92 -72 -143t-177 -51q-120 0 -192 59.5t-84 148.5l65 7
q34 -156 208 -156q31 0 61 5.5t59.5 18.5t47.5 39t18 62q0 56 -46.5 87.5t-127.5 49.5l-84 19q-177 40 -177 172z" />
    <glyph glyph-name="T" unicode="T" horiz-adv-x="516" 
d="M227 0v606h-227v58h516v-58h-227v-606h-62z" />
    <glyph glyph-name="U" unicode="U" horiz-adv-x="658" 
d="M70 664h62v-403q0 -111 45.5 -162.5t150.5 -51.5q106 0 152 56t46 169v392h62v-384q0 -151 -59.5 -221.5t-200.5 -70.5q-139 0 -198.5 64.5t-59.5 219.5v392z" />
    <glyph glyph-name="V" unicode="V" horiz-adv-x="566" 
d="M5 664h69l212 -587l208 587h67l-242 -664h-71z" />
    <glyph glyph-name="W" unicode="W" horiz-adv-x="844" 
d="M457 664l152 -582l168 582h67l-202 -664h-71l-149 555l-148 -555h-71l-203 664h69l172 -582l147 582h69z" />
    <glyph glyph-name="X" unicode="X" horiz-adv-x="586" 
d="M5 0l250 342l-232 322h77l194 -269l197 269h74l-234 -320l250 -344h-78l-211 291l-213 -291h-74z" />
    <glyph glyph-name="Y" unicode="Y" horiz-adv-x="533" 
d="M-10 664h70l202 -357l209 357h72l-252 -421v-243h-62v245z" />
    <glyph glyph-name="Z" unicode="Z" horiz-adv-x="574" 
d="M538 664v-56l-428 -550h437v-58h-512v56l428 550h-395v58h470z" />
    <glyph glyph-name="bracketleft" unicode="[" horiz-adv-x="230" 
d="M70 664h160v-55h-102v-727h102v-55h-160v837z" />
    <glyph glyph-name="backslash" unicode="\" horiz-adv-x="328" 
d="M59 664l269 -664h-59l-269 664h59z" />
    <glyph glyph-name="bracketright" unicode="]" horiz-adv-x="230" 
d="M0 664h160v-837h-160v55h102v727h-102v55z" />
    <glyph glyph-name="asciicircum" unicode="^" horiz-adv-x="386" 
d="M224 664l182 -360h-66l-147 287l-147 -287h-66l182 360h62z" />
    <glyph glyph-name="underscore" unicode="_" horiz-adv-x="373" 
d="M363 -59h-353v59h353v-59z" />
    <glyph glyph-name="grave" unicode="`" horiz-adv-x="212" 
d="M141 546l-121 118h88l84 -118h-51z" />
    <glyph glyph-name="a" unicode="a" horiz-adv-x="486" 
d="M112 345l-60 2q4 71 57 111t138 40q93 0 138.5 -37t45.5 -129q0 -51 -0.5 -104.5t-0.5 -67.5q0 -52 6 -160h-58l-4 76q-48 -88 -170 -88q-80 0 -125 43.5t-45 109.5q0 69 53 105q51 34 188 48l98 10v29q0 67 -35.5 90.5t-96.5 23.5t-93.5 -27.5t-35.5 -74.5zM376 225v30
l-107 -11q-92 -9 -133 -32.5t-41 -72.5q0 -45 33 -72.5t87 -27.5q71 0 116 45.5t45 140.5z" />
    <glyph glyph-name="b" unicode="b" 
d="M70 0v664h58v-256q52 90 169 90q89 0 146 -69t57 -187q0 -117 -59.5 -185.5t-153.5 -68.5q-50 0 -93.5 22t-65.5 65l-2 -75h-56zM285 447q-64 0 -112.5 -53t-48.5 -152q0 -100 47.5 -151.5t113.5 -51.5q70 0 112 54.5t42 148.5q0 95 -42 150t-112 55z" />
    <glyph glyph-name="c" unicode="c" horiz-adv-x="486" 
d="M260 498q81 0 135.5 -45.5t66.5 -110.5l-60 -8q-13 55 -52.5 83.5t-95.5 28.5q-68 0 -115 -53.5t-47 -148.5q0 -98 47 -151t116 -53q62 0 101 31.5t50 80.5l60 -8q-15 -71 -72.5 -113.5t-140.5 -42.5q-104 0 -163 70.5t-59 184.5q0 115 60.5 185t168.5 70z" />
    <glyph glyph-name="d" unicode="d" 
d="M461 664v-664h-57l-1 78q-53 -90 -169 -90q-89 0 -146 69t-57 187q0 117 59.5 185.5t153.5 68.5q50 0 93.5 -22t65.5 -65v253h58zM246 39q64 0 112.5 53t48.5 152q0 100 -47.5 151.5t-113.5 51.5q-70 0 -112 -54.5t-42 -148.5q0 -95 42 -150t112 -55z" />
    <glyph glyph-name="e" unicode="e" horiz-adv-x="515" 
d="M262 -12q-108 0 -169.5 70t-61.5 185q0 117 65 186t168 69q106 0 166.5 -74.5t54.5 -192.5h-394q0 -87 48.5 -139t126.5 -52q58 0 99 29t55 81l60 -8q-17 -72 -76 -113t-142 -41zM263 448q-71 0 -117.5 -44t-53.5 -123h330q0 68 -43.5 117.5t-115.5 49.5z" />
    <glyph glyph-name="f" unicode="f" horiz-adv-x="256" 
d="M84 490v62q0 64 23.5 88t92.5 24h41v-53h-29q-47 0 -58.5 -10.5t-11.5 -56.5v-54h99v-50h-99v-440h-58v440h-69v50h69z" />
    <glyph glyph-name="g" unicode="g" horiz-adv-x="527" 
d="M399 6v92q-55 -90 -163 -90q-88 0 -146.5 67.5t-58.5 178.5q0 110 61 177t154 67q48 0 89 -22t64 -65v79h58v-478q0 -100 -59 -149q-52 -43 -145 -43q-79 0 -132 38.5t-60 104.5l60 4q6 -43 39.5 -70t94.5 -27q68 0 102 27q42 34 42 109zM244 59q62 0 110.5 51.5
t48.5 143.5q0 93 -47 143t-111 50q-67 0 -110 -53t-43 -140q0 -88 42.5 -141.5t109.5 -53.5z" />
    <glyph glyph-name="h" unicode="h" horiz-adv-x="517" 
d="M128 664v-258q48 92 166 92q87 0 130 -52q38 -47 38 -141v-305h-58v290q0 81 -28 118q-29 39 -97 39q-65 0 -108 -49.5t-43 -128.5v-269h-58v664h58z" />
    <glyph glyph-name="i" unicode="i" horiz-adv-x="198" 
d="M70 490h58v-490h-58v490zM70 664h58v-92h-58v92z" />
    <glyph glyph-name="j" unicode="j" horiz-adv-x="198" 
d="M70 -41v531h58v-532q0 -77 -20 -104t-85 -27h-31v53h11q45 0 56 14t11 65zM70 664h58v-92h-58v92z" />
    <glyph glyph-name="k" unicode="k" horiz-adv-x="444" 
d="M70 664h58v-414l228 240h71l-189 -199l206 -291h-67l-177 251l-72 -76v-175h-58v664z" />
    <glyph glyph-name="l" unicode="l" horiz-adv-x="198" 
d="M128 664v-664h-58v664h58z" />
    <glyph glyph-name="m" unicode="m" horiz-adv-x="811" 
d="M70 0v490h58v-84q49 92 156 92q120 0 147 -105q51 105 167 105q80 0 119 -47q39 -46 39 -145v-306h-58v290q0 91 -31 126q-29 32 -87 32q-59 0 -98.5 -49.5t-39.5 -128.5v-270h-58v289q0 88 -28 123q-29 36 -90 36q-59 0 -98.5 -49.5t-39.5 -128.5v-270h-58z" />
    <glyph glyph-name="n" unicode="n" horiz-adv-x="517" 
d="M128 490v-84q48 92 166 92q87 0 130 -52q38 -47 38 -141v-305h-58v290q0 81 -28 118q-29 39 -97 39q-65 0 -108 -49.5t-43 -128.5v-269h-58v490h58z" />
    <glyph glyph-name="o" unicode="o" horiz-adv-x="514" 
d="M92 243q0 -99 46 -151.5t119 -52.5t119 52.5t46 151.5t-46 151.5t-119 52.5t-119 -52.5t-46 -151.5zM31 243q0 125 65.5 190t160.5 65t160.5 -65t65.5 -190t-65.5 -190t-160.5 -65t-160.5 65t-65.5 190z" />
    <glyph glyph-name="p" unicode="p" 
d="M128 75v-248h-58v663h57l1 -82q52 90 169 90q89 0 146 -69t57 -187q0 -117 -59.5 -185.5t-153.5 -68.5q-50 0 -93.5 22t-65.5 65zM285 447q-64 0 -112.5 -53t-48.5 -152q0 -100 47.5 -151.5t113.5 -51.5q70 0 112 54.5t42 148.5q0 95 -42 150t-112 55z" />
    <glyph glyph-name="q" unicode="q" 
d="M403 411l1 79h57v-663h-58v251q-53 -90 -169 -90q-89 0 -146 69t-57 187q0 117 59.5 185.5t153.5 68.5q50 0 93.5 -22t65.5 -65zM246 39q64 0 112.5 53t48.5 152q0 100 -47.5 151.5t-113.5 51.5q-70 0 -112 -54.5t-42 -148.5q0 -95 42 -150t112 -55z" />
    <glyph glyph-name="r" unicode="r" horiz-adv-x="290" 
d="M280 493v-62q-9 1 -26 1q-72 0 -99.5 -46t-27.5 -134v-252h-57v490h55v-84q16 43 53.5 65.5t84.5 22.5q11 0 17 -1z" />
    <glyph glyph-name="s" unicode="s" horiz-adv-x="476" 
d="M421 363l-60 -8q-12 43 -47 67.5t-87 24.5q-46 0 -84.5 -19t-38.5 -60q0 -65 90 -82l70 -13q37 -7 62 -14.5t52 -22.5t41 -39.5t14 -58.5q0 -71 -56 -110.5t-141 -39.5q-79 0 -133 41t-66 116l60 8q10 -55 48 -84.5t96 -29.5q50 0 92 22t42 68q0 40 -30 59t-90 30l-78 15
q-59 11 -95.5 43.5t-36.5 87.5q0 59 52.5 96.5t137.5 37.5q76 0 125 -38.5t61 -96.5z" />
    <glyph glyph-name="t" unicode="t" horiz-adv-x="280" 
d="M93 490v122h58v-122h99v-50h-99v-310q0 -51 10.5 -64.5t58.5 -13.5h30v-52h-48q-67 0 -88 22.5t-21 96.5v321h-83v50h83z" />
    <glyph glyph-name="u" unicode="u" horiz-adv-x="509" 
d="M381 0v80q-49 -92 -160 -92q-78 0 -119 44q-42 46 -42 151v307h58v-295q0 -88 30 -124q27 -33 82 -33q65 0 108 49.5t43 128.5v274h58v-490h-58z" />
    <glyph glyph-name="v" unicode="v" horiz-adv-x="433" 
d="M65 490l155 -410l151 410h62l-186 -490h-56l-191 490h65z" />
    <glyph glyph-name="w" unicode="w" horiz-adv-x="655" 
d="M175 91l123 399h58l128 -400l107 400h64l-145 -490h-54l-131 410l-127 -410h-53l-145 490h64z" />
    <glyph glyph-name="x" unicode="x" horiz-adv-x="445" 
d="M426 490l-171 -236l185 -254h-68l-151 206l-149 -206h-67l183 252l-173 238h69l138 -191l139 191h65z" />
    <glyph glyph-name="y" unicode="y" horiz-adv-x="433" 
d="M78 -173h-32v51h33q37 0 57.5 16t39.5 66l15 40l-191 490h65l155 -410l151 410h62l-205 -540q-29 -75 -56.5 -99t-93.5 -24z" />
    <glyph glyph-name="z" unicode="z" horiz-adv-x="446" 
d="M30 0v50l308 390h-288v50h356v-50l-308 -390h313v-50h-381z" />
    <glyph glyph-name="braceleft" unicode="{" horiz-adv-x="218" 
d="M197 -173q-70 0 -93 25t-23 94v170q0 50 -14 75t-57 28v54q43 3 57 28t14 75v169q0 69 23 94t93 25h21v-53h-9q-46 0 -58 -12t-12 -55v-170q0 -62 -17.5 -90t-56.5 -37v-2q39 -9 56.5 -37t17.5 -90v-171q0 -43 12 -55t58 -12h9v-53h-21z" />
    <glyph glyph-name="bar" unicode="|" horiz-adv-x="198" 
d="M70 664h58v-746h-58v746z" />
    <glyph glyph-name="braceright" unicode="}" horiz-adv-x="218" 
d="M0 -173v53h9q46 0 58 12t12 55v171q0 62 17.5 90t56.5 37v2q-39 9 -56.5 37t-17.5 90v170q0 43 -12 55t-58 12h-9v53h21q70 0 93 -25t23 -94v-169q0 -50 14 -75t57 -28v-54q-43 -3 -57 -28t-14 -75v-170q0 -69 -23 -94t-93 -25h-21z" />
    <glyph glyph-name="asciitilde" unicode="~" horiz-adv-x="496" 
d="M353 241q27 0 44.5 17t19.5 51h59q-4 -59 -37 -90t-86 -31q-40 0 -110 34t-100 34q-27 0 -44.5 -17t-19.5 -51h-59q4 59 37 90t86 31q48 0 117 -34t93 -34z" />
    <glyph glyph-name="exclamdown" unicode="&#xa1;" horiz-adv-x="201" 
d="M133 27v-200h-64v200l15 285h34zM60 490h81v-87h-81v87z" />
    <glyph glyph-name="cent" unicode="&#xa2;" horiz-adv-x="478" 
d="M462 342l-60 -8q-12 48 -44.5 76.5t-79.5 33.5v-403q52 6 85 36.5t43 74.5l60 -8q-14 -66 -64 -107t-124 -48v-84h-50v85q-93 8 -145 77t-52 176q0 106 52 174.5t145 78.5v86h50v-85q74 -5 123.5 -50t60.5 -105zM92 244q0 -88 38 -140t98 -62v402q-59 -10 -97.5 -62
t-38.5 -138z" />
    <glyph glyph-name="sterling" unicode="&#xa3;" horiz-adv-x="557" 
d="M289 625q-29 0 -55 -5t-51 -17t-40 -35.5t-15 -55.5q0 -11 1.5 -22.5t6 -23.5t7.5 -21t10.5 -23t11 -20.5t13 -23t12.5 -21.5h190v-42h-168q20 -47 20 -80q0 -51 -27 -97.5t-65 -70.5l1 -1q39 12 68 12t86 -19t88 -19q55 0 110 22l21 -53q-61 -26 -122 -26
q-35 0 -101.5 19t-103.5 19q-77 0 -138 -32l-20 46q22 11 43 25.5t45 37.5t39 56.5t15 70.5q0 40 -24 90h-120v42h99q-2 4 -9 16t-9.5 17t-9 16t-9 17t-7 16t-6.5 17.5t-4.5 17.5t-3.5 19t-1 18q0 83 66.5 124t157.5 41q101 0 162 -58t63 -152l-62 -1q-2 81 -48 120.5
t-117 39.5z" />
    <glyph glyph-name="currency" unicode="&#xa4;" horiz-adv-x="591" 
d="M73 322q0 75 42 131l-63 65l42 41l63 -63q59 48 136 48t139 -49l65 64l42 -41l-66 -66q42 -60 42 -130q0 -71 -42 -129l66 -67l-42 -41l-66 65q-61 -48 -138 -48q-76 0 -135 46l-64 -63l-42 41l64 65q-43 57 -43 131zM131 322q0 -72 45.5 -120.5t115.5 -48.5
q73 0 120 48.5t47 120.5q0 73 -47 122.5t-120 49.5q-70 0 -115.5 -49.5t-45.5 -122.5z" />
    <glyph glyph-name="yen" unicode="&#xa5;" horiz-adv-x="553" 
d="M454 93h-155v-93h-58v93h-142v55h142v55h-142v55h134l-231 406h65l205 -365l212 365h67l-243 -406h146v-55h-155v-55h155v-55z" />
    <glyph glyph-name="brokenbar" unicode="&#xa6;" horiz-adv-x="198" 
d="M70 664h58v-284h-58v284zM70 201h58v-284h-58v284z" />
    <glyph glyph-name="section" unicode="&#xa7;" horiz-adv-x="523" 
d="M260 -128q52 0 85 22.5t33 62.5q0 66 -101 120l-124 67q-62 33 -92.5 69.5t-30.5 88.5q0 45 32.5 81.5t81.5 59.5q-62 47 -62 112q0 57 50 89t120 32q80 0 131.5 -39.5t58.5 -111.5l-62 -1q-17 101 -132 101q-49 0 -78 -18t-29 -50q0 -29 19.5 -51t65.5 -47l133 -72
q68 -37 101 -71.5t33 -84.5q0 -97 -111 -155q56 -48 56 -110q0 -67 -51 -106t-128 -39q-79 0 -130.5 40.5t-61.5 113.5l62 2q18 -105 131 -105zM197 410l-8 4q-100 -44 -100 -109q0 -33 18 -57t66 -50l133 -72q4 -2 16.5 -9t18.5 -11q91 49 91 113q0 36 -25 63.5t-81 57.5z
" />
    <glyph glyph-name="dieresis" unicode="&#xa8;" horiz-adv-x="284" 
d="M20 559v92h58v-92h-58zM206 651h58v-92h-58v92z" />
    <glyph glyph-name="copyright" unicode="&#xa9;" horiz-adv-x="767" 
d="M40 331q0 150 99.5 247t244.5 97q144 0 243.5 -97t99.5 -247t-99.5 -246.5t-243.5 -96.5q-146 0 -245 96t-99 247zM96 331q0 -130 82.5 -212t205.5 -82q124 0 205.5 82t81.5 212q0 131 -81.5 212.5t-205.5 81.5q-123 0 -205.5 -82t-82.5 -212zM381 193q36 0 66.5 18.5
t40.5 54.5l53 -16q-16 -47 -56.5 -77t-103.5 -30q-80 0 -125 51t-45 140q0 88 47 138t127 50q61 0 100 -31t53 -81l-52 -18q-9 37 -38.5 58t-66.5 21q-47 0 -80 -35.5t-33 -101.5q0 -65 33 -103t80 -38z" />
    <glyph glyph-name="ordfeminine" unicode="&#xaa;" horiz-adv-x="312" 
d="M88 585l-47 2q2 42 35 65.5t82 23.5q59 0 85 -24.5t25 -81.5v-18v-34l-1 -18q-1 -36 5 -108h-46l-2 39q-28 -46 -94 -46q-46 0 -72 26.5t-26 64.5q0 43 37 63q32 18 96 25l54 6v10q0 57 -64 57q-62 0 -67 -52zM223 513v16l-58 -5q-82 -7 -82 -50q0 -21 15.5 -33.5
t40.5 -12.5q34 0 59 20.5t25 64.5z" />
    <glyph glyph-name="guillemotleft" unicode="&#xab;" horiz-adv-x="427" 
d="M157 43l-147 210l146 211h61l-139 -210l139 -211h-60zM347 43l-147 210l146 211h61l-139 -210l139 -211h-60z" />
    <glyph glyph-name="logicalnot" unicode="&#xac;" horiz-adv-x="575" 
d="M447 345h-427v55h485v-309h-58v254z" />
    <glyph glyph-name="registered" unicode="&#xae;" horiz-adv-x="767" 
d="M40 331q0 150 99.5 247t244.5 97q144 0 243.5 -97t99.5 -247t-99.5 -246.5t-243.5 -96.5q-146 0 -245 96t-99 247zM96 331q0 -130 82.5 -212t205.5 -82q124 0 205.5 82t81.5 212q0 131 -81.5 212.5t-205.5 81.5q-123 0 -205.5 -82t-82.5 -212zM489 160l-75 143
q-7 -1 -22 -1h-84v-142h-53v364h109q88 0 129.5 -22.5t41.5 -87.5q0 -69 -68 -99l83 -155h-61zM478 413q0 57 -92 57h-78v-116h82q88 0 88 59z" />
    <glyph glyph-name="macron" unicode="&#xaf;" horiz-adv-x="298" 
d="M278 581h-258v50h258v-50z" />
    <glyph glyph-name="degree" unicode="&#xb0;" horiz-adv-x="313" 
d="M20 539q0 57 40 97t96 40q57 0 97 -39.5t40 -97.5q0 -57 -40 -96.5t-97 -39.5q-56 0 -96 39.5t-40 96.5zM80 539q0 -36 21 -60.5t55 -24.5q35 0 56.5 24.5t21.5 60.5t-21.5 61t-56.5 25q-34 0 -55 -25t-21 -61z" />
    <glyph glyph-name="plusminus" unicode="&#xb1;" horiz-adv-x="588" 
d="M265 327v167h58v-167h225v-55h-225v-172h-58v172h-225v55h225zM548 0h-508v55h508v-55z" />
    <glyph glyph-name="two.superior" unicode="&#xb2;" horiz-adv-x="332" 
d="M168 793q55 0 88.5 -26.5t33.5 -74.5q0 -32 -14 -62t-48 -63.5t-58.5 -54t-75.5 -60.5h207v-45h-276v44q114 84 164 135.5t50 98.5q0 30 -19 47.5t-53 17.5t-57.5 -20.5t-24.5 -64.5l-50 1q-1 56 36 91.5t97 35.5z" />
    <glyph glyph-name="three.superior" unicode="&#xb3;" horiz-adv-x="329" 
d="M158 443q38 0 62 18.5t24 51.5q0 72 -110 72h-8v43h6q102 0 102 64q0 28 -21 43t-53 15q-76 0 -83 -72l-50 4q4 49 40 80t94 31q54 0 89 -23.5t35 -73.5q0 -62 -62 -87q73 -23 73 -95q0 -55 -40.5 -84.5t-98.5 -29.5q-63 0 -97.5 33.5t-38.5 82.5l50 4q8 -77 87 -77z" />
    <glyph glyph-name="acute" unicode="&#xb4;" horiz-adv-x="212" 
d="M192 664l-121 -118h-51l84 118h88z" />
    <glyph glyph-name="mu" unicode="&#xb5;" horiz-adv-x="519" 
d="M62 -173q8 40 8 143v520h58v-261q0 -91 35 -141t97 -50t96.5 50t34.5 141v261h58v-490h-58v80q-37 -92 -131 -92q-95 0 -132 92v-102q0 -98 -9 -151h-57z" />
    <glyph glyph-name="mu" unicode="&#x3bc;" horiz-adv-x="519" 
d="M62 -173q8 40 8 143v520h58v-261q0 -91 35 -141t97 -50t96.5 50t34.5 141v261h58v-490h-58v80q-37 -92 -131 -92q-95 0 -132 92v-102q0 -98 -9 -151h-57z" />
    <glyph glyph-name="paragraph" unicode="&#xb6;" horiz-adv-x="457" 
d="M0 489q0 83 57 129t167 46h163v-747h-58v692h-107v-692h-58v408q-69 8 -116.5 49.5t-47.5 114.5z" />
    <glyph glyph-name="periodcentered" unicode="&#xb7;" horiz-adv-x="201" 
d="M60 211v87h81v-87h-81z" />
    <glyph glyph-name="cedilla" unicode="&#xb8;" horiz-adv-x="203" 
d="M20 -168l13 37q21 -8 45 -8q53 0 53 29q0 28 -40 28q-23 0 -36 -8l-19 14l49 79h39l-30 -48q11 2 24 2q28 0 46.5 -17t18.5 -45q0 -35 -28 -53.5t-67 -18.5t-68 9z" />
    <glyph glyph-name="one.superior" unicode="&#xb9;" horiz-adv-x="207" 
d="M151 407h-48v295h-89v34q44 1 66.5 10.5t37.5 39.5h33v-379z" />
    <glyph glyph-name="ordmasculine" unicode="&#xba;" horiz-adv-x="320" 
d="M80 531q0 -52 21.5 -77.5t58.5 -25.5q36 0 58 25.5t22 77.5t-22 77.5t-58 25.5q-37 0 -58.5 -25.5t-21.5 -77.5zM28 531q0 71 38 108t94 37q55 0 93 -37t38 -108t-38 -108.5t-93 -37.5q-56 0 -94 37t-38 109z" />
    <glyph glyph-name="guillemotright" unicode="&#xbb;" horiz-adv-x="427" 
d="M417 253l-147 -210h-60l139 211l-139 210h61zM227 253l-147 -210h-60l139 211l-139 210h61z" />
    <glyph glyph-name="onequarter" unicode="&#xbc;" horiz-adv-x="800" 
d="M215 285h-48v295h-89v34q44 1 66.5 10.5t37.5 39.5h33v-379zM157 0h-64l465 664h64zM602 312l-136 -172h136v172zM721 140v-45h-70v-95h-49v95h-190v45l190 239h49v-239h70z" />
    <glyph glyph-name="onehalf" unicode="&#xbd;" horiz-adv-x="800" 
d="M223 285h-48v295h-89v34q44 1 66.5 10.5t37.5 39.5h33v-379zM165 0h-64l465 664h64zM580 386q55 0 88.5 -26.5t33.5 -74.5q0 -32 -14 -62t-48 -63.5t-58.5 -54t-75.5 -60.5h207v-45h-276v44q114 84 164 135.5t50 98.5q0 30 -19 47.5t-53 17.5t-57.5 -20.5t-24.5 -64.5
l-50 1q-1 56 36 91.5t97 35.5z" />
    <glyph glyph-name="threequarters" unicode="&#xbe;" horiz-adv-x="800" 
d="M181 321q38 0 62 18.5t24 51.5q0 72 -110 72h-8v43h6q102 0 102 64q0 28 -21 43t-53 15q-76 0 -83 -72l-50 4q4 49 40 80t94 31q54 0 89 -23.5t35 -73.5q0 -62 -62 -87q73 -23 73 -95q0 -55 -40.5 -84.5t-98.5 -29.5q-63 0 -97.5 33.5t-38.5 82.5l50 4q8 -77 87 -77z
M128 0h64l465 664h-64zM501 140l136 172v-172h-136zM756 95v45h-70v239h-49l-190 -239v-45h190v-95h49v95h70z" />
    <glyph glyph-name="questiondown" unicode="&#xbf;" horiz-adv-x="440" 
d="M204 -180q-84 0 -144 41.5t-60 119.5q0 59 33 101t89 81q34 24 49 37t27 37t12 58v22h59v-22q0 -62 -25 -95t-89 -79q-31 -23 -47 -36.5t-31.5 -41t-15.5 -60.5q0 -53 40.5 -82.5t107.5 -29.5q76 0 114.5 42t42.5 95l59 -1q-4 -84 -66.5 -135.5t-154.5 -51.5zM279 490
v-87h-81v87h81z" />
    <glyph glyph-name="Agrave" unicode="&#xc0;" horiz-adv-x="583" 
d="M0 0l256 664h70l257 -664h-68l-65 169h-319l-64 -169h-67zM289 587l-136 -360h274zM323 698l-142 105h100l102 -105h-60z" />
    <glyph glyph-name="Aacute" unicode="&#xc1;" horiz-adv-x="583" 
d="M0 0l256 664h70l257 -664h-68l-65 169h-319l-64 -169h-67zM289 587l-136 -360h274zM412 803l-142 -105h-60l102 105h100z" />
    <glyph glyph-name="Acircumflex" unicode="&#xc2;" horiz-adv-x="583" 
d="M0 0l256 664h70l257 -664h-68l-65 169h-319l-64 -169h-67zM289 587l-136 -360h274zM330 803l122 -105h-69l-93 62l-94 -62h-69l125 105h78z" />
    <glyph glyph-name="Atilde" unicode="&#xc3;" horiz-adv-x="583" 
d="M0 0l256 664h70l257 -664h-68l-65 169h-319l-64 -169h-67zM289 587l-136 -360h274zM350 755q37 0 46 42h51q-8 -43 -32.5 -68t-60.5 -25q-28 0 -67 21.5t-53 21.5q-34 0 -45 -43h-50q6 44 32.5 68.5t61.5 24.5q28 0 65.5 -21t51.5 -21z" />
    <glyph glyph-name="Adieresis" unicode="&#xc4;" horiz-adv-x="583" 
d="M0 0l256 664h70l257 -664h-68l-65 169h-319l-64 -169h-67zM289 587l-136 -360h274zM167 796h62v-92h-62v92zM349 796h62v-92h-62v92z" />
    <glyph glyph-name="Aring" unicode="&#xc5;" horiz-adv-x="583" 
d="M0 0l256 664h70l257 -664h-68l-65 169h-319l-64 -169h-67zM289 587l-136 -360h274zM288 847q35 0 59.5 -22.5t24.5 -56.5t-24 -56.5t-60 -22.5t-60 22.5t-24 56.5t24.5 56.5t59.5 22.5zM288 808q-16 0 -28 -11.5t-12 -28.5t12 -28t28 -11t28 11t12 28t-12 28.5t-28 11.5z
" />
    <glyph glyph-name="AE" unicode="&#xc6;" horiz-adv-x="878" 
d="M413 664h432v-58h-370v-233h348v-58h-348v-257h370v-58h-432v169h-242l-104 -169h-67zM413 559l-206 -332h206v332z" />
    <glyph glyph-name="Ccedilla" unicode="&#xc7;" horiz-adv-x="642" 
d="M247 -168l13 37q21 -8 45 -8q53 0 53 29q0 28 -40 28q-23 0 -36 -8l-19 14l40 66q-127 10 -196.5 102.5t-69.5 239.5q0 157 80 250.5t222 93.5q109 0 181.5 -55t94.5 -151l-65 -9q-19 79 -77 117.5t-136 38.5q-103 0 -168.5 -75t-65.5 -210q0 -132 64.5 -208.5
t169.5 -76.5q89 0 145 44t71 112l65 -9q-22 -95 -94 -150t-183 -56l-20 -33q11 2 24 2q28 0 46.5 -17t18.5 -45q0 -35 -28 -53.5t-67 -18.5t-68 9z" />
    <glyph glyph-name="Egrave" unicode="&#xc8;" horiz-adv-x="545" 
d="M80 0v664h432v-58h-370v-233h348v-58h-348v-257h370v-58h-432zM302 698l-142 105h100l102 -105h-60z" />
    <glyph glyph-name="Eacute" unicode="&#xc9;" horiz-adv-x="545" 
d="M80 0v664h432v-58h-370v-233h348v-58h-348v-257h370v-58h-432zM423 803l-142 -105h-60l102 105h100z" />
    <glyph glyph-name="Ecircumflex" unicode="&#xca;" horiz-adv-x="545" 
d="M80 0v664h432v-58h-370v-233h348v-58h-348v-257h370v-58h-432zM335 803l122 -105h-69l-93 62l-94 -62h-69l125 105h78z" />
    <glyph glyph-name="Edieresis" unicode="&#xcb;" horiz-adv-x="545" 
d="M80 0v664h432v-58h-370v-233h348v-58h-348v-257h370v-58h-432zM178 796h62v-92h-62v92zM360 796h62v-92h-62v92z" />
    <glyph glyph-name="Igrave" unicode="&#xcc;" horiz-adv-x="222" 
d="M142 664v-664h-62v664h62zM82 698l-142 105h100l102 -105h-60z" />
    <glyph glyph-name="Iacute" unicode="&#xcd;" horiz-adv-x="222" 
d="M142 664v-664h-62v664h62zM283 803l-142 -105h-60l102 105h100z" />
    <glyph glyph-name="Icircumflex" unicode="&#xce;" horiz-adv-x="222" 
d="M151 803l92 -105h-69l-63 62l-64 -62h-69l95 105h78zM142 664v-664h-62v664h62z" />
    <glyph glyph-name="Idieresis" unicode="&#xcf;" horiz-adv-x="222" 
d="M0 796h62v-92h-62v92zM160 796h62v-92h-62v92zM142 664v-664h-62v664h62z" />
    <glyph glyph-name="Eth" unicode="&#xd0;" horiz-adv-x="645" 
d="M90 664h134q85 0 151 -16t120.5 -52.5t83.5 -103t29 -160.5t-29 -160.5t-83.5 -103t-120.5 -52.5t-151 -16h-134v315h-80v58h80v291zM309 315h-157v-257h70q53 0 93 4.5t85.5 20.5t74.5 44.5t48.5 80.5t19.5 124t-19.5 124t-48.5 80.5t-74.5 44.5t-85.5 20.5t-93 4.5h-70
v-233h157v-58z" />
    <glyph glyph-name="Ntilde" unicode="&#xd1;" horiz-adv-x="681" 
d="M601 0h-90l-369 597v-597h-62v664h90l369 -598v598h62v-664zM416 755q37 0 46 42h51q-8 -43 -32.5 -68t-60.5 -25q-28 0 -67 21.5t-53 21.5q-34 0 -45 -43h-50q6 44 32.5 68.5t61.5 24.5q28 0 65.5 -21t51.5 -21z" />
    <glyph glyph-name="Ograve" unicode="&#xd2;" horiz-adv-x="691" 
d="M588 332q0 135 -67 210t-175 75t-175.5 -75t-67.5 -210t67.5 -210t175.5 -75t175 75t67 210zM654 332q0 -160 -84.5 -252t-224.5 -92q-142 0 -225 94.5t-83 249.5q0 154 85.5 249t224.5 95q140 0 223.5 -92t83.5 -252zM363 698l-142 105h100l102 -105h-60z" />
    <glyph glyph-name="Oacute" unicode="&#xd3;" horiz-adv-x="691" 
d="M588 332q0 135 -67 210t-175 75t-175.5 -75t-67.5 -210t67.5 -210t175.5 -75t175 75t67 210zM654 332q0 -160 -84.5 -252t-224.5 -92q-142 0 -225 94.5t-83 249.5q0 154 85.5 249t224.5 95q140 0 223.5 -92t83.5 -252zM469 803l-142 -105h-60l102 105h100z" />
    <glyph glyph-name="Ocircumflex" unicode="&#xd4;" horiz-adv-x="691" 
d="M588 332q0 135 -67 210t-175 75t-175.5 -75t-67.5 -210t67.5 -210t175.5 -75t175 75t67 210zM654 332q0 -160 -84.5 -252t-224.5 -92q-142 0 -225 94.5t-83 249.5q0 154 85.5 249t224.5 95q140 0 223.5 -92t83.5 -252zM384 803l122 -105h-69l-93 62l-94 -62h-69l125 105
h78z" />
    <glyph glyph-name="Otilde" unicode="&#xd5;" horiz-adv-x="691" 
d="M588 332q0 135 -67 210t-175 75t-175.5 -75t-67.5 -210t67.5 -210t175.5 -75t175 75t67 210zM654 332q0 -160 -84.5 -252t-224.5 -92q-142 0 -225 94.5t-83 249.5q0 154 85.5 249t224.5 95q140 0 223.5 -92t83.5 -252zM400 755q37 0 46 42h51q-8 -43 -32.5 -68t-60.5 -25
q-28 0 -67 21.5t-53 21.5q-34 0 -45 -43h-50q6 44 32.5 68.5t61.5 24.5q28 0 65.5 -21t51.5 -21z" />
    <glyph glyph-name="Odieresis" unicode="&#xd6;" horiz-adv-x="691" 
d="M588 332q0 135 -67 210t-175 75t-175.5 -75t-67.5 -210t67.5 -210t175.5 -75t175 75t67 210zM654 332q0 -160 -84.5 -252t-224.5 -92q-142 0 -225 94.5t-83 249.5q0 154 85.5 249t224.5 95q140 0 223.5 -92t83.5 -252zM224 796h62v-92h-62v92zM406 796h62v-92h-62v92z
" />
    <glyph glyph-name="multiply" unicode="&#xd7;" horiz-adv-x="468" 
d="M448 78l-41 -41l-173 173l-173 -173l-41 41l173 173l-173 173l41 41l173 -173l173 173l41 -41l-173 -173z" />
    <glyph glyph-name="Oslash" unicode="&#xd8;" horiz-adv-x="695" 
d="M655 332q0 -159 -84.5 -251.5t-223.5 -92.5q-120 0 -200 71l-61 -72l-37 33l63 74q-72 92 -72 238q0 153 85.5 248.5t223.5 95.5q119 0 200 -70l61 72l38 -32l-65 -76q72 -92 72 -238zM590 332q0 112 -51 187l-351 -412q63 -60 160 -60q106 0 174 75t68 210zM105 332
q0 -115 50 -187l352 412q-65 60 -159 60q-107 0 -175 -75t-68 -210z" />
    <glyph glyph-name="Ugrave" unicode="&#xd9;" horiz-adv-x="658" 
d="M70 664h62v-403q0 -111 45.5 -162.5t150.5 -51.5q106 0 152 56t46 169v392h62v-384q0 -151 -59.5 -221.5t-200.5 -70.5q-139 0 -198.5 64.5t-59.5 219.5v392zM347 698l-142 105h100l102 -105h-60z" />
    <glyph glyph-name="Uacute" unicode="&#xda;" horiz-adv-x="658" 
d="M70 664h62v-403q0 -111 45.5 -162.5t150.5 -51.5q106 0 152 56t46 169v392h62v-384q0 -151 -59.5 -221.5t-200.5 -70.5q-139 0 -198.5 64.5t-59.5 219.5v392zM456 803l-142 -105h-60l102 105h100z" />
    <glyph glyph-name="Ucircumflex" unicode="&#xdb;" horiz-adv-x="658" 
d="M70 664h62v-403q0 -111 45.5 -162.5t150.5 -51.5q106 0 152 56t46 169v392h62v-384q0 -151 -59.5 -221.5t-200.5 -70.5q-139 0 -198.5 64.5t-59.5 219.5v392zM368 803l122 -105h-69l-93 62l-94 -62h-69l125 105h78z" />
    <glyph glyph-name="Udieresis" unicode="&#xdc;" horiz-adv-x="658" 
d="M70 664h62v-403q0 -111 45.5 -162.5t150.5 -51.5q106 0 152 56t46 169v392h62v-384q0 -151 -59.5 -221.5t-200.5 -70.5q-139 0 -198.5 64.5t-59.5 219.5v392zM207 796h62v-92h-62v92zM389 796h62v-92h-62v92z" />
    <glyph glyph-name="Yacute" unicode="&#xdd;" horiz-adv-x="533" 
d="M-10 664h70l202 -357l209 357h72l-252 -421v-243h-62v245zM382 803l-142 -105h-60l102 105h100z" />
    <glyph glyph-name="Thorn" unicode="&#xde;" horiz-adv-x="558" 
d="M142 540h130q133 0 204.5 -45t71.5 -159t-71 -157.5t-205 -43.5h-130v-135h-62v664h62v-124zM280 482h-138v-289h138q37 0 64 2.5t55 11.5t45 24t28 41.5t11 63.5q0 45 -15.5 75t-45.5 45t-63 20.5t-79 5.5z" />
    <glyph glyph-name="germandbls" unicode="&#xdf;" horiz-adv-x="569" 
d="M128 0h-58v444q0 109 35 158q52 74 185 74q89 0 144 -42t55 -113q0 -110 -100 -147q68 -12 108.5 -60.5t40.5 -124.5q0 -102 -66.5 -151.5t-172.5 -49.5q-54 0 -95 7l10 56q41 -9 90 -9q75 0 124 34t49 111q0 78 -54.5 116t-146.5 38h-8v55h9q73 0 112.5 31.5t39.5 85.5
q0 51 -38.5 81.5t-101.5 30.5q-97 0 -133 -51q-28 -39 -28 -136v-438z" />
    <glyph glyph-name="agrave" unicode="&#xe0;" horiz-adv-x="486" 
d="M52 347l60 -2q3 47 35.5 74.5t93.5 27.5t96.5 -23.5t35.5 -90.5v-29l-98 -10q-137 -14 -188 -48q-53 -36 -53 -105q0 -66 45 -109.5t125 -43.5q122 0 170 88l4 -76h58q-6 108 -6 160q0 14 0.5 67.5t0.5 104.5q0 92 -45.5 129t-138.5 37q-85 0 -138 -40t-57 -111zM376 225
q0 -95 -45 -140.5t-116 -45.5q-54 0 -87 27.5t-33 72.5q0 49 41 72.5t133 32.5l107 11v-30zM248 546l-121 118h88l84 -118h-51z" />
    <glyph glyph-name="aacute" unicode="&#xe1;" horiz-adv-x="486" 
d="M52 347l60 -2q3 47 35.5 74.5t93.5 27.5t96.5 -23.5t35.5 -90.5v-29l-98 -10q-137 -14 -188 -48q-53 -36 -53 -105q0 -66 45 -109.5t125 -43.5q122 0 170 88l4 -76h58q-6 108 -6 160q0 14 0.5 67.5t0.5 104.5q0 92 -45.5 129t-138.5 37q-85 0 -138 -40t-57 -111zM376 225
q0 -95 -45 -140.5t-116 -45.5q-54 0 -87 27.5t-33 72.5q0 49 41 72.5t133 32.5l107 11v-30zM370 664l-121 -118h-51l84 118h88z" />
    <glyph glyph-name="acircumflex" unicode="&#xe2;" horiz-adv-x="486" 
d="M52 347l60 -2q3 47 35.5 74.5t93.5 27.5t96.5 -23.5t35.5 -90.5v-29l-98 -10q-137 -14 -188 -48q-53 -36 -53 -105q0 -66 45 -109.5t125 -43.5q122 0 170 88l4 -76h58q-6 108 -6 160q0 14 0.5 67.5t0.5 104.5q0 92 -45.5 129t-138.5 37q-85 0 -138 -40t-57 -111zM376 225
q0 -95 -45 -140.5t-116 -45.5q-54 0 -87 27.5t-33 72.5q0 49 41 72.5t133 32.5l107 11v-30zM282 664l115 -118h-59l-90 71l-91 -71h-59l118 118h66z" />
    <glyph glyph-name="atilde" unicode="&#xe3;" horiz-adv-x="486" 
d="M52 347l60 -2q3 47 35.5 74.5t93.5 27.5t96.5 -23.5t35.5 -90.5v-29l-98 -10q-137 -14 -188 -48q-53 -36 -53 -105q0 -66 45 -109.5t125 -43.5q122 0 170 88l4 -76h58q-6 108 -6 160q0 14 0.5 67.5t0.5 104.5q0 92 -45.5 129t-138.5 37q-85 0 -138 -40t-57 -111zM376 225
q0 -95 -45 -140.5t-116 -45.5q-54 0 -87 27.5t-33 72.5q0 49 41 72.5t133 32.5l107 11v-30zM304 608q37 0 46 42h51q-8 -43 -32.5 -68t-60.5 -25q-28 0 -67 21.5t-53 21.5q-34 0 -45 -43h-50q6 44 32.5 68.5t61.5 24.5q28 0 65.5 -21t51.5 -21z" />
    <glyph glyph-name="adieresis" unicode="&#xe4;" horiz-adv-x="486" 
d="M52 347l60 -2q3 47 35.5 74.5t93.5 27.5t96.5 -23.5t35.5 -90.5v-29l-98 -10q-137 -14 -188 -48q-53 -36 -53 -105q0 -66 45 -109.5t125 -43.5q122 0 170 88l4 -76h58q-6 108 -6 160q0 14 0.5 67.5t0.5 104.5q0 92 -45.5 129t-138.5 37q-85 0 -138 -40t-57 -111zM376 225
q0 -95 -45 -140.5t-116 -45.5q-54 0 -87 27.5t-33 72.5q0 49 41 72.5t133 32.5l107 11v-30zM124 559v92h58v-92h-58zM310 651h58v-92h-58v92z" />
    <glyph glyph-name="aring" unicode="&#xe5;" horiz-adv-x="486" 
d="M52 347l60 -2q3 47 35.5 74.5t93.5 27.5t96.5 -23.5t35.5 -90.5v-29l-98 -10q-137 -14 -188 -48q-53 -36 -53 -105q0 -66 45 -109.5t125 -43.5q122 0 170 88l4 -76h58q-6 108 -6 160q0 14 0.5 67.5t0.5 104.5q0 92 -45.5 129t-138.5 37q-85 0 -138 -40t-57 -111zM376 225
q0 -95 -45 -140.5t-116 -45.5q-54 0 -87 27.5t-33 72.5q0 49 41 72.5t133 32.5l107 11v-30zM244 696q35 0 59.5 -22.5t24.5 -56.5t-24 -56.5t-60 -22.5t-60 22.5t-24 56.5t24.5 56.5t59.5 22.5zM244 659q-17 0 -29.5 -12t-12.5 -30t12.5 -29.5t29.5 -11.5t29.5 11.5
t12.5 29.5t-12.5 30t-29.5 12z" />
    <glyph glyph-name="ae" unicode="&#xe6;" horiz-adv-x="855" 
d="M114 345l-60 2q7 69 59 110t135 41q137 0 171 -96q61 96 183 96q107 0 167.5 -74t55.5 -193h-394q0 -87 48 -139t124 -52q125 0 157 110l60 -8q-18 -74 -77.5 -114t-143.5 -40q-143 0 -196 120q-54 -120 -199 -120q-80 0 -125 43.5t-45 109.5q0 67 53 103q52 37 188 50
l98 10v26q0 68 -35.5 92.5t-95.5 24.5t-91 -27.5t-37 -74.5zM215 39q71 0 116 45.5t45 140.5v30l-107 -11q-92 -9 -133 -32.5t-41 -72.5q0 -45 33 -72.5t87 -27.5zM432 281h330q0 68 -43.5 117.5t-118.5 49.5q-68 0 -114.5 -44.5t-53.5 -122.5z" />
    <glyph glyph-name="ccedilla" unicode="&#xe7;" horiz-adv-x="486" 
d="M168 -168l13 37q21 -8 45 -8q53 0 53 29q0 28 -40 28q-23 0 -36 -8l-19 14l41 66q-92 9 -143 78t-51 175q0 115 60.5 185t168.5 70q81 0 135.5 -45.5t66.5 -110.5l-60 -8q-13 55 -52.5 83.5t-95.5 28.5q-68 0 -115 -53.5t-47 -148.5q0 -98 47 -151t116 -53q62 0 101 31.5
t50 80.5l60 -8q-15 -69 -69.5 -111t-134.5 -45l-20 -33q11 2 24 2q28 0 46.5 -17t18.5 -45q0 -35 -28 -53.5t-67 -18.5t-68 9z" />
    <glyph glyph-name="egrave" unicode="&#xe8;" horiz-adv-x="515" 
d="M262 -12q-108 0 -169.5 70t-61.5 185q0 117 65 186t168 69q106 0 166.5 -74.5t54.5 -192.5h-394q0 -87 48.5 -139t126.5 -52q58 0 99 29t55 81l60 -8q-17 -72 -76 -113t-142 -41zM263 448q-71 0 -117.5 -44t-53.5 -123h330q0 68 -43.5 117.5t-115.5 49.5zM251 546
l-121 118h88l84 -118h-51z" />
    <glyph glyph-name="eacute" unicode="&#xe9;" horiz-adv-x="515" 
d="M262 -12q-108 0 -169.5 70t-61.5 185q0 117 65 186t168 69q106 0 166.5 -74.5t54.5 -192.5h-394q0 -87 48.5 -139t126.5 -52q58 0 99 29t55 81l60 -8q-17 -72 -76 -113t-142 -41zM263 448q-71 0 -117.5 -44t-53.5 -123h330q0 68 -43.5 117.5t-115.5 49.5zM382 664
l-121 -118h-51l84 118h88z" />
    <glyph glyph-name="ecircumflex" unicode="&#xea;" horiz-adv-x="515" 
d="M262 -12q-108 0 -169.5 70t-61.5 185q0 117 65 186t168 69q106 0 166.5 -74.5t54.5 -192.5h-394q0 -87 48.5 -139t126.5 -52q58 0 99 29t55 81l60 -8q-17 -72 -76 -113t-142 -41zM263 448q-71 0 -117.5 -44t-53.5 -123h330q0 68 -43.5 117.5t-115.5 49.5zM296 664
l115 -118h-59l-90 71l-91 -71h-59l118 118h66z" />
    <glyph glyph-name="edieresis" unicode="&#xeb;" horiz-adv-x="515" 
d="M262 -12q-108 0 -169.5 70t-61.5 185q0 117 65 186t168 69q106 0 166.5 -74.5t54.5 -192.5h-394q0 -87 48.5 -139t126.5 -52q58 0 99 29t55 81l60 -8q-17 -72 -76 -113t-142 -41zM263 448q-71 0 -117.5 -44t-53.5 -123h330q0 68 -43.5 117.5t-115.5 49.5zM138 559v92h58
v-92h-58zM324 651h58v-92h-58v92z" />
    <glyph glyph-name="igrave" unicode="&#xec;" horiz-adv-x="197" 
d="M70 490h57v-490h-57v490zM74 546l-121 118h88l84 -118h-51z" />
    <glyph glyph-name="iacute" unicode="&#xed;" horiz-adv-x="197" 
d="M70 490h57v-490h-57v490zM244 664l-121 -118h-51l84 118h88z" />
    <glyph glyph-name="icircumflex" unicode="&#xee;" horiz-adv-x="197" 
d="M128 664l90 -128h-51l-68 76l-69 -76h-51l93 128h56zM70 490h57v-490h-57v490z" />
    <glyph glyph-name="idieresis" unicode="&#xef;" horiz-adv-x="197" 
d="M7 559v92h58v-92h-58zM133 559v92h58v-92h-58zM70 490h57v-490h-57v490z" />
    <glyph glyph-name="eth" unicode="&#xf0;" horiz-adv-x="497" 
d="M274 630l75 46l43 -24l-80 -49q155 -119 155 -323q0 -146 -61 -219t-160 -73q-97 0 -156 68.5t-59 187.5q0 117 59.5 185.5t153.5 68.5q96 0 143 -67l1 1q-38 82 -126 140l-80 -49l-42 23l81 51q-21 11 -65 31l25 48q52 -20 93 -46zM246 39q65 0 112 52.5t47 152.5
t-46.5 151.5t-112.5 51.5q-70 0 -112 -54.5t-42 -148.5q0 -95 42 -150t112 -55z" />
    <glyph glyph-name="ntilde" unicode="&#xf1;" horiz-adv-x="517" 
d="M128 490v-84q48 92 166 92q87 0 130 -52q38 -47 38 -141v-305h-58v290q0 81 -28 118q-29 39 -97 39q-65 0 -108 -49.5t-43 -128.5v-269h-58v490h58zM326 608q37 0 46 42h51q-8 -43 -32.5 -68t-60.5 -25q-28 0 -67 21.5t-53 21.5q-34 0 -45 -43h-50q6 44 32.5 68.5
t61.5 24.5q28 0 65.5 -21t51.5 -21z" />
    <glyph glyph-name="ograve" unicode="&#xf2;" horiz-adv-x="514" 
d="M92 243q0 -99 46 -151.5t119 -52.5t119 52.5t46 151.5t-46 151.5t-119 52.5t-119 -52.5t-46 -151.5zM31 243q0 125 65.5 190t160.5 65t160.5 -65t65.5 -190t-65.5 -190t-160.5 -65t-160.5 65t-65.5 190zM255 546l-121 118h88l84 -118h-51z" />
    <glyph glyph-name="oacute" unicode="&#xf3;" horiz-adv-x="514" 
d="M92 243q0 -99 46 -151.5t119 -52.5t119 52.5t46 151.5t-46 151.5t-119 52.5t-119 -52.5t-46 -151.5zM31 243q0 125 65.5 190t160.5 65t160.5 -65t65.5 -190t-65.5 -190t-160.5 -65t-160.5 65t-65.5 190zM370 664l-121 -118h-51l84 118h88z" />
    <glyph glyph-name="ocircumflex" unicode="&#xf4;" horiz-adv-x="514" 
d="M92 243q0 -99 46 -151.5t119 -52.5t119 52.5t46 151.5t-46 151.5t-119 52.5t-119 -52.5t-46 -151.5zM31 243q0 125 65.5 190t160.5 65t160.5 -65t65.5 -190t-65.5 -190t-160.5 -65t-160.5 65t-65.5 190zM292 664l115 -118h-59l-90 71l-91 -71h-59l118 118h66z" />
    <glyph glyph-name="otilde" unicode="&#xf5;" horiz-adv-x="514" 
d="M92 243q0 -99 46 -151.5t119 -52.5t119 52.5t46 151.5t-46 151.5t-119 52.5t-119 -52.5t-46 -151.5zM31 243q0 125 65.5 190t160.5 65t160.5 -65t65.5 -190t-65.5 -190t-160.5 -65t-160.5 65t-65.5 190zM311 608q37 0 46 42h51q-8 -43 -32.5 -68t-60.5 -25
q-29 0 -68 21.5t-52 21.5q-34 0 -45 -43h-50q6 44 32.5 68.5t61.5 24.5q28 0 65.5 -21t51.5 -21z" />
    <glyph glyph-name="odieresis" unicode="&#xf6;" horiz-adv-x="514" 
d="M92 243q0 -99 46 -151.5t119 -52.5t119 52.5t46 151.5t-46 151.5t-119 52.5t-119 -52.5t-46 -151.5zM31 243q0 125 65.5 190t160.5 65t160.5 -65t65.5 -190t-65.5 -190t-160.5 -65t-160.5 65t-65.5 190zM133 559v92h58v-92h-58zM319 651h58v-92h-58v92z" />
    <glyph glyph-name="divide" unicode="&#xf7;" horiz-adv-x="528" 
d="M225 65v87h81v-87h-81zM225 353v87h81v-87h-81zM30 225h468v55h-468v-55z" />
    <glyph glyph-name="oslash" unicode="&#xf8;" horiz-adv-x="514" 
d="M481 467l-47 -55q49 -67 49 -169q0 -125 -65.5 -190t-160.5 -65q-85 0 -144 50l-43 -50l-37 33l46 53q-48 66 -48 169q0 125 65.5 190t160.5 65q84 0 143 -49l43 50zM422 243q0 74 -27 123l-246 -286q42 -41 108 -41q73 0 119 52.5t46 151.5zM92 243q0 -74 26 -123
l246 287q-43 40 -107 40q-73 0 -119 -52.5t-46 -151.5z" />
    <glyph glyph-name="ugrave" unicode="&#xf9;" horiz-adv-x="509" 
d="M381 0v80q-49 -92 -160 -92q-78 0 -119 44q-42 46 -42 151v307h58v-295q0 -88 30 -124q27 -33 82 -33q65 0 108 49.5t43 128.5v274h58v-490h-58zM259 546l-121 118h88l84 -118h-51z" />
    <glyph glyph-name="uacute" unicode="&#xfa;" horiz-adv-x="509" 
d="M381 0v80q-49 -92 -160 -92q-78 0 -119 44q-42 46 -42 151v307h58v-295q0 -88 30 -124q27 -33 82 -33q65 0 108 49.5t43 128.5v274h58v-490h-58zM370 664l-121 -118h-51l84 118h88z" />
    <glyph glyph-name="ucircumflex" unicode="&#xfb;" horiz-adv-x="509" 
d="M381 0v80q-49 -92 -160 -92q-78 0 -119 44q-42 46 -42 151v307h58v-295q0 -88 30 -124q27 -33 82 -33q65 0 108 49.5t43 128.5v274h58v-490h-58zM285 664l115 -118h-59l-90 71l-91 -71h-59l118 118h66z" />
    <glyph glyph-name="udieresis" unicode="&#xfc;" horiz-adv-x="509" 
d="M381 0v80q-49 -92 -160 -92q-78 0 -119 44q-42 46 -42 151v307h58v-295q0 -88 30 -124q27 -33 82 -33q65 0 108 49.5t43 128.5v274h58v-490h-58zM126 559v92h58v-92h-58zM312 651h58v-92h-58v92z" />
    <glyph glyph-name="yacute" unicode="&#xfd;" horiz-adv-x="433" 
d="M46 -173h32q66 0 93.5 24t56.5 99l205 540h-62l-151 -410l-155 410h-65l191 -490l-15 -40q-19 -50 -39.5 -66t-57.5 -16h-33v-51zM342 664l-121 -118h-51l84 118h88z" />
    <glyph glyph-name="thorn" unicode="&#xfe;" 
d="M70 -173v837h58v-256q52 90 169 90q89 0 146 -69t57 -187q0 -117 -59.5 -185.5t-153.5 -68.5q-50 0 -93.5 22t-65.5 65v-248h-58zM285 447q-64 0 -112.5 -53t-48.5 -152q0 -100 47.5 -151.5t113.5 -51.5q70 0 112 54.5t42 148.5q0 95 -42 150t-112 55z" />
    <glyph glyph-name="ydieresis" unicode="&#xff;" horiz-adv-x="433" 
d="M46 -173h32q66 0 93.5 24t56.5 99l205 540h-62l-151 -410l-155 410h-65l191 -490l-15 -40q-19 -50 -39.5 -66t-57.5 -16h-33v-51zM107 559v92h58v-92h-58zM293 651h58v-92h-58v92z" />
    <glyph glyph-name="Amacron" unicode="&#x100;" horiz-adv-x="583" 
d="M0 0l256 664h70l257 -664h-68l-65 169h-319l-64 -169h-67zM289 587l-136 -360h274zM428 725h-279v58h279v-58z" />
    <glyph glyph-name="amacron" unicode="&#x101;" horiz-adv-x="486" 
d="M52 347l60 -2q3 47 35.5 74.5t93.5 27.5t96.5 -23.5t35.5 -90.5v-29l-98 -10q-137 -14 -188 -48q-53 -36 -53 -105q0 -66 45 -109.5t125 -43.5q122 0 170 88l4 -76h58q-6 108 -6 160q0 14 0.5 67.5t0.5 104.5q0 92 -45.5 129t-138.5 37q-85 0 -138 -40t-57 -111zM376 225
q0 -95 -45 -140.5t-116 -45.5q-54 0 -87 27.5t-33 72.5q0 49 41 72.5t133 32.5l107 11v-30zM378 581h-258v50h258v-50z" />
    <glyph glyph-name="Abreve" unicode="&#x102;" horiz-adv-x="583" 
d="M0 0l256 664h70l257 -664h-68l-65 169h-319l-64 -169h-67zM289 587l-136 -360h274zM378 803h55q-5 -49 -43.5 -79.5t-101.5 -30.5q-61 0 -99 30.5t-43 79.5h55q4 -32 28.5 -48t59.5 -16t60 16.5t29 47.5z" />
    <glyph glyph-name="abreve" unicode="&#x103;" horiz-adv-x="486" 
d="M52 347l60 -2q3 47 35.5 74.5t93.5 27.5t96.5 -23.5t35.5 -90.5v-29l-98 -10q-137 -14 -188 -48q-53 -36 -53 -105q0 -66 45 -109.5t125 -43.5q122 0 170 88l4 -76h58q-6 108 -6 160q0 14 0.5 67.5t0.5 104.5q0 92 -45.5 129t-138.5 37q-85 0 -138 -40t-57 -111zM376 225
q0 -95 -45 -140.5t-116 -45.5q-54 0 -87 27.5t-33 72.5q0 49 41 72.5t133 32.5l107 11v-30zM388 664q-5 -55 -41 -88t-98 -33q-61 0 -96 33t-40 88h52q3 -35 24.5 -56t60.5 -21t61 21t25 56h52z" />
    <glyph glyph-name="Aogonek" unicode="&#x104;" horiz-adv-x="583" 
d="M326 664l257 -664q-85 -37 -85 -76q0 -38 53 -38q16 0 34 4v-45q-22 -7 -50 -7q-41 0 -69.5 19t-28.5 56q0 27 23 50.5t55 36.5l-65 169h-319l-64 -169h-67l256 664h70zM289 587l-136 -360h274z" />
    <glyph glyph-name="aogonek" unicode="&#x105;" horiz-adv-x="486" 
d="M376 225v30l-107 -11q-92 -9 -133 -32.5t-41 -72.5q0 -45 33 -72.5t87 -27.5q71 0 116 45.5t45 140.5zM378 0l-4 76q-48 -88 -170 -88q-80 0 -125 43.5t-45 109.5q0 69 53 105q51 34 188 48l98 10v29q0 67 -35.5 90.5t-96.5 23.5t-93.5 -27.5t-35.5 -74.5l-60 2
q4 71 57 111t138 40q93 0 138.5 -37t45.5 -129q0 -51 -0.5 -104.5t-0.5 -67.5q0 -52 6 -160q-85 -37 -85 -76q0 -38 53 -38q16 0 34 4v-45q-22 -7 -50 -7q-41 0 -69.5 19t-28.5 56q0 29 26 52t62 35z" />
    <glyph glyph-name="Cacute" unicode="&#x106;" horiz-adv-x="642" 
d="M553 203l65 -9q-22 -96 -95.5 -151t-186.5 -55q-142 0 -220.5 94t-78.5 250q0 157 80 250.5t222 93.5q109 0 181.5 -55t94.5 -151l-65 -9q-19 79 -77 117.5t-136 38.5q-103 0 -168.5 -75t-65.5 -210q0 -132 64.5 -208.5t169.5 -76.5q89 0 145 44t71 112zM473 803
l-142 -105h-60l102 105h100z" />
    <glyph glyph-name="cacute" unicode="&#x107;" horiz-adv-x="486" 
d="M260 498q81 0 135.5 -45.5t66.5 -110.5l-60 -8q-13 55 -52.5 83.5t-95.5 28.5q-68 0 -115 -53.5t-47 -148.5q0 -98 47 -151t116 -53q62 0 101 31.5t50 80.5l60 -8q-15 -71 -72.5 -113.5t-140.5 -42.5q-104 0 -163 70.5t-59 184.5q0 115 60.5 185t168.5 70zM388 664
l-121 -118h-51l84 118h88z" />
    <glyph glyph-name="Ccircumflex" unicode="&#x108;" horiz-adv-x="642" 
d="M553 203l65 -9q-22 -96 -95.5 -151t-186.5 -55q-142 0 -220.5 94t-78.5 250q0 157 80 250.5t222 93.5q109 0 181.5 -55t94.5 -151l-65 -9q-19 79 -77 117.5t-136 38.5q-103 0 -168.5 -75t-65.5 -210q0 -132 64.5 -208.5t169.5 -76.5q89 0 145 44t71 112zM382 803
l122 -105h-69l-93 62l-94 -62h-69l125 105h78z" />
    <glyph glyph-name="ccircumflex" unicode="&#x109;" horiz-adv-x="486" 
d="M260 498q81 0 135.5 -45.5t66.5 -110.5l-60 -8q-13 55 -52.5 83.5t-95.5 28.5q-68 0 -115 -53.5t-47 -148.5q0 -98 47 -151t116 -53q62 0 101 31.5t50 80.5l60 -8q-15 -71 -72.5 -113.5t-140.5 -42.5q-104 0 -163 70.5t-59 184.5q0 115 60.5 185t168.5 70zM292 664
l115 -118h-59l-90 71l-91 -71h-59l118 118h66z" />
    <glyph glyph-name="Cdotaccent" unicode="&#x10a;" horiz-adv-x="642" 
d="M553 203l65 -9q-22 -96 -95.5 -151t-186.5 -55q-142 0 -220.5 94t-78.5 250q0 157 80 250.5t222 93.5q109 0 181.5 -55t94.5 -151l-65 -9q-19 79 -77 117.5t-136 38.5q-103 0 -168.5 -75t-65.5 -210q0 -132 64.5 -208.5t169.5 -76.5q89 0 145 44t71 112zM302 796h62v-92
h-62v92z" />
    <glyph glyph-name="cdotaccent" unicode="&#x10b;" horiz-adv-x="486" 
d="M260 498q81 0 135.5 -45.5t66.5 -110.5l-60 -8q-13 55 -52.5 83.5t-95.5 28.5q-68 0 -115 -53.5t-47 -148.5q0 -98 47 -151t116 -53q62 0 101 31.5t50 80.5l60 -8q-15 -71 -72.5 -113.5t-140.5 -42.5q-104 0 -163 70.5t-59 184.5q0 115 60.5 185t168.5 70zM229 651h58
v-92h-58v92z" />
    <glyph glyph-name="Ccaron" unicode="&#x10c;" horiz-adv-x="642" 
d="M553 203l65 -9q-22 -96 -95.5 -151t-186.5 -55q-142 0 -220.5 94t-78.5 250q0 157 80 250.5t222 93.5q109 0 181.5 -55t94.5 -151l-65 -9q-19 79 -77 117.5t-136 38.5q-103 0 -168.5 -75t-65.5 -210q0 -132 64.5 -208.5t169.5 -76.5q89 0 145 44t71 112zM299 698
l-122 105h69l93 -62l94 62h69l-125 -105h-78z" />
    <glyph glyph-name="ccaron" unicode="&#x10d;" horiz-adv-x="486" 
d="M260 498q81 0 135.5 -45.5t66.5 -110.5l-60 -8q-13 55 -52.5 83.5t-95.5 28.5q-68 0 -115 -53.5t-47 -148.5q0 -98 47 -151t116 -53q62 0 101 31.5t50 80.5l60 -8q-15 -71 -72.5 -113.5t-140.5 -42.5q-104 0 -163 70.5t-59 184.5q0 115 60.5 185t168.5 70zM226 546
l-115 118h59l90 -71l91 71h59l-118 -118h-66z" />
    <glyph glyph-name="Dcaron" unicode="&#x10e;" horiz-adv-x="636" 
d="M533 332q0 72 -19.5 124t-48.5 80.5t-74.5 44.5t-85.5 20.5t-93 4.5h-70v-548h70q53 0 93 4.5t85.5 20.5t74.5 44.5t48.5 80.5t19.5 124zM80 664h134q85 0 151 -16t120.5 -52.5t84 -103t29.5 -160.5t-29.5 -160.5t-84 -103t-120.5 -52.5t-151 -16h-134v664zM236 698
l-122 105h69l93 -62l94 62h69l-125 -105h-78z" />
    <glyph glyph-name="dcaron" unicode="&#x10f;" horiz-adv-x="549" 
d="M589 664l-65 -158h-34l28 158h71zM461 0v664h-58v-253q-22 43 -65.5 65t-93.5 22q-94 0 -153.5 -68.5t-59.5 -185.5q0 -118 57 -187t146 -69q116 0 169 90l1 -78h57zM246 39q-70 0 -112 55t-42 150q0 94 42 148.5t112 54.5q66 0 113.5 -51.5t47.5 -151.5
q0 -99 -48.5 -152t-112.5 -53z" />
    <glyph glyph-name="Dcroat" unicode="&#x110;" horiz-adv-x="645" 
d="M10 373h80v291h134q85 0 151 -16t120.5 -52.5t83.5 -103t29 -160.5t-29 -160.5t-83.5 -103t-120.5 -52.5t-151 -16h-134v315h-80v58zM543 332q0 72 -19.5 124t-48.5 80.5t-74.5 44.5t-85.5 20.5t-93 4.5h-70v-233h157v-58h-157v-257h70q53 0 93 4.5t85.5 20.5t74.5 44.5
t48.5 80.5t19.5 124z" />
    <glyph glyph-name="dcroat" unicode="&#x111;" 
d="M461 541v-541h-57l-1 78q-53 -90 -169 -90q-89 0 -146 69t-57 187q0 117 59.5 185.5t153.5 68.5q50 0 93.5 -22t65.5 -65v130h-126v50h126v73h58v-73h70v-50h-70zM246 39q64 0 112.5 53t48.5 152q0 100 -47.5 151.5t-113.5 51.5q-70 0 -112 -54.5t-42 -148.5
q0 -95 42 -150t112 -55z" />
    <glyph glyph-name="Emacron" unicode="&#x112;" horiz-adv-x="545" 
d="M80 0v664h432v-58h-370v-233h348v-58h-348v-257h370v-58h-432zM432 725h-279v58h279v-58z" />
    <glyph glyph-name="emacron" unicode="&#x113;" horiz-adv-x="515" 
d="M262 -12q-108 0 -169.5 70t-61.5 185q0 117 65 186t168 69q106 0 166.5 -74.5t54.5 -192.5h-394q0 -87 48.5 -139t126.5 -52q58 0 99 29t55 81l60 -8q-17 -72 -76 -113t-142 -41zM263 448q-71 0 -117.5 -44t-53.5 -123h330q0 68 -43.5 117.5t-115.5 49.5zM388 581h-258
v50h258v-50z" />
    <glyph glyph-name="Ebreve" unicode="&#x114;" horiz-adv-x="545" 
d="M80 0v664h432v-58h-370v-233h348v-58h-348v-257h370v-58h-432zM384 803h55q-5 -49 -43.5 -79.5t-101.5 -30.5q-61 0 -99 30.5t-43 79.5h55q4 -32 28.5 -48t59.5 -16t60 16.5t29 47.5z" />
    <glyph glyph-name="ebreve" unicode="&#x115;" horiz-adv-x="515" 
d="M262 -12q-108 0 -169.5 70t-61.5 185q0 117 65 186t168 69q106 0 166.5 -74.5t54.5 -192.5h-394q0 -87 48.5 -139t126.5 -52q58 0 99 29t55 81l60 -8q-17 -72 -76 -113t-142 -41zM263 448q-71 0 -117.5 -44t-53.5 -123h330q0 68 -43.5 117.5t-115.5 49.5zM400 664
q-5 -55 -41 -88t-98 -33q-61 0 -96 33t-40 88h52q3 -35 24.5 -56t60.5 -21t61 21t25 56h52z" />
    <glyph glyph-name="Edotaccent" unicode="&#x116;" horiz-adv-x="545" 
d="M80 0v664h432v-58h-370v-233h348v-58h-348v-257h370v-58h-432zM269 796h62v-92h-62v92z" />
    <glyph glyph-name="edotaccent" unicode="&#x117;" horiz-adv-x="515" 
d="M262 -12q-108 0 -169.5 70t-61.5 185q0 117 65 186t168 69q106 0 166.5 -74.5t54.5 -192.5h-394q0 -87 48.5 -139t126.5 -52q58 0 99 29t55 81l60 -8q-17 -72 -76 -113t-142 -41zM263 448q-71 0 -117.5 -44t-53.5 -123h330q0 68 -43.5 117.5t-115.5 49.5zM233 651h58v-92
h-58v92z" />
    <glyph glyph-name="Eogonek" unicode="&#x118;" horiz-adv-x="545" 
d="M80 0v664h432v-58h-370v-233h348v-58h-348v-257h370v-58q-85 -37 -85 -76q0 -38 49 -38q16 0 34 4v-45q-22 -7 -50 -7q-41 0 -69.5 19t-28.5 56q0 29 26 52t62 35h-370z" />
    <glyph glyph-name="eogonek" unicode="&#x119;" horiz-adv-x="515" 
d="M480 142q-24 -102 -136 -143q-88 -33 -88 -76q0 -38 53 -38q16 0 34 4v-45q-22 -7 -50 -7q-41 0 -69.5 19t-28.5 56q0 47 61 76q-106 2 -165.5 72t-59.5 183q0 117 65 186t168 69q106 0 166.5 -74.5t54.5 -192.5h-394q0 -87 48.5 -139t126.5 -52q58 0 99 29t55 81z
M263 448q-71 0 -117.5 -44t-53.5 -123h330q0 68 -43.5 117.5t-115.5 49.5z" />
    <glyph glyph-name="Ecaron" unicode="&#x11a;" horiz-adv-x="545" 
d="M80 0v664h432v-58h-370v-233h348v-58h-348v-257h370v-58h-432zM255 698l-122 105h69l93 -62l94 62h69l-125 -105h-78z" />
    <glyph glyph-name="ecaron" unicode="&#x11b;" horiz-adv-x="515" 
d="M262 -12q-108 0 -169.5 70t-61.5 185q0 117 65 186t168 69q106 0 166.5 -74.5t54.5 -192.5h-394q0 -87 48.5 -139t126.5 -52q58 0 99 29t55 81l60 -8q-17 -72 -76 -113t-142 -41zM263 448q-71 0 -117.5 -44t-53.5 -123h330q0 68 -43.5 117.5t-115.5 49.5zM225 546
l-115 118h59l90 -71l91 71h59l-118 -118h-66z" />
    <glyph glyph-name="Gcircumflex" unicode="&#x11c;" horiz-adv-x="692" 
d="M344 676q108 0 182 -54.5t96 -151.5l-65 -9q-19 79 -79 117.5t-136 38.5q-105 0 -172 -75t-67 -210q0 -132 64.5 -208.5t169.5 -76.5q32 0 62 5t60.5 19t52.5 36t36 58.5t14 83.5v25h-189v58h249v-332h-55l-1 95q-69 -107 -230 -107q-142 0 -220.5 94t-78.5 250
q0 157 82 250.5t225 93.5zM379 803l122 -105h-69l-93 62l-94 -62h-69l125 105h78z" />
    <glyph glyph-name="gcircumflex" unicode="&#x11d;" horiz-adv-x="527" 
d="M399 98v-92q0 -75 -42 -109q-34 -27 -102 -27q-61 0 -94.5 27t-39.5 70l-60 -4q7 -66 60 -104.5t132 -38.5q93 0 145 43q59 49 59 149v478h-58v-79q-23 43 -64 65t-89 22q-93 0 -154 -67t-61 -177q0 -111 58.5 -178.5t146.5 -67.5q108 0 163 90zM244 59
q-67 0 -109.5 53.5t-42.5 141.5q0 87 43 140t110 53q64 0 111 -50t47 -143q0 -92 -48.5 -143.5t-110.5 -51.5zM292 664l115 -118h-59l-90 71l-91 -71h-59l118 118h66z" />
    <glyph glyph-name="Gbreve" unicode="&#x11e;" horiz-adv-x="692" 
d="M344 676q108 0 182 -54.5t96 -151.5l-65 -9q-19 79 -79 117.5t-136 38.5q-105 0 -172 -75t-67 -210q0 -132 64.5 -208.5t169.5 -76.5q32 0 62 5t60.5 19t52.5 36t36 58.5t14 83.5v25h-189v58h249v-332h-55l-1 95q-69 -107 -230 -107q-142 0 -220.5 94t-78.5 250
q0 157 82 250.5t225 93.5zM426 803h55q-5 -49 -43.5 -79.5t-101.5 -30.5q-61 0 -99 30.5t-43 79.5h55q4 -32 28.5 -48t59.5 -16t60 16.5t29 47.5z" />
    <glyph glyph-name="gbreve" unicode="&#x11f;" horiz-adv-x="527" 
d="M399 98v-92q0 -75 -42 -109q-34 -27 -102 -27q-61 0 -94.5 27t-39.5 70l-60 -4q7 -66 60 -104.5t132 -38.5q93 0 145 43q59 49 59 149v478h-58v-79q-23 43 -64 65t-89 22q-93 0 -154 -67t-61 -177q0 -111 58.5 -178.5t146.5 -67.5q108 0 163 90zM244 59
q-67 0 -109.5 53.5t-42.5 141.5q0 87 43 140t110 53q64 0 111 -50t47 -143q0 -92 -48.5 -143.5t-110.5 -51.5zM393 664q-5 -55 -41 -88t-98 -33q-61 0 -96 33t-40 88h52q3 -35 24.5 -56t60.5 -21t61 21t25 56h52z" />
    <glyph glyph-name="Gdotaccent" unicode="&#x120;" horiz-adv-x="692" 
d="M344 676q108 0 182 -54.5t96 -151.5l-65 -9q-19 79 -79 117.5t-136 38.5q-105 0 -172 -75t-67 -210q0 -132 64.5 -208.5t169.5 -76.5q32 0 62 5t60.5 19t52.5 36t36 58.5t14 83.5v25h-189v58h249v-332h-55l-1 95q-69 -107 -230 -107q-142 0 -220.5 94t-78.5 250
q0 157 82 250.5t225 93.5zM307 796h62v-92h-62v92z" />
    <glyph glyph-name="gdotaccent" unicode="&#x121;" horiz-adv-x="527" 
d="M399 98v-92q0 -75 -42 -109q-34 -27 -102 -27q-61 0 -94.5 27t-39.5 70l-60 -4q7 -66 60 -104.5t132 -38.5q93 0 145 43q59 49 59 149v478h-58v-79q-23 43 -64 65t-89 22q-93 0 -154 -67t-61 -177q0 -111 58.5 -178.5t146.5 -67.5q108 0 163 90zM244 59
q-67 0 -109.5 53.5t-42.5 141.5q0 87 43 140t110 53q64 0 111 -50t47 -143q0 -92 -48.5 -143.5t-110.5 -51.5zM224 651h58v-92h-58v92z" />
    <glyph glyph-name="Gcommaaccent" unicode="&#x122;" horiz-adv-x="692" 
d="M344 676q108 0 182 -54.5t96 -151.5l-65 -9q-19 79 -79 117.5t-136 38.5q-105 0 -172 -75t-67 -210q0 -132 64.5 -208.5t169.5 -76.5q32 0 62 5t60.5 19t52.5 36t36 58.5t14 83.5v25h-189v58h249v-332h-55l-1 95q-69 -107 -230 -107q-142 0 -220.5 94t-78.5 250
q0 157 82 250.5t225 93.5zM300 -116v83h78v-89l-41 -83h-40l36 89h-33z" />
    <glyph glyph-name="gcommaaccent" unicode="&#x123;" horiz-adv-x="527" 
d="M284 619v-83h-78v89l41 83h40l-36 -89h33zM399 98v-92q0 -75 -42 -109q-34 -27 -102 -27q-61 0 -94.5 27t-39.5 70l-60 -4q7 -66 60 -104.5t132 -38.5q93 0 145 43q59 49 59 149v478h-58v-79q-23 43 -64 65t-89 22q-93 0 -154 -67t-61 -177q0 -111 58.5 -178.5
t146.5 -67.5q108 0 163 90zM244 59q-67 0 -109.5 53.5t-42.5 141.5q0 87 43 140t110 53q64 0 111 -50t47 -143q0 -92 -48.5 -143.5t-110.5 -51.5z" />
    <glyph glyph-name="Hcircumflex" unicode="&#x124;" horiz-adv-x="681" 
d="M539 664h62v-664h-62v315h-397v-315h-62v664h62v-291h397v291zM379 803l122 -105h-69l-93 62l-94 -62h-69l125 105h78z" />
    <glyph glyph-name="hcircumflex" unicode="&#x125;" horiz-adv-x="517" 
d="M324 664l120 -128h-51l-98 76l-99 -76h-51l123 128h56zM128 664v-258q48 92 166 92q87 0 130 -52q38 -47 38 -141v-305h-58v290q0 81 -28 118q-29 39 -97 39q-65 0 -108 -49.5t-43 -128.5v-269h-58v664h58z" />
    <glyph glyph-name="Hbar" unicode="&#x126;" horiz-adv-x="681" 
d="M539 664h62v-664h-62v315h-397v-315h-62v664h62v-120h397v120zM142 373h397v113h-397v-113z" />
    <glyph glyph-name="hbar" unicode="&#x127;" horiz-adv-x="517" 
d="M128 664v-73h126v-50h-126v-135q48 92 166 92q87 0 130 -52q38 -47 38 -141v-305h-58v290q0 81 -28 118q-29 39 -97 39q-65 0 -108 -49.5t-43 -128.5v-269h-58v541h-70v50h70v73h58z" />
    <glyph glyph-name="Itilde" unicode="&#x128;" horiz-adv-x="222" 
d="M155 755q30 0 36 42h41q-7 -43 -26.5 -68t-47.5 -25q-22 0 -53.5 21.5t-42.5 21.5q-27 0 -35 -43h-40q4 44 25.5 68.5t49.5 24.5q22 0 52 -21t41 -21zM142 664v-664h-62v664h62z" />
    <glyph glyph-name="itilde" unicode="&#x129;" horiz-adv-x="197" 
d="M147 608q31 0 39 42h43q-7 -44 -27.5 -69t-51.5 -25q-24 0 -57 21.5t-45 21.5q-28 0 -38 -43h-42q5 45 27 69.5t53 24.5q23 0 55 -21t44 -21zM70 490h57v-490h-57v490z" />
    <glyph glyph-name="Imacron" unicode="&#x12a;" horiz-adv-x="222" 
d="M222 725h-222v58h222v-58zM142 664v-664h-62v664h62z" />
    <glyph glyph-name="imacron" unicode="&#x12b;" horiz-adv-x="197" 
d="M198 574h-198v50h198v-50zM70 490h57v-490h-57v490z" />
    <glyph glyph-name="Ibreve" unicode="&#x12c;" horiz-adv-x="222" 
d="M113 693q-112 0 -122 110h55q4 -34 19.5 -49t48.5 -15t48.5 15t20.5 49h55q-10 -110 -125 -110zM142 664v-664h-62v664h62z" />
    <glyph glyph-name="ibreve" unicode="&#x12d;" horiz-adv-x="197" 
d="M216 664q-11 -131 -119 -131q-106 0 -116 131h52q6 -87 65 -87q60 0 66 87h52zM70 490h57v-490h-57v490z" />
    <glyph glyph-name="Iogonek" unicode="&#x12e;" horiz-adv-x="222" 
d="M80 0v664h62v-664q-85 -37 -85 -76q0 -38 49 -38q16 0 34 4v-45q-22 -7 -50 -7q-41 0 -69.5 19t-28.5 56q0 29 26 52t62 35z" />
    <glyph glyph-name="iogonek" unicode="&#x12f;" horiz-adv-x="198" 
d="M70 0v490h58v-490q-85 -37 -85 -76q0 -38 53 -38q16 0 34 4v-45q-22 -7 -50 -7q-41 0 -69.5 19t-28.5 56q0 29 26 52t62 35zM70 664h58v-92h-58v92z" />
    <glyph glyph-name="Idotaccent" unicode="&#x130;" horiz-adv-x="222" 
d="M80 796h62v-92h-62v92zM142 664v-664h-62v664h62z" />
    <glyph glyph-name="dotlessi" unicode="&#x131;" horiz-adv-x="197" 
d="M70 490h57v-490h-57v490z" />
    <glyph glyph-name="IJ" unicode="&#x132;" horiz-adv-x="484" 
d="M142 664v-664h-62v664h62zM252 0v58h8q60 0 71 15t11 85v506h62v-509q0 -97 -23 -126t-102 -29h-27z" />
    <glyph glyph-name="ij" unicode="&#x133;" horiz-adv-x="396" 
d="M70 490h58v-490h-58v490zM70 664h58v-92h-58v92zM268 -41v531h58v-532q0 -77 -20 -104t-85 -27h-31v53h11q45 0 56 14t11 65zM268 664h58v-92h-58v92z" />
    <glyph glyph-name="Jcircumflex" unicode="&#x134;" horiz-adv-x="262" 
d="M193 803l92 -105h-69l-63 62l-64 -62h-69l95 105h78zM30 0v58h8q60 0 71 15t11 85v506h62v-509q0 -97 -23 -126t-102 -29h-27z" />
    <glyph glyph-name="jcircumflex" unicode="&#x135;" horiz-adv-x="200" 
d="M72 -41v531h58v-530q0 -77 -21 -105t-86 -28h-31v53h11q44 0 56.5 14.5t12.5 64.5zM128 664l90 -128h-51l-68 76l-69 -76h-51l93 128h56z" />
    <glyph glyph-name="Kcommaaccent" unicode="&#x136;" horiz-adv-x="572" 
d="M142 664v-337l340 337h80l-283 -282l294 -382h-77l-261 339l-93 -93v-246h-62v664h62zM258 -116v83h78v-89l-41 -83h-40l36 89h-33z" />
    <glyph glyph-name="kcommaaccent" unicode="&#x137;" horiz-adv-x="444" 
d="M70 664h58v-414l228 240h71l-189 -199l206 -291h-67l-177 251l-72 -76v-175h-58v664zM187 -116v83h78v-89l-41 -83h-40l36 89h-33z" />
    <glyph glyph-name="kgreenlandic" unicode="&#x138;" horiz-adv-x="434" 
d="M70 490h58v-239l218 239h71l-188 -205l205 -285h-67l-176 244l-63 -69v-175h-58v490z" />
    <glyph glyph-name="Lacute" unicode="&#x139;" horiz-adv-x="499" 
d="M142 664v-606h357v-58h-419v664h62zM286 803l-142 -105h-60l102 105h100z" />
    <glyph glyph-name="lacute" unicode="&#x13a;" horiz-adv-x="198" 
d="M128 664v-664h-58v664h58zM273 803l-142 -105h-60l102 105h100z" />
    <glyph glyph-name="Lcommaaccent" unicode="&#x13b;" horiz-adv-x="499" 
d="M142 664v-606h357v-58h-419v664h62zM255 -116v83h78v-89l-41 -83h-40l36 89h-33z" />
    <glyph glyph-name="lcommaaccent" unicode="&#x13c;" horiz-adv-x="198" 
d="M128 664v-664h-58v664h58zM61 -116v83h78v-89l-41 -83h-40l36 89h-33z" />
    <glyph glyph-name="Lcaron" unicode="&#x13d;" horiz-adv-x="499" 
d="M329 664l-65 -158h-34l28 158h71zM142 664v-606h357v-58h-419v664h62z" />
    <glyph glyph-name="lcaron" unicode="&#x13e;" horiz-adv-x="216" 
d="M256 664l-65 -158h-34l28 158h71zM128 664v-664h-58v664h58z" />
    <glyph glyph-name="Ldot" unicode="&#x13f;" horiz-adv-x="499" 
d="M80 796h62v-92h-62v92zM142 664v-606h357v-58h-419v664h62z" />
    <glyph glyph-name="ldot" unicode="&#x140;" horiz-adv-x="198" 
d="M70 704v92h58v-92h-58zM128 664v-664h-58v664h58z" />
    <glyph glyph-name="Lslash" unicode="&#x141;" horiz-adv-x="509" 
d="M10 188v71l80 55v350h62v-308l208 143v-71l-208 -143v-227h357v-58h-419v243z" />
    <glyph glyph-name="lslash" unicode="&#x142;" horiz-adv-x="198" 
d="M0 255v60l70 51v298h58v-256l70 51v-60l-70 -51v-348h-58v306z" />
    <glyph glyph-name="Nacute" unicode="&#x143;" horiz-adv-x="681" 
d="M601 0h-90l-369 597v-597h-62v664h90l369 -598v598h62v-664zM485 803l-142 -105h-60l102 105h100z" />
    <glyph glyph-name="nacute" unicode="&#x144;" horiz-adv-x="517" 
d="M128 490v-84q48 92 166 92q87 0 130 -52q38 -47 38 -141v-305h-58v290q0 81 -28 118q-29 39 -97 39q-65 0 -108 -49.5t-43 -128.5v-269h-58v490h58zM407 664l-121 -118h-51l84 118h88z" />
    <glyph glyph-name="Ncommaaccent" unicode="&#x145;" horiz-adv-x="681" 
d="M601 0h-90l-369 597v-597h-62v664h90l369 -598v598h62v-664zM307 -116v83h78v-89l-41 -83h-40l36 89h-33z" />
    <glyph glyph-name="ncommaaccent" unicode="&#x146;" horiz-adv-x="517" 
d="M128 490v-84q48 92 166 92q87 0 130 -52q38 -47 38 -141v-305h-58v290q0 81 -28 118q-29 39 -97 39q-65 0 -108 -49.5t-43 -128.5v-269h-58v490h58zM229 -116v83h78v-89l-41 -83h-40l36 89h-33z" />
    <glyph glyph-name="Ncaron" unicode="&#x147;" horiz-adv-x="681" 
d="M601 0h-90l-369 597v-597h-62v664h90l369 -598v598h62v-664zM311 698l-122 105h69l93 -62l94 62h69l-125 -105h-78z" />
    <glyph glyph-name="ncaron" unicode="&#x148;" horiz-adv-x="517" 
d="M128 490v-84q48 92 166 92q87 0 130 -52q38 -47 38 -141v-305h-58v290q0 81 -28 118q-29 39 -97 39q-65 0 -108 -49.5t-43 -128.5v-269h-58v490h58zM245 546l-115 118h59l90 -71l91 71h59l-118 -118h-66z" />
    <glyph glyph-name="napostrophe" unicode="&#x149;" horiz-adv-x="517" 
d="M128 490v-84q48 92 166 92q87 0 130 -52q38 -47 38 -141v-305h-58v290q0 81 -28 118q-29 39 -97 39q-65 0 -108 -49.5t-43 -128.5v-269h-58v490h58zM70 625v83h78v-89l-41 -83h-40l36 89h-33z" />
    <glyph glyph-name="Eng" unicode="&#x14a;" horiz-adv-x="681" 
d="M539 0l-397 597v-597h-62v664h90l369 -558v558h62v-682q0 -93 -30.5 -124t-111.5 -31h-23v58h5q60 0 79 19.5t19 80.5v15z" />
    <glyph glyph-name="eng" unicode="&#x14b;" horiz-adv-x="517" 
d="M404 -41v335q0 82 -31 117.5t-94 35.5q-65 0 -108 -49.5t-43 -128.5v-269h-58v490h58v-84q48 92 166 92q168 0 168 -187v-351q0 -77 -21 -105t-86 -28h-31v53h11q44 0 56.5 14.5t12.5 64.5z" />
    <glyph glyph-name="Omacron" unicode="&#x14c;" horiz-adv-x="691" 
d="M588 332q0 135 -67 210t-175 75t-175.5 -75t-67.5 -210t67.5 -210t175.5 -75t175 75t67 210zM654 332q0 -160 -84.5 -252t-224.5 -92q-142 0 -225 94.5t-83 249.5q0 154 85.5 249t224.5 95q140 0 223.5 -92t83.5 -252zM485 725h-279v58h279v-58z" />
    <glyph glyph-name="omacron" unicode="&#x14d;" horiz-adv-x="514" 
d="M92 243q0 -99 46 -151.5t119 -52.5t119 52.5t46 151.5t-46 151.5t-119 52.5t-119 -52.5t-46 -151.5zM31 243q0 125 65.5 190t160.5 65t160.5 -65t65.5 -190t-65.5 -190t-160.5 -65t-160.5 65t-65.5 190zM386 581h-258v50h258v-50z" />
    <glyph glyph-name="Obreve" unicode="&#x14e;" horiz-adv-x="691" 
d="M588 332q0 135 -67 210t-175 75t-175.5 -75t-67.5 -210t67.5 -210t175.5 -75t175 75t67 210zM654 332q0 -160 -84.5 -252t-224.5 -92q-142 0 -225 94.5t-83 249.5q0 154 85.5 249t224.5 95q140 0 223.5 -92t83.5 -252zM436 803h55q-5 -49 -43.5 -79.5t-101.5 -30.5
q-61 0 -99 30.5t-43 79.5h55q4 -32 28.5 -48t59.5 -16t60 16.5t29 47.5z" />
    <glyph glyph-name="obreve" unicode="&#x14f;" horiz-adv-x="514" 
d="M92 243q0 -99 46 -151.5t119 -52.5t119 52.5t46 151.5t-46 151.5t-119 52.5t-119 -52.5t-46 -151.5zM31 243q0 125 65.5 190t160.5 65t160.5 -65t65.5 -190t-65.5 -190t-160.5 -65t-160.5 65t-65.5 190zM394 664q-5 -55 -41 -88t-98 -33q-61 0 -96 33t-40 88h52
q3 -35 24.5 -56t60.5 -21t61 21t25 56h52z" />
    <glyph glyph-name="Ohungarumlaut" unicode="&#x150;" horiz-adv-x="691" 
d="M588 332q0 135 -67 210t-175 75t-175.5 -75t-67.5 -210t67.5 -210t175.5 -75t175 75t67 210zM654 332q0 -160 -84.5 -252t-224.5 -92q-142 0 -225 94.5t-83 249.5q0 154 85.5 249t224.5 95q140 0 223.5 -92t83.5 -252zM418 803l-142 -105h-60l102 105h100zM570 803
l-142 -105h-60l102 105h100z" />
    <glyph glyph-name="ohungarumlaut" unicode="&#x151;" horiz-adv-x="514" 
d="M92 243q0 -99 46 -151.5t119 -52.5t119 52.5t46 151.5t-46 151.5t-119 52.5t-119 -52.5t-46 -151.5zM31 243q0 125 65.5 190t160.5 65t160.5 -65t65.5 -190t-65.5 -190t-160.5 -65t-160.5 65t-65.5 190zM308 664l-121 -118h-51l84 118h88zM463 664l-121 -118h-51l84 118
h88z" />
    <glyph glyph-name="OE" unicode="&#x152;" horiz-adv-x="1043" 
d="M343 676q157 0 235 -115v103h432v-58h-370v-233h348v-58h-348v-257h370v-58h-432v105q-80 -117 -240 -117q-137 0 -219 95t-82 249q0 153 85 248.5t221 95.5zM587 332q0 135 -68 210t-174 75q-107 0 -175 -75t-68 -210t68 -210t175 -75q106 0 174 75t68 210z" />
    <glyph glyph-name="oe" unicode="&#x153;" horiz-adv-x="901" 
d="M31 243q0 125 65.5 190t160.5 65q63 0 114.5 -31t78.5 -92q28 59 79.5 91t118.5 32q107 0 167.5 -74t55.5 -193h-394q0 -87 48.5 -139t125.5 -52q59 0 99.5 28.5t55.5 81.5l60 -8q-19 -74 -78 -114t-143 -40q-143 0 -196 119q-27 -59 -78 -89t-114 -30q-95 0 -160.5 65
t-65.5 190zM92 243q0 -99 46 -151.5t119 -52.5t119 52.5t46 151.5t-46 151.5t-119 52.5t-119 -52.5t-46 -151.5zM646 448q-68 0 -114.5 -44.5t-53.5 -122.5h330q0 68 -43.5 117.5t-118.5 49.5z" />
    <glyph glyph-name="Racute" unicode="&#x154;" horiz-adv-x="587" 
d="M484 0l-150 289q-42 -2 -66 -2h-126v-287h-62v664h188q52 0 91 -4t75 -16t59 -32t36.5 -53.5t13.5 -79.5q0 -79 -37 -121.5t-107 -58.5l154 -299h-69zM276 606h-134v-261h134q48 0 79.5 4t62 17t45.5 40.5t15 70.5q0 35 -11 59t-27.5 37.5t-45 21t-54 9.5t-64.5 2z
M412 803l-142 -105h-60l102 105h100z" />
    <glyph glyph-name="racute" unicode="&#x155;" horiz-adv-x="290" 
d="M280 493v-62q-9 1 -26 1q-72 0 -99.5 -46t-27.5 -134v-252h-57v490h55v-84q16 43 53.5 65.5t84.5 22.5q11 0 17 -1zM263 664l-121 -118h-51l84 118h88z" />
    <glyph glyph-name="Rcommaaccent" unicode="&#x156;" horiz-adv-x="587" 
d="M484 0l-150 289q-42 -2 -66 -2h-126v-287h-62v664h188q52 0 91 -4t75 -16t59 -32t36.5 -53.5t13.5 -79.5q0 -79 -37 -121.5t-107 -58.5l154 -299h-69zM276 606h-134v-261h134q48 0 79.5 4t62 17t45.5 40.5t15 70.5q0 35 -11 59t-27.5 37.5t-45 21t-54 9.5t-64.5 2z
M268 -116v83h78v-89l-41 -83h-40l36 89h-33z" />
    <glyph glyph-name="rcommaaccent" unicode="&#x157;" horiz-adv-x="290" 
d="M280 493v-62q-9 1 -26 1q-72 0 -99.5 -46t-27.5 -134v-252h-57v490h55v-84q16 43 53.5 65.5t84.5 22.5q11 0 17 -1zM61 -116v83h78v-89l-41 -83h-40l36 89h-33z" />
    <glyph glyph-name="Rcaron" unicode="&#x158;" horiz-adv-x="587" 
d="M484 0l-150 289q-42 -2 -66 -2h-126v-287h-62v664h188q52 0 91 -4t75 -16t59 -32t36.5 -53.5t13.5 -79.5q0 -79 -37 -121.5t-107 -58.5l154 -299h-69zM276 606h-134v-261h134q48 0 79.5 4t62 17t45.5 40.5t15 70.5q0 35 -11 59t-27.5 37.5t-45 21t-54 9.5t-64.5 2z
M231 698l-122 105h69l93 -62l94 62h69l-125 -105h-78z" />
    <glyph glyph-name="rcaron" unicode="&#x159;" horiz-adv-x="290" 
d="M280 493v-62q-9 1 -26 1q-72 0 -99.5 -46t-27.5 -134v-252h-57v490h55v-84q16 43 53.5 65.5t84.5 22.5q11 0 17 -1zM142 546l-115 118h59l90 -71l91 71h59l-118 -118h-66z" />
    <glyph glyph-name="Sacute" unicode="&#x15a;" horiz-adv-x="565" 
d="M43 500q0 59 37 100.5t88 58.5t109 17q99 0 166 -47t85 -126l-65 -7q-36 121 -192 121q-39 0 -73.5 -9.5t-62 -36.5t-27.5 -68q0 -88 129 -116l80 -18q36 -8 62 -15.5t59.5 -23t54.5 -34t36 -48t15 -66.5q0 -92 -72 -143t-177 -51q-120 0 -192 59.5t-84 148.5l65 7
q34 -156 208 -156q31 0 61 5.5t59.5 18.5t47.5 39t18 62q0 56 -46.5 87.5t-127.5 49.5l-84 19q-177 40 -177 172zM428 803l-142 -105h-60l102 105h100z" />
    <glyph glyph-name="sacute" unicode="&#x15b;" horiz-adv-x="476" 
d="M421 363l-60 -8q-12 43 -47 67.5t-87 24.5q-46 0 -84.5 -19t-38.5 -60q0 -65 90 -82l70 -13q37 -7 62 -14.5t52 -22.5t41 -39.5t14 -58.5q0 -71 -56 -110.5t-141 -39.5q-79 0 -133 41t-66 116l60 8q10 -55 48 -84.5t96 -29.5q50 0 92 22t42 68q0 40 -30 59t-90 30l-78 15
q-59 11 -95.5 43.5t-36.5 87.5q0 59 52.5 96.5t137.5 37.5q76 0 125 -38.5t61 -96.5zM356 664l-121 -118h-51l84 118h88z" />
    <glyph glyph-name="Scircumflex" unicode="&#x15c;" horiz-adv-x="565" 
d="M43 500q0 59 37 100.5t88 58.5t109 17q99 0 166 -47t85 -126l-65 -7q-36 121 -192 121q-39 0 -73.5 -9.5t-62 -36.5t-27.5 -68q0 -88 129 -116l80 -18q36 -8 62 -15.5t59.5 -23t54.5 -34t36 -48t15 -66.5q0 -92 -72 -143t-177 -51q-120 0 -192 59.5t-84 148.5l65 7
q34 -156 208 -156q31 0 61 5.5t59.5 18.5t47.5 39t18 62q0 56 -46.5 87.5t-127.5 49.5l-84 19q-177 40 -177 172zM321 803l122 -105h-69l-93 62l-94 -62h-69l125 105h78z" />
    <glyph glyph-name="scircumflex" unicode="&#x15d;" horiz-adv-x="476" 
d="M421 363l-60 -8q-12 43 -47 67.5t-87 24.5q-46 0 -84.5 -19t-38.5 -60q0 -65 90 -82l70 -13q37 -7 62 -14.5t52 -22.5t41 -39.5t14 -58.5q0 -71 -56 -110.5t-141 -39.5q-79 0 -133 41t-66 116l60 8q10 -55 48 -84.5t96 -29.5q50 0 92 22t42 68q0 40 -30 59t-90 30l-78 15
q-59 11 -95.5 43.5t-36.5 87.5q0 59 52.5 96.5t137.5 37.5q76 0 125 -38.5t61 -96.5zM268 664l115 -118h-59l-90 71l-91 -71h-59l118 118h66z" />
    <glyph glyph-name="Scedilla" unicode="&#x15e;" horiz-adv-x="565" 
d="M198 -168l13 37q21 -8 45 -8q53 0 53 29q0 28 -40 28q-23 0 -36 -8l-19 14l41 66q-103 10 -164 67t-72 139l65 7q34 -156 208 -156q31 0 61 5.5t59.5 18.5t47.5 39t18 62q0 56 -46.5 87.5t-127.5 49.5l-84 19q-177 40 -177 172q0 59 37 100.5t88 58.5t109 17
q99 0 166 -47t85 -126l-65 -7q-36 121 -192 121q-39 0 -73.5 -9.5t-62 -36.5t-27.5 -68q0 -88 129 -116l80 -18q36 -8 62 -15.5t59.5 -23t54.5 -34t36 -48t15 -66.5q0 -92 -72 -143t-177 -51h-3l-20 -33q11 2 24 2q28 0 46.5 -17t18.5 -45q0 -35 -28 -53.5t-67 -18.5t-68 9z
" />
    <glyph glyph-name="scedilla" unicode="&#x15f;" horiz-adv-x="476" 
d="M150 -168l13 37q21 -8 45 -8q53 0 53 29q0 28 -40 28q-23 0 -36 -8l-19 14l40 66q-68 7 -113.5 47t-55.5 108l60 8q10 -55 48 -84.5t96 -29.5q50 0 92 22t42 68q0 40 -30 59t-90 30l-78 15q-59 11 -95.5 43.5t-36.5 87.5q0 59 52.5 96.5t137.5 37.5q76 0 125 -38.5
t61 -96.5l-60 -8q-12 43 -47 67.5t-87 24.5q-46 0 -84.5 -19t-38.5 -60q0 -65 90 -82l70 -13q37 -7 62 -14.5t52 -22.5t41 -39.5t14 -58.5q0 -70 -53.5 -109t-135.5 -41l-20 -33q11 2 24 2q28 0 46.5 -17t18.5 -45q0 -35 -28 -53.5t-67 -18.5t-68 9z" />
    <glyph glyph-name="Scaron" unicode="&#x160;" horiz-adv-x="565" 
d="M43 500q0 59 37 100.5t88 58.5t109 17q99 0 166 -47t85 -126l-65 -7q-36 121 -192 121q-39 0 -73.5 -9.5t-62 -36.5t-27.5 -68q0 -88 129 -116l80 -18q36 -8 62 -15.5t59.5 -23t54.5 -34t36 -48t15 -66.5q0 -92 -72 -143t-177 -51q-120 0 -192 59.5t-84 148.5l65 7
q34 -156 208 -156q31 0 61 5.5t59.5 18.5t47.5 39t18 62q0 56 -46.5 87.5t-127.5 49.5l-84 19q-177 40 -177 172zM238 698l-122 105h69l93 -62l94 62h69l-125 -105h-78z" />
    <glyph glyph-name="scaron" unicode="&#x161;" horiz-adv-x="476" 
d="M421 363l-60 -8q-12 43 -47 67.5t-87 24.5q-46 0 -84.5 -19t-38.5 -60q0 -65 90 -82l70 -13q37 -7 62 -14.5t52 -22.5t41 -39.5t14 -58.5q0 -71 -56 -110.5t-141 -39.5q-79 0 -133 41t-66 116l60 8q10 -55 48 -84.5t96 -29.5q50 0 92 22t42 68q0 40 -30 59t-90 30l-78 15
q-59 11 -95.5 43.5t-36.5 87.5q0 59 52.5 96.5t137.5 37.5q76 0 125 -38.5t61 -96.5zM208 546l-115 118h59l90 -71l91 71h59l-118 -118h-66z" />
    <glyph glyph-name="Tcommaaccent" unicode="&#x162;" horiz-adv-x="516" 
d="M227 0v606h-227v58h516v-58h-227v-606h-11l-28 -45q11 2 24 2q28 0 46.5 -17t18.5 -45q0 -35 -28 -53.5t-67 -18.5t-68 9l13 37q21 -8 45 -8q53 0 53 29q0 28 -40 28q-23 0 -36 -8l-19 14l47 76h-12z" />
    <glyph glyph-name="tcommaaccent" unicode="&#x163;" horiz-adv-x="280" 
d="M90 -168l13 37q21 -8 45 -8q53 0 53 29q0 28 -40 28q-23 0 -36 -8l-19 14l49 79q-36 6 -49 31t-13 85v321h-83v50h83v122h58v-122h99v-50h-99v-310q0 -51 10.5 -64.5t58.5 -13.5h30v-52h-48h-10l-28 -45q11 2 24 2q28 0 46.5 -17t18.5 -45q0 -35 -28 -53.5t-67 -18.5
t-68 9z" />
    <glyph glyph-name="Tcaron" unicode="&#x164;" horiz-adv-x="516" 
d="M227 0v606h-227v58h516v-58h-227v-606h-62zM217 698l-122 105h69l93 -62l94 62h69l-125 -105h-78z" />
    <glyph glyph-name="tcaron" unicode="&#x165;" horiz-adv-x="284" 
d="M324 664l-65 -158h-34l28 158h71zM93 490v122h58v-122h99v-50h-99v-310q0 -51 10.5 -64.5t58.5 -13.5h30v-52h-48q-67 0 -88 22.5t-21 96.5v321h-83v50h83z" />
    <glyph glyph-name="Tbar" unicode="&#x166;" horiz-adv-x="516" 
d="M227 0v315h-140v58h140v233h-227v58h516v-58h-227v-233h140v-58h-140v-315h-62z" />
    <glyph glyph-name="tbar" unicode="&#x167;" horiz-adv-x="280" 
d="M93 490v122h58v-122h99v-50h-99v-100h99v-50h-99v-160q0 -51 10.5 -64.5t58.5 -13.5h30v-52h-48q-67 0 -88 22.5t-21 96.5v171h-83v50h83v100h-83v50h83z" />
    <glyph glyph-name="Utilde" unicode="&#x168;" horiz-adv-x="658" 
d="M70 664h62v-403q0 -111 45.5 -162.5t150.5 -51.5q106 0 152 56t46 169v392h62v-384q0 -151 -59.5 -221.5t-200.5 -70.5q-139 0 -198.5 64.5t-59.5 219.5v392zM390 755q37 0 46 42h51q-8 -43 -32.5 -68t-60.5 -25q-28 0 -67 21.5t-53 21.5q-34 0 -45 -43h-50
q6 44 32.5 68.5t61.5 24.5q28 0 65.5 -21t51.5 -21z" />
    <glyph glyph-name="utilde" unicode="&#x169;" horiz-adv-x="509" 
d="M381 0v80q-49 -92 -160 -92q-78 0 -119 44q-42 46 -42 151v307h58v-295q0 -88 30 -124q27 -33 82 -33q65 0 108 49.5t43 128.5v274h58v-490h-58zM311 608q37 0 46 42h51q-8 -43 -32.5 -68t-60.5 -25q-29 0 -68 21.5t-52 21.5q-34 0 -45 -43h-50q6 44 32.5 68.5t61.5 24.5
q28 0 65.5 -21t51.5 -21z" />
    <glyph glyph-name="Umacron" unicode="&#x16a;" horiz-adv-x="658" 
d="M70 664h62v-403q0 -111 45.5 -162.5t150.5 -51.5q106 0 152 56t46 169v392h62v-384q0 -151 -59.5 -221.5t-200.5 -70.5q-139 0 -198.5 64.5t-59.5 219.5v392zM467 725h-279v58h279v-58z" />
    <glyph glyph-name="umacron" unicode="&#x16b;" horiz-adv-x="509" 
d="M381 0v80q-49 -92 -160 -92q-78 0 -119 44q-42 46 -42 151v307h58v-295q0 -88 30 -124q27 -33 82 -33q65 0 108 49.5t43 128.5v274h58v-490h-58zM383 581h-258v50h258v-50z" />
    <glyph glyph-name="Ubreve" unicode="&#x16c;" horiz-adv-x="658" 
d="M70 664h62v-403q0 -111 45.5 -162.5t150.5 -51.5q106 0 152 56t46 169v392h62v-384q0 -151 -59.5 -221.5t-200.5 -70.5q-139 0 -198.5 64.5t-59.5 219.5v392zM414 803h55q-5 -49 -43.5 -79.5t-101.5 -30.5q-61 0 -99 30.5t-43 79.5h55q4 -32 28.5 -48t59.5 -16t60 16.5
t29 47.5z" />
    <glyph glyph-name="ubreve" unicode="&#x16d;" horiz-adv-x="509" 
d="M381 0v80q-49 -92 -160 -92q-78 0 -119 44q-42 46 -42 151v307h58v-295q0 -88 30 -124q27 -33 82 -33q65 0 108 49.5t43 128.5v274h58v-490h-58zM389 664q-5 -55 -41 -88t-98 -33q-61 0 -96 33t-40 88h52q3 -35 24.5 -56t60.5 -21t61 21t25 56h52z" />
    <glyph glyph-name="Uring" unicode="&#x16e;" horiz-adv-x="658" 
d="M70 664h62v-403q0 -111 45.5 -162.5t150.5 -51.5q106 0 152 56t46 169v392h62v-384q0 -151 -59.5 -221.5t-200.5 -70.5q-139 0 -198.5 64.5t-59.5 219.5v392zM329 847q35 0 59.5 -22.5t24.5 -56.5t-24 -56.5t-60 -22.5t-60 22.5t-24 56.5t24.5 56.5t59.5 22.5zM329 808
q-16 0 -28 -11.5t-12 -28.5t12 -28t28 -11t28 11t12 28t-12 28.5t-28 11.5z" />
    <glyph glyph-name="uring" unicode="&#x16f;" horiz-adv-x="509" 
d="M381 0v80q-49 -92 -160 -92q-78 0 -119 44q-42 46 -42 151v307h58v-295q0 -88 30 -124q27 -33 82 -33q65 0 108 49.5t43 128.5v274h58v-490h-58zM250 696q35 0 59.5 -22.5t24.5 -56.5t-24 -56.5t-60 -22.5t-60 22.5t-24 56.5t24.5 56.5t59.5 22.5zM250 659
q-17 0 -29.5 -12t-12.5 -30t12.5 -29.5t29.5 -11.5t29.5 11.5t12.5 29.5t-12.5 30t-29.5 12z" />
    <glyph glyph-name="Uhungarumlaut" unicode="&#x170;" horiz-adv-x="658" 
d="M70 664h62v-403q0 -111 45.5 -162.5t150.5 -51.5q106 0 152 56t46 169v392h62v-384q0 -151 -59.5 -221.5t-200.5 -70.5q-139 0 -198.5 64.5t-59.5 219.5v392zM405 803l-142 -105h-60l102 105h100zM557 803l-142 -105h-60l102 105h100z" />
    <glyph glyph-name="uhungarumlaut" unicode="&#x171;" horiz-adv-x="509" 
d="M381 0v80q-49 -92 -160 -92q-78 0 -119 44q-42 46 -42 151v307h58v-295q0 -88 30 -124q27 -33 82 -33q65 0 108 49.5t43 128.5v274h58v-490h-58zM296 664l-121 -118h-51l84 118h88zM451 664l-121 -118h-51l84 118h88z" />
    <glyph glyph-name="Uogonek" unicode="&#x172;" horiz-adv-x="658" 
d="M70 664h62v-403q0 -111 45.5 -162.5t150.5 -51.5q106 0 152 56t46 169v392h62v-384q0 -142 -52.5 -212.5t-175.5 -78.5q-61 -31 -61 -65q0 -38 49 -38q16 0 34 4v-45q-22 -7 -50 -7q-41 0 -69.5 19t-28.5 56q0 47 61 76q-120 7 -172.5 72t-52.5 211v392z" />
    <glyph glyph-name="uogonek" unicode="&#x173;" horiz-adv-x="509" 
d="M381 0v80q-49 -92 -160 -92q-78 0 -119 44q-42 46 -42 151v307h58v-295q0 -88 30 -124q27 -33 82 -33q65 0 108 49.5t43 128.5v274h58v-490q-85 -37 -85 -76q0 -38 53 -38q16 0 34 4v-45q-22 -7 -50 -7q-41 0 -69.5 19t-28.5 56q0 29 26 52t62 35z" />
    <glyph glyph-name="Wcircumflex" unicode="&#x174;" horiz-adv-x="844" 
d="M457 664l152 -582l168 582h67l-202 -664h-71l-149 555l-148 -555h-71l-203 664h69l172 -582l147 582h69zM461 803l122 -105h-69l-93 62l-94 -62h-69l125 105h78z" />
    <glyph glyph-name="wcircumflex" unicode="&#x175;" horiz-adv-x="655" 
d="M298 490l-123 -399l-111 399h-64l145 -490h53l127 410l131 -410h54l145 490h-64l-107 -400l-128 400h-58zM357 664l115 -118h-59l-90 71l-91 -71h-59l118 118h66z" />
    <glyph glyph-name="Ycircumflex" unicode="&#x176;" horiz-adv-x="533" 
d="M-10 664h70l202 -357l209 357h72l-252 -421v-243h-62v245zM302 803l122 -105h-69l-93 62l-94 -62h-69l125 105h78z" />
    <glyph glyph-name="ycircumflex" unicode="&#x177;" horiz-adv-x="433" 
d="M46 -173h32q66 0 93.5 24t56.5 99l205 540h-62l-151 -410l-155 410h-65l191 -490l-15 -40q-19 -50 -39.5 -66t-57.5 -16h-33v-51zM249 664l115 -118h-59l-90 71l-91 -71h-59l118 118h66z" />
    <glyph glyph-name="Ydieresis" unicode="&#x178;" horiz-adv-x="533" 
d="M-10 664h70l202 -357l209 357h72l-252 -421v-243h-62v245zM140 796h62v-92h-62v92zM322 796h62v-92h-62v92z" />
    <glyph glyph-name="Zacute" unicode="&#x179;" horiz-adv-x="574" 
d="M538 664v-56l-428 -550h437v-58h-512v56l428 550h-395v58h470zM434 803l-142 -105h-60l102 105h100z" />
    <glyph glyph-name="zacute" unicode="&#x17a;" horiz-adv-x="481" 
d="M30 50v-50h381v50h-313l308 390v50h-356v-50h288zM351 664l-121 -118h-51l84 118h88z" />
    <glyph glyph-name="Zdotaccent" unicode="&#x17b;" horiz-adv-x="574" 
d="M538 664v-56l-428 -550h437v-58h-512v56l428 550h-395v58h470zM272 796h62v-92h-62v92z" />
    <glyph glyph-name="zdotaccent" unicode="&#x17c;" horiz-adv-x="481" 
d="M30 50v-50h381v50h-313l308 390v50h-356v-50h288zM197 651h58v-92h-58v92z" />
    <glyph glyph-name="Zcaron" unicode="&#x17d;" horiz-adv-x="574" 
d="M538 664v-56l-428 -550h437v-58h-512v56l428 550h-395v58h470zM264 698l-122 105h69l93 -62l94 62h69l-125 -105h-78z" />
    <glyph glyph-name="zcaron" unicode="&#x17e;" horiz-adv-x="481" 
d="M30 50v-50h381v50h-313l308 390v50h-356v-50h288zM202 546l-115 118h59l90 -71l91 71h59l-118 -118h-66z" />
    <glyph glyph-name="uni0186" unicode="&#x186;" horiz-adv-x="652" 
d="M99 470l-64 11q31 87 102 141t180 54q142 0 220 -94t78 -250q0 -157 -80 -250.5t-221 -93.5q-106 0 -179 55t-96 149l64 11q19 -78 78.5 -117t134.5 -39q106 0 170 74.5t64 210.5q0 132 -64.5 208.5t-169.5 76.5q-169 0 -217 -147z" />
    <glyph glyph-name="uni018F" unicode="&#x18f;" horiz-adv-x="684" 
d="M38 337h544q-1 132 -69 206t-173 74q-169 0 -221 -129l-61 23q32 79 107.5 122t175.5 43q140 0 223 -92t83 -252q0 -159 -84.5 -251.5t-223.5 -92.5q-143 0 -224.5 95t-76.5 254zM340 47q96 0 161.5 61.5t77.5 173.5h-470q4 -111 69 -173t162 -62z" />
    <glyph glyph-name="uni0190" unicode="&#x190;" horiz-adv-x="547" 
d="M501 58v-58h-226q-106 0 -169.5 46t-63.5 145q0 124 116 157q-88 43 -88 157q0 159 226 159h198v-58h-212q-148 0 -148 -114q0 -66 38.5 -93t111.5 -27h195v-56h-202q-88 0 -129 -29.5t-41 -96.5q0 -132 164 -132h230z" />
    <glyph glyph-name="uni019D" unicode="&#x19d;" horiz-adv-x="681" 
d="M0 -173v58h11q45 0 57 12.5t12 61.5v705h90l369 -598v598h62v-664h-90l-369 597v-637q0 -76 -22.5 -104.5t-88.5 -28.5h-31z" />
    <glyph glyph-name="uni019F" unicode="&#x19f;" horiz-adv-x="695" 
d="M655 332q0 -159 -84.5 -251.5t-223.5 -92.5q-142 0 -224.5 95t-82.5 249q0 153 85.5 248.5t223.5 95.5q140 0 223 -92.5t83 -251.5zM348 47q101 0 168 69t73 193h-484q7 -124 74 -193t169 -69zM348 617q-99 0 -166 -66t-76 -184h483q-10 118 -76 184t-165 66z" />
    <glyph glyph-name="Ohorn" unicode="&#x1a0;" horiz-adv-x="691" 
d="M654 332q0 -160 -84.5 -252t-224.5 -92q-142 0 -225 94.5t-83 249.5q0 154 85.5 249t224.5 95q103 0 186 -56q35 -24 64 -24q41 0 41 45q0 27 -20 51l54 20q23 -35 23 -72q0 -45 -25 -70t-70 -26q54 -87 54 -212zM588 332q0 135 -67 210t-175 75t-175.5 -75t-67.5 -210
t67.5 -210t175.5 -75t175 75t67 210z" />
    <glyph glyph-name="ohorn" unicode="&#x1a1;" horiz-adv-x="514" 
d="M31 243q0 125 65.5 190t160.5 65q57 0 109 -26q36 -18 61 -18q21 0 32 11.5t11 30.5q0 23 -13 48l46 17q19 -33 19 -67q0 -75 -84 -88q45 -64 45 -163q0 -125 -65.5 -190t-160.5 -65t-160.5 65t-65.5 190zM92 243q0 -99 46 -151.5t119 -52.5t119 52.5t46 151.5t-46 151.5
t-119 52.5t-119 -52.5t-46 -151.5z" />
    <glyph glyph-name="Uhorn" unicode="&#x1af;" horiz-adv-x="658" 
d="M70 664h62v-403q0 -111 45.5 -162.5t150.5 -51.5q106 0 152 56t46 169v392h42q25 0 37.5 12.5t12.5 32.5q0 28 -17 49l52 22q23 -26 23 -74q0 -43 -26.5 -65.5t-61.5 -24.5v-336q0 -151 -59.5 -221.5t-200.5 -70.5q-139 0 -198.5 64.5t-59.5 219.5v392z" />
    <glyph glyph-name="uhorn" unicode="&#x1b0;" horiz-adv-x="509" 
d="M381 0v80q-49 -92 -160 -92q-78 0 -119 44q-42 46 -42 151v307h58v-295q0 -88 30 -124q27 -33 82 -33q65 0 108 49.5t43 128.5v274h29q22 0 33.5 12.5t11.5 32.5q0 28 -17 49l52 22q23 -26 23 -74q0 -39 -21.5 -61t-52.5 -28v-443h-58z" />
    <glyph glyph-name="uni01C4" unicode="&#x1c4;" horiz-adv-x="1197" 
d="M533 332q0 72 -19.5 124t-48.5 80.5t-74.5 44.5t-85.5 20.5t-93 4.5h-70v-548h70q53 0 93 4.5t85.5 20.5t74.5 44.5t48.5 80.5t19.5 124zM80 664h134q85 0 151 -16t120.5 -52.5t84 -103t29.5 -160.5t-29.5 -160.5t-84 -103t-120.5 -52.5t-151 -16h-134v664zM1161 664v-56
l-428 -550h437v-58h-512v56l428 550h-395v58h470zM896 698l-122 105h69l93 -62l94 62h69l-125 -105h-78z" />
    <glyph glyph-name="uni01C5" unicode="&#x1c5;" horiz-adv-x="1079" 
d="M533 332q0 72 -19.5 124t-48.5 80.5t-74.5 44.5t-85.5 20.5t-93 4.5h-70v-548h70q53 0 93 4.5t85.5 20.5t74.5 44.5t48.5 80.5t19.5 124zM80 664h134q85 0 151 -16t120.5 -52.5t84 -103t29.5 -160.5t-29.5 -160.5t-84 -103t-120.5 -52.5t-151 -16h-134v664zM668 50v-50
h381v50h-313l308 390v50h-356v-50h288zM836 546l-115 118h59l90 -71l91 71h59l-118 -118h-66z" />
    <glyph glyph-name="uni01C6" unicode="&#x1c6;" horiz-adv-x="972" 
d="M461 664v-664h-57l-1 78q-53 -90 -169 -90q-89 0 -146 69t-57 187q0 117 59.5 185.5t153.5 68.5q50 0 93.5 -22t65.5 -65v253h58zM246 39q64 0 112.5 53t48.5 152q0 100 -47.5 151.5t-113.5 51.5q-70 0 -112 -54.5t-42 -148.5q0 -95 42 -150t112 -55zM561 0v50l308 390
h-288v50h356v-50l-308 -390h313v-50h-381zM729 546l-115 118h59l90 -71l91 71h59l-118 -118h-66z" />
    <glyph glyph-name="uni01C7" unicode="&#x1c7;" horiz-adv-x="761" 
d="M142 664v-606h357v-58h-419v664h62zM529 0v58h8q60 0 71 15t11 85v506h62v-509q0 -97 -23 -126t-102 -29h-27z" />
    <glyph glyph-name="uni01C8" unicode="&#x1c8;" horiz-adv-x="697" 
d="M142 664v-606h357v-58h-419v664h62zM569 -41v531h58v-532q0 -77 -20 -104t-85 -27h-31v53h11q45 0 56 14t11 65zM569 664h58v-92h-58v92z" />
    <glyph glyph-name="uni01C9" unicode="&#x1c9;" horiz-adv-x="396" 
d="M128 664v-664h-58v664h58zM268 -41v531h58v-532q0 -77 -20 -104t-85 -27h-31v53h11q45 0 56 14t11 65zM268 664h58v-92h-58v92z" />
    <glyph glyph-name="uni01CA" unicode="&#x1ca;" horiz-adv-x="943" 
d="M601 0h-90l-369 597v-597h-62v664h90l369 -598v598h62v-664zM711 0v58h8q60 0 71 15t11 85v506h62v-509q0 -97 -23 -126t-102 -29h-27z" />
    <glyph glyph-name="uni01CB" unicode="&#x1cb;" horiz-adv-x="879" 
d="M601 0h-90l-369 597v-597h-62v664h90l369 -598v598h62v-664zM751 -41v531h58v-532q0 -77 -20 -104t-85 -27h-31v53h11q45 0 56 14t11 65zM751 664h58v-92h-58v92z" />
    <glyph glyph-name="uni01CC" unicode="&#x1cc;" horiz-adv-x="715" 
d="M128 490v-84q48 92 166 92q87 0 130 -52q38 -47 38 -141v-305h-58v290q0 81 -28 118q-29 39 -97 39q-65 0 -108 -49.5t-43 -128.5v-269h-58v490h58zM587 -41v531h58v-532q0 -77 -20 -104t-85 -27h-31v53h11q45 0 56 14t11 65zM587 664h58v-92h-58v92z" />
    <glyph glyph-name="uni01F1" unicode="&#x1f1;" horiz-adv-x="1160" 
d="M533 332q0 72 -19.5 124t-48.5 80.5t-74.5 44.5t-85.5 20.5t-93 4.5h-70v-548h70q53 0 93 4.5t85.5 20.5t74.5 44.5t48.5 80.5t19.5 124zM80 664h134q85 0 151 -16t120.5 -52.5t84 -103t29.5 -160.5t-29.5 -160.5t-84 -103t-120.5 -52.5t-151 -16h-134v664zM1124 664v-56
l-428 -550h437v-58h-512v56l428 550h-395v58h470z" />
    <glyph glyph-name="uni01F2" unicode="&#x1f2;" horiz-adv-x="1117" 
d="M533 332q0 72 -19.5 124t-48.5 80.5t-74.5 44.5t-85.5 20.5t-93 4.5h-70v-548h70q53 0 93 4.5t85.5 20.5t74.5 44.5t48.5 80.5t19.5 124zM80 664h134q85 0 151 -16t120.5 -52.5t84 -103t29.5 -160.5t-29.5 -160.5t-84 -103t-120.5 -52.5t-151 -16h-134v664zM666 50v-50
h381v50h-313l308 390v50h-356v-50h288z" />
    <glyph glyph-name="uni01F3" unicode="&#x1f3;" horiz-adv-x="1012" 
d="M461 664v-664h-57l-1 78q-53 -90 -169 -90q-89 0 -146 69t-57 187q0 117 59.5 185.5t153.5 68.5q50 0 93.5 -22t65.5 -65v253h58zM246 39q64 0 112.5 53t48.5 152q0 100 -47.5 151.5t-113.5 51.5q-70 0 -112 -54.5t-42 -148.5q0 -95 42 -150t112 -55zM561 0v50l308 390
h-288v50h356v-50l-308 -390h313v-50h-381z" />
    <glyph glyph-name="Aringacute" unicode="&#x1fa;" horiz-adv-x="583" 
d="M425 922l-108 -80q25 -8 41 -28t16 -46q0 -34 -24 -56.5t-60 -22.5t-60 22.5t-24 56.5t40 74l79 80h100zM290 808q-16 0 -28 -11.5t-12 -28.5t12 -28t28 -11t28 11t12 28t-12 28.5t-28 11.5zM0 0l256 664h70l257 -664h-68l-65 169h-319l-64 -169h-67zM289 587l-136 -360
h274z" />
    <glyph glyph-name="aringacute" unicode="&#x1fb;" horiz-adv-x="486" 
d="M341 762l-83 -87q30 -5 50 -26.5t20 -51.5q0 -34 -24 -56.5t-60 -22.5t-60 22.5t-24 56.5q0 29 37 83l56 82h88zM244 639q-17 0 -29.5 -12t-12.5 -30t12.5 -29.5t29.5 -11.5t29.5 11.5t12.5 29.5t-12.5 30t-29.5 12zM52 347l60 -2q3 47 35.5 74.5t93.5 27.5t96.5 -23.5
t35.5 -90.5v-29l-98 -10q-137 -14 -188 -48q-53 -36 -53 -105q0 -66 45 -109.5t125 -43.5q122 0 170 88l4 -76h58q-6 108 -6 160q0 14 0.5 67.5t0.5 104.5q0 92 -45.5 129t-138.5 37q-85 0 -138 -40t-57 -111zM376 225q0 -95 -45 -140.5t-116 -45.5q-54 0 -87 27.5t-33 72.5
q0 49 41 72.5t133 32.5l107 11v-30z" />
    <glyph glyph-name="AEacute" unicode="&#x1fc;" horiz-adv-x="878" 
d="M413 664h432v-58h-370v-233h348v-58h-348v-257h370v-58h-432v169h-242l-104 -169h-67zM413 559l-206 -332h206v332zM762 803l-142 -105h-60l102 105h100z" />
    <glyph glyph-name="aeacute" unicode="&#x1fd;" horiz-adv-x="855" 
d="M54 347l60 -2q6 47 37 74.5t91 27.5t95.5 -24.5t35.5 -92.5v-26l-98 -10q-136 -13 -188 -50q-53 -36 -53 -103q0 -66 45 -109.5t125 -43.5q145 0 199 120q53 -120 196 -120q84 0 143.5 40t77.5 114l-60 8q-32 -110 -157 -110q-76 0 -124 52t-48 139h394q5 119 -55.5 193
t-167.5 74q-122 0 -183 -96q-34 96 -171 96q-83 0 -135 -41t-59 -110zM215 39q-54 0 -87 27.5t-33 72.5q0 49 41 72.5t133 32.5l107 11v-30q0 -95 -45 -140.5t-116 -45.5zM762 281h-330q7 78 53.5 122.5t114.5 44.5q75 0 118.5 -49.5t43.5 -117.5zM568 664l-121 -118h-51
l84 118h88z" />
    <glyph glyph-name="Oslashacute" unicode="&#x1fe;" horiz-adv-x="689" 
d="M646 646l-66 -77q72 -91 72 -237q0 -159 -84.5 -251.5t-223.5 -92.5q-118 0 -199 70l-61 -71l-37 33l63 74q-73 91 -73 238q0 153 85.5 248.5t223.5 95.5q121 0 200 -70l62 72zM102 332q0 -113 51 -188l351 413q-65 60 -159 60q-107 0 -175 -75t-68 -210zM587 332
q0 112 -50 186l-352 -412q65 -59 160 -59q106 0 174 75t68 210zM498 803l-142 -105h-60l102 105h100z" />
    <glyph glyph-name="oslashacute" unicode="&#x1ff;" horiz-adv-x="514" 
d="M31 243q0 125 65.5 190t160.5 65q84 0 143 -49l43 50l38 -32l-47 -55q49 -67 49 -169q0 -125 -65.5 -190t-160.5 -65q-85 0 -144 50l-43 -50l-37 33l46 53q-48 66 -48 169zM422 243q0 74 -27 123l-246 -286q42 -41 108 -41q73 0 119 52.5t46 151.5zM92 243q0 -74 26 -123
l246 287q-43 40 -107 40q-73 0 -119 -52.5t-46 -151.5zM390 664l-121 -118h-51l84 118h88z" />
    <glyph glyph-name="Scommaaccent" unicode="&#x218;" horiz-adv-x="565" 
d="M43 500q0 59 37 100.5t88 58.5t109 17q99 0 166 -47t85 -126l-65 -7q-36 121 -192 121q-39 0 -73.5 -9.5t-62 -36.5t-27.5 -68q0 -88 129 -116l80 -18q36 -8 62 -15.5t59.5 -23t54.5 -34t36 -48t15 -66.5q0 -92 -72 -143t-177 -51q-120 0 -192 59.5t-84 148.5l65 7
q34 -156 208 -156q31 0 61 5.5t59.5 18.5t47.5 39t18 62q0 56 -46.5 87.5t-127.5 49.5l-84 19q-177 40 -177 172zM259 -116v83h78v-89l-41 -83h-40l36 89h-33z" />
    <glyph glyph-name="scommaaccent" unicode="&#x219;" horiz-adv-x="476" 
d="M421 363l-60 -8q-12 43 -47 67.5t-87 24.5q-46 0 -84.5 -19t-38.5 -60q0 -65 90 -82l70 -13q37 -7 62 -14.5t52 -22.5t41 -39.5t14 -58.5q0 -71 -56 -110.5t-141 -39.5q-79 0 -133 41t-66 116l60 8q10 -55 48 -84.5t96 -29.5q50 0 92 22t42 68q0 40 -30 59t-90 30l-78 15
q-59 11 -95.5 43.5t-36.5 87.5q0 59 52.5 96.5t137.5 37.5q76 0 125 -38.5t61 -96.5zM199 -116v83h78v-89l-41 -83h-40l36 89h-33z" />
    <glyph glyph-name="uni021A" unicode="&#x21a;" horiz-adv-x="516" 
d="M227 0v606h-227v58h516v-58h-227v-606h-62zM219 -116v83h78v-89l-41 -83h-40l36 89h-33z" />
    <glyph glyph-name="uni021B" unicode="&#x21b;" horiz-adv-x="280" 
d="M93 490v122h58v-122h99v-50h-99v-310q0 -51 10.5 -64.5t58.5 -13.5h30v-52h-48q-67 0 -88 22.5t-21 96.5v321h-83v50h83zM98 -116v83h78v-89l-41 -83h-40l36 89h-33z" />
    <glyph glyph-name="uni021C" unicode="&#x21c;" horiz-adv-x="522" 
d="M-2 -180v63q97 3 171.5 16t133 38.5t89.5 69.5t31 104q0 64 -43 105t-122 41q-32 0 -66 -7l-10 54q53 14 87.5 27.5t68 33.5t49.5 49t16 67q0 58 -43 97t-114 39t-121.5 -37t-69.5 -113l-63 14q22 86 85 140.5t169 54.5q100 0 161.5 -51t61.5 -133q0 -70 -40.5 -118
t-105.5 -72q77 -15 121.5 -64t44.5 -127q0 -277 -491 -291z" />
    <glyph glyph-name="uni021D" unicode="&#x21d;" horiz-adv-x="466" 
d="M16 -190l-1 53q74 2 137.5 14t117 33.5t84.5 57.5t31 83q0 60 -53.5 92t-148.5 14l-8 48q95 23 143.5 52.5t48.5 84.5q0 45 -37.5 75t-101.5 30q-63 0 -107.5 -29t-60.5 -89l-60 11q20 71 75.5 114.5t152.5 43.5q91 0 145.5 -41t54.5 -106q0 -106 -124 -150
q65 -12 103.5 -50t38.5 -100q0 -105 -112.5 -170t-317.5 -71z" />
    <glyph glyph-name="uni0226" unicode="&#x226;" horiz-adv-x="583" 
d="M0 0l256 664h70l257 -664h-68l-65 169h-319l-64 -169h-67zM289 587l-136 -360h274zM258 796h62v-92h-62v92z" />
    <glyph glyph-name="uni0227" unicode="&#x227;" horiz-adv-x="486" 
d="M52 347l60 -2q3 47 35.5 74.5t93.5 27.5t96.5 -23.5t35.5 -90.5v-29l-98 -10q-137 -14 -188 -48q-53 -36 -53 -105q0 -66 45 -109.5t125 -43.5q122 0 170 88l4 -76h58q-6 108 -6 160q0 14 0.5 67.5t0.5 104.5q0 92 -45.5 129t-138.5 37q-85 0 -138 -40t-57 -111zM376 225
q0 -95 -45 -140.5t-116 -45.5q-54 0 -87 27.5t-33 72.5q0 49 41 72.5t133 32.5l107 11v-30zM213 651h58v-92h-58v92z" />
    <glyph glyph-name="uni0232" unicode="&#x232;" horiz-adv-x="533" 
d="M-10 664h70l202 -357l209 357h72l-252 -421v-243h-62v245zM401 725h-279v58h279v-58z" />
    <glyph glyph-name="uni0233" unicode="&#x233;" horiz-adv-x="433" 
d="M46 -173h32q66 0 93.5 24t56.5 99l205 540h-62l-151 -410l-155 410h-65l191 -490l-15 -40q-19 -50 -39.5 -66t-57.5 -16h-33v-51zM351 581h-258v50h258v-50z" />
    <glyph glyph-name="dotlessj" unicode="&#x237;" horiz-adv-x="200" 
d="M72 -41v531h58v-530q0 -77 -21 -105t-86 -28h-31v53h11q44 0 56.5 14.5t12.5 64.5z" />
    <glyph glyph-name="uni0254" unicode="&#x254;" horiz-adv-x="478" 
d="M236 -12q-80 0 -133.5 44.5t-66.5 106.5l58 12q13 -54 52.5 -82.5t95.5 -28.5q70 0 116 52.5t46 148.5q0 98 -47 151.5t-116 53.5q-62 0 -101.5 -30.5t-50.5 -80.5l-58 12q16 66 73 108.5t139 42.5q104 0 163 -71t59 -185t-62 -184t-167 -70z" />
    <glyph glyph-name="uni0259" unicode="&#x259;" horiz-adv-x="515" 
d="M253 498q108 0 169.5 -70t61.5 -185q0 -116 -65 -185.5t-165 -69.5q-107 0 -167.5 75t-55.5 192h393q-1 88 -49.5 139.5t-125.5 51.5q-59 0 -98.5 -29t-56.5 -81l-58 12q19 70 77 110t140 40zM256 38q67 0 113.5 44t53.5 123h-329q0 -68 43.5 -117.5t118.5 -49.5z" />
    <glyph glyph-name="uni025B" unicode="&#x25b;" horiz-adv-x="479" 
d="M444 50v-50h-201q-101 0 -153 36t-52 102q0 93 98 119q-35 16 -54 46t-19 62q0 125 204 125h174v-50h-187q-131 0 -131 -77q0 -84 127 -84h170v-50h-170q-77 0 -114 -21t-37 -68q0 -42 38 -66t108 -24h199z" />
    <glyph glyph-name="uni0272" unicode="&#x272;" horiz-adv-x="517" 
d="M70 -41v531h58v-84q48 92 166 92q168 0 168 -187v-311h-58v294q0 82 -31 117.5t-94 35.5q-65 0 -108 -49.5t-43 -128.5v-309q0 -77 -21 -105t-86 -28h-31v53h11q44 0 56.5 14.5t12.5 64.5z" />
    <glyph glyph-name="uni0275" unicode="&#x275;" horiz-adv-x="514" 
d="M31 243q0 125 65.5 190t160.5 65t160.5 -65t65.5 -190t-65.5 -190t-160.5 -65t-160.5 65t-65.5 190zM257 447q-67 0 -112 -45.5t-52 -131.5h328q-7 86 -52 131.5t-112 45.5zM257 39q67 0 112 45t52 131h-328q7 -86 52 -131t112 -45z" />
    <glyph glyph-name="circumflex" unicode="&#x2c6;" horiz-adv-x="339" 
d="M204 664l115 -118h-59l-90 71l-91 -71h-59l118 118h66z" />
    <glyph glyph-name="caron" unicode="&#x2c7;" horiz-adv-x="339" 
d="M135 546l-115 118h59l90 -71l91 71h59l-118 -118h-66z" />
    <glyph glyph-name="breve" unicode="&#x2d8;" horiz-adv-x="315" 
d="M295 664q-5 -55 -41 -88t-98 -33q-61 0 -96 33t-40 88h52q3 -35 24.5 -56t60.5 -21t61 21t25 56h52z" />
    <glyph glyph-name="dotaccent" unicode="&#x2d9;" horiz-adv-x="98" 
d="M20 651h58v-92h-58v92z" />
    <glyph glyph-name="ring" unicode="&#x2da;" horiz-adv-x="208" 
d="M104 696q35 0 59.5 -22.5t24.5 -56.5t-24 -56.5t-60 -22.5t-60 22.5t-24 56.5t24.5 56.5t59.5 22.5zM104 659q-17 0 -29.5 -12t-12.5 -30t12.5 -29.5t29.5 -11.5t29.5 11.5t12.5 29.5t-12.5 30t-29.5 12z" />
    <glyph glyph-name="ogonek" unicode="&#x2db;" horiz-adv-x="188" 
d="M108 0h58q-85 -37 -85 -76q0 -38 53 -38q16 0 34 4v-45q-22 -7 -50 -7q-41 0 -69.5 19t-28.5 56q0 29 26 52t62 35z" />
    <glyph glyph-name="tilde" unicode="&#x2dc;" horiz-adv-x="368" 
d="M241 608q37 0 46 42h51q-8 -43 -32.5 -68t-60.5 -25q-29 0 -68 21.5t-52 21.5q-34 0 -45 -43h-50q6 44 32.5 68.5t61.5 24.5q28 0 65.5 -21t51.5 -21z" />
    <glyph glyph-name="hungarumlaut" unicode="&#x2dd;" horiz-adv-x="367" 
d="M192 664l-121 -118h-51l84 118h88zM347 664l-121 -118h-51l84 118h88z" />
    <glyph glyph-name="uni032C" unicode="&#x32c;" horiz-adv-x="339" 
d="M140 -128l-120 128h51l98 -76l99 76h51l-123 -128h-56z" />
    <glyph glyph-name="pi" unicode="&#x3c0;" horiz-adv-x="565" 
d="M147 0h-58v435h-69v55h525v-55h-70v-305q0 -52 9 -65t53 -13h8v-52h-26q-63 0 -82.5 22.5t-19.5 96.5v316h-270v-435z" />
    <glyph glyph-name="Wgrave" unicode="&#x1e80;" horiz-adv-x="844" 
d="M457 664l152 -582l168 582h67l-202 -664h-71l-149 555l-148 -555h-71l-203 664h69l172 -582l147 582h69zM394 698l-142 105h100l102 -105h-60z" />
    <glyph glyph-name="wgrave" unicode="&#x1e81;" horiz-adv-x="655" 
d="M298 490l-123 -399l-111 399h-64l145 -490h53l127 410l131 -410h54l145 490h-64l-107 -400l-128 400h-58zM280 546l-121 118h88l84 -118h-51z" />
    <glyph glyph-name="Wacute" unicode="&#x1e82;" horiz-adv-x="844" 
d="M457 664l152 -582l168 582h67l-202 -664h-71l-149 555l-148 -555h-71l-203 664h69l172 -582l147 582h69zM580 803l-142 -105h-60l102 105h100z" />
    <glyph glyph-name="wacute" unicode="&#x1e83;" horiz-adv-x="655" 
d="M298 490l-123 -399l-111 399h-64l145 -490h53l127 410l131 -410h54l145 490h-64l-107 -400l-128 400h-58zM467 664l-121 -118h-51l84 118h88z" />
    <glyph glyph-name="Wdieresis" unicode="&#x1e84;" horiz-adv-x="844" 
d="M457 664l152 -582l168 582h67l-202 -664h-71l-149 555l-148 -555h-71l-203 664h69l172 -582l147 582h69zM301 796h62v-92h-62v92zM483 796h62v-92h-62v92z" />
    <glyph glyph-name="wdieresis" unicode="&#x1e85;" horiz-adv-x="655" 
d="M298 490l-123 -399l-111 399h-64l145 -490h53l127 410l131 -410h54l145 490h-64l-107 -400l-128 400h-58zM200 559v92h58v-92h-58zM386 651h58v-92h-58v92z" />
    <glyph glyph-name="uni1EA0" unicode="&#x1ea0;" horiz-adv-x="583" 
d="M0 0l256 664h70l257 -664h-68l-65 169h-319l-64 -169h-67zM289 587l-136 -360h274zM260 -45h58v-92h-58v92z" />
    <glyph glyph-name="uni1EA1" unicode="&#x1ea1;" horiz-adv-x="486" 
d="M112 345l-60 2q4 71 57 111t138 40q93 0 138.5 -37t45.5 -129q0 -51 -0.5 -104.5t-0.5 -67.5q0 -52 6 -160h-58l-4 76q-48 -88 -170 -88q-80 0 -125 43.5t-45 109.5q0 69 53 105q51 34 188 48l98 10v29q0 67 -35.5 90.5t-96.5 23.5t-93.5 -27.5t-35.5 -74.5zM376 225v30
l-107 -11q-92 -9 -133 -32.5t-41 -72.5q0 -45 33 -72.5t87 -27.5q71 0 116 45.5t45 140.5zM213 -45h58v-92h-58v92z" />
    <glyph glyph-name="uni1EB8" unicode="&#x1eb8;" horiz-adv-x="545" 
d="M80 0v664h432v-58h-370v-233h348v-58h-348v-257h370v-58h-432zM272 -45h58v-92h-58v92z" />
    <glyph glyph-name="uni1EB9" unicode="&#x1eb9;" horiz-adv-x="510" 
d="M262 -12q-108 0 -169.5 70t-61.5 185q0 117 65 186t168 69q106 0 166.5 -74.5t54.5 -192.5h-394q0 -87 48.5 -139t126.5 -52q58 0 99 29t55 81l60 -8q-17 -72 -76 -113t-142 -41zM263 448q-71 0 -117.5 -44t-53.5 -123h330q0 68 -43.5 117.5t-115.5 49.5zM230 -45h58v-92
h-58v92z" />
    <glyph glyph-name="uni1ECA" unicode="&#x1eca;" horiz-adv-x="222" 
d="M142 664v-664h-62v664h62zM82 -45h58v-92h-58v92z" />
    <glyph glyph-name="uni1ECB" unicode="&#x1ecb;" horiz-adv-x="198" 
d="M70 490h58v-490h-58v490zM70 664h58v-92h-58v92zM71 -45h58v-92h-58v92z" />
    <glyph glyph-name="uni1ECC" unicode="&#x1ecc;" horiz-adv-x="691" 
d="M588 332q0 135 -67 210t-175 75t-175.5 -75t-67.5 -210t67.5 -210t175.5 -75t175 75t67 210zM654 332q0 -160 -84.5 -252t-224.5 -92q-142 0 -225 94.5t-83 249.5q0 154 85.5 249t224.5 95q140 0 223.5 -92t83.5 -252zM318 -45h58v-92h-58v92z" />
    <glyph glyph-name="uni1ECD" unicode="&#x1ecd;" horiz-adv-x="514" 
d="M92 243q0 -99 46 -151.5t119 -52.5t119 52.5t46 151.5t-46 151.5t-119 52.5t-119 -52.5t-46 -151.5zM31 243q0 125 65.5 190t160.5 65t160.5 -65t65.5 -190t-65.5 -190t-160.5 -65t-160.5 65t-65.5 190zM225 -45h58v-92h-58v92z" />
    <glyph glyph-name="uni1EE4" unicode="&#x1ee4;" horiz-adv-x="658" 
d="M70 664h62v-403q0 -111 45.5 -162.5t150.5 -51.5q106 0 152 56t46 169v392h62v-384q0 -151 -59.5 -221.5t-200.5 -70.5q-139 0 -198.5 64.5t-59.5 219.5v392zM295 -45h58v-92h-58v92z" />
    <glyph glyph-name="uni1EE5" unicode="&#x1ee5;" horiz-adv-x="509" 
d="M381 0v80q-49 -92 -160 -92q-78 0 -119 44q-42 46 -42 151v307h58v-295q0 -88 30 -124q27 -33 82 -33q65 0 108 49.5t43 128.5v274h58v-490h-58zM210 -45h58v-92h-58v92z" />
    <glyph glyph-name="Ygrave" unicode="&#x1ef2;" horiz-adv-x="533" 
d="M-10 664h70l202 -357l209 357h72l-252 -421v-243h-62v245zM270 698l-142 105h100l102 -105h-60z" />
    <glyph glyph-name="ygrave" unicode="&#x1ef3;" horiz-adv-x="433" 
d="M46 -173h32q66 0 93.5 24t56.5 99l205 540h-62l-151 -410l-155 410h-65l191 -490l-15 -40q-19 -50 -39.5 -66t-57.5 -16h-33v-51zM216 546l-121 118h88l84 -118h-51z" />
    <glyph glyph-name="endash" unicode="&#x2013;" horiz-adv-x="433" 
d="M403 225h-373v55h373v-55z" />
    <glyph glyph-name="emdash" unicode="&#x2014;" horiz-adv-x="642" 
d="M612 225h-582v55h582v-55z" />
    <glyph glyph-name="quoteleft" unicode="&#x2018;" horiz-adv-x="201" 
d="M141 536v-87h-81v94l46 121h43l-40 -128h32z" />
    <glyph glyph-name="quoteright" unicode="&#x2019;" horiz-adv-x="201" 
d="M60 577v87h81v-94l-46 -121h-43l40 128h-32z" />
    <glyph glyph-name="quotesinglbase" unicode="&#x201a;" horiz-adv-x="201" 
d="M60 0v87h81v-94l-46 -121h-43l40 128h-32z" />
    <glyph glyph-name="quotedblleft" unicode="&#x201c;" horiz-adv-x="339" 
d="M279 536v-87h-81v94l46 121h43l-40 -128h32zM141 536v-87h-81v94l46 121h43l-40 -128h32z" />
    <glyph glyph-name="quotedblright" unicode="&#x201d;" horiz-adv-x="339" 
d="M60 577v87h81v-94l-46 -121h-43l40 128h-32zM198 577v87h81v-94l-46 -121h-43l40 128h-32z" />
    <glyph glyph-name="quotedblbase" unicode="&#x201e;" horiz-adv-x="350" 
d="M60 0v87h81v-94l-46 -121h-43l40 128h-32zM209 0v87h81v-94l-46 -121h-43l40 128h-32z" />
    <glyph glyph-name="dagger" unicode="&#x2020;" horiz-adv-x="478" 
d="M268 0h-58v395h-190v55h190v214h58v-214h190v-55h-190v-395z" />
    <glyph glyph-name="daggerdbl" unicode="&#x2021;" horiz-adv-x="478" 
d="M268 243h190v-55h-190v-188h-58v188h-190v55h190v165h-190v55h190v201h58v-201h190v-55h-190v-165z" />
    <glyph glyph-name="bullet" unicode="&#x2022;" horiz-adv-x="415" 
d="M40 259q0 68 48 116.5t116 48.5q72 0 121.5 -48t49.5 -117q0 -72 -49 -121t-122 -49q-68 0 -116 49t-48 121z" />
    <glyph glyph-name="ellipsis" unicode="&#x2026;" horiz-adv-x="701" 
d="M60 0v87h81v-87h-81zM311 0v87h81v-87h-81zM560 0v87h81v-87h-81z" />
    <glyph glyph-name="perthousand" unicode="&#x2030;" horiz-adv-x="1140" 
d="M190 278q-74 0 -111.5 52.5t-37.5 145.5q0 92 37 143.5t112 51.5q74 0 111.5 -51.5t37.5 -143.5q0 -93 -37.5 -145.5t-111.5 -52.5zM190 321q46 0 72 39t26 116q0 152 -98 152t-98 -152q0 -77 26 -116t72 -39zM136 0h64l465 664h-64zM610 -7q-74 0 -111.5 52.5
t-37.5 145.5q0 92 37 143.5t112 51.5q74 0 111.5 -51.5t37.5 -143.5q0 -93 -37.5 -145.5t-111.5 -52.5zM610 36q46 0 72 39t26 116q0 152 -98 152t-98 -152q0 -77 26 -116t72 -39zM950 -7q-74 0 -111.5 52.5t-37.5 145.5q0 92 37 143.5t112 51.5q74 0 111.5 -51.5
t37.5 -143.5q0 -93 -37.5 -145.5t-111.5 -52.5zM950 36q46 0 72 39t26 116q0 152 -98 152t-98 -152q0 -77 26 -116t72 -39z" />
    <glyph glyph-name="guilsinglleft" unicode="&#x2039;" horiz-adv-x="237" 
d="M157 43l-147 210l146 211h61l-139 -210l139 -211h-60z" />
    <glyph glyph-name="guilsinglright" unicode="&#x203a;" horiz-adv-x="237" 
d="M227 253l-147 -210h-60l139 211l-139 210h61z" />
    <glyph glyph-name="fraction" unicode="&#x2044;" horiz-adv-x="90" 
d="M-155 0h-64l465 664h64z" />
    <glyph glyph-name="zero.superior" unicode="&#x2070;" horiz-adv-x="378" 
d="M189 400q-74 0 -111.5 52.5t-37.5 145.5q0 92 37 143.5t112 51.5q74 0 111.5 -51.5t37.5 -143.5q0 -93 -37.5 -145.5t-111.5 -52.5zM189 443q46 0 72 39t26 116q0 152 -98 152t-98 -152q0 -77 26 -116t72 -39z" />
    <glyph glyph-name="four.superior" unicode="&#x2074;" horiz-adv-x="349" 
d="M208 719l-136 -172h136v172zM327 547v-45h-70v-95h-49v95h-190v45l190 239h49v-239h70z" />
    <glyph glyph-name="five.superior" unicode="&#x2075;" horiz-adv-x="340" 
d="M169 443q36 0 60.5 23t24.5 65q0 44 -25.5 66.5t-60.5 22.5q-27 0 -46.5 -12.5t-26.5 -28.5l-49 3l25 204h220v-47h-181l-13 -105q29 28 83 28q53 0 89.5 -35t36.5 -95q0 -62 -40 -97t-97 -35q-62 0 -96 33t-41 82l50 4q11 -76 87 -76z" />
    <glyph glyph-name="six.superior" unicode="&#x2076;" horiz-adv-x="345" 
d="M93 529q0 -40 22.5 -63t60.5 -23t61 23.5t23 62.5q0 38 -23 62t-60 24t-60.5 -24t-23.5 -62zM181 750q-43 0 -67.5 -38t-26.5 -105q32 52 101 52q54 0 89 -35.5t35 -92.5q0 -55 -37.5 -93t-97.5 -38q-139 0 -139 183q0 90 36 150t113 60q52 0 81.5 -27t36.5 -67l-52 -1
q-9 52 -72 52z" />
    <glyph glyph-name="seven.superior" unicode="&#x2077;" horiz-adv-x="284" 
d="M12 739v47h266v-46q-149 -121 -162 -333h-59q13 200 164 332h-209z" />
    <glyph glyph-name="eight.superior" unicode="&#x2078;" horiz-adv-x="367" 
d="M183 793q58 0 93 -27t35 -70q0 -59 -53 -87q65 -27 65 -95q0 -53 -39.5 -83.5t-100.5 -30.5t-100.5 30.5t-39.5 83.5q0 68 65 95q-53 28 -53 87q0 43 35 70t93 27zM183 587q-40 0 -64 -20t-24 -53t23.5 -52t64.5 -19t65 19t24 52t-24.5 53t-64.5 20zM263 691q0 27 -22 43
t-58 16t-57.5 -16t-21.5 -43q0 -29 22 -47t57 -18q36 0 58 18t22 47z" />
    <glyph glyph-name="nine.superior" unicode="&#x2079;" horiz-adv-x="336" 
d="M246 664q0 40 -22.5 63t-60.5 23q-37 0 -60.5 -23.5t-23.5 -62.5q0 -38 23.5 -62t60.5 -24t60 24t23 62zM158 443q44 0 68 38t26 105q-29 -52 -101 -52q-54 0 -88.5 35.5t-34.5 92.5q0 55 37.5 93t97.5 38q139 0 139 -183q0 -91 -35.5 -150.5t-112.5 -59.5q-53 0 -83 27
t-37 67l53 1q9 -52 71 -52z" />
    <glyph glyph-name="plus.superior" unicode="&#x207a;" horiz-adv-x="340" 
d="M194 407h-49v120h-119v46h119v116h49v-116h119v-46h-119v-120z" />
    <glyph glyph-name="minus.superior" unicode="&#x207b;" horiz-adv-x="352" 
d="M32 573h287v-46h-287v46z" />
    <glyph glyph-name="equal.superior" unicode="&#x207c;" horiz-adv-x="341" 
d="M303 583h-265v46h265v-46zM303 476h-265v46h265v-46z" />
    <glyph glyph-name="parenleft.superior" unicode="&#x207d;" horiz-adv-x="149" 
d="M26 547q0 134 73 239h40q-63 -103 -63 -239t63 -239h-40q-73 105 -73 239z" />
    <glyph glyph-name="parenright.superior" unicode="&#x207e;" horiz-adv-x="149" 
d="M122 547q0 -134 -73 -239h-40q63 103 63 239t-63 239h40q73 -105 73 -239z" />
    <glyph glyph-name="n.superior" unicode="&#x207f;" horiz-adv-x="324" 
d="M96 687v-39q27 43 91 43q55 0 79 -38q15 -27 15 -74v-172h-49v159q0 42 -10 59q-14 24 -52 24q-35 0 -54.5 -24t-19.5 -69v-149h-49v280h49z" />
    <glyph glyph-name="zero.inferior" unicode="&#x2080;" horiz-adv-x="378" 
d="M189 -127q-74 0 -111.5 52.5t-37.5 145.5q0 92 37 143.5t112 51.5q74 0 111.5 -51.5t37.5 -143.5q0 -93 -37.5 -145.5t-111.5 -52.5zM189 -84q46 0 72 39t26 116q0 152 -98 152t-98 -152q0 -77 26 -116t72 -39z" />
    <glyph glyph-name="one.inferior" unicode="&#x2081;" horiz-adv-x="207" 
d="M151 -120h-48v295h-89v34q44 1 66.5 10.5t37.5 39.5h33v-379z" />
    <glyph glyph-name="two.inferior" unicode="&#x2082;" horiz-adv-x="332" 
d="M168 266q55 0 88.5 -26.5t33.5 -74.5q0 -32 -14 -62t-48 -63.5t-58.5 -54t-75.5 -60.5h207v-45h-276v44q114 84 164 135.5t50 98.5q0 30 -19 47.5t-53 17.5t-57.5 -20.5t-24.5 -64.5l-50 1q-1 56 36 91.5t97 35.5z" />
    <glyph glyph-name="three.inferior" unicode="&#x2083;" horiz-adv-x="329" 
d="M158 -84q38 0 62 18.5t24 51.5q0 72 -110 72h-8v43h6q102 0 102 64q0 28 -21 43t-53 15q-76 0 -83 -72l-50 4q4 49 40 80t94 31q54 0 89 -23.5t35 -73.5q0 -62 -62 -87q73 -23 73 -95q0 -55 -40.5 -84.5t-98.5 -29.5q-63 0 -97.5 33.5t-38.5 82.5l50 4q8 -77 87 -77z" />
    <glyph glyph-name="four.inferior" unicode="&#x2084;" horiz-adv-x="349" 
d="M208 192l-136 -172h136v172zM327 20v-45h-70v-95h-49v95h-190v45l190 239h49v-239h70z" />
    <glyph glyph-name="five.inferior" unicode="&#x2085;" horiz-adv-x="340" 
d="M169 -84q36 0 60.5 23t24.5 65q0 44 -25.5 66.5t-60.5 22.5q-27 0 -46.5 -12.5t-26.5 -28.5l-49 3l25 204h220v-47h-181l-13 -105q29 28 83 28q53 0 89.5 -35t36.5 -95q0 -62 -40 -97t-97 -35q-62 0 -96 33t-41 82l50 4q11 -76 87 -76z" />
    <glyph glyph-name="six.inferior" unicode="&#x2086;" horiz-adv-x="345" 
d="M93 2q0 -40 22.5 -63t60.5 -23t61 23.5t23 62.5q0 38 -23 62t-60 24t-60.5 -24t-23.5 -62zM181 223q-43 0 -67.5 -38t-26.5 -105q32 52 101 52q54 0 89 -35.5t35 -92.5q0 -55 -37.5 -93t-97.5 -38q-139 0 -139 183q0 90 36 150t113 60q52 0 81.5 -27t36.5 -67l-52 -1
q-9 52 -72 52z" />
    <glyph glyph-name="seven.inferior" unicode="&#x2087;" horiz-adv-x="284" 
d="M12 212v47h266v-46q-149 -121 -162 -333h-59q13 200 164 332h-209z" />
    <glyph glyph-name="eight.inferior" unicode="&#x2088;" horiz-adv-x="367" 
d="M183 266q58 0 93 -27t35 -70q0 -59 -53 -87q65 -27 65 -95q0 -53 -39.5 -83.5t-100.5 -30.5t-100.5 30.5t-39.5 83.5q0 68 65 95q-53 28 -53 87q0 43 35 70t93 27zM183 60q-40 0 -64 -20t-24 -53t23.5 -52t64.5 -19t65 19t24 52t-24.5 53t-64.5 20zM263 164q0 27 -22 43
t-58 16t-57.5 -16t-21.5 -43q0 -29 22 -47t57 -18q36 0 58 18t22 47z" />
    <glyph glyph-name="nine.inferior" unicode="&#x2089;" horiz-adv-x="336" 
d="M246 137q0 40 -22.5 63t-60.5 23q-37 0 -60.5 -23.5t-23.5 -62.5q0 -38 23.5 -62t60.5 -24t60 24t23 62zM158 -84q44 0 68 38t26 105q-29 -52 -101 -52q-54 0 -88.5 35.5t-34.5 92.5q0 55 37.5 93t97.5 38q139 0 139 -183q0 -91 -35.5 -150.5t-112.5 -59.5q-53 0 -83 27
t-37 67l53 1q9 -52 71 -52z" />
    <glyph glyph-name="parenleft.inferior" unicode="&#x208d;" horiz-adv-x="149" 
d="M26 20q0 134 73 239h40q-63 -103 -63 -239t63 -239h-40q-73 105 -73 239z" />
    <glyph glyph-name="parenright.inferior" unicode="&#x208e;" horiz-adv-x="149" 
d="M122 20q0 -134 -73 -239h-40q63 103 63 239t-63 239h40q73 -105 73 -239z" />
    <glyph glyph-name="Euro" unicode="&#x20ac;" horiz-adv-x="676" 
d="M387 239h-192q17 -95 70 -147t134 -52q74 0 129 42.5t66 114.5l61 -2q-13 -95 -84 -151t-171 -56q-112 0 -180 66.5t-86 184.5h-134l42 54h86q-1 13 -1 40q0 31 1 46h-128l42 54h93q21 114 89.5 178.5t179.5 64.5q97 0 167.5 -56.5t83.5 -150.5l-61 -2q-12 73 -67.5 115
t-127.5 42q-77 0 -130.5 -49.5t-72.5 -141.5h318l-42 -54h-283q-2 -30 -2 -46q0 -27 1 -40h241z" />
    <glyph glyph-name="afii61289" unicode="&#x2113;" horiz-adv-x="372" 
d="M105 129v71l-75 -57l-30 44l105 80v239q0 86 28.5 128t94.5 42q55 0 84.5 -39t29.5 -104q0 -153 -167 -280l-12 -9v-115q0 -49 13 -69.5t48 -20.5q46 0 86 38l31 -39q-53 -50 -121 -50q-64 0 -89.5 34t-25.5 107zM163 505v-193l18 14q50 38 75.5 92t25.5 112q0 95 -60 95
q-32 0 -45.5 -27t-13.5 -93z" />
    <glyph glyph-name="afii61352" unicode="&#x2116;" horiz-adv-x="954" 
d="M601 0h-90l-369 597v-597h-62v664h90l369 -598v598h62v-664zM924 510q0 -78 -42 -122t-104 -44t-104 44t-42 122t42 122t104 44t104 -44t42 -122zM866 510q0 55 -22.5 85t-65.5 30t-65.5 -30t-22.5 -85t22.5 -85t65.5 -30t65.5 30t22.5 85zM637 262h282v55h-282v-55z" />
    <glyph glyph-name="trademark" unicode="&#x2122;" horiz-adv-x="786" 
d="M141 292v317h-121v55h297v-55h-121v-317h-55zM595 292h-66l-116 323v-323h-55v372h99l107 -306l104 306h98v-372h-55v323z" />
    <glyph glyph-name="Omega" unicode="&#x2126;" horiz-adv-x="710" 
d="M355 676q83 0 155.5 -31.5t121 -99t48.5 -158.5q0 -107 -60 -176.5t-135 -89.5v-66h171v-55h-234v159q91 16 144 76.5t53 151.5q0 110 -75.5 174t-188.5 64t-188.5 -64t-75.5 -174q0 -91 53 -151.5t144 -76.5v-159h-234v55h171v66q-75 20 -135 89.5t-60 176.5
q0 91 48.5 158.5t121 99t155.5 31.5z" />
    <glyph glyph-name="estimated" unicode="&#x212e;" horiz-adv-x="539" 
d="M463 137h37q-24 -67 -80.5 -108t-143.5 -41q-119 0 -185 72.5t-66 184.5q0 113 67.5 184.5t178.5 71.5q112 0 176 -73.5t66 -181.5h-381v-176q22 -23 63.5 -37t87.5 -14q65 0 111 31t69 87zM132 422v-146h273v145q-49 49 -135 49q-92 0 -138 -48z" />
    <glyph glyph-name="onethird" unicode="&#x2153;" horiz-adv-x="800" 
d="M224 285h-48v295h-89v34q44 1 66.5 10.5t37.5 39.5h33v-379zM166 0h-64l465 664h64zM575 36q38 0 62 18.5t24 51.5q0 72 -110 72h-8v43h6q102 0 102 64q0 28 -21 43t-53 15q-76 0 -83 -72l-50 4q4 49 40 80t94 31q54 0 89 -23.5t35 -73.5q0 -62 -62 -87q73 -23 73 -95
q0 -55 -40.5 -84.5t-98.5 -29.5q-63 0 -97.5 33.5t-38.5 82.5l50 4q8 -77 87 -77z" />
    <glyph glyph-name="twothirds" unicode="&#x2154;" horiz-adv-x="800" 
d="M195 671q55 0 88.5 -26.5t33.5 -74.5q0 -32 -14 -62t-48 -63.5t-58.5 -54t-75.5 -60.5h196v-45h-265v44q114 84 164 135.5t50 98.5q0 30 -19 47.5t-53 17.5t-57.5 -20.5t-24.5 -64.5l-50 1q-1 56 36 91.5t97 35.5zM136 0h64l465 664h-64zM609 36q38 0 62 18.5t24 51.5
q0 72 -110 72h-8v43h6q102 0 102 64q0 28 -21 43t-53 15q-76 0 -83 -72l-50 4q4 49 40 80t94 31q54 0 89 -23.5t35 -73.5q0 -62 -62 -87q73 -23 73 -95q0 -55 -40.5 -84.5t-98.5 -29.5q-63 0 -97.5 33.5t-38.5 82.5l50 4q8 -77 87 -77z" />
    <glyph glyph-name="uni2155" unicode="&#x2155;" horiz-adv-x="800" 
d="M224 285h-48v295h-89v34q44 1 66.5 10.5t37.5 39.5h33v-379zM166 0h-64l465 664h64zM576 36q36 0 60.5 23t24.5 65q0 44 -25.5 66.5t-60.5 22.5q-27 0 -46.5 -12.5t-26.5 -28.5l-49 3l25 204h220v-47h-181l-13 -105q29 28 83 28q53 0 89.5 -35t36.5 -95q0 -62 -40 -97
t-97 -35q-62 0 -96 33t-41 82l50 4q11 -76 87 -76z" />
    <glyph glyph-name="uni2156" unicode="&#x2156;" horiz-adv-x="800" 
d="M195 671q55 0 88.5 -26.5t33.5 -74.5q0 -32 -14 -62t-48 -63.5t-58.5 -54t-75.5 -60.5h196v-45h-265v44q114 84 164 135.5t50 98.5q0 30 -19 47.5t-53 17.5t-57.5 -20.5t-24.5 -64.5l-50 1q-1 56 36 91.5t97 35.5zM136 0h64l465 664h-64zM610 36q36 0 60.5 23t24.5 65
q0 44 -25.5 66.5t-60.5 22.5q-27 0 -46.5 -12.5t-26.5 -28.5l-49 3l25 204h220v-47h-181l-13 -105q29 28 83 28q53 0 89.5 -35t36.5 -95q0 -62 -40 -97t-97 -35q-62 0 -96 33t-41 82l50 4q11 -76 87 -76z" />
    <glyph glyph-name="uni2157" unicode="&#x2157;" horiz-adv-x="800" 
d="M189 321q38 0 62 18.5t24 51.5q0 72 -110 72h-8v43h6q102 0 102 64q0 28 -21 43t-53 15q-76 0 -83 -72l-50 4q4 49 40 80t94 31q54 0 89 -23.5t35 -73.5q0 -62 -62 -87q73 -23 73 -95q0 -55 -40.5 -84.5t-98.5 -29.5q-63 0 -97.5 33.5t-38.5 82.5l50 4q8 -77 87 -77z
M136 0h64l465 664h-64zM610 36q36 0 60.5 23t24.5 65q0 44 -25.5 66.5t-60.5 22.5q-27 0 -46.5 -12.5t-26.5 -28.5l-49 3l25 204h220v-47h-181l-13 -105q29 28 83 28q53 0 89.5 -35t36.5 -95q0 -62 -40 -97t-97 -35q-62 0 -96 33t-41 82l50 4q11 -76 87 -76z" />
    <glyph glyph-name="uni2158" unicode="&#x2158;" horiz-adv-x="800" 
d="M234 597l-136 -172h136v172zM353 425v-45h-70v-95h-49v95h-190v45l190 239h49v-239h70zM209 0h-64l465 664h64zM619 36q36 0 60.5 23t24.5 65q0 44 -25.5 66.5t-60.5 22.5q-27 0 -46.5 -12.5t-26.5 -28.5l-49 3l25 204h220v-47h-181l-13 -105q29 28 83 28q53 0 89.5 -35
t36.5 -95q0 -62 -40 -97t-97 -35q-62 0 -96 33t-41 82l50 4q11 -76 87 -76z" />
    <glyph glyph-name="uni2159" unicode="&#x2159;" horiz-adv-x="800" 
d="M224 285h-48v295h-89v34q44 1 66.5 10.5t37.5 39.5h33v-379zM166 0h-64l465 664h64zM494 122q0 -40 22.5 -63t60.5 -23t61 23.5t23 62.5q0 38 -23 62t-60 24t-60.5 -24t-23.5 -62zM582 343q-43 0 -67.5 -38t-26.5 -105q32 52 101 52q54 0 89 -35.5t35 -92.5
q0 -55 -37.5 -93t-97.5 -38q-139 0 -139 183q0 90 36 150t113 60q52 0 81.5 -27t36.5 -67l-52 -1q-9 52 -72 52z" />
    <glyph glyph-name="uni215A" unicode="&#x215a;" horiz-adv-x="800" 
d="M190 321q36 0 60.5 23t24.5 65q0 44 -25.5 66.5t-60.5 22.5q-27 0 -46.5 -12.5t-26.5 -28.5l-49 3l25 204h220v-47h-181l-13 -105q29 28 83 28q53 0 89.5 -35t36.5 -95q0 -62 -40 -97t-97 -35q-62 0 -96 33t-41 82l50 4q11 -76 87 -76zM136 0h64l465 664h-64zM528 122
q0 -40 22.5 -63t60.5 -23t61 23.5t23 62.5q0 38 -23 62t-60 24t-60.5 -24t-23.5 -62zM616 343q-43 0 -67.5 -38t-26.5 -105q32 52 101 52q54 0 89 -35.5t35 -92.5q0 -55 -37.5 -93t-97.5 -38q-139 0 -139 183q0 90 36 150t113 60q52 0 81.5 -27t36.5 -67l-52 -1
q-9 52 -72 52z" />
    <glyph glyph-name="oneeighth" unicode="&#x215b;" horiz-adv-x="800" 
d="M222 285h-48v295h-89v34q44 1 66.5 10.5t37.5 39.5h33v-379zM164 0h-64l465 664h64zM574 386q58 0 93 -27t35 -70q0 -59 -53 -87q65 -27 65 -95q0 -53 -39.5 -83.5t-100.5 -30.5t-100.5 30.5t-39.5 83.5q0 68 65 95q-53 28 -53 87q0 43 35 70t93 27zM574 180
q-40 0 -64 -20t-24 -53t23.5 -52t64.5 -19t65 19t24 52t-24.5 53t-64.5 20zM654 284q0 27 -22 43t-58 16t-57.5 -16t-21.5 -43q0 -29 22 -47t57 -18q36 0 58 18t22 47z" />
    <glyph glyph-name="threeeighths" unicode="&#x215c;" horiz-adv-x="800" 
d="M188 321q38 0 62 18.5t24 51.5q0 72 -110 72h-8v43h6q102 0 102 64q0 28 -21 43t-53 15q-76 0 -83 -72l-50 4q4 49 40 80t94 31q54 0 89 -23.5t35 -73.5q0 -62 -62 -87q73 -23 73 -95q0 -55 -40.5 -84.5t-98.5 -29.5q-63 0 -97.5 33.5t-38.5 82.5l50 4q8 -77 87 -77z
M135 0h64l465 664h-64zM609 386q-58 0 -93 -27t-35 -70q0 -59 53 -87q-65 -27 -65 -95q0 -53 39.5 -83.5t100.5 -30.5t100.5 30.5t39.5 83.5q0 68 -65 95q53 28 53 87q0 43 -35 70t-93 27zM609 180q40 0 64.5 -20t24.5 -53t-24 -52t-65 -19t-64.5 19t-23.5 52t24 53t64 20z
M689 284q0 -29 -22 -47t-58 -18q-35 0 -57 18t-22 47q0 27 21.5 43t57.5 16t58 -16t22 -43z" />
    <glyph glyph-name="fiveeighths" unicode="&#x215d;" horiz-adv-x="800" 
d="M188 321q36 0 60.5 23t24.5 65q0 44 -25.5 66.5t-60.5 22.5q-27 0 -46.5 -12.5t-26.5 -28.5l-49 3l25 204h220v-47h-181l-13 -105q29 28 83 28q53 0 89.5 -35t36.5 -95q0 -62 -40 -97t-97 -35q-62 0 -96 33t-41 82l50 4q11 -76 87 -76zM134 0h64l465 664h-64zM608 386
q-58 0 -93 -27t-35 -70q0 -59 53 -87q-65 -27 -65 -95q0 -53 39.5 -83.5t100.5 -30.5t100.5 30.5t39.5 83.5q0 68 -65 95q53 28 53 87q0 43 -35 70t-93 27zM608 180q40 0 64.5 -20t24.5 -53t-24 -52t-65 -19t-64.5 19t-23.5 52t24 53t64 20zM688 284q0 -29 -22 -47t-58 -18
q-35 0 -57 18t-22 47q0 27 21.5 43t57.5 16t58 -16t22 -43z" />
    <glyph glyph-name="seveneighths" unicode="&#x215e;" horiz-adv-x="800" 
d="M53 617v47h266v-46q-149 -121 -162 -333h-59q13 200 164 332h-209zM132 0h64l465 664h-64zM606 386q-58 0 -93 -27t-35 -70q0 -59 53 -87q-65 -27 -65 -95q0 -53 39.5 -83.5t100.5 -30.5t100.5 30.5t39.5 83.5q0 68 -65 95q53 28 53 87q0 43 -35 70t-93 27zM606 180
q40 0 64.5 -20t24.5 -53t-24 -52t-65 -19t-64.5 19t-23.5 52t24 53t64 20zM686 284q0 -29 -22 -47t-58 -18q-35 0 -57 18t-22 47q0 27 21.5 43t57.5 16t58 -16t22 -43z" />
    <glyph glyph-name="uni215F" unicode="&#x215f;" horiz-adv-x="800" 
d="M265 285h-48v295h-89v34q44 1 66.5 10.5t37.5 39.5h33v-379zM207 0h-64l465 664h64z" />
    <glyph glyph-name="uni2190" unicode="&#x2190;" horiz-adv-x="767" 
d="M20 250l281 281l36 -39l-216 -212h616v-55h-621l221 -217l-36 -39z" />
    <glyph glyph-name="uni2191" unicode="&#x2191;" horiz-adv-x="602" 
d="M301 679l281 -281l-39 -36l-214 217v-579h-55v580l-215 -218l-39 36z" />
    <glyph glyph-name="uni2192" unicode="&#x2192;" horiz-adv-x="767" 
d="M466 531l281 -281l-281 -281l-36 39l220 217h-620v55h615l-215 212z" />
    <glyph glyph-name="uni2193" unicode="&#x2193;" horiz-adv-x="602" 
d="M582 266l-281 -281l-281 281l39 36l215 -219v581h55v-580l214 218z" />
    <glyph glyph-name="uni2196" unicode="&#x2196;" horiz-adv-x="616" 
d="M70 521h398v-51h-308l436 -437l-38 -38l-437 436v-308h-51v398z" />
    <glyph glyph-name="uni2197" unicode="&#x2197;" horiz-adv-x="616" 
d="M148 521h398v-398h-51v308l-437 -436l-38 38l436 437h-308v51z" />
    <glyph glyph-name="uni2198" unicode="&#x2198;" horiz-adv-x="616" 
d="M546 398v-398h-398v51h308l-436 437l38 38l437 -436v308h51z" />
    <glyph glyph-name="uni2199" unicode="&#x2199;" horiz-adv-x="616" 
d="M70 0v398h51v-308l437 436l38 -38l-436 -437h308v-51h-398z" />
    <glyph glyph-name="uni219E" unicode="&#x219e;" horiz-adv-x="767" 
d="M20 250l281 281l36 -39l-216 -212h158l251 251l36 -39l-216 -212h387v-55h-392l221 -217l-36 -39l-256 256h-158l221 -217l-36 -39zM91 250l1 -1v2z" />
    <glyph glyph-name="uni219F" unicode="&#x219f;" horiz-adv-x="602" 
d="M301 679l281 -281l-39 -36l-214 217v-157l253 -253l-39 -36l-214 217v-350h-55v351l-215 -218l-39 36l254 254v157l-215 -218l-39 36zM301 608l-1 -1h2z" />
    <glyph glyph-name="uni21A0" unicode="&#x21a0;" horiz-adv-x="767" 
d="M466 531l281 -281l-281 -281l-36 39l220 217h-157l-256 -256l-36 39l220 217h-391v55h386l-215 212l36 39l251 -251h157l-215 212zM675 249l1 1l-1 1v-2z" />
    <glyph glyph-name="uni21A1" unicode="&#x21a1;" horiz-adv-x="602" 
d="M582 266l-281 -281l-281 281l39 36l215 -219v158l-254 254l39 36l215 -219v352h55v-351l214 218l39 -36l-253 -253v-158l214 218zM300 57l1 -1l1 1h-2z" />
    <glyph glyph-name="uni21A2" unicode="&#x21a2;" horiz-adv-x="912" 
d="M20 250l281 281l36 -39l-216 -212h483l252 251l36 -39l-242 -242l242 -242l-36 -39l-257 256h-483l221 -217l-36 -39z" />
    <glyph glyph-name="uni21A3" unicode="&#x21a3;" horiz-adv-x="912" 
d="M611 531l281 -281l-281 -281l-36 39l220 217h-482l-257 -256l-36 39l242 242l-242 242l36 39l252 -251h482l-215 212z" />
    <glyph glyph-name="uni21A4" unicode="&#x21a4;" horiz-adv-x="807" 
d="M737 490v-490h-61v225h-560l221 -217l-36 -39l-281 281l281 281l36 -39l-216 -212h555v210h61zM91 250l1 -1v2z" />
    <glyph glyph-name="uni21A5" unicode="&#x21a5;" horiz-adv-x="602" 
d="M301 679l281 -281l-39 -36l-214 217v-524h212v-55h-490v55h223v525l-215 -218l-39 36z" />
    <glyph glyph-name="uni21A6" unicode="&#x21a6;" horiz-adv-x="807" 
d="M70 0v490h61v-210h554l-215 212l36 39l281 -281l-281 -281l-36 39l220 217h-559v-225h-61zM715 249l1 1l-1 1v-2z" />
    <glyph glyph-name="uni21A7" unicode="&#x21a7;" horiz-adv-x="602" 
d="M582 266l-281 -281l-281 281l39 36l215 -219v526h-223v55h490v-55h-212v-525l214 218z" />
    <glyph glyph-name="partialdiff" unicode="&#x2202;" horiz-adv-x="499" 
d="M407 244q0 100 -47.5 151.5t-113.5 51.5q-70 0 -112 -54.5t-42 -148.5q0 -95 42 -150t112 -55q65 0 113 52.5t48 152.5zM246 -12q-97 0 -156 68.5t-59 187.5q0 117 59.5 185.5t153.5 68.5q98 0 145 -67l1 1q-26 77 -97 129.5t-156 56.5v58q152 -12 242 -119t90 -277
q0 -146 -61 -219t-162 -73z" />
    <glyph glyph-name="Delta" unicode="&#x2206;" horiz-adv-x="642" 
d="M0 0l321 657l321 -657h-642zM551 55l-230 479l-230 -479h460z" />
    <glyph glyph-name="product" unicode="&#x220f;" horiz-adv-x="615" 
d="M128 -173h-58v837h475v-837h-58v782h-359v-782z" />
    <glyph glyph-name="summation" unicode="&#x2211;" horiz-adv-x="526" 
d="M20 -119l269 364l-269 365v54h486v-55h-418l269 -364l-269 -363h418v-55h-486v54z" />
    <glyph glyph-name="minus" unicode="&#x2212;" horiz-adv-x="528" 
d="M30 280h468v-55h-468v55z" />
    <glyph glyph-name="radical" unicode="&#x221a;" horiz-adv-x="465" 
d="M0 203l120 54l157 -361l131 768h57l-144 -837h-77l-155 351l-65 -29z" />
    <glyph glyph-name="infinity" unicode="&#x221e;" horiz-adv-x="720" 
d="M540 381q71 0 115.5 -41t44.5 -108t-42.5 -107.5t-111.5 -40.5q-99 0 -187 106q-90 -106 -181 -106q-71 0 -114.5 40.5t-43.5 107.5t44 108t115 41q93 0 182 -103q47 56 88.5 79.5t90.5 23.5zM179 135q42 0 74.5 24t71.5 73q-43 52 -76.5 75t-73.5 23t-67 -26.5
t-27 -71.5q0 -41 27.5 -69t70.5 -28zM538 330q-37 0 -70 -23t-73 -72q43 -54 77 -77t73 -23q40 0 67 27t27 70q0 42 -28 70t-73 28z" />
    <glyph glyph-name="integral" unicode="&#x222b;" horiz-adv-x="216" 
d="M84 136v326q0 113 31 161t89 48q28 0 45 -13.5t17 -36.5q0 -17 -10 -28t-26 -11q-14 0 -23 9t-9 22q0 17 12 29q-40 0 -55.5 -31t-15.5 -99q0 -29 1.5 -80t1.5 -76v-326q0 -113 -31 -161t-89 -48q-28 0 -45 13.5t-17 36.5q0 17 10.5 28t25.5 11t23.5 -9t8.5 -22
q0 -17 -12 -29q40 0 55.5 31t15.5 99q0 29 -1.5 80t-1.5 76z" />
    <glyph glyph-name="approxequal" unicode="&#x2248;" horiz-adv-x="536" 
d="M353 337q27 0 44.5 17t19.5 51h59q-4 -59 -37 -90t-86 -31q-40 0 -110 34t-100 34q-27 0 -44.5 -17t-19.5 -51h-59q4 59 37 90t86 31q48 0 117 -34t93 -34zM353 170q27 0 44.5 17t19.5 51h59q-4 -59 -37 -90t-86 -31q-40 0 -110 34t-100 34q-27 0 -44.5 -17t-19.5 -51
h-59q4 59 37 90t86 31q48 0 117 -34t93 -34z" />
    <glyph glyph-name="notequal" unicode="&#x2260;" horiz-adv-x="495" 
d="M143 133h-113v55h147l84 135h-231v55h265l76 121l47 -28l-58 -93h105v-55h-139l-84 -135h223v-55h-257l-90 -146l-46 31z" />
    <glyph glyph-name="lessequal" unicode="&#x2264;" horiz-adv-x="588" 
d="M114 306l434 -135v-59l-508 166v55l508 166v-59zM40 0v55h508v-55h-508z" />
    <glyph glyph-name="greaterequal" unicode="&#x2265;" horiz-adv-x="588" 
d="M474 306l-434 134v59l508 -166v-55l-508 -166v59zM548 0h-508v55h508v-55z" />
    <glyph glyph-name="uni25A0" unicode="&#x25a0;" horiz-adv-x="624" 
d="M67 0v490h490v-490h-490z" />
    <glyph glyph-name="uni25A1" unicode="&#x25a1;" horiz-adv-x="624" 
d="M67 0v490h490v-490h-490zM126 432v-373h373v373h-373z" />
    <glyph glyph-name="lozenge" unicode="&#x25ca;" horiz-adv-x="454" 
d="M227 598l-162 -277l162 -277l162 277zM0 321l227 385l227 -385l-227 -385z" />
    <glyph glyph-name="uni25CB" unicode="&#x25cb;" horiz-adv-x="578" 
d="M34 243q0 106 74.5 180.5t180.5 74.5t180.5 -74.5t74.5 -180.5t-74.5 -180.5t-180.5 -74.5t-180.5 74.5t-74.5 180.5zM289 44q82 0 138.5 57t56.5 142t-56.5 142t-138.5 57t-138.5 -57t-56.5 -142q0 -83 57 -141t138 -58z" />
    <glyph glyph-name="uni25CF" unicode="&#x25cf;" horiz-adv-x="578" 
d="M34 243q0 106 74.5 180.5t180.5 74.5t180.5 -74.5t74.5 -180.5t-74.5 -180.5t-180.5 -74.5t-180.5 74.5t-74.5 180.5z" />
    <glyph glyph-name="commaaccent" horiz-adv-x="121" 
d="M23 -116v83h78v-89l-41 -83h-40l36 89h-33z" />
    <glyph glyph-name="a.alt" 
d="M461 490v-490h-57l-1 78q-53 -90 -169 -90q-89 0 -146 69t-57 187q0 117 59.5 185.5t153.5 68.5q50 0 93.5 -22t65.5 -65v79h58zM246 39q64 0 112.5 53t48.5 152q0 100 -47.5 151.5t-113.5 51.5q-70 0 -112 -54.5t-42 -148.5q0 -95 42 -150t112 -55z" />
    <glyph glyph-name="aacute.alt" 
d="M461 0v490h-58v-79q-22 43 -65.5 65t-93.5 22q-94 0 -153.5 -68.5t-59.5 -185.5q0 -118 57 -187t146 -69q116 0 169 90l1 -78h57zM246 39q-70 0 -112 55t-42 150q0 94 42 148.5t112 54.5q66 0 113.5 -51.5t47.5 -151.5q0 -99 -48.5 -152t-112.5 -53zM388 664l-121 -118
h-51l84 118h88z" />
    <glyph glyph-name="abreve.alt" 
d="M461 0v490h-58v-79q-22 43 -65.5 65t-93.5 22q-94 0 -153.5 -68.5t-59.5 -185.5q0 -118 57 -187t146 -69q116 0 169 90l1 -78h57zM246 39q-70 0 -112 55t-42 150q0 94 42 148.5t112 54.5q66 0 113.5 -51.5t47.5 -151.5q0 -99 -48.5 -152t-112.5 -53zM406 664
q-5 -55 -41 -88t-98 -33q-61 0 -96 33t-40 88h52q3 -35 24.5 -56t60.5 -21t61 21t25 56h52z" />
    <glyph glyph-name="acircumflex.alt" 
d="M461 0v490h-58v-79q-22 43 -65.5 65t-93.5 22q-94 0 -153.5 -68.5t-59.5 -185.5q0 -118 57 -187t146 -69q116 0 169 90l1 -78h57zM246 39q-70 0 -112 55t-42 150q0 94 42 148.5t112 54.5q66 0 113.5 -51.5t47.5 -151.5q0 -99 -48.5 -152t-112.5 -53zM302 664l115 -118
h-59l-90 71l-91 -71h-59l118 118h66z" />
    <glyph glyph-name="adieresis.alt" 
d="M461 0v490h-58v-79q-22 43 -65.5 65t-93.5 22q-94 0 -153.5 -68.5t-59.5 -185.5q0 -118 57 -187t146 -69q116 0 169 90l1 -78h57zM246 39q-70 0 -112 55t-42 150q0 94 42 148.5t112 54.5q66 0 113.5 -51.5t47.5 -151.5q0 -99 -48.5 -152t-112.5 -53zM144 559v92h58v-92
h-58zM330 651h58v-92h-58v92z" />
    <glyph glyph-name="ae.alt" horiz-adv-x="885" 
d="M632 -12q-113 0 -171 77v-65h-57l-1 78q-53 -90 -169 -90q-89 0 -146 69t-57 187q0 117 59.5 185.5t153.5 68.5q50 0 93.5 -22t65.5 -65v79h58v-73q61 81 173 81q106 0 166.5 -74.5t54.5 -192.5h-394q0 -87 48.5 -139t126.5 -52q58 0 99 29t55 81l60 -8q-17 -72 -76 -113
t-142 -41zM246 39q64 0 112.5 53t48.5 152q0 100 -47.5 151.5t-113.5 51.5q-70 0 -112 -54.5t-42 -148.5q0 -95 42 -150t112 -55zM462 281h330q0 68 -43.5 117.5t-115.5 49.5q-71 0 -117.5 -44t-53.5 -123z" />
    <glyph glyph-name="aeacute.alt" horiz-adv-x="885" 
d="M632 -12q83 0 142 41t76 113l-60 8q-14 -52 -55 -81t-99 -29q-74 0 -122.5 47.5t-52.5 128.5v15h394q6 118 -54.5 192.5t-166.5 74.5q-112 0 -173 -81v73h-58v-79q-22 43 -65.5 65t-93.5 22q-94 0 -153.5 -68.5t-59.5 -185.5q0 -118 57 -187t146 -69q116 0 169 90l1 -78
h57v65q58 -77 171 -77zM246 39q-70 0 -112 55t-42 150q0 94 42 148.5t112 54.5q66 0 113.5 -51.5t47.5 -151.5q0 -99 -48.5 -152t-112.5 -53zM792 281h-330q7 79 53.5 123t117.5 44q72 0 115.5 -49.5t43.5 -117.5zM578 664l-121 -118h-51l84 118h88z" />
    <glyph glyph-name="agrave.alt" 
d="M461 0v490h-58v-79q-22 43 -65.5 65t-93.5 22q-94 0 -153.5 -68.5t-59.5 -185.5q0 -118 57 -187t146 -69q116 0 169 90l1 -78h57zM246 39q-70 0 -112 55t-42 150q0 94 42 148.5t112 54.5q66 0 113.5 -51.5t47.5 -151.5q0 -99 -48.5 -152t-112.5 -53zM286 546l-121 118h88
l84 -118h-51z" />
    <glyph glyph-name="amacron.alt" 
d="M461 0v490h-58v-79q-22 43 -65.5 65t-93.5 22q-94 0 -153.5 -68.5t-59.5 -185.5q0 -118 57 -187t146 -69q116 0 169 90l1 -78h57zM246 39q-70 0 -112 55t-42 150q0 94 42 148.5t112 54.5q66 0 113.5 -51.5t47.5 -151.5q0 -99 -48.5 -152t-112.5 -53zM399 581h-258v50h258
v-50z" />
    <glyph glyph-name="aogonek.alt" 
d="M246 39q64 0 112.5 53t48.5 152q0 100 -47.5 151.5t-113.5 51.5q-70 0 -112 -54.5t-42 -148.5q0 -95 42 -150t112 -55zM461 490v-490q-85 -37 -85 -76q0 -38 53 -38q16 0 34 4v-45q-22 -7 -50 -7q-41 0 -69.5 19t-28.5 56q0 29 26.5 53.5t62.5 35.5l-1 76
q-53 -90 -169 -90q-89 0 -146 69t-57 187q0 117 59.5 185.5t153.5 68.5q50 0 93.5 -22t65.5 -65v79h58z" />
    <glyph glyph-name="aring.alt" 
d="M461 0v490h-58v-79q-22 43 -65.5 65t-93.5 22q-94 0 -153.5 -68.5t-59.5 -185.5q0 -118 57 -187t146 -69q116 0 169 90l1 -78h57zM246 39q-70 0 -112 55t-42 150q0 94 42 148.5t112 54.5q66 0 113.5 -51.5t47.5 -151.5q0 -99 -48.5 -152t-112.5 -53zM267 696
q35 0 59.5 -22.5t24.5 -56.5t-24 -56.5t-60 -22.5t-60 22.5t-24 56.5t24.5 56.5t59.5 22.5zM267 659q-17 0 -29.5 -12t-12.5 -30t12.5 -29.5t29.5 -11.5t29.5 11.5t12.5 29.5t-12.5 30t-29.5 12z" />
    <glyph glyph-name="aringacute.alt" 
d="M350 762l-83 -87q30 -5 50 -26.5t20 -51.5q0 -34 -24 -56.5t-60 -22.5t-60 22.5t-24 56.5q0 29 37 83l56 82h88zM253 639q-17 0 -29.5 -12t-12.5 -30t12.5 -29.5t29.5 -11.5t29.5 11.5t12.5 29.5t-12.5 30t-29.5 12zM461 0v490h-58v-79q-22 43 -65.5 65t-93.5 22
q-94 0 -153.5 -68.5t-59.5 -185.5q0 -118 57 -187t146 -69q116 0 169 90l1 -78h57zM246 39q-70 0 -112 55t-42 150q0 94 42 148.5t112 54.5q66 0 113.5 -51.5t47.5 -151.5q0 -99 -48.5 -152t-112.5 -53z" />
    <glyph glyph-name="atilde.alt" 
d="M461 0v490h-58v-79q-22 43 -65.5 65t-93.5 22q-94 0 -153.5 -68.5t-59.5 -185.5q0 -118 57 -187t146 -69q116 0 169 90l1 -78h57zM246 39q-70 0 -112 55t-42 150q0 94 42 148.5t112 54.5q66 0 113.5 -51.5t47.5 -151.5q0 -99 -48.5 -152t-112.5 -53zM322 608q37 0 46 42
h51q-8 -43 -32.5 -68t-60.5 -25q-28 0 -67 21.5t-53 21.5q-34 0 -45 -43h-50q6 44 32.5 68.5t61.5 24.5q28 0 65.5 -21t51.5 -21z" />
    <glyph glyph-name="uni0227.alt" 
d="M461 0v490h-58v-79q-22 43 -65.5 65t-93.5 22q-94 0 -153.5 -68.5t-59.5 -185.5q0 -118 57 -187t146 -69q116 0 169 90l1 -78h57zM246 39q-70 0 -112 55t-42 150q0 94 42 148.5t112 54.5q66 0 113.5 -51.5t47.5 -151.5q0 -99 -48.5 -152t-112.5 -53zM246 651h58v-92h-58
v92z" />
    <glyph glyph-name="uni1EA1.alt" 
d="M461 490v-490h-57l-1 78q-53 -90 -169 -90q-89 0 -146 69t-57 187q0 117 59.5 185.5t153.5 68.5q50 0 93.5 -22t65.5 -65v79h58zM246 39q64 0 112.5 53t48.5 152q0 100 -47.5 151.5t-113.5 51.5q-70 0 -112 -54.5t-42 -148.5q0 -95 42 -150t112 -55zM221 -45h58v-92h-58
v92z" />
    <glyph glyph-name="l.alt" horiz-adv-x="217" 
d="M65 119v545h58v-534q0 -51 10.5 -64.5t58.5 -13.5h10v-52h-28q-67 0 -88 22.5t-21 96.5z" />
    <glyph glyph-name="lacute.alt" horiz-adv-x="217" 
d="M65 119v545h58v-534q0 -51 10.5 -64.5t58.5 -13.5h10v-52h-28q-67 0 -88 22.5t-21 96.5zM267 803l-142 -105h-60l102 105h100z" />
    <glyph glyph-name="lcaron.alt" horiz-adv-x="211" 
d="M251 664l-65 -158h-34l28 158h71zM65 119v545h58v-534q0 -51 10.5 -64.5t58.5 -13.5h10v-52h-28q-67 0 -88 22.5t-21 96.5z" />
    <glyph glyph-name="lcommaaccent.alt" horiz-adv-x="217" 
d="M65 119v545h58v-534q0 -51 10.5 -64.5t58.5 -13.5h10v-52h-28q-67 0 -88 22.5t-21 96.5zM66 -116v83h78v-89l-41 -83h-40l36 89h-33z" />
    <glyph glyph-name="ldot.alt" horiz-adv-x="217" 
d="M65 704v92h58v-92h-58zM65 119v545h58v-534q0 -51 10.5 -64.5t58.5 -13.5h10v-52h-28q-67 0 -88 22.5t-21 96.5z" />
    <glyph glyph-name="lslash.alt" horiz-adv-x="217" 
d="M0 255v60l65 47v302h58v-260l75 55v-60l-75 -55v-214q0 -51 10.5 -64.5t58.5 -13.5h10v-52h-28q-67 0 -88 22.5t-21 96.5v183z" />
    <glyph glyph-name="zero.plf" horiz-adv-x="618" 
d="M309 -12q-130 0 -194.5 89.5t-64.5 254.5t64.5 254.5t194.5 89.5t194.5 -89.5t64.5 -254.5t-64.5 -254.5t-194.5 -89.5zM309 39q94 0 146 73t52 220t-52 220t-146 73t-146 -73t-52 -220t52 -220t146 -73z" />
    <glyph glyph-name="zeroslashed.plf" horiz-adv-x="618" 
d="M309 -12q-130 0 -194.5 89.5t-64.5 254.5t64.5 254.5t194.5 89.5t194.5 -89.5t64.5 -254.5t-64.5 -254.5t-194.5 -89.5zM309 39q94 0 146 73t52 220q0 19 -2 51l-389 -135q28 -209 193 -209zM111 332v-27l387 134q-35 186 -189 186q-94 0 -146 -73t-52 -220z" />
    <glyph glyph-name="one.plf" horiz-adv-x="302" 
d="M212 0h-58v536h-154v39q90 0 122.5 17t50.5 77h39v-669z" />
    <glyph glyph-name="two.plf" horiz-adv-x="529" 
d="M270 676q93 0 148 -46.5t55 -127.5q0 -99 -85 -199t-280 -247h386v-56h-466v58q206 157 295 253t89 185q0 62 -41 95.5t-101 33.5q-71 0 -117.5 -40t-47.5 -129l-61 1q4 105 64.5 162t161.5 57z" />
    <glyph glyph-name="three.plf" horiz-adv-x="530" 
d="M252 39q79 0 128 38t49 106q0 143 -205 143h-5v50h5q187 0 187 127q0 53 -41.5 87.5t-112.5 34.5q-60 0 -108.5 -34t-58.5 -105l-61 5q13 84 73.5 134.5t158.5 50.5q97 0 154 -45t57 -123q0 -52 -28 -94t-82 -60q128 -34 128 -170q0 -94 -68.5 -145t-168.5 -51
q-98 0 -161.5 55t-75.5 139l61 5q15 -73 63 -110.5t112 -37.5z" />
    <glyph glyph-name="four.plf" horiz-adv-x="571" 
d="M372 584l-293 -351h293v351zM561 233v-56h-131v-177h-58v177h-362v52l363 435h57v-431h131z" />
    <glyph glyph-name="five.plf" horiz-adv-x="551" 
d="M276 39q74 0 124 47t50 131q0 87 -52 131t-124 44q-55 0 -99.5 -24.5t-59.5 -60.5l-56 6l43 351h381v-56h-331l-29 -226q24 27 70 44.5t95 17.5q97 0 160 -60t63 -166q0 -108 -68.5 -169t-166.5 -61t-161 55t-75 139l61 5q15 -73 63 -110.5t112 -37.5z" />
    <glyph glyph-name="six.plf" horiz-adv-x="555" 
d="M110 211q0 -76 48 -124t124 -48t124 48t48 124q0 81 -47 129.5t-125 48.5t-125 -48.5t-47 -129.5zM293 625q-90 0 -142 -75t-52 -216q23 48 73.5 77t115.5 29q100 0 163.5 -63.5t63.5 -162.5q0 -96 -64.5 -161t-168.5 -65q-242 0 -242 317q0 169 62.5 270t199.5 101
q87 0 138.5 -44.5t63.5 -114.5l-62 -6q-9 57 -48.5 85.5t-100.5 28.5z" />
    <glyph glyph-name="seven.plf" horiz-adv-x="470" 
d="M5 608v56h460v-56q-292 -213 -304 -608h-64q25 405 297 608h-389z" />
    <glyph glyph-name="eight.plf" horiz-adv-x="562" 
d="M281 676q101 0 161 -46.5t60 -119.5q0 -56 -27.5 -96t-73.5 -58q121 -51 121 -172q0 -92 -67.5 -144t-173.5 -52t-173.5 52t-67.5 144q0 121 121 172q-46 18 -73.5 58t-27.5 96q0 73 60 119.5t161 46.5zM281 331q-82 0 -131 -40t-49 -107t49 -106t131 -39t131 39t49 106
t-49 107t-131 40zM442 501q0 58 -43.5 91t-117.5 33t-117.5 -33t-43.5 -91t43.5 -91t117.5 -33t117.5 33t43.5 91z" />
    <glyph glyph-name="nine.plf" horiz-adv-x="543" 
d="M433 453q0 76 -48 124t-124 48t-124 -48t-48 -124q0 -81 47 -129.5t125 -48.5t125 48.5t47 129.5zM250 39q90 0 142 75t52 216q-24 -48 -74 -77t-115 -29q-100 0 -163.5 63.5t-63.5 162.5q0 96 64.5 161t168.5 65q242 0 242 -317q0 -169 -62.5 -270t-199.5 -101
q-87 0 -138.5 44.5t-63.5 114.5l62 6q9 -57 48.5 -85.5t100.5 -28.5z" />
    <glyph glyph-name="zero.pof" horiz-adv-x="570" 
d="M285 -11q-122 0 -183.5 82.5t-61.5 231.5q0 150 61 232t184 82t184 -82t61 -232q0 -149 -61.5 -231.5t-183.5 -82.5zM285 40q87 0 135.5 65.5t48.5 197.5t-48.5 197.5t-135.5 65.5t-135 -65.5t-48 -197.5t48 -197.5t135 -65.5z" />
    <glyph glyph-name="zeroslashed.pof" horiz-adv-x="570" 
d="M285 -11q-122 0 -183.5 82.5t-61.5 231.5q0 150 61 232t184 82t184 -82t61 -232q0 -149 -61.5 -231.5t-183.5 -82.5zM285 40q87 0 135.5 65.5t48.5 197.5q0 6 -0.5 18t-0.5 17l-359 -125q29 -173 176 -173zM102 303q0 -23 1 -34l358 125q-31 172 -176 172
q-87 0 -135 -65.5t-48 -197.5z" />
    <glyph glyph-name="one.pof" horiz-adv-x="284" 
d="M204 0h-58v486h-146v39q84 0 115.5 15t49.5 69h39v-609z" />
    <glyph glyph-name="two.pof" horiz-adv-x="492" 
d="M248 617q88 0 140 -42.5t52 -117.5q0 -92 -80 -182t-260 -219h362v-56h-442v56q191 140 275 227.5t84 167.5q0 54 -37.5 84.5t-94.5 30.5q-66 0 -109 -36t-44 -115l-60 1q2 94 60 147.5t154 53.5z" />
    <glyph glyph-name="three.pof" horiz-adv-x="498" 
d="M238 40q73 0 118.5 33.5t45.5 93.5q0 128 -192 128h-6v50h6q175 0 175 113q0 48 -38.5 78t-103.5 30q-58 0 -102 -31.5t-53 -93.5l-61 5q12 77 69 124t150 47q91 0 145.5 -40.5t54.5 -113.5q0 -47 -26.5 -85t-77.5 -55q121 -34 121 -155q0 -86 -64.5 -132.5t-159.5 -46.5
q-94 0 -154 51t-70 128l61 5q13 -65 57 -99t105 -34z" />
    <glyph glyph-name="four.pof" horiz-adv-x="539" 
d="M348 526l-270 -311h270v311zM529 215v-56h-123v-159h-58v159h-338v53l339 394h57v-391h123z" />
    <glyph glyph-name="five.pof" horiz-adv-x="510" 
d="M253 40q69 0 115 42t46 116q0 77 -48.5 116.5t-114.5 39.5q-50 0 -91 -22t-55 -53l-57 5l41 322h360v-57h-310l-27 -198q23 25 65 39.5t88 14.5q91 0 150.5 -54.5t59.5 -151.5q0 -99 -64.5 -154.5t-157.5 -55.5q-94 0 -153 50.5t-70 127.5l61 5q14 -65 57.5 -98.5
t104.5 -33.5z" />
    <glyph glyph-name="six.pof" horiz-adv-x="519" 
d="M109 193q0 -68 44.5 -110.5t114.5 -42.5q71 0 115 42.5t44 110.5q0 71 -43.5 114t-115.5 43t-115.5 -43t-43.5 -114zM278 566q-83 0 -130.5 -67t-48.5 -191q22 42 69 68t108 26q94 0 153.5 -58t59.5 -148q0 -88 -61 -147.5t-160 -59.5q-228 0 -228 290q0 152 59 245
t188 93q82 0 131 -41.5t60 -105.5l-62 -4q-8 50 -44.5 75t-93.5 25z" />
    <glyph glyph-name="seven.pof" horiz-adv-x="424" 
d="M0 549v57h434v-54q-271 -196 -284 -552h-65q23 357 279 549h-364z" />
    <glyph glyph-name="eight.pof" horiz-adv-x="536" 
d="M268 617q95 0 152 -43t57 -110q0 -48 -26 -85t-68 -55q113 -46 113 -156q0 -83 -64 -131t-164 -48t-164 48t-64 131q0 110 113 156q-43 18 -68.5 54.5t-25.5 85.5q0 67 57 110t152 43zM268 299q-76 0 -121.5 -35.5t-45.5 -95.5q0 -59 45.5 -93.5t121.5 -34.5t121.5 34.5
t45.5 93.5q0 60 -45.5 95.5t-121.5 35.5zM417 456q0 51 -40 80.5t-109 29.5t-109 -29.5t-40 -80.5q0 -52 40 -81.5t109 -29.5t109 29.5t40 81.5z" />
    <glyph glyph-name="nine.pof" horiz-adv-x="517" 
d="M408 413q0 68 -44 110.5t-115 42.5t-115 -42.5t-44 -110.5q0 -71 43.5 -114.5t115.5 -43.5t115.5 43.5t43.5 114.5zM239 40q83 0 131 67.5t48 190.5q-22 -43 -69 -68.5t-108 -25.5q-94 0 -153.5 57.5t-59.5 148.5q0 88 61.5 147.5t159.5 59.5q228 0 228 -290
q0 -152 -59 -245t-188 -93q-82 0 -131 41t-60 105l62 5q8 -50 44.5 -75t93.5 -25z" />
    <glyph glyph-name="zero.tlf" horiz-adv-x="630" 
d="M315 -12q-130 0 -194.5 89.5t-64.5 254.5t64.5 254.5t194.5 89.5t194.5 -89.5t64.5 -254.5t-64.5 -254.5t-194.5 -89.5zM315 39q94 0 146 73t52 220t-52 220t-146 73t-146 -73t-52 -220t52 -220t146 -73z" />
    <glyph glyph-name="zeroslashed.tlf" horiz-adv-x="630" 
d="M315 -12q-130 0 -194.5 89.5t-64.5 254.5t64.5 254.5t194.5 89.5t194.5 -89.5t64.5 -254.5t-64.5 -254.5t-194.5 -89.5zM315 39q94 0 146 73t52 220q0 19 -2 51l-389 -135q28 -209 193 -209zM117 332v-27l387 134q-35 186 -189 186q-94 0 -146 -73t-52 -220z" />
    <glyph glyph-name="one.tlf" horiz-adv-x="630" 
d="M350 55h152v-55h-374v55h164v481h-164v39q92 0 129 17.5t54 76.5h39v-614z" />
    <glyph glyph-name="two.tlf" horiz-adv-x="630" 
d="M324 676q93 0 148 -46.5t55 -127.5q0 -99 -85 -199t-280 -247h386v-56h-466v58q206 157 295 253t89 185q0 62 -41 95.5t-101 33.5q-71 0 -117.5 -40t-47.5 -129l-61 1q4 105 64.5 162t161.5 57z" />
    <glyph glyph-name="three.tlf" horiz-adv-x="630" 
d="M314 39q79 0 128 38t49 106q0 143 -205 143h-5v50h5q187 0 187 127q0 53 -41.5 87.5t-112.5 34.5q-60 0 -108.5 -34t-58.5 -105l-61 5q13 84 73.5 134.5t158.5 50.5q97 0 154 -45t57 -123q0 -52 -28 -94t-82 -60q128 -34 128 -170q0 -94 -68.5 -145t-168.5 -51
q-98 0 -161.5 55t-75.5 139l61 5q15 -73 63 -110.5t112 -37.5z" />
    <glyph glyph-name="four.tlf" horiz-adv-x="630" 
d="M401 584l-293 -351h293v351zM590 233v-56h-131v-177h-58v177h-362v52l363 435h57v-431h131z" />
    <glyph glyph-name="five.tlf" horiz-adv-x="630" 
d="M315 39q74 0 124 47t50 131q0 87 -52 131t-124 44q-55 0 -99.5 -24.5t-59.5 -60.5l-56 6l43 351h381v-56h-331l-29 -226q24 27 70 44.5t95 17.5q97 0 160 -60t63 -166q0 -108 -68.5 -169t-166.5 -61t-161 55t-75 139l61 5q15 -73 63 -110.5t112 -37.5z" />
    <glyph glyph-name="six.tlf" horiz-adv-x="630" 
d="M147 211q0 -76 48 -124t124 -48t124 48t48 124q0 81 -47 129.5t-125 48.5t-125 -48.5t-47 -129.5zM330 625q-90 0 -142 -75t-52 -216q23 48 73.5 77t115.5 29q100 0 163.5 -63.5t63.5 -162.5q0 -96 -64.5 -161t-168.5 -65q-242 0 -242 317q0 169 62.5 270t199.5 101
q87 0 138.5 -44.5t63.5 -114.5l-62 -6q-9 57 -48.5 85.5t-100.5 28.5z" />
    <glyph glyph-name="seven.tlf" horiz-adv-x="630" 
d="M85 608v56h460v-56q-292 -213 -304 -608h-64q25 405 297 608h-389z" />
    <glyph glyph-name="eight.tlf" horiz-adv-x="630" 
d="M315 676q101 0 161 -46.5t60 -119.5q0 -56 -27.5 -96t-73.5 -58q121 -51 121 -172q0 -92 -67.5 -144t-173.5 -52t-173.5 52t-67.5 144q0 121 121 172q-46 18 -73.5 58t-27.5 96q0 73 60 119.5t161 46.5zM315 331q-82 0 -131 -40t-49 -107t49 -106t131 -39t131 39t49 106
t-49 107t-131 40zM476 501q0 58 -43.5 91t-117.5 33t-117.5 -33t-43.5 -91t43.5 -91t117.5 -33t117.5 33t43.5 91z" />
    <glyph glyph-name="nine.tlf" horiz-adv-x="630" 
d="M482 453q0 76 -48 124t-124 48t-124 -48t-48 -124q0 -81 47 -129.5t125 -48.5t125 48.5t47 129.5zM299 39q90 0 142 75t52 216q-24 -48 -74 -77t-115 -29q-100 0 -163.5 63.5t-63.5 162.5q0 96 64.5 161t168.5 65q242 0 242 -317q0 -169 -62.5 -270t-199.5 -101
q-87 0 -138.5 44.5t-63.5 114.5l62 6q9 -57 48.5 -85.5t100.5 -28.5z" />
    <glyph glyph-name="zeroslashed.superior" horiz-adv-x="378" 
d="M189 400q-74 0 -111.5 52.5t-37.5 145.5q0 92 37 143.5t112 51.5q74 0 111.5 -51.5t37.5 -143.5q0 -93 -37.5 -145.5t-111.5 -52.5zM189 750q-98 0 -98 -151l193 41q-13 110 -95 110zM189 443q46 0 71.5 37.5t26.5 112.5l-193 -41q15 -109 95 -109z" />
    <glyph glyph-name="zeroslashed.inferior" horiz-adv-x="378" 
d="M189 -127q-74 0 -111.5 52.5t-37.5 145.5q0 92 37 143.5t112 51.5q74 0 111.5 -51.5t37.5 -143.5q0 -93 -37.5 -145.5t-111.5 -52.5zM189 223q-98 0 -98 -151l193 41q-13 110 -95 110zM189 -84q45 0 71 38t27 112l-193 -41q15 -109 95 -109z" />
    <glyph glyph-name="zero.denominator" horiz-adv-x="378" 
d="M189 -7q-74 0 -111.5 52.5t-37.5 145.5q0 92 37 143.5t112 51.5q74 0 111.5 -51.5t37.5 -143.5q0 -93 -37.5 -145.5t-111.5 -52.5zM189 36q46 0 72 39t26 116q0 152 -98 152t-98 -152q0 -77 26 -116t72 -39z" />
    <glyph glyph-name="zeroslashed.denominator" horiz-adv-x="378" 
d="M189 -7q-74 0 -111.5 52.5t-37.5 145.5q0 92 37 143.5t112 51.5q74 0 111.5 -51.5t37.5 -143.5q0 -93 -37.5 -145.5t-111.5 -52.5zM189 343q-98 0 -98 -151l193 41q-13 110 -95 110zM189 36q46 0 71.5 37.5t26.5 112.5l-193 -41q15 -109 95 -109z" />
    <glyph glyph-name="one.denominator" horiz-adv-x="207" 
d="M151 0h-48v295h-89v34q44 1 66.5 10.5t37.5 39.5h33v-379z" />
    <glyph glyph-name="two.denominator" horiz-adv-x="332" 
d="M168 386q55 0 88.5 -26.5t33.5 -74.5q0 -32 -14 -62t-48 -63.5t-58.5 -54t-75.5 -60.5h207v-45h-276v44q114 84 164 135.5t50 98.5q0 30 -19 47.5t-53 17.5t-57.5 -20.5t-24.5 -64.5l-50 1q-1 56 36 91.5t97 35.5z" />
    <glyph glyph-name="three.denominator" horiz-adv-x="329" 
d="M158 36q38 0 62 18.5t24 51.5q0 72 -110 72h-8v43h6q102 0 102 64q0 28 -21 43t-53 15q-76 0 -83 -72l-50 4q4 49 40 80t94 31q54 0 89 -23.5t35 -73.5q0 -62 -62 -87q73 -23 73 -95q0 -55 -40.5 -84.5t-98.5 -29.5q-63 0 -97.5 33.5t-38.5 82.5l50 4q8 -77 87 -77z" />
    <glyph glyph-name="four.denominator" horiz-adv-x="349" 
d="M208 312l-136 -172h136v172zM327 140v-45h-70v-95h-49v95h-190v45l190 239h49v-239h70z" />
    <glyph glyph-name="five.denominator" horiz-adv-x="340" 
d="M169 36q36 0 60.5 23t24.5 65q0 44 -25.5 66.5t-60.5 22.5q-27 0 -46.5 -12.5t-26.5 -28.5l-49 3l25 204h220v-47h-181l-13 -105q29 28 83 28q53 0 89.5 -35t36.5 -95q0 -62 -40 -97t-97 -35q-62 0 -96 33t-41 82l50 4q11 -76 87 -76z" />
    <glyph glyph-name="six.denominator" horiz-adv-x="345" 
d="M93 122q0 -40 22.5 -63t60.5 -23t61 23.5t23 62.5q0 38 -23 62t-60 24t-60.5 -24t-23.5 -62zM181 343q-43 0 -67.5 -38t-26.5 -105q32 52 101 52q54 0 89 -35.5t35 -92.5q0 -55 -37.5 -93t-97.5 -38q-139 0 -139 183q0 90 36 150t113 60q52 0 81.5 -27t36.5 -67l-52 -1
q-9 52 -72 52z" />
    <glyph glyph-name="seven.denominator" horiz-adv-x="284" 
d="M12 332v47h266v-46q-149 -121 -162 -333h-59q13 200 164 332h-209z" />
    <glyph glyph-name="eight.denominator" horiz-adv-x="367" 
d="M183 386q58 0 93 -27t35 -70q0 -59 -53 -87q65 -27 65 -95q0 -53 -39.5 -83.5t-100.5 -30.5t-100.5 30.5t-39.5 83.5q0 68 65 95q-53 28 -53 87q0 43 35 70t93 27zM183 180q-40 0 -64 -20t-24 -53t23.5 -52t64.5 -19t65 19t24 52t-24.5 53t-64.5 20zM263 284q0 27 -22 43
t-58 16t-57.5 -16t-21.5 -43q0 -29 22 -47t57 -18q36 0 58 18t22 47z" />
    <glyph glyph-name="nine.denominator" horiz-adv-x="336" 
d="M246 257q0 40 -22.5 63t-60.5 23q-37 0 -60.5 -23.5t-23.5 -62.5q0 -38 23.5 -62t60.5 -24t60 24t23 62zM158 36q44 0 68 38t26 105q-29 -52 -101 -52q-54 0 -88.5 35.5t-34.5 92.5q0 55 37.5 93t97.5 38q139 0 139 -183q0 -91 -35.5 -150.5t-112.5 -59.5q-53 0 -83 27
t-37 67l53 1q9 -52 71 -52z" />
    <glyph glyph-name="zero.numerator" horiz-adv-x="379" 
d="M194 278q-74 0 -111.5 52.5t-37.5 145.5q0 92 37 143.5t112 51.5q74 0 111.5 -51.5t37.5 -143.5q0 -93 -37.5 -145.5t-111.5 -52.5zM194 321q46 0 72 39t26 116q0 152 -98 152t-98 -152q0 -77 26 -116t72 -39z" />
    <glyph glyph-name="zeroslashed.numerator" horiz-adv-x="378" 
d="M189 278q-74 0 -111.5 52.5t-37.5 145.5q0 92 37 143.5t112 51.5q74 0 111.5 -51.5t37.5 -143.5q0 -93 -37.5 -145.5t-111.5 -52.5zM189 628q-98 0 -98 -151l193 41q-13 110 -95 110zM189 321q46 0 71.5 37.5t26.5 112.5l-193 -41q15 -109 95 -109z" />
    <glyph glyph-name="one.numerator" horiz-adv-x="217" 
d="M177 285h-48v295h-89v34q44 1 66.5 10.5t37.5 39.5h33v-379z" />
    <glyph glyph-name="two.numerator" horiz-adv-x="332" 
d="M168 671q55 0 88.5 -26.5t33.5 -74.5q0 -32 -14 -62t-48 -63.5t-58.5 -54t-75.5 -60.5h207v-45h-276v44q114 84 164 135.5t50 98.5q0 30 -19 47.5t-53 17.5t-57.5 -20.5t-24.5 -64.5l-50 1q-1 56 36 91.5t97 35.5z" />
    <glyph glyph-name="three.numerator" horiz-adv-x="329" 
d="M158 321q38 0 62 18.5t24 51.5q0 72 -110 72h-8v43h6q102 0 102 64q0 28 -21 43t-53 15q-76 0 -83 -72l-50 4q4 49 40 80t94 31q54 0 89 -23.5t35 -73.5q0 -62 -62 -87q73 -23 73 -95q0 -55 -40.5 -84.5t-98.5 -29.5q-63 0 -97.5 33.5t-38.5 82.5l50 4q8 -77 87 -77z" />
    <glyph glyph-name="four.numerator" horiz-adv-x="349" 
d="M208 597l-136 -172h136v172zM327 425v-45h-70v-95h-49v95h-190v45l190 239h49v-239h70z" />
    <glyph glyph-name="five.numerator" horiz-adv-x="340" 
d="M169 321q36 0 60.5 23t24.5 65q0 44 -25.5 66.5t-60.5 22.5q-27 0 -46.5 -12.5t-26.5 -28.5l-49 3l25 204h220v-47h-181l-13 -105q29 28 83 28q53 0 89.5 -35t36.5 -95q0 -62 -40 -97t-97 -35q-62 0 -96 33t-41 82l50 4q11 -76 87 -76z" />
    <glyph glyph-name="six.numerator" horiz-adv-x="345" 
d="M93 407q0 -40 22.5 -63t60.5 -23t61 23.5t23 62.5q0 38 -23 62t-60 24t-60.5 -24t-23.5 -62zM181 628q-43 0 -67.5 -38t-26.5 -105q32 52 101 52q54 0 89 -35.5t35 -92.5q0 -55 -37.5 -93t-97.5 -38q-139 0 -139 183q0 90 36 150t113 60q52 0 81.5 -27t36.5 -67l-52 -1
q-9 52 -72 52z" />
    <glyph glyph-name="seven.numerator" horiz-adv-x="284" 
d="M12 617v47h266v-46q-149 -121 -162 -333h-59q13 200 164 332h-209z" />
    <glyph glyph-name="eight.numerator" horiz-adv-x="367" 
d="M183 671q58 0 93 -27t35 -70q0 -59 -53 -87q65 -27 65 -95q0 -53 -39.5 -83.5t-100.5 -30.5t-100.5 30.5t-39.5 83.5q0 68 65 95q-53 28 -53 87q0 43 35 70t93 27zM183 465q-40 0 -64 -20t-24 -53t23.5 -52t64.5 -19t65 19t24 52t-24.5 53t-64.5 20zM263 569q0 27 -22 43
t-58 16t-57.5 -16t-21.5 -43q0 -29 22 -47t57 -18q36 0 58 18t22 47z" />
    <glyph glyph-name="nine.numerator" horiz-adv-x="336" 
d="M246 542q0 40 -22.5 63t-60.5 23q-37 0 -60.5 -23.5t-23.5 -62.5q0 -38 23.5 -62t60.5 -24t60 24t23 62zM158 321q44 0 68 38t26 105q-29 -52 -101 -52q-54 0 -88.5 35.5t-34.5 92.5q0 55 37.5 93t97.5 38q139 0 139 -183q0 -91 -35.5 -150.5t-112.5 -59.5q-53 0 -83 27
t-37 67l53 1q9 -52 71 -52z" />
    <glyph glyph-name="a.superior" horiz-adv-x="312" 
d="M88 600l-47 2q2 42 35 65.5t82 23.5q59 0 85 -24.5t25 -81.5v-17v-36l-1 -17q-1 -36 5 -108h-46l-2 39q-28 -46 -94 -46q-46 0 -72 26.5t-26 64.5q0 43 37 63q32 18 96 25l54 6v10q0 57 -64 57q-62 0 -67 -52zM223 528v16l-58 -5q-82 -7 -82 -50q0 -21 15.5 -33.5
t40.5 -12.5q34 0 59 20.5t25 64.5z" />
    <glyph glyph-name="b.superior" horiz-adv-x="331" 
d="M47 407v379h49v-140q28 45 90 45q51 0 83.5 -39.5t32.5 -106.5t-34 -106t-88 -39q-58 0 -84 41l-3 -34h-46zM173 649q-34 0 -57 -26.5t-23 -77.5t22.5 -76.5t57.5 -25.5q77 0 77 102q0 49 -19.5 76.5t-57.5 27.5z" />
    <glyph glyph-name="c.superior" horiz-adv-x="310" 
d="M164 691q48 0 80 -28t37 -64l-49 -7q-5 26 -24.5 41t-47.5 15q-35 0 -57.5 -26t-22.5 -75q0 -50 23 -77t57 -27q30 0 49 16t25 40l50 -6q-7 -38 -41.5 -65.5t-83.5 -27.5q-61 0 -96 40.5t-35 105.5q0 63 36.5 104t99.5 41z" />
    <glyph glyph-name="d.superior" horiz-adv-x="331" 
d="M283 786v-379h-47l-1 38q-30 -45 -91 -45q-51 0 -83.5 39.5t-32.5 106.5t34 106t88 39q58 0 85 -41v136h48zM157 443q34 0 57 26t23 77q0 52 -22.5 77.5t-57.5 25.5q-77 0 -77 -103t77 -103z" />
    <glyph glyph-name="e.superior" horiz-adv-x="321" 
d="M163 400q-63 0 -99 41t-36 105q0 65 38 105t98 40q64 0 99.5 -45t30.5 -114h-214q0 -39 23.5 -64t58.5 -25q57 0 78 50l50 -6q-10 -37 -43.5 -62t-83.5 -25zM164 650q-37 0 -59.5 -20.5t-24.5 -56.5h163q-1 31 -22 54t-57 23z" />
    <glyph glyph-name="f.superior" horiz-adv-x="185" 
d="M59 687v20q0 46 15 62.5t62 16.5h25v-41h-24q-18 0 -23.5 -7.5t-5.5 -29.5v-21h53v-41h-53v-239h-49v239h-39v41h39z" />
    <glyph glyph-name="g.superior" horiz-adv-x="329" 
d="M232 432v25q-28 -45 -88 -45q-51 0 -83.5 37.5t-32.5 102.5t34 102t88 37q56 0 82 -41l1 37h48v-244q0 -73 -25 -100q-33 -38 -98 -38q-49 0 -79.5 22t-37.5 64l51 1q13 -45 67 -45q38 0 57 21q16 17 16 64zM157 454q35 0 56.5 24t21.5 74t-21.5 73.5t-56.5 23.5
q-77 0 -77 -97q0 -98 77 -98z" />
    <glyph glyph-name="h.superior" horiz-adv-x="324" 
d="M96 786v-138q27 43 91 43q55 0 79 -38q15 -27 15 -74v-172h-49v159q0 42 -10 59q-14 24 -52 24q-35 0 -54.5 -24t-19.5 -69v-149h-49v379h49z" />
    <glyph glyph-name="i.superior" horiz-adv-x="144" 
d="M47 687h49v-280h-49v280zM47 786h49v-58h-49v58z" />
    <glyph glyph-name="j.superior" horiz-adv-x="144" 
d="M47 386v301h49v-300q0 -45 -14 -62t-54 -17h-24v42h14q18 0 23.5 7t5.5 29zM47 786h49v-58h-49v58z" />
    <glyph glyph-name="k.superior" horiz-adv-x="286" 
d="M47 786h49v-218l114 119h59l-100 -103l109 -177h-56l-87 142l-39 -41v-101h-49v379z" />
    <glyph glyph-name="l.superior" horiz-adv-x="144" 
d="M96 786v-379h-49v379h49z" />
    <glyph glyph-name="m.superior" horiz-adv-x="494" 
d="M47 407v280h49v-39q24 43 86 43q57 0 79 -48q31 48 98 48q41 0 67 -26q24 -25 24 -86v-172h-48v158q0 51 -16 68q-15 16 -45 16q-32 0 -50 -24t-18 -67v-151h-49v158q0 52 -16 68q-15 16 -44 16q-32 0 -50 -24t-18 -67v-151h-49z" />
    <glyph glyph-name="o.superior" horiz-adv-x="320" 
d="M80 546q0 -52 21.5 -77.5t58.5 -25.5q36 0 58 25.5t22 77.5t-22 77.5t-58 25.5q-37 0 -58.5 -25.5t-21.5 -77.5zM28 546q0 71 38 108t94 37q55 0 93 -37t38 -108t-38 -108.5t-93 -37.5q-56 0 -94 37t-38 109z" />
    <glyph glyph-name="p.superior" horiz-adv-x="331" 
d="M96 441v-133h-49v379h47l2 -41q28 45 90 45q51 0 83.5 -39.5t32.5 -106.5t-34 -106t-88 -39q-58 0 -84 41zM173 649q-34 0 -57 -26.5t-23 -77.5t22.5 -76.5t57.5 -25.5q77 0 77 102q0 49 -19.5 76.5t-57.5 27.5z" />
    <glyph glyph-name="q.superior" horiz-adv-x="331" 
d="M235 650v37h48v-379h-48v137q-30 -45 -91 -45q-51 0 -83.5 39.5t-32.5 106.5t34 106t88 39q58 0 85 -41zM157 443q34 0 57 26t23 77q0 52 -22.5 77.5t-57.5 25.5q-77 0 -77 -103t77 -103z" />
    <glyph glyph-name="r.superior" horiz-adv-x="207" 
d="M189 688v-52q-20 2 -27 2q-34 0 -50 -20.5t-16 -66.5v-144h-49v280h47v-50q23 49 81 51h14z" />
    <glyph glyph-name="s.superior" horiz-adv-x="296" 
d="M265 611l-49 -7q-12 46 -69 46q-60 0 -60 -34q0 -15 11 -23t35 -14l33 -6q47 -10 74.5 -28.5t27.5 -54.5q0 -42 -32.5 -66t-83.5 -24q-53 0 -85 27.5t-36 63.5l51 7q12 -57 71 -57q29 0 47.5 11.5t18.5 29.5q0 34 -61 45l-36 8q-84 16 -84 79q0 35 33.5 56t80.5 21
q46 0 75.5 -21.5t37.5 -58.5z" />
    <glyph glyph-name="t.superior" horiz-adv-x="190" 
d="M60 687v77h48v-77h53v-41h-53v-161q0 -23 5 -30t24 -7h24v-41h-34q-41 0 -54 13.5t-13 57.5v168h-45v41h45z" />
    <glyph glyph-name="u.superior" horiz-adv-x="319" 
d="M223 407v40q-28 -46 -88 -46q-49 0 -73 32q-19 28 -19 80v174h49v-158q0 -43 9 -60q13 -26 52 -26q33 0 51.5 24t18.5 67v153h48v-280h-48z" />
    <glyph glyph-name="v.superior" horiz-adv-x="276" 
d="M63 687l77 -213l76 213h51l-108 -280h-43l-107 280h54z" />
    <glyph glyph-name="w.superior" horiz-adv-x="394" 
d="M115 481l56 206h51l56 -206l54 206h52l-82 -280h-44l-63 224l-60 -224h-44l-82 280h52z" />
    <glyph glyph-name="x.superior" horiz-adv-x="295" 
d="M272 687l-97 -134l106 -146h-58l-77 106l-76 -106h-55l104 144l-98 136h58l69 -96l70 96h54z" />
    <glyph glyph-name="y.superior" horiz-adv-x="269" 
d="M59 308h-25v43h20q24 0 37 10.5t23 40.5l1 5l-102 280h54l71 -214l71 214h50l-106 -292q-8 -23 -13 -33t-16 -25.5t-27 -22t-38 -6.5z" />
    <glyph glyph-name="z.superior" horiz-adv-x="278" 
d="M28 407v40l163 198h-152v42h209v-41l-163 -198h166v-41h-223z" />
    <glyph glyph-name="a.inferior" horiz-adv-x="312" 
d="M88 73l-47 2q2 42 35 65.5t82 23.5q59 0 85 -24.5t25 -81.5v-18v-34l-1 -18q-1 -36 5 -108h-46l-2 39q-28 -46 -94 -46q-46 0 -72 26.5t-26 64.5q0 43 37 63q32 18 96 25l54 6v10q0 57 -64 57q-62 0 -67 -52zM223 1v16l-58 -5q-82 -7 -82 -50q0 -21 15.5 -33.5
t40.5 -12.5q34 0 59 20.5t25 64.5z" />
    <glyph glyph-name="b.inferior" horiz-adv-x="331" 
d="M47 -120v379h49v-140q28 45 90 45q51 0 83.5 -39.5t32.5 -106.5t-34 -106t-88 -39q-58 0 -84 41l-3 -34h-46zM173 122q-34 0 -57 -26.5t-23 -77.5t22.5 -76.5t57.5 -25.5q77 0 77 102q0 49 -19.5 76.5t-57.5 27.5z" />
    <glyph glyph-name="c.inferior" horiz-adv-x="310" 
d="M164 164q48 0 80 -28t37 -64l-49 -7q-5 26 -24.5 41t-47.5 15q-35 0 -57.5 -26t-22.5 -75q0 -50 23 -77t57 -27q30 0 49 16t25 40l50 -6q-7 -38 -41.5 -65.5t-83.5 -27.5q-61 0 -96 40.5t-35 105.5q0 63 36.5 104t99.5 41z" />
    <glyph glyph-name="d.inferior" horiz-adv-x="331" 
d="M283 259v-379h-47l-1 38q-30 -45 -91 -45q-51 0 -83.5 39.5t-32.5 106.5t34 106t88 39q58 0 85 -41v136h48zM157 -84q34 0 57 26t23 77q0 52 -22.5 77.5t-57.5 25.5q-77 0 -77 -103t77 -103z" />
    <glyph glyph-name="e.inferior" horiz-adv-x="321" 
d="M163 -127q-63 0 -99 41t-36 105q0 65 38 105t98 40q64 0 99.5 -45t30.5 -114h-214q0 -38 23.5 -63.5t58.5 -25.5q57 0 78 50l50 -6q-10 -37 -43.5 -62t-83.5 -25zM164 123q-37 0 -59.5 -20.5t-24.5 -56.5h163q-1 31 -22 54t-57 23z" />
    <glyph glyph-name="f.inferior" horiz-adv-x="185" 
d="M59 160v20q0 46 15 62.5t62 16.5h25v-41h-24q-18 0 -23.5 -7.5t-5.5 -29.5v-21h53v-41h-53v-239h-49v239h-39v41h39z" />
    <glyph glyph-name="g.inferior" horiz-adv-x="329" 
d="M232 -95v25q-28 -45 -88 -45q-51 0 -83.5 37.5t-32.5 102.5t34 102t88 37q56 0 82 -41l1 37h48v-244q0 -73 -25 -100q-33 -38 -98 -38q-49 0 -79.5 22t-37.5 64l51 1q13 -45 67 -45q38 0 57 21q16 17 16 64zM157 -73q35 0 56.5 24t21.5 74t-21.5 73.5t-56.5 23.5
q-77 0 -77 -97q0 -98 77 -98z" />
    <glyph glyph-name="h.inferior" horiz-adv-x="324" 
d="M96 259v-138q27 43 91 43q55 0 79 -38q15 -27 15 -74v-172h-49v159q0 42 -10 59q-14 24 -52 24q-35 0 -54.5 -24t-19.5 -69v-149h-49v379h49z" />
    <glyph glyph-name="i.inferior" horiz-adv-x="144" 
d="M47 160h49v-280h-49v280zM47 259h49v-58h-49v58z" />
    <glyph glyph-name="j.inferior" horiz-adv-x="144" 
d="M47 -141v301h49v-300q0 -45 -14 -62t-54 -17h-24v42h14q18 0 23.5 7t5.5 29zM47 259h49v-58h-49v58z" />
    <glyph glyph-name="k.inferior" horiz-adv-x="286" 
d="M47 259h49v-218l114 119h59l-100 -103l109 -177h-56l-87 142l-39 -40v-102h-49v379z" />
    <glyph glyph-name="l.inferior" horiz-adv-x="144" 
d="M96 259v-379h-49v379h49z" />
    <glyph glyph-name="m.inferior" horiz-adv-x="494" 
d="M47 -120v280h49v-39q24 43 86 43q57 0 79 -48q31 48 98 48q41 0 67 -26q24 -25 24 -86v-172h-48v158q0 51 -16 68q-15 16 -45 16q-32 0 -50 -24t-18 -67v-151h-49v158q0 52 -16 68q-15 16 -44 16q-32 0 -50 -24t-18 -67v-151h-49z" />
    <glyph glyph-name="n.inferior" horiz-adv-x="324" 
d="M96 160v-39q27 43 91 43q55 0 79 -38q15 -27 15 -74v-172h-49v159q0 42 -10 59q-14 24 -52 24q-35 0 -54.5 -24t-19.5 -69v-149h-49v280h49z" />
    <glyph glyph-name="o.inferior" horiz-adv-x="320" 
d="M80 19q0 -52 21.5 -77.5t58.5 -25.5q36 0 58 25.5t22 77.5t-22 77.5t-58 25.5q-37 0 -58.5 -25.5t-21.5 -77.5zM28 19q0 71 38 108t94 37q55 0 93 -37t38 -108t-38 -108.5t-93 -37.5q-56 0 -94 37t-38 109z" />
    <glyph glyph-name="p.inferior" horiz-adv-x="331" 
d="M96 -86v-133h-49v379h47l2 -41q28 45 90 45q51 0 83.5 -39.5t32.5 -106.5t-34 -106t-88 -39q-58 0 -84 41zM173 122q-34 0 -57 -26.5t-23 -77.5t22.5 -76.5t57.5 -25.5q77 0 77 102q0 49 -19.5 76.5t-57.5 27.5z" />
    <glyph glyph-name="q.inferior" horiz-adv-x="331" 
d="M235 123v37h48v-379h-48v137q-30 -45 -91 -45q-51 0 -83.5 39.5t-32.5 106.5t34 106t88 39q58 0 85 -41zM157 -84q34 0 57 26t23 77q0 52 -22.5 77.5t-57.5 25.5q-77 0 -77 -103t77 -103z" />
    <glyph glyph-name="r.inferior" horiz-adv-x="207" 
d="M189 161v-52q-20 2 -27 2q-34 0 -50 -20.5t-16 -66.5v-144h-49v280h47v-50q23 49 81 51h14z" />
    <glyph glyph-name="s.inferior" horiz-adv-x="296" 
d="M265 84l-49 -7q-12 46 -69 46q-60 0 -60 -34q0 -15 11 -23t35 -14l33 -6q47 -10 74.5 -28.5t27.5 -54.5q0 -42 -32.5 -66t-83.5 -24q-53 0 -85 27.5t-36 63.5l51 7q12 -57 71 -57q29 0 47.5 11.5t18.5 29.5q0 34 -61 45l-36 8q-84 16 -84 79q0 35 33.5 56t80.5 21
q46 0 75.5 -21.5t37.5 -58.5z" />
    <glyph glyph-name="t.inferior" horiz-adv-x="190" 
d="M60 160v77h48v-77h53v-41h-53v-161q0 -23 5 -30t24 -7h24v-41h-34q-41 0 -54 13.5t-13 57.5v168h-45v41h45z" />
    <glyph glyph-name="u.inferior" horiz-adv-x="319" 
d="M223 -120v40q-28 -46 -88 -46q-49 0 -73 32q-19 28 -19 80v174h49v-158q0 -43 9 -60q13 -26 52 -26q33 0 51.5 24t18.5 67v153h48v-280h-48z" />
    <glyph glyph-name="v.inferior" horiz-adv-x="276" 
d="M63 160l77 -213l76 213h51l-108 -280h-43l-107 280h54z" />
    <glyph glyph-name="w.inferior" horiz-adv-x="394" 
d="M115 -46l56 206h51l56 -206l54 206h52l-82 -280h-44l-63 224l-60 -224h-44l-82 280h52z" />
    <glyph glyph-name="x.inferior" horiz-adv-x="295" 
d="M272 160l-97 -134l106 -146h-58l-77 106l-76 -106h-55l104 144l-98 136h58l69 -96l70 96h54z" />
    <glyph glyph-name="y.inferior" horiz-adv-x="269" 
d="M59 -219h-25v43h20q24 0 37 10.5t23 40.5l1 5l-102 280h54l71 -214l71 214h50l-106 -292q-8 -23 -13 -33t-16 -25.5t-27 -22t-38 -6.5z" />
    <glyph glyph-name="z.inferior" horiz-adv-x="278" 
d="M28 -120v40l163 198h-152v42h209v-41l-163 -198h166v-41h-223z" />
    <glyph glyph-name="a.denominator" horiz-adv-x="312" 
d="M88 193l-47 2q2 42 35 65.5t82 23.5q59 0 85 -24.5t25 -81.5v-18v-34l-1 -18q-1 -36 5 -108h-46l-2 39q-28 -46 -94 -46q-46 0 -72 26.5t-26 64.5q0 43 37 63q32 18 96 25l54 6v10q0 57 -64 57q-62 0 -67 -52zM223 121v16l-58 -5q-82 -7 -82 -50q0 -21 15.5 -33.5
t40.5 -12.5q34 0 59 20.5t25 64.5z" />
    <glyph glyph-name="b.denominator" horiz-adv-x="331" 
d="M47 0v379h49v-140q28 45 90 45q51 0 83.5 -39.5t32.5 -106.5t-34 -106t-88 -39q-58 0 -84 41l-3 -34h-46zM173 242q-34 0 -57 -26.5t-23 -77.5t22.5 -76.5t57.5 -25.5q77 0 77 102q0 49 -19.5 76.5t-57.5 27.5z" />
    <glyph glyph-name="c.denominator" horiz-adv-x="310" 
d="M164 284q48 0 80 -28t37 -64l-49 -7q-5 26 -24.5 41t-47.5 15q-35 0 -57.5 -26t-22.5 -75q0 -50 23 -77t57 -27q30 0 49 16t25 40l50 -6q-7 -38 -41.5 -65.5t-83.5 -27.5q-61 0 -96 40.5t-35 105.5q0 63 36.5 104t99.5 41z" />
    <glyph glyph-name="d.denominator" horiz-adv-x="331" 
d="M283 379v-379h-47l-1 38q-30 -45 -91 -45q-51 0 -83.5 39.5t-32.5 106.5t34 106t88 39q58 0 85 -41v136h48zM157 36q34 0 57 26t23 77q0 52 -22.5 77.5t-57.5 25.5q-77 0 -77 -103t77 -103z" />
    <glyph glyph-name="e.denominator" horiz-adv-x="321" 
d="M163 -7q-63 0 -99 41t-36 105q0 65 38 105t98 40q64 0 99.5 -45t30.5 -114h-214q0 -39 23.5 -64t58.5 -25q57 0 78 50l50 -6q-10 -37 -43.5 -62t-83.5 -25zM164 243q-37 0 -59.5 -20.5t-24.5 -56.5h163q-1 31 -22 54t-57 23z" />
    <glyph glyph-name="f.denominator" horiz-adv-x="185" 
d="M59 280v20q0 46 15 62.5t62 16.5h25v-41h-24q-18 0 -23.5 -7.5t-5.5 -29.5v-21h53v-41h-53v-239h-49v239h-39v41h39z" />
    <glyph glyph-name="g.denominator" horiz-adv-x="329" 
d="M232 25v25q-28 -45 -88 -45q-51 0 -83.5 37.5t-32.5 102.5t34 102t88 37q56 0 82 -41l1 37h48v-244q0 -73 -25 -100q-33 -38 -98 -38q-49 0 -79.5 22t-37.5 64l51 1q13 -45 67 -45q38 0 57 21q16 17 16 64zM157 47q35 0 56.5 24t21.5 74t-21.5 73.5t-56.5 23.5
q-77 0 -77 -97q0 -98 77 -98z" />
    <glyph glyph-name="h.denominator" horiz-adv-x="324" 
d="M96 379v-138q27 43 91 43q55 0 79 -38q15 -27 15 -74v-172h-49v159q0 42 -10 59q-14 24 -52 24q-35 0 -54.5 -24t-19.5 -69v-149h-49v379h49z" />
    <glyph glyph-name="i.denominator" horiz-adv-x="144" 
d="M47 280h49v-280h-49v280zM47 379h49v-58h-49v58z" />
    <glyph glyph-name="j.denominator" horiz-adv-x="144" 
d="M47 -21v301h49v-300q0 -45 -14 -62t-54 -17h-24v42h14q18 0 23.5 7t5.5 29zM47 379h49v-58h-49v58z" />
    <glyph glyph-name="k.denominator" horiz-adv-x="286" 
d="M47 379h49v-218l114 119h59l-100 -103l109 -177h-56l-87 142l-39 -41v-101h-49v379z" />
    <glyph glyph-name="l.denominator" horiz-adv-x="144" 
d="M96 379v-379h-49v379h49z" />
    <glyph glyph-name="m.denominator" horiz-adv-x="494" 
d="M47 0v280h49v-39q24 43 86 43q57 0 79 -48q31 48 98 48q41 0 67 -26q24 -25 24 -86v-172h-48v158q0 51 -16 68q-15 16 -45 16q-32 0 -50 -24t-18 -67v-151h-49v158q0 52 -16 68q-15 16 -44 16q-32 0 -50 -24t-18 -67v-151h-49z" />
    <glyph glyph-name="n.denominator" horiz-adv-x="324" 
d="M96 280v-39q27 43 91 43q55 0 79 -38q15 -27 15 -74v-172h-49v159q0 42 -10 59q-14 24 -52 24q-35 0 -54.5 -24t-19.5 -69v-149h-49v280h49z" />
    <glyph glyph-name="o.denominator" horiz-adv-x="320" 
d="M80 139q0 -52 21.5 -77.5t58.5 -25.5q36 0 58 25.5t22 77.5t-22 77.5t-58 25.5q-37 0 -58.5 -25.5t-21.5 -77.5zM28 139q0 71 38 108t94 37q55 0 93 -37t38 -108t-38 -108.5t-93 -37.5q-56 0 -94 37t-38 109z" />
    <glyph glyph-name="p.denominator" horiz-adv-x="331" 
d="M96 34v-133h-49v379h47l2 -41q28 45 90 45q51 0 83.5 -39.5t32.5 -106.5t-34 -106t-88 -39q-58 0 -84 41zM173 242q-34 0 -57 -26.5t-23 -77.5t22.5 -76.5t57.5 -25.5q77 0 77 102q0 49 -19.5 76.5t-57.5 27.5z" />
    <glyph glyph-name="q.denominator" horiz-adv-x="331" 
d="M235 243v37h48v-379h-48v137q-30 -45 -91 -45q-51 0 -83.5 39.5t-32.5 106.5t34 106t88 39q58 0 85 -41zM157 36q34 0 57 26t23 77q0 52 -22.5 77.5t-57.5 25.5q-77 0 -77 -103t77 -103z" />
    <glyph glyph-name="r.denominator" horiz-adv-x="207" 
d="M189 281v-52q-20 2 -27 2q-34 0 -50 -20.5t-16 -66.5v-144h-49v280h47v-50q23 49 81 51h14z" />
    <glyph glyph-name="s.denominator" horiz-adv-x="296" 
d="M265 204l-49 -7q-12 46 -69 46q-60 0 -60 -34q0 -15 11 -23t35 -14l33 -6q47 -10 74.5 -28.5t27.5 -54.5q0 -42 -32.5 -66t-83.5 -24q-53 0 -85 27.5t-36 63.5l51 7q12 -57 71 -57q29 0 47.5 11.5t18.5 29.5q0 34 -61 45l-36 8q-84 16 -84 79q0 35 33.5 56t80.5 21
q46 0 75.5 -21.5t37.5 -58.5z" />
    <glyph glyph-name="t.denominator" horiz-adv-x="190" 
d="M60 280v77h48v-77h53v-41h-53v-161q0 -23 5 -30t24 -7h24v-41h-34q-41 0 -54 13.5t-13 57.5v168h-45v41h45z" />
    <glyph glyph-name="u.denominator" horiz-adv-x="319" 
d="M223 0v40q-28 -46 -88 -46q-49 0 -73 32q-19 28 -19 80v174h49v-158q0 -43 9 -60q13 -26 52 -26q33 0 51.5 24t18.5 67v153h48v-280h-48z" />
    <glyph glyph-name="v.denominator" horiz-adv-x="276" 
d="M63 280l77 -213l76 213h51l-108 -280h-43l-107 280h54z" />
    <glyph glyph-name="w.denominator" horiz-adv-x="394" 
d="M115 74l56 206h51l56 -206l54 206h52l-82 -280h-44l-63 224l-60 -224h-44l-82 280h52z" />
    <glyph glyph-name="x.denominator" horiz-adv-x="295" 
d="M272 280l-97 -134l106 -146h-58l-77 106l-76 -106h-55l104 144l-98 136h58l69 -96l70 96h54z" />
    <glyph glyph-name="y.denominator" horiz-adv-x="269" 
d="M59 -99h-25v43h20q24 0 37 10.5t23 40.5l1 5l-102 280h54l71 -214l71 214h50l-106 -292q-8 -23 -13 -33t-16 -25.5t-27 -22t-38 -6.5z" />
    <glyph glyph-name="z.denominator" horiz-adv-x="278" 
d="M28 0v40l163 198h-152v42h209v-41l-163 -198h166v-41h-223z" />
    <glyph glyph-name="a.numerator" horiz-adv-x="312" 
d="M88 478l-47 2q2 42 35 65.5t82 23.5q59 0 85 -24.5t25 -81.5v-17v-36l-1 -17q-1 -36 5 -108h-46l-2 39q-28 -46 -94 -46q-46 0 -72 26.5t-26 64.5q0 43 37 63q32 18 96 25l54 6v10q0 57 -64 57q-62 0 -67 -52zM223 406v16l-58 -5q-82 -7 -82 -50q0 -21 15.5 -33.5
t40.5 -12.5q34 0 59 20.5t25 64.5z" />
    <glyph glyph-name="b.numerator" horiz-adv-x="331" 
d="M47 285v379h49v-140q28 45 90 45q51 0 83.5 -39.5t32.5 -106.5t-34 -106t-88 -39q-58 0 -84 41l-3 -34h-46zM173 527q-34 0 -57 -26.5t-23 -77.5t22.5 -76.5t57.5 -25.5q77 0 77 102q0 49 -19.5 76.5t-57.5 27.5z" />
    <glyph glyph-name="c.numerator" horiz-adv-x="310" 
d="M164 569q48 0 80 -28t37 -64l-49 -7q-5 26 -24.5 41t-47.5 15q-35 0 -57.5 -26t-22.5 -75q0 -50 23 -77t57 -27q30 0 49 16t25 40l50 -6q-7 -38 -41.5 -65.5t-83.5 -27.5q-61 0 -96 40.5t-35 105.5q0 63 36.5 104t99.5 41z" />
    <glyph glyph-name="d.numerator" horiz-adv-x="331" 
d="M283 664v-379h-47l-1 38q-30 -45 -91 -45q-51 0 -83.5 39.5t-32.5 106.5t34 106t88 39q58 0 85 -41v136h48zM157 321q34 0 57 26t23 77q0 52 -22.5 77.5t-57.5 25.5q-77 0 -77 -103t77 -103z" />
    <glyph glyph-name="e.numerator" horiz-adv-x="321" 
d="M163 278q-63 0 -99 41t-36 105q0 65 38 105t98 40q64 0 99.5 -45t30.5 -114h-214q0 -39 23.5 -64t58.5 -25q57 0 78 50l50 -6q-10 -37 -43.5 -62t-83.5 -25zM164 528q-37 0 -59.5 -20.5t-24.5 -56.5h163q-1 31 -22 54t-57 23z" />
    <glyph glyph-name="f.numerator" horiz-adv-x="185" 
d="M59 565v20q0 46 15 62.5t62 16.5h25v-41h-24q-18 0 -23.5 -7.5t-5.5 -29.5v-21h53v-41h-53v-239h-49v239h-39v41h39z" />
    <glyph glyph-name="g.numerator" horiz-adv-x="329" 
d="M232 310v25q-28 -45 -88 -45q-51 0 -83.5 37.5t-32.5 102.5t34 102t88 37q56 0 82 -41l1 37h48v-244q0 -73 -25 -100q-33 -38 -98 -38q-49 0 -79.5 22t-37.5 64l51 1q13 -45 67 -45q38 0 57 21q16 17 16 64zM157 332q35 0 56.5 24t21.5 74t-21.5 73.5t-56.5 23.5
q-77 0 -77 -97q0 -98 77 -98z" />
    <glyph glyph-name="h.numerator" horiz-adv-x="324" 
d="M96 664v-138q27 43 91 43q55 0 79 -38q15 -27 15 -74v-172h-49v159q0 42 -10 59q-14 24 -52 24q-35 0 -54.5 -24t-19.5 -69v-149h-49v379h49z" />
    <glyph glyph-name="i.numerator" horiz-adv-x="144" 
d="M47 565h49v-280h-49v280zM47 664h49v-58h-49v58z" />
    <glyph glyph-name="j.numerator" horiz-adv-x="144" 
d="M47 264v301h49v-300q0 -45 -14 -62t-54 -17h-24v42h14q18 0 23.5 7t5.5 29zM47 664h49v-58h-49v58z" />
    <glyph glyph-name="k.numerator" horiz-adv-x="286" 
d="M47 664h49v-218l114 119h59l-100 -103l109 -177h-56l-87 142l-39 -41v-101h-49v379z" />
    <glyph glyph-name="l.numerator" horiz-adv-x="144" 
d="M96 664v-379h-49v379h49z" />
    <glyph glyph-name="m.numerator" horiz-adv-x="494" 
d="M47 285v280h49v-39q24 43 86 43q57 0 79 -48q31 48 98 48q41 0 67 -26q24 -25 24 -86v-172h-48v158q0 51 -16 68q-15 16 -45 16q-32 0 -50 -24t-18 -67v-151h-49v158q0 52 -16 68q-15 16 -44 16q-32 0 -50 -24t-18 -67v-151h-49z" />
    <glyph glyph-name="n.numerator" horiz-adv-x="324" 
d="M96 565v-39q27 43 91 43q55 0 79 -38q15 -27 15 -74v-172h-49v159q0 42 -10 59q-14 24 -52 24q-35 0 -54.5 -24t-19.5 -69v-149h-49v280h49z" />
    <glyph glyph-name="o.numerator" horiz-adv-x="320" 
d="M80 424q0 -52 21.5 -77.5t58.5 -25.5q36 0 58 25.5t22 77.5t-22 77.5t-58 25.5q-37 0 -58.5 -25.5t-21.5 -77.5zM28 424q0 71 38 108t94 37q55 0 93 -37t38 -108t-38 -108.5t-93 -37.5q-56 0 -94 37t-38 109z" />
    <glyph glyph-name="p.numerator" horiz-adv-x="331" 
d="M96 319v-133h-49v379h47l2 -41q28 45 90 45q51 0 83.5 -39.5t32.5 -106.5t-34 -106t-88 -39q-58 0 -84 41zM173 527q-34 0 -57 -26.5t-23 -77.5t22.5 -76.5t57.5 -25.5q77 0 77 102q0 49 -19.5 76.5t-57.5 27.5z" />
    <glyph glyph-name="q.numerator" horiz-adv-x="331" 
d="M235 528v37h48v-379h-48v137q-30 -45 -91 -45q-51 0 -83.5 39.5t-32.5 106.5t34 106t88 39q58 0 85 -41zM157 321q34 0 57 26t23 77q0 52 -22.5 77.5t-57.5 25.5q-77 0 -77 -103t77 -103z" />
    <glyph glyph-name="r.numerator" horiz-adv-x="207" 
d="M189 566v-52q-20 2 -27 2q-34 0 -50 -20.5t-16 -66.5v-144h-49v280h47v-50q23 49 81 51h14z" />
    <glyph glyph-name="s.numerator" horiz-adv-x="296" 
d="M265 489l-49 -7q-12 46 -69 46q-60 0 -60 -34q0 -15 11 -23t35 -14l33 -6q47 -10 74.5 -28.5t27.5 -54.5q0 -42 -32.5 -66t-83.5 -24q-53 0 -85 27.5t-36 63.5l51 7q12 -57 71 -57q29 0 47.5 11.5t18.5 29.5q0 34 -61 45l-36 8q-84 16 -84 79q0 35 33.5 56t80.5 21
q46 0 75.5 -21.5t37.5 -58.5z" />
    <glyph glyph-name="t.numerator" horiz-adv-x="190" 
d="M60 565v77h48v-77h53v-41h-53v-161q0 -23 5 -30t24 -7h24v-41h-34q-41 0 -54 13.5t-13 57.5v168h-45v41h45z" />
    <glyph glyph-name="u.numerator" horiz-adv-x="319" 
d="M223 285v40q-28 -46 -88 -46q-49 0 -73 32q-19 28 -19 80v174h49v-158q0 -43 9 -60q13 -26 52 -26q33 0 51.5 24t18.5 67v153h48v-280h-48z" />
    <glyph glyph-name="v.numerator" horiz-adv-x="276" 
d="M63 565l77 -213l76 213h51l-108 -280h-43l-107 280h54z" />
    <glyph glyph-name="w.numerator" horiz-adv-x="394" 
d="M115 359l56 206h51l56 -206l54 206h52l-82 -280h-44l-63 224l-60 -224h-44l-82 280h52z" />
    <glyph glyph-name="x.numerator" horiz-adv-x="295" 
d="M272 565l-97 -134l106 -146h-58l-77 106l-76 -106h-55l104 144l-98 136h58l69 -96l70 96h54z" />
    <glyph glyph-name="y.numerator" horiz-adv-x="269" 
d="M59 186h-25v43h20q24 0 37 10.5t23 40.5l1 5l-102 280h54l71 -214l71 214h50l-106 -292q-8 -23 -13 -33t-16 -25.5t-27 -22t-38 -6.5z" />
    <glyph glyph-name="z.numerator" horiz-adv-x="278" 
d="M28 285v40l163 198h-152v42h209v-41l-163 -198h166v-41h-223z" />
    <glyph glyph-name="zero.fractioninf" horiz-adv-x="330" 
d="M165 -7q-74 0 -111.5 52.5t-37.5 145.5q0 92 37 143.5t112 51.5q74 0 111.5 -51.5t37.5 -143.5q0 -93 -37.5 -145.5t-111.5 -52.5zM165 36q46 0 72 39t26 116q0 152 -98 152t-98 -152q0 -77 26 -116t72 -39z" />
    <glyph glyph-name="one.fractioninf" horiz-adv-x="330" 
d="M233 0h-48v295h-89v34q44 1 66.5 10.5t37.5 39.5h33v-379z" />
    <glyph glyph-name="two.fractioninf" horiz-adv-x="330" 
d="M170 386q55 0 88.5 -26.5t33.5 -74.5q0 -32 -14 -62t-48 -63.5t-58.5 -54t-75.5 -60.5h207v-45h-276v44q114 84 164 135.5t50 98.5q0 30 -19 47.5t-53 17.5t-57.5 -20.5t-24.5 -64.5l-50 1q-1 56 36 91.5t97 35.5z" />
    <glyph glyph-name="three.fractioninf" horiz-adv-x="330" 
d="M164 36q38 0 62 18.5t24 51.5q0 72 -110 72h-8v43h6q102 0 102 64q0 28 -21 43t-53 15q-76 0 -83 -72l-50 4q4 49 40 80t94 31q54 0 89 -23.5t35 -73.5q0 -62 -62 -87q73 -23 73 -95q0 -55 -40.5 -84.5t-98.5 -29.5q-63 0 -97.5 33.5t-38.5 82.5l50 4q8 -77 87 -77z" />
    <glyph glyph-name="four.fractioninf" horiz-adv-x="330" 
d="M200 312l-136 -172h136v172zM319 140v-45h-70v-95h-49v95h-190v45l190 239h49v-239h70z" />
    <glyph glyph-name="five.fractioninf" horiz-adv-x="330" 
d="M165 36q36 0 60.5 23t24.5 65q0 44 -25.5 66.5t-60.5 22.5q-27 0 -46.5 -12.5t-26.5 -28.5l-49 3l25 204h220v-47h-181l-13 -105q29 28 83 28q53 0 89.5 -35t36.5 -95q0 -62 -40 -97t-97 -35q-62 0 -96 33t-41 82l50 4q11 -76 87 -76z" />
    <glyph glyph-name="six.fractioninf" horiz-adv-x="330" 
d="M83 122q0 -40 22.5 -63t60.5 -23t61 23.5t23 62.5q0 38 -23 62t-60 24t-60.5 -24t-23.5 -62zM171 343q-43 0 -67.5 -38t-26.5 -105q32 52 101 52q54 0 89 -35.5t35 -92.5q0 -55 -37.5 -93t-97.5 -38q-139 0 -139 183q0 90 36 150t113 60q52 0 81.5 -27t36.5 -67l-52 -1
q-9 52 -72 52z" />
    <glyph glyph-name="seven.fractioninf" horiz-adv-x="330" 
d="M32 332v47h266v-46q-149 -121 -162 -333h-59q13 200 164 332h-209z" />
    <glyph glyph-name="eight.fractioninf" horiz-adv-x="330" 
d="M165 386q58 0 93 -27t35 -70q0 -59 -53 -87q65 -27 65 -95q0 -53 -39.5 -83.5t-100.5 -30.5t-100.5 30.5t-39.5 83.5q0 68 65 95q-53 28 -53 87q0 43 35 70t93 27zM165 180q-40 0 -64 -20t-24 -53t23.5 -52t64.5 -19t65 19t24 52t-24.5 53t-64.5 20zM245 284q0 27 -22 43
t-58 16t-57.5 -16t-21.5 -43q0 -29 22 -47t57 -18q36 0 58 18t22 47z" />
    <glyph glyph-name="nine.fractioninf" horiz-adv-x="330" 
d="M246 257q0 40 -22.5 63t-60.5 23q-37 0 -60.5 -23.5t-23.5 -62.5q0 -38 23.5 -62t60.5 -24t60 24t23 62zM158 36q44 0 68 38t26 105q-29 -52 -101 -52q-54 0 -88.5 35.5t-34.5 92.5q0 55 37.5 93t97.5 38q139 0 139 -183q0 -91 -35.5 -150.5t-112.5 -59.5q-53 0 -83 27
t-37 67l53 1q9 -52 71 -52z" />
    <glyph glyph-name="zero.fractionsup" horiz-adv-x="330" 
d="M165 278q-74 0 -111.5 52.5t-37.5 145.5q0 92 37 143.5t112 51.5q74 0 111.5 -51.5t37.5 -143.5q0 -93 -37.5 -145.5t-111.5 -52.5zM165 321q46 0 72 39t26 116q0 152 -98 152t-98 -152q0 -77 26 -116t72 -39z" />
    <glyph glyph-name="one.fractionsup" horiz-adv-x="330" 
d="M233 285h-48v295h-89v34q44 1 66.5 10.5t37.5 39.5h33v-379z" />
    <glyph glyph-name="two.fractionsup" horiz-adv-x="330" 
d="M170 671q55 0 88.5 -26.5t33.5 -74.5q0 -32 -14 -62t-48 -63.5t-58.5 -54t-75.5 -60.5h196v-45h-265v44q114 84 164 135.5t50 98.5q0 30 -19 47.5t-53 17.5t-57.5 -20.5t-24.5 -64.5l-50 1q-1 56 36 91.5t97 35.5z" />
    <glyph glyph-name="three.fractionsup" horiz-adv-x="330" 
d="M164 321q38 0 62 18.5t24 51.5q0 72 -110 72h-8v43h6q102 0 102 64q0 28 -21 43t-53 15q-76 0 -83 -72l-50 4q4 49 40 80t94 31q54 0 89 -23.5t35 -73.5q0 -62 -62 -87q73 -23 73 -95q0 -55 -40.5 -84.5t-98.5 -29.5q-63 0 -97.5 33.5t-38.5 82.5l50 4q8 -77 87 -77z" />
    <glyph glyph-name="four.fractionsup" horiz-adv-x="330" 
d="M200 597l-136 -172h136v172zM319 425v-45h-70v-95h-49v95h-190v45l190 239h49v-239h70z" />
    <glyph glyph-name="five.fractionsup" horiz-adv-x="330" 
d="M165 321q36 0 60.5 23t24.5 65q0 44 -25.5 66.5t-60.5 22.5q-27 0 -46.5 -12.5t-26.5 -28.5l-49 3l25 204h220v-47h-181l-13 -105q29 28 83 28q53 0 89.5 -35t36.5 -95q0 -62 -40 -97t-97 -35q-62 0 -96 33t-41 82l50 4q11 -76 87 -76z" />
    <glyph glyph-name="six.fractionsup" horiz-adv-x="330" 
d="M83 407q0 -40 22.5 -63t60.5 -23t61 23.5t23 62.5q0 38 -23 62t-60 24t-60.5 -24t-23.5 -62zM171 628q-43 0 -67.5 -38t-26.5 -105q32 52 101 52q54 0 89 -35.5t35 -92.5q0 -55 -37.5 -93t-97.5 -38q-139 0 -139 183q0 90 36 150t113 60q52 0 81.5 -27t36.5 -67l-52 -1
q-9 52 -72 52z" />
    <glyph glyph-name="seven.fractionsup" horiz-adv-x="330" 
d="M32 617v47h266v-46q-149 -121 -162 -333h-59q13 200 164 332h-209z" />
    <glyph glyph-name="eight.fractionsup" horiz-adv-x="330" 
d="M165 671q58 0 93 -27t35 -70q0 -59 -53 -87q65 -27 65 -95q0 -53 -39.5 -83.5t-100.5 -30.5t-100.5 30.5t-39.5 83.5q0 68 65 95q-53 28 -53 87q0 43 35 70t93 27zM165 465q-40 0 -64 -20t-24 -53t23.5 -52t64.5 -19t65 19t24 52t-24.5 53t-64.5 20zM245 569q0 27 -22 43
t-58 16t-57.5 -16t-21.5 -43q0 -29 22 -47t57 -18q36 0 58 18t22 47z" />
    <glyph glyph-name="nine.fractionsup" horiz-adv-x="330" 
d="M246 542q0 40 -22.5 63t-60.5 23q-37 0 -60.5 -23.5t-23.5 -62.5q0 -38 23.5 -62t60.5 -24t60 24t23 62zM158 321q44 0 68 38t26 105q-29 -52 -101 -52q-54 0 -88.5 35.5t-34.5 92.5q0 55 37.5 93t97.5 38q139 0 139 -183q0 -91 -35.5 -150.5t-112.5 -59.5q-53 0 -83 27
t-37 67l53 1q9 -52 71 -52z" />
    <glyph glyph-name="comma.superior" horiz-adv-x="128" 
d="M37 407v61h61v-65l-32 -70h-31l28 74h-26z" />
    <glyph glyph-name="period.superior" horiz-adv-x="138" 
d="M98 407h-61v61h61v-61z" />
    <glyph glyph-name="hyphen.superior" horiz-adv-x="210" 
d="M189 530h-169v45h169v-45z" />
    <glyph glyph-name="dollar.superior" horiz-adv-x="329" 
d="M148 837h29v-45q54 -4 85.5 -35.5t30.5 -83.5l-49 -1q-3 72 -67 78v-127l8 -2q26 -7 43.5 -14t36 -19.5t28 -31.5t9.5 -45q0 -50 -35.5 -78.5t-89.5 -32.5v-44h-29v45q-55 5 -88.5 39.5t-32.5 86.5l49 1q1 -39 21.5 -60.5t50.5 -24.5v138l-12 4q-99 26 -99 108
q0 43 32.5 69t78.5 30v45zM253 503q0 31 -18.5 46t-57.5 25v-131q33 1 54.5 16t21.5 44zM87 693q0 -45 61 -62v119q-25 -2 -43 -16t-18 -41z" />
    <glyph glyph-name="Euro.superior" horiz-adv-x="389" 
d="M194 544h-83q10 -49 37.5 -75t69.5 -26q40 0 67 22t33 64l51 -1q-7 -59 -49 -93.5t-100 -34.5q-66 0 -108 37.5t-54 106.5h-57l23 34h30v20q0 17 1 25h-54l23 33h35q14 65 56 101t106 36q58 0 98.5 -35t47.5 -93l-50 -1q-5 42 -32 64t-67 22q-85 0 -106 -94h147l-23 -33
h-129q-1 -8 -1 -25v-20h111z" />
    <glyph glyph-name="cent.superior" horiz-adv-x="310" 
d="M281 599l-49 -7q-9 47 -59 55v-204q24 4 40 19t21 37l50 -6q-7 -36 -37 -62.5t-74 -30.5v-44h-25v44q-56 4 -88 44.5t-32 101.5q0 59 32.5 99t87.5 45v50h25v-50q44 -3 73 -30t35 -61zM80 547q0 -46 19 -72t49 -31v203q-31 -5 -49.5 -30t-18.5 -70z" />
    <glyph glyph-name="plus.inferior" horiz-adv-x="340" 
d="M194 -120h-49v120h-119v46h119v116h49v-116h119v-46h-119v-120z" />
    <glyph glyph-name="minus.inferior" horiz-adv-x="352" 
d="M32 46h287v-46h-287v46z" />
    <glyph glyph-name="equal.inferior" horiz-adv-x="341" 
d="M303 56h-265v46h265v-46zM303 -51h-265v46h265v-46z" />
    <glyph glyph-name="comma.inferior" horiz-adv-x="128" 
d="M37 -120v61h61v-65l-32 -70h-31l28 74h-26z" />
    <glyph glyph-name="period.inferior" horiz-adv-x="138" 
d="M98 -120h-61v61h61v-61z" />
    <glyph glyph-name="hyphen.inferior" horiz-adv-x="210" 
d="M189 3h-169v45h169v-45z" />
    <glyph glyph-name="dollar.inferior" horiz-adv-x="329" 
d="M148 310h29v-45q54 -4 85.5 -35.5t30.5 -83.5l-49 -1q-3 72 -67 78v-127l8 -2q26 -7 43.5 -14t36 -19.5t28 -31.5t9.5 -45q0 -50 -35.5 -78.5t-89.5 -31.5v-45h-29v45q-55 5 -88.5 39.5t-32.5 86.5l49 1q1 -39 21.5 -60t50.5 -24v137l-12 4q-99 26 -99 108q0 43 32.5 69
t78.5 30v45zM253 -24q0 31 -18.5 46t-57.5 25v-131q33 2 54.5 17t21.5 43zM87 166q0 -45 61 -62v119q-25 -2 -43 -16t-18 -41z" />
    <glyph glyph-name="Euro.inferior" horiz-adv-x="389" 
d="M194 17h-83q10 -49 37.5 -75t69.5 -26q40 0 67 22t33 64l51 -1q-7 -59 -49 -93.5t-100 -34.5q-66 0 -108 38t-54 106h-57l23 34h30v20q0 17 1 25h-54l23 33h35q14 65 56 101t106 36q58 0 98.5 -35t47.5 -93l-50 -1q-5 42 -32 64t-67 22q-85 0 -106 -94h147l-23 -33h-129
q-1 -8 -1 -25v-20h111z" />
    <glyph glyph-name="cent.inferior" horiz-adv-x="310" 
d="M281 72l-49 -7q-9 47 -59 55v-203q24 3 40 18.5t21 36.5l50 -6q-7 -35 -37.5 -61.5t-73.5 -30.5v-45h-25v45q-56 4 -88 44t-32 101q0 59 32.5 99t87.5 45v50h25v-50q44 -3 73 -30t35 -61zM80 20q0 -45 19 -71.5t49 -31.5v203q-31 -5 -49.5 -30t-18.5 -70z" />
    <glyph glyph-name="parenleft.denominator" horiz-adv-x="149" 
d="M26 140q0 134 73 239h40q-63 -103 -63 -239t63 -239h-40q-73 105 -73 239z" />
    <glyph glyph-name="parenright.denominator" horiz-adv-x="149" 
d="M122 140q0 -134 -73 -239h-40q63 103 63 239t-63 239h40q73 -105 73 -239z" />
    <glyph glyph-name="plus.denominator" horiz-adv-x="340" 
d="M194 0h-49v120h-119v46h119v116h49v-116h119v-46h-119v-120z" />
    <glyph glyph-name="minus.denominator" horiz-adv-x="352" 
d="M32 166h287v-46h-287v46z" />
    <glyph glyph-name="equal.denominator" horiz-adv-x="341" 
d="M303 176h-265v46h265v-46zM303 69h-265v46h265v-46z" />
    <glyph glyph-name="comma.denominator" horiz-adv-x="128" 
d="M37 0v61h61v-65l-32 -70h-31l28 74h-26z" />
    <glyph glyph-name="period.denominator" horiz-adv-x="138" 
d="M98 0h-61v61h61v-61z" />
    <glyph glyph-name="hyphen.denominator" horiz-adv-x="210" 
d="M189 123h-169v45h169v-45z" />
    <glyph glyph-name="dollar.denominator" horiz-adv-x="329" 
d="M148 430h29v-45q54 -4 85.5 -35.5t30.5 -83.5l-49 -1q-3 72 -67 78v-127l8 -2q26 -7 43.5 -14t36 -19.5t28 -31.5t9.5 -45q0 -50 -35.5 -78.5t-89.5 -31.5v-45h-29v45q-55 5 -88.5 39.5t-32.5 86.5l49 1q1 -39 21.5 -60.5t50.5 -24.5v138l-12 4q-99 26 -99 108
q0 43 32.5 69t78.5 30v45zM253 96q0 31 -18.5 46t-57.5 25v-131q33 1 54.5 16t21.5 44zM87 286q0 -45 61 -62v119q-25 -2 -43 -16t-18 -41z" />
    <glyph glyph-name="Euro.denominator" horiz-adv-x="389" 
d="M194 137h-83q10 -49 37.5 -75t69.5 -26q40 0 67 22t33 64l51 -1q-7 -59 -49 -93.5t-100 -34.5q-66 0 -108 37.5t-54 106.5h-57l23 34h30v20q0 17 1 25h-54l23 33h35q14 65 56 101t106 36q58 0 98.5 -35t47.5 -93l-50 -1q-5 42 -32 64t-67 22q-85 0 -106 -94h147l-23 -33
h-129q-1 -8 -1 -25v-20h111z" />
    <glyph glyph-name="cent.denominator" horiz-adv-x="310" 
d="M281 192l-49 -7q-9 47 -59 55v-204q24 4 40 19t21 37l50 -6q-7 -36 -37 -62t-74 -30v-45h-25v45q-56 4 -88 44t-32 101q0 59 32.5 99t87.5 45v50h25v-50q44 -3 73 -30t35 -61zM80 140q0 -46 19 -72t49 -31v203q-31 -5 -49.5 -30t-18.5 -70z" />
    <glyph glyph-name="parenleft.numerator" horiz-adv-x="149" 
d="M26 425q0 134 73 239h40q-63 -103 -63 -239t63 -239h-40q-73 105 -73 239z" />
    <glyph glyph-name="parenright.numerator" horiz-adv-x="149" 
d="M122 425q0 -134 -73 -239h-40q63 103 63 239t-63 239h40q73 -105 73 -239z" />
    <glyph glyph-name="plus.numerator" horiz-adv-x="340" 
d="M194 285h-49v120h-119v46h119v116h49v-116h119v-46h-119v-120z" />
    <glyph glyph-name="minus.numerator" horiz-adv-x="352" 
d="M32 451h287v-46h-287v46z" />
    <glyph glyph-name="equal.numerator" horiz-adv-x="341" 
d="M303 461h-265v46h265v-46zM303 354h-265v46h265v-46z" />
    <glyph glyph-name="comma.numerator" horiz-adv-x="128" 
d="M37 285v61h61v-65l-32 -70h-31l28 74h-26z" />
    <glyph glyph-name="period.numerator" horiz-adv-x="138" 
d="M98 285h-61v61h61v-61z" />
    <glyph glyph-name="hyphen.numerator" horiz-adv-x="210" 
d="M189 408h-169v45h169v-45z" />
    <glyph glyph-name="dollar.numerator" horiz-adv-x="329" 
d="M148 715h29v-45q54 -4 85.5 -35.5t30.5 -83.5l-49 -1q-3 72 -67 78v-127l8 -2q26 -7 43.5 -14t36 -19.5t28 -31.5t9.5 -45q0 -50 -35.5 -78.5t-89.5 -32.5v-44h-29v44q-55 5 -88.5 40t-32.5 87l49 1q1 -39 21.5 -60.5t50.5 -24.5v138l-12 4q-99 26 -99 108q0 43 32.5 69
t78.5 30v45zM253 381q0 31 -18.5 46t-57.5 25v-131q33 1 54.5 16t21.5 44zM87 571q0 -45 61 -62v119q-25 -2 -43 -16t-18 -41z" />
    <glyph glyph-name="Euro.numerator" horiz-adv-x="389" 
d="M194 422h-83q10 -49 37.5 -75t69.5 -26q40 0 67 22t33 64l51 -1q-7 -59 -49 -93.5t-100 -34.5q-66 0 -108 37.5t-54 106.5h-57l23 34h30v20q0 17 1 25h-54l23 33h35q14 65 56 101t106 36q58 0 98.5 -35t47.5 -93l-50 -1q-5 42 -32 64t-67 22q-85 0 -106 -94h147l-23 -33
h-129q-1 -8 -1 -25v-20h111z" />
    <glyph glyph-name="cent.numerator" horiz-adv-x="310" 
d="M281 477l-49 -7q-9 47 -59 55v-204q24 4 40 19t21 37l50 -6q-7 -36 -37 -62.5t-74 -30.5v-44h-25v44q-56 4 -88 44.5t-32 101.5q0 59 32.5 99t87.5 45v50h25v-50q44 -3 73 -30t35 -61zM80 425q0 -46 19 -72t49 -31v203q-31 -5 -49.5 -30t-18.5 -70z" />
    <glyph glyph-name="Gtilde" horiz-adv-x="692" 
d="M344 676q108 0 182 -54.5t96 -151.5l-65 -9q-19 79 -79 117.5t-136 38.5q-105 0 -172 -75t-67 -210q0 -132 64.5 -208.5t169.5 -76.5q32 0 62 5t60.5 19t52.5 36t36 58.5t14 83.5v25h-189v58h249v-332h-55l-1 95q-69 -107 -230 -107q-142 0 -220.5 94t-78.5 250
q0 157 82 250.5t225 93.5zM398 755q37 0 46 42h51q-8 -43 -32.5 -68t-60.5 -25q-28 0 -67 21.5t-53 21.5q-34 0 -45 -43h-50q6 44 32.5 68.5t61.5 24.5q28 0 65.5 -21t51.5 -21z" />
    <glyph glyph-name="gtilde" horiz-adv-x="527" 
d="M399 98v-92q0 -75 -42 -109q-34 -27 -102 -27q-61 0 -94.5 27t-39.5 70l-60 -4q7 -66 60 -104.5t132 -38.5q93 0 145 43q59 49 59 149v478h-58v-79q-23 43 -64 65t-89 22q-93 0 -154 -67t-61 -177q0 -111 58.5 -178.5t146.5 -67.5q108 0 163 90zM244 59
q-67 0 -109.5 53.5t-42.5 141.5q0 87 43 140t110 53q64 0 111 -50t47 -143q0 -92 -48.5 -143.5t-110.5 -51.5zM314 608q37 0 46 42h51q-8 -43 -32.5 -68t-60.5 -25q-28 0 -67 21.5t-53 21.5q-34 0 -45 -43h-50q6 44 32.5 68.5t61.5 24.5q28 0 65.5 -21t51.5 -21z" />
    <glyph glyph-name="Mcircumflex" horiz-adv-x="805" 
d="M434 0h-63l-229 604v-604h-62v664h100l223 -593l223 593h99v-664h-62v604zM444 803l122 -105h-69l-93 62l-94 -62h-69l125 105h78z" />
    <glyph glyph-name="mcircumflex" horiz-adv-x="811" 
d="M70 0v490h58v-84q49 92 156 92q120 0 147 -105q51 105 167 105q80 0 119 -47q39 -46 39 -145v-306h-58v290q0 91 -31 126q-29 32 -87 32q-59 0 -98.5 -49.5t-39.5 -128.5v-270h-58v289q0 88 -28 123q-29 36 -90 36q-59 0 -98.5 -49.5t-39.5 -128.5v-270h-58zM445 664
l115 -118h-59l-90 71l-91 -71h-59l118 118h66z" />
    <glyph glyph-name="Mmacron" horiz-adv-x="805" 
d="M434 0h-63l-229 604v-604h-62v664h100l223 -593l223 593h99v-664h-62v604zM543 725h-279v58h279v-58z" />
    <glyph glyph-name="mmacron" horiz-adv-x="811" 
d="M70 0v490h58v-84q49 92 156 92q120 0 147 -105q51 105 167 105q80 0 119 -47q39 -46 39 -145v-306h-58v290q0 91 -31 126q-29 32 -87 32q-59 0 -98.5 -49.5t-39.5 -128.5v-270h-58v289q0 88 -28 123q-29 36 -90 36q-59 0 -98.5 -49.5t-39.5 -128.5v-270h-58zM541 581
h-258v50h258v-50z" />
    <glyph glyph-name="Ncircumflex" horiz-adv-x="681" 
d="M601 0h-90l-369 597v-597h-62v664h90l369 -598v598h62v-664zM389 803l122 -105h-69l-93 62l-94 -62h-69l125 105h78z" />
    <glyph glyph-name="ncircumflex" horiz-adv-x="517" 
d="M128 490v-84q48 92 166 92q87 0 130 -52q38 -47 38 -141v-305h-58v290q0 81 -28 118q-29 39 -97 39q-65 0 -108 -49.5t-43 -128.5v-269h-58v490h58zM300 664l115 -118h-59l-90 71l-91 -71h-59l118 118h66z" />
    <glyph glyph-name="Ndieresis" horiz-adv-x="681" 
d="M601 0h-90l-369 597v-597h-62v664h90l369 -598v598h62v-664zM233 796h62v-92h-62v92zM415 796h62v-92h-62v92z" />
    <glyph glyph-name="ndieresis" horiz-adv-x="517" 
d="M128 490v-84q48 92 166 92q87 0 130 -52q38 -47 38 -141v-305h-58v290q0 81 -28 118q-29 39 -97 39q-65 0 -108 -49.5t-43 -128.5v-269h-58v490h58zM143 559v92h58v-92h-58zM329 651h58v-92h-58v92z" />
    <glyph glyph-name="Nmacron" horiz-adv-x="681" 
d="M601 0h-90l-369 597v-597h-62v664h90l369 -598v598h62v-664zM493 725h-279v58h279v-58z" />
    <glyph glyph-name="nmacron" horiz-adv-x="517" 
d="M128 490v-84q48 92 166 92q87 0 130 -52q38 -47 38 -141v-305h-58v290q0 81 -28 118q-29 39 -97 39q-65 0 -108 -49.5t-43 -128.5v-269h-58v490h58zM394 581h-258v50h258v-50z" />
    <glyph glyph-name="Pmacron" horiz-adv-x="563" 
d="M80 664h192q133 0 204.5 -45t71.5 -159t-71 -157.5t-205 -43.5h-130v-259h-62v664zM280 606h-138v-289h138q37 0 64 2.5t55 11.5t45 24t28 41.5t11 63.5q0 45 -15.5 75t-45.5 45t-63 20.5t-79 5.5zM423 725h-279v58h279v-58z" />
    <glyph glyph-name="pmacron" 
d="M128 -173v248q22 -43 65.5 -65t93.5 -22q94 0 153.5 68.5t59.5 185.5q0 118 -57 187t-146 69q-117 0 -169 -90l-1 82h-57v-663h58zM285 447q70 0 112 -55t42 -150q0 -94 -42 -148.5t-112 -54.5q-66 0 -113.5 51.5t-47.5 151.5q0 99 48.5 152t112.5 53zM405 581h-258v50
h258v-50z" />
    <glyph glyph-name="zero.case" horiz-adv-x="619" 
d="M310 -12q-130 0 -195 90.5t-65 254.5q0 163 65 253t195 90t194.5 -90t64.5 -253q0 -164 -64.5 -254.5t-194.5 -90.5zM310 47q92 0 143 71.5t51 214.5t-51 213.5t-143 70.5t-143 -70.5t-51 -213.5t51 -214.5t143 -71.5z" />
    <glyph glyph-name="one.case" horiz-adv-x="307" 
d="M217 0h-62v530h-155v45q89 1 122.5 18t52.5 75h42v-668z" />
    <glyph glyph-name="two.case" horiz-adv-x="532" 
d="M270 676q95 0 150 -46.5t55 -128.5q0 -104 -87.5 -206.5t-276.5 -236.5h386v-58h-469v58q200 150 290.5 248.5t90.5 186.5q0 58 -39.5 91t-99.5 33q-70 0 -115.5 -38.5t-46.5 -123.5l-65 1q3 103 63.5 161.5t163.5 58.5z" />
    <glyph glyph-name="three.case" 
d="M253 47q77 0 125 36.5t48 100.5q0 137 -203 137h-7v59h6q186 0 186 122q0 52 -40.5 83.5t-110.5 31.5q-60 0 -107 -34.5t-56 -100.5l-65 6q12 85 72.5 136.5t159.5 51.5q98 0 155 -43.5t57 -124.5q0 -53 -28 -94t-82 -60q128 -39 128 -169q0 -96 -68.5 -146.5
t-169.5 -50.5q-100 0 -163 56.5t-74 140.5l65 6q14 -69 61 -106.5t111 -37.5z" />
    <glyph glyph-name="four.case" horiz-adv-x="570" 
d="M368 576l-285 -339h285v339zM560 237v-58h-130v-179h-62v179h-358v56l359 429h61v-427h130z" />
    <glyph glyph-name="five.case" horiz-adv-x="553" 
d="M277 47q73 0 121.5 45t48.5 125q0 84 -51 126t-121 42q-54 0 -97 -23.5t-58 -56.5l-60 6l43 353h382v-58h-329l-29 -219q25 26 69.5 42t93.5 16q97 0 160 -59.5t63 -167.5q0 -109 -69 -169.5t-167 -60.5q-99 0 -162 56t-75 140l65 6q15 -69 61.5 -106t110.5 -37z" />
    <glyph glyph-name="six.case" horiz-adv-x="556" 
d="M114 212q0 -74 46.5 -119.5t121.5 -45.5t122 45.5t47 119.5q0 76 -46.5 122.5t-122.5 46.5t-122 -46.5t-46 -122.5zM293 617q-88 0 -138.5 -72.5t-51.5 -204.5q23 45 72.5 73t114.5 28q100 0 163 -63t63 -163q0 -97 -64.5 -162t-169.5 -65q-242 0 -242 318q0 79 14 143.5
t44 116.5t82 81t122 29q87 0 139 -45.5t64 -115.5l-66 -4q-9 52 -48 79t-98 27z" />
    <glyph glyph-name="seven.case" horiz-adv-x="471" 
d="M5 606v58h461v-58q-287 -215 -301 -606h-70q25 389 296 606h-386z" />
    <glyph glyph-name="eight.case" horiz-adv-x="564" 
d="M282 676q101 0 161.5 -46.5t60.5 -120.5q0 -51 -27.5 -92t-72.5 -62q120 -51 120 -170q0 -92 -67.5 -144.5t-174.5 -52.5t-174.5 52.5t-67.5 144.5q0 119 120 170q-45 21 -72.5 62t-27.5 92q0 74 60.5 120.5t161.5 46.5zM282 325q-80 0 -128.5 -38t-48.5 -102
q0 -63 48 -100.5t129 -37.5t128.5 37t47.5 101t-48 102t-128 38zM440 500q0 54 -43 85.5t-115 31.5t-115 -31.5t-43 -85.5q0 -56 43 -88.5t115 -32.5t115 32.5t43 88.5z" />
    <glyph glyph-name="nine.case" horiz-adv-x="544" 
d="M430 452q0 74 -46.5 119.5t-121.5 45.5t-122 -45.5t-47 -119.5q0 -76 46.5 -122.5t122.5 -46.5t122 46.5t46 122.5zM251 47q88 0 138.5 72.5t51.5 204.5q-24 -45 -73.5 -73t-114.5 -28q-99 0 -162 63t-63 163q0 99 64 163t170 64q242 0 242 -318q0 -79 -14 -143.5
t-44 -116.5t-82 -81t-122 -29q-87 0 -139 45.5t-64 115.5l66 4q9 -52 47.5 -79t98.5 -27z" />
    <glyph glyph-name="emdash.case" horiz-adv-x="642" 
d="M612 315h-582v58h582v-58z" />
    <glyph glyph-name="endash.case" horiz-adv-x="433" 
d="M403 315h-373v58h373v-58z" />
    <glyph glyph-name="guillemotleft.case" horiz-adv-x="427" 
d="M157 133l-147 210l146 211h61l-139 -210l139 -211h-60zM347 133l-147 210l146 211h61l-139 -210l139 -211h-60z" />
    <glyph glyph-name="guillemotright.case" horiz-adv-x="427" 
d="M417 343l-147 -210h-60l139 211l-139 210h61zM227 343l-147 -210h-60l139 211l-139 210h61z" />
    <glyph glyph-name="guilsinglleft.case" horiz-adv-x="237" 
d="M157 133l-147 210l146 211h61l-139 -210l139 -211h-60z" />
    <glyph glyph-name="guilsinglright.case" horiz-adv-x="237" 
d="M227 343l-147 -210h-60l139 211l-139 210h61z" />
    <glyph glyph-name="hyphen.case" horiz-adv-x="340" 
d="M300 312h-260v65h260v-65z" />
    <glyph glyph-name="braceleft.case" horiz-adv-x="218" 
d="M197 0q-70 0 -93 25t-23 94v83q0 50 -14 75t-57 28v54q43 3 57 28t14 75v83q0 69 23 94t93 25h21v-53h-9q-46 0 -58 -12t-12 -55v-84q0 -62 -17.5 -90t-56.5 -37v-2q39 -9 56.5 -37t17.5 -90v-84q0 -43 12 -55t58 -12h9v-53h-21z" />
    <glyph glyph-name="braceright.case" horiz-adv-x="218" 
d="M0 0v53h9q46 0 58 12t12 55v84q0 62 17.5 90t56.5 37v2q-39 9 -56.5 37t-17.5 90v84q0 43 -12 55t-58 12h-9v53h21q70 0 93 -25t23 -94v-83q0 -50 14 -75t57 -28v-54q-43 -3 -57 -28t-14 -75v-83q0 -69 -23 -94t-93 -25h-21z" />
    <glyph glyph-name="bracketleft.case" horiz-adv-x="230" 
d="M70 664h160v-55h-102v-554h102v-55h-160v664z" />
    <glyph glyph-name="bracketright.case" horiz-adv-x="230" 
d="M0 664h160v-664h-160v55h102v554h-102v55z" />
    <glyph glyph-name="parenleft.case" horiz-adv-x="207" 
d="M40 332q0 167 100 332h57q-92 -163 -92 -332t92 -332h-57q-100 165 -100 332z" />
    <glyph glyph-name="parenright.case" horiz-adv-x="207" 
d="M167 332q0 -167 -100 -332h-57q92 163 92 332t-92 332h57q100 -165 100 -332z" />
    <glyph glyph-name="periodcentered.case" horiz-adv-x="201" 
d="M60 300v87h81v-87h-81z" />
    <glyph glyph-name="bullet.case" horiz-adv-x="415" 
d="M40 343q0 68 48 116.5t116 48.5q72 0 121.5 -48t49.5 -117q0 -72 -49 -121t-122 -49q-68 0 -116 49t-48 121z" />
    <glyph glyph-name="less.case" horiz-adv-x="547" 
d="M30 370l477 219v-63l-410 -184l410 -183v-63l-477 219v55z" />
    <glyph glyph-name="greater.case" horiz-adv-x="547" 
d="M517 370v-55l-477 -219v63l410 183l-410 184v63z" />
    <glyph glyph-name="plus.case" horiz-adv-x="568" 
d="M313 90h-58v225h-225v55h225v214h58v-214h225v-55h-225v-225z" />
    <glyph glyph-name="equal.case" horiz-adv-x="515" 
d="M475 413h-435v55h435v-55zM475 223h-435v55h435v-55z" />
    <glyph glyph-name="notequal.case" horiz-adv-x="495" 
d="M143 223h-113v55h147l84 135h-231v55h265l76 121l47 -28l-58 -93h105v-55h-139l-84 -135h223v-55h-257l-90 -146l-46 31z" />
    <glyph glyph-name="lessequal.case" horiz-adv-x="588" 
d="M114 396l434 -135v-59l-508 166v55l508 166v-59zM40 90v55h508v-55h-508z" />
    <glyph glyph-name="greaterequal.case" horiz-adv-x="588" 
d="M474 396l-434 134v59l508 -166v-55l-508 -166v59zM548 90h-508v55h508v-55z" />
    <glyph glyph-name="divide.case" horiz-adv-x="528" 
d="M225 155v87h81v-87h-81zM225 443v87h81v-87h-81zM30 315h468v55h-468v-55z" />
    <glyph glyph-name="plusminus.case" horiz-adv-x="588" 
d="M265 417v167h58v-167h225v-55h-225v-172h-58v172h-225v55h225zM548 90h-508v55h508v-55z" />
    <glyph glyph-name="question.case" horiz-adv-x="457" 
d="M236 676q88 0 148.5 -41.5t60.5 -119.5q0 -41 -21.5 -78t-45 -57.5t-60.5 -46.5q-49 -34 -68 -59t-19 -73v-42h-61v42q0 43 16 76t36 50.5t63 49.5q33 24 47.5 36t30.5 39.5t16 60.5q0 53 -39.5 78.5t-108.5 25.5q-79 0 -118.5 -45t-39.5 -112l-65 1q0 101 66 158t162 57
zM161 0v87h81v-87h-81z" />
    </font>
</defs>
</svg>
