<?xml version="1.0" encoding="UTF-8"?>
<svg width="48px" height="32px" viewBox="0 0 48 32" version="1.1" xmlns="http://www.w3.org/2000/svg" xmlns:xlink="http://www.w3.org/1999/xlink">
    <!-- Generator: Sketch 50.2 (55047) - http://www.bohemiancoding.com/sketch -->
    <title>icons / flag / european_union</title>
    <desc>Created with Sketch.</desc>
    <defs>
        <rect id="path-1" x="0" y="0" width="48" height="32" rx="8"></rect>
    </defs>
    <g id="promo_set" stroke="none" stroke-width="1" fill="none" fill-rule="evenodd">
        <g id="web" transform="translate(-820.000000, -7708.000000)">
            <g id="icons-/-flag-/-european_union" transform="translate(820.000000, 7708.000000)">
                <mask id="mask-2" fill="white">
                    <use xlink:href="#path-1"></use>
                </mask>
                <use id="mask" fill="#213A8F" fill-rule="evenodd" xlink:href="#path-1"></use>
                <path d="M24,6 L22.8244295,6.61803399 L23.0489435,5.30901699 L22.097887,4.38196601 L23.4122147,4.19098301 L24,3 L24.5877853,4.19098301 L25.902113,4.38196601 L24.9510565,5.30901699 L25.1755705,6.61803399 L24,6 Z M13,17 L11.8244295,17.618034 L12.0489435,16.309017 L11.097887,15.381966 L12.4122147,15.190983 L13,14 L13.5877853,15.190983 L14.902113,15.381966 L13.9510565,16.309017 L14.1755705,17.618034 L13,17 Z M14.5,11.5 L13.3244295,12.118034 L13.5489435,10.809017 L12.597887,9.88196601 L13.9122147,9.69098301 L14.5,8.5 L15.0877853,9.69098301 L16.402113,9.88196601 L15.4510565,10.809017 L15.6755705,12.118034 L14.5,11.5 Z M33.5,11.5 L32.3244295,12.118034 L32.5489435,10.809017 L31.597887,9.88196601 L32.9122147,9.69098301 L33.5,8.5 L34.0877853,9.69098301 L35.402113,9.88196601 L34.4510565,10.809017 L34.6755705,12.118034 L33.5,11.5 Z M14.5,22.5 L13.3244295,23.118034 L13.5489435,21.809017 L12.597887,20.881966 L13.9122147,20.690983 L14.5,19.5 L15.0877853,20.690983 L16.402113,20.881966 L15.4510565,21.809017 L15.6755705,23.118034 L14.5,22.5 Z M33.5,22.5 L32.3244295,23.118034 L32.5489435,21.809017 L31.597887,20.881966 L32.9122147,20.690983 L33.5,19.5 L34.0877853,20.690983 L35.402113,20.881966 L34.4510565,21.809017 L34.6755705,23.118034 L33.5,22.5 Z M35,17 L33.8244295,17.618034 L34.0489435,16.309017 L33.097887,15.381966 L34.4122147,15.190983 L35,14 L35.5877853,15.190983 L36.902113,15.381966 L35.9510565,16.309017 L36.1755705,17.618034 L35,17 Z M29.5,7.5 L28.3244295,8.11803399 L28.5489435,6.80901699 L27.597887,5.88196601 L28.9122147,5.69098301 L29.5,4.5 L30.0877853,5.69098301 L31.402113,5.88196601 L30.4510565,6.80901699 L30.6755705,8.11803399 L29.5,7.5 Z M18.5,7.5 L17.3244295,8.11803399 L17.5489435,6.80901699 L16.597887,5.88196601 L17.9122147,5.69098301 L18.5,4.5 L19.0877853,5.69098301 L20.402113,5.88196601 L19.4510565,6.80901699 L19.6755705,8.11803399 L18.5,7.5 Z M29.5,26.5 L28.3244295,27.118034 L28.5489435,25.809017 L27.597887,24.881966 L28.9122147,24.690983 L29.5,23.5 L30.0877853,24.690983 L31.402113,24.881966 L30.4510565,25.809017 L30.6755705,27.118034 L29.5,26.5 Z M18.5,26.5 L17.3244295,27.118034 L17.5489435,25.809017 L16.597887,24.881966 L17.9122147,24.690983 L18.5,23.5 L19.0877853,24.690983 L20.402113,24.881966 L19.4510565,25.809017 L19.6755705,27.118034 L18.5,26.5 Z M24,28 L22.8244295,28.618034 L23.0489435,27.309017 L22.097887,26.381966 L23.4122147,26.190983 L24,25 L24.5877853,26.190983 L25.902113,26.381966 L24.9510565,27.309017 L25.1755705,28.618034 L24,28 Z" id="Combined-Shape" fill="#FCC200" fill-rule="nonzero" mask="url(#mask-2)"></path>
            </g>
        </g>
    </g>
</svg>