<?xml version="1.0" encoding="UTF-8"?>
<svg width="48px" height="32px" viewBox="0 0 48 32" version="1.1" xmlns="http://www.w3.org/2000/svg" xmlns:xlink="http://www.w3.org/1999/xlink">
    <!-- Generator: Sketch 50.2 (55047) - http://www.bohemiancoding.com/sketch -->
    <title>icons / flag / croatia copy</title>
    <desc>Created with Sketch.</desc>
    <defs>
        <rect id="path-1" x="0" y="0" width="48" height="32" rx="8"></rect>
    </defs>
    <g id="promo_set" stroke="none" stroke-width="1" fill="none" fill-rule="evenodd">
        <g id="web" transform="translate(-1252.000000, -7778.000000)">
            <g id="icons-/-flag-/-vatican_city" transform="translate(1252.000000, 7778.000000)">
                <mask id="mask-2" fill="white">
                    <use xlink:href="#path-1"></use>
                </mask>
                <use id="mask" fill="#FFFFFF" fill-rule="evenodd" xlink:href="#path-1"></use>
                <g id="Group-12" stroke-width="1" fill-rule="evenodd" mask="url(#mask-2)">
                    <polygon id="Fill-1" fill="#FAE100" points="0 32 24 32 24 0 0 0"></polygon>
                    <polygon id="Fill-2" fill="#FEFEFE" points="24 32 47.999 32 47.999 0 24 0"></polygon>
                    <g id="Group-11" transform="translate(27.000000, 9.000000)">
                        <path d="M5.2754,11.4287 C5.0134,11.7397 4.6464,11.9307 4.2424,11.9657 C3.4024,12.0537 2.6644,11.4067 2.5914,10.5827 C2.5194,9.7467 3.1404,9.0067 3.9764,8.9337 C4.0214,8.9287 4.0664,8.9267 4.1094,8.9267 C4.8904,8.9267 5.5564,9.5377 5.6254,10.3167 C5.6604,10.7217 5.5374,11.1167 5.2754,11.4287 Z M11.5434,6.7417 L13.6734,4.2047 L10.8654,1.8497 L5.2524,8.5407 C4.8674,8.3127 4.4084,8.1927 3.9144,8.2327 C2.6934,8.3397 1.7854,9.4217 1.8924,10.6447 C1.9924,11.7827 2.9644,12.6747 4.1054,12.6747 C4.1714,12.6747 4.2364,12.6717 4.3024,12.6657 C4.8944,12.6147 5.4314,12.3347 5.8144,11.8797 C6.1954,11.4247 6.3774,10.8487 6.3264,10.2557 C6.2834,9.7677 6.0864,9.3347 5.7894,8.9927 L9.2754,4.8387 L11.5434,6.7417 Z" id="Fill-3" fill="#E5A300"></path>
                        <path d="M9.7578,11.9658 C8.9218,11.8928 8.3008,11.1538 8.3728,10.3178 C8.4418,9.5378 9.1078,8.9268 9.8888,8.9268 C9.9338,8.9268 9.9788,8.9288 10.0238,8.9338 C10.8598,9.0068 11.4808,9.7468 11.4078,10.5828 C11.3358,11.4058 10.5938,12.0528 9.7578,11.9658 M10.0838,8.2328 C9.5938,8.1938 9.1368,8.3128 8.7498,8.5428 L3.1328,1.8498 L0.3278,4.2048 L2.4568,6.7418 L4.7248,4.8388 L8.2108,8.9938 C7.9158,9.3368 7.7168,9.7688 7.6738,10.2558 C7.5668,11.4778 8.4748,12.5588 9.6968,12.6658 C9.7618,12.6718 9.8278,12.6748 9.8928,12.6748 C11.0348,12.6748 12.0078,11.7818 12.1078,10.6438 C12.2148,9.4218 11.3068,8.3398 10.0838,8.2328" id="Fill-5" fill="#9C9C9C"></path>
                        <path d="M9.1074,10.6895 L8.6384,10.6895 C8.6384,11.5125 8.0254,12.1905 7.2344,12.3045 L7.2344,9.0095 C7.4514,9.5185 7.6644,9.8525 7.6814,9.8805 L8.0744,9.6235 C8.0644,9.6115 7.3124,8.4315 7.2464,7.0775 L8.2874,7.0775 L8.2874,6.6085 L7.2344,6.6085 L7.2344,6.0035 L6.7654,6.0035 L6.7654,6.6085 L5.7114,6.6085 L5.7114,7.0775 L6.7524,7.0775 C6.6854,8.4315 5.9334,9.6115 5.9254,9.6235 L6.3164,9.8805 C6.3364,9.8525 6.5484,9.5185 6.7654,9.0095 L6.7654,12.3045 C5.9724,12.1905 5.3594,11.5125 5.3594,10.6895 L4.8904,10.6895 C4.8904,11.7705 5.7124,12.6555 6.7654,12.7735 L6.7654,13.5005 L7.2344,13.5005 L7.2344,12.7735 C8.2854,12.6555 9.1074,11.7705 9.1074,10.6895" id="Fill-7" fill="#BF0E0E"></path>
                        <polygon id="Fill-9" fill="#DB9D00" points="7.2344 1.4365 7.2344 0.4995 6.7654 0.4995 6.7654 1.4365 5.1254 1.4365 5.5954 5.1845 8.4064 5.1845 8.8734 1.4365"></polygon>
                    </g>
                </g>
                <g id="icons-/-flag-/-border" mask="url(#mask-2)" stroke="#F0F2F7" stroke-width="1">
                    <rect id="flag-/-border" x="0.5" y="0.5" width="47" height="31" rx="8"></rect>
                </g>
            </g>
        </g>
    </g>
</svg>