<?xml version="1.0" encoding="UTF-8"?>
<svg width="48px" height="32px" viewBox="0 0 48 32" version="1.1" xmlns="http://www.w3.org/2000/svg" xmlns:xlink="http://www.w3.org/1999/xlink">
    <!-- Generator: Sketch 50.2 (55047) - http://www.bohemiancoding.com/sketch -->
    <title>icons / flag / canada copy 2</title>
    <desc>Created with Sketch.</desc>
    <defs>
        <rect id="path-1" x="0" y="0" width="48" height="32" rx="8"></rect>
    </defs>
    <g id="promo_set" stroke="none" stroke-width="1" fill="none" fill-rule="evenodd">
        <g id="web" transform="translate(-1079.000000, -7848.000000)">
            <g id="icons-/-flag-/-chile" transform="translate(1079.000000, 7848.000000)">
                <mask id="mask-2" fill="white">
                    <use xlink:href="#path-1"></use>
                </mask>
                <use id="mask" fill="#FFFFFF" fill-rule="evenodd" xlink:href="#path-1"></use>
                <g id="Group-5" stroke-width="1" fill-rule="evenodd" mask="url(#mask-2)">
                    <polygon id="Fill-1" fill="#FEFEFE" points="0 16 48 16 48 0 0 0"></polygon>
                    <polygon id="Fill-2" fill="#213A8F" points="0 16 16 16 16 0 0 0"></polygon>
                    <polygon id="Fill-3" fill="#E20714" points="0 32 48 32 48 16 0 16"></polygon>
                    <polygon id="Fill-4" fill="#FEFEFE" points="8.001 4.5 8.91 7.118 11.681 7.174 9.474 8.848 10.275 11.5 8.001 9.917 5.726 11.5 6.528 8.848 4.319 7.174 7.091 7.118"></polygon>
                </g>
                <g id="icons-/-flag-/-border" mask="url(#mask-2)" stroke="#F0F2F7" stroke-width="1">
                    <rect id="flag-/-border" x="0.5" y="0.5" width="47" height="31" rx="8"></rect>
                </g>
            </g>
        </g>
    </g>
</svg>