<?xml version="1.0" encoding="UTF-8"?>
<svg width="48px" height="32px" viewBox="0 0 48 32" version="1.1" xmlns="http://www.w3.org/2000/svg" xmlns:xlink="http://www.w3.org/1999/xlink">
    <!-- Generator: Sketch 50.2 (55047) - http://www.bohemiancoding.com/sketch -->
    <title>icons / flag / united_kingdom</title>
    <desc>Created with Sketch.</desc>
    <defs>
        <rect id="path-1" x="0" y="0" width="48" height="32" rx="8"></rect>
    </defs>
    <g id="promo_set" stroke="none" stroke-width="1" fill="none" fill-rule="evenodd">
        <g id="web" transform="translate(-906.000000, -7708.000000)">
            <g id="icons-/-flag-/-united_kingdom" transform="translate(906.000000, 7708.000000)">
                <mask id="mask-2" fill="white">
                    <use xlink:href="#path-1"></use>
                </mask>
                <use id="Mask" fill="#1451BE" fill-rule="evenodd" xlink:href="#path-1"></use>
                <g id="Group" stroke-width="1" fill-rule="evenodd" mask="url(#mask-2)">
                    <g transform="translate(24.000000, 16.000000) rotate(-60.000000) translate(-24.000000, -16.000000) translate(21.000000, -14.000000)">
                        <rect id="Rectangle-Copy-2" fill="#FFFFFF" x="0" y="0" width="6" height="60"></rect>
                        <rect id="Rectangle-Copy-6" fill="#E81A1A" x="3" y="30" width="2" height="30"></rect>
                        <rect id="Rectangle-Copy-7" fill="#E81A1A" x="1" y="0" width="2" height="30"></rect>
                    </g>
                </g>
                <g id="Group-Copy" stroke-width="1" fill-rule="evenodd" mask="url(#mask-2)">
                    <g transform="translate(24.000000, 16.000000) rotate(-120.000000) translate(-24.000000, -16.000000) translate(21.000000, -14.000000)">
                        <rect id="Rectangle-Copy-2" fill="#FFFFFF" x="0" y="0" width="6" height="60"></rect>
                        <rect id="Rectangle-Copy-6" fill="#E2001F" x="3" y="30" width="2" height="30"></rect>
                        <rect id="Rectangle-Copy-7" fill="#E2001F" x="1" y="0" width="2" height="30"></rect>
                    </g>
                </g>
                <rect id="Rectangle" fill="#FFFFFF" fill-rule="evenodd" mask="url(#mask-2)" x="19" y="0" width="10" height="32"></rect>
                <rect id="Rectangle-Copy" fill="#FFFFFF" fill-rule="evenodd" mask="url(#mask-2)" transform="translate(24.000000, 16.000000) rotate(-270.000000) translate(-24.000000, -16.000000) " x="19" y="-8" width="10" height="48"></rect>
                <rect id="Rectangle-Copy-4" fill="#E81A1A" fill-rule="evenodd" mask="url(#mask-2)" transform="translate(24.000000, 16.000000) rotate(-270.000000) translate(-24.000000, -16.000000) " x="21" y="-8" width="6" height="48"></rect>
                <rect id="Rectangle-Copy-5" fill="#E81A1A" fill-rule="evenodd" mask="url(#mask-2)" transform="translate(24.000000, 16.000000) rotate(-180.000000) translate(-24.000000, -16.000000) " x="21" y="-8" width="6" height="48"></rect>
            </g>
        </g>
    </g>
</svg>