<?xml version="1.0" encoding="UTF-8"?>
<svg width="48px" height="32px" viewBox="0 0 48 32" version="1.1" xmlns="http://www.w3.org/2000/svg" xmlns:xlink="http://www.w3.org/1999/xlink">
    <!-- Generator: Sketch 50.2 (55047) - http://www.bohemiancoding.com/sketch -->
    <title>icons / flag / united_kingdom copy 3</title>
    <desc>Created with Sketch.</desc>
    <defs>
        <rect id="path-1" x="0" y="0" width="48" height="32" rx="8"></rect>
    </defs>
    <g id="promo_set" stroke="none" stroke-width="1" fill="none" fill-rule="evenodd">
        <g id="web" transform="translate(-906.000000, -7918.000000)">
            <g id="icons-/-flag-/-eritrea" transform="translate(906.000000, 7918.000000)">
                <mask id="mask-2" fill="white">
                    <use xlink:href="#path-1"></use>
                </mask>
                <use id="mask" fill="#FFFFFF" fill-rule="evenodd" xlink:href="#path-1"></use>
                <g id="Group-6" stroke-width="1" fill-rule="evenodd" mask="url(#mask-2)">
                    <polygon id="Fill-1" fill="#3AA935" points="0 -0.0003 0 16.0007 30.8 16.0007 48 16.0007 48 -0.0003"></polygon>
                    <polygon id="Fill-2" fill="#36A9E0" points="0 32.001 48 32.001 48 16.001 0 16.001"></polygon>
                    <polygon id="Fill-3" fill="#E20714" points="0 -0.0003 0 32.0007 48 16.0007"></polygon>
                    <path d="M14,8.5 C17.711,9.361 20.744,12.203 20.615,16.233 C20.495,19.977 17.684,22.547 14.25,23.433 L14.25,21.212 C14.775,21.432 15.4,21.34 15.828,20.913 C16.28,20.46 16.369,19.784 16.096,19.241 C15.553,18.967 14.876,19.056 14.423,19.508 C14.351,19.581 14.304,19.666 14.25,19.748 L14.25,17.655 C14.786,17.908 15.443,17.818 15.887,17.375 C16.339,16.923 16.428,16.246 16.154,15.704 C15.611,15.43 14.935,15.518 14.481,15.971 C14.385,16.067 14.313,16.178 14.25,16.292 L14.25,14.069 C14.783,14.32 15.437,14.231 15.878,13.791 C16.329,13.34 16.417,12.666 16.145,12.125 C15.604,11.853 14.931,11.941 14.479,12.392 C14.384,12.488 14.313,12.598 14.25,12.71 L14.25,11.623 C14.534,11.434 14.725,11.117 14.725,10.75 C14.725,10.284 14.421,9.889 14,9.75 C13.58,9.889 13.276,10.284 13.276,10.75 C13.276,11.117 13.467,11.434 13.75,11.623 L13.75,14.332 C13.688,14.095 13.579,13.869 13.394,13.683 C12.942,13.232 12.269,13.144 11.728,13.417 C11.456,13.957 11.544,14.631 11.995,15.082 C12.445,15.532 13.12,15.621 13.66,15.348 C13.705,15.259 13.725,15.163 13.75,15.068 L13.75,18.081 C13.688,17.845 13.579,17.618 13.394,17.432 C12.942,16.981 12.269,16.894 11.728,17.166 C11.456,17.706 11.544,18.38 11.995,18.831 C12.445,19.282 13.12,19.37 13.66,19.098 C13.705,19.008 13.725,18.912 13.75,18.817 L13.75,23.433 C10.153,22.502 7.214,19.672 7.384,15.718 C7.548,11.904 10.463,9.322 14,8.5 C9.479,7.916 5.75,11.473 5.627,15.956 C5.753,20.474 9.407,24.078 14,23.5 C18.694,24.106 22.065,20.473 22.375,16 C22.222,11.495 18.575,7.924 14,8.5" id="Fill-4" fill="#FCC200"></path>
                </g>
            </g>
        </g>
    </g>
</svg>