<?xml version="1.0" encoding="UTF-8"?>
<svg width="48px" height="32px" viewBox="0 0 48 32" version="1.1" xmlns="http://www.w3.org/2000/svg" xmlns:xlink="http://www.w3.org/1999/xlink">
    <!-- Generator: Sketch 50.2 (55047) - http://www.bohemiancoding.com/sketch -->
    <title>original_icons / flag / united_states_81691932 copy 3</title>
    <desc>Created with Sketch.</desc>
    <defs>
        <rect id="path-1" x="0" y="0" width="48" height="32" rx="8"></rect>
        <polygon id="path-3" points="0 32 48 32 48 0 0 0"></polygon>
    </defs>
    <g id="promo_set" stroke="none" stroke-width="1" fill="none" fill-rule="evenodd">
        <g id="web" transform="translate(-993.000000, -7918.000000)">
            <g id="icons-/-flag-/-haiti" transform="translate(993.000000, 7918.000000)">
                <mask id="mask-2" fill="white">
                    <use xlink:href="#path-1"></use>
                </mask>
                <use id="mask" fill="#FFFFFF" fill-rule="evenodd" xlink:href="#path-1"></use>
                <g id="Group-20" stroke-width="1" fill-rule="evenodd" mask="url(#mask-2)">
                    <polygon id="Fill-1" fill="#E20714" points="0 32 48 32 48 16 0 16"></polygon>
                    <polygon id="Fill-2" fill="#213A8F" points="0 16 48 16 48 0 0 0"></polygon>
                    <polygon id="Fill-3" fill="#FEFEFE" points="19 20.5 29 20.5 29 11.5 19 11.5"></polygon>
                    <g id="Group-19">
                        <path d="M29,20.5 L19,20.5 L19,19.5 C19,19.5 24,16.937 29,19.5 L29,20.5 Z" id="Fill-4" fill="#008D36"></path>
                        <path d="M25.2227,17.1479 C25.2227,17.8379 24.6627,18.3979 23.9727,18.3979 C23.2827,18.3979 22.7227,17.8379 22.7227,17.1479 C22.7227,16.4579 23.2827,15.8979 23.9727,15.8979 C24.6627,15.8979 25.2227,16.4579 25.2227,17.1479" id="Fill-6" fill="#E20714"></path>
                        <path d="M22.9785,16.0962 L21.7975,14.5642 C21.7975,14.5642 19.3745,17.2522 22.1815,18.5952 L22.9785,16.0962 Z" id="Fill-8" fill="#213A8F"></path>
                        <path d="M25.0547,16.0962 L26.1257,14.5642 C26.1257,14.5642 28.6587,17.2522 25.8507,18.5952 L25.0547,16.0962 Z" id="Fill-10" fill="#213A8F"></path>
                        <mask id="mask-4" fill="white">
                            <use xlink:href="#path-3"></use>
                        </mask>
                        <g id="Clip-13"></g>
                        <polygon id="Fill-12" fill="#FCC200" mask="url(#mask-4)" points="23.848 15.898 24.098 15.898 24.098 13.398 23.848 13.398"></polygon>
                        <path d="M23.998,13.8584 L21.799,12.5254 C22.753,11.9804 23.971,12.5304 23.971,12.5304 C23.971,12.5304 25.425,11.9404 26.455,12.5374 L23.998,13.8584 Z" id="Fill-14" fill="#008D36" mask="url(#mask-4)"></path>
                        <polygon id="Fill-15" fill="#FCC200" mask="url(#mask-4)" points="23.4756 15.999 22.7886 13.98 22.9076 13.94 23.5936 15.959"></polygon>
                        <polygon id="Fill-16" fill="#FCC200" mask="url(#mask-4)" points="23.126 16.2314 21.932 14.3484 22.037 14.2814 23.231 16.1644"></polygon>
                        <polygon id="Fill-17" fill="#FCC200" mask="url(#mask-4)" points="24.5127 15.999 24.3947 15.959 25.0807 13.94 25.1997 13.98"></polygon>
                        <polygon id="Fill-18" fill="#FCC200" mask="url(#mask-4)" points="24.874 16.2314 24.769 16.1644 25.963 14.2814 26.068 14.3484"></polygon>
                    </g>
                </g>
            </g>
        </g>
    </g>
</svg>