<?xml version="1.0" encoding="UTF-8"?>
<svg width="48px" height="32px" viewBox="0 0 48 32" version="1.1" xmlns="http://www.w3.org/2000/svg" xmlns:xlink="http://www.w3.org/1999/xlink">
    <!-- Generator: Sketch 50.2 (55047) - http://www.bohemiancoding.com/sketch -->
    <title>icons / flag / poland copy 4</title>
    <desc>Created with Sketch.</desc>
    <defs>
        <rect id="path-1" x="0" y="0" width="48" height="32" rx="8"></rect>
    </defs>
    <g id="promo_set" stroke="none" stroke-width="1" fill="none" fill-rule="evenodd">
        <g id="web" transform="translate(-1166.000000, -7988.000000)">
            <g id="icons-/-flag-/-laos" transform="translate(1166.000000, 7988.000000)">
                <mask id="mask-2" fill="white">
                    <use xlink:href="#path-1"></use>
                </mask>
                <use id="mask" fill="#FFFFFF" fill-rule="evenodd" xlink:href="#path-1"></use>
                <g id="Group-6" stroke-width="1" fill-rule="evenodd" mask="url(#mask-2)">
                    <polygon id="Fill-1" fill="#E20714" points="0 8.0005 48 8.0005 48 0.0005 0 0.0005"></polygon>
                    <polygon id="Fill-2" fill="#213A8F" points="0 24.0005 48 24.0005 48 8.0005 0 8.0005"></polygon>
                    <polygon id="Fill-3" fill="#E20714" points="0 32.0005 48 32.0005 48 24.0005 0 24.0005"></polygon>
                    <path d="M31,16 C31,19.866 27.866,23 24,23 C20.135,23 17,19.866 17,16 C17,12.134 20.135,9 24,9 C27.866,9 31,12.134 31,16" id="Fill-4" fill="#FEFEFE"></path>
                </g>
            </g>
        </g>
    </g>
</svg>