<?xml version="1.0" encoding="UTF-8"?>
<svg width="48px" height="32px" viewBox="0 0 48 32" version="1.1" xmlns="http://www.w3.org/2000/svg" xmlns:xlink="http://www.w3.org/1999/xlink">
    <!-- Generator: Sketch 50.2 (55047) - http://www.bohemiancoding.com/sketch -->
    <title>original_icons / flag / united_states_81691932</title>
    <desc>Created with Sketch.</desc>
    <defs>
        <rect id="path-1" x="0" y="0" width="48" height="32" rx="8"></rect>
    </defs>
    <g id="promo_set" stroke="none" stroke-width="1" fill="none" fill-rule="evenodd">
        <g id="web" transform="translate(-993.000000, -7708.000000)">
            <g id="icons-/-flag-/-united_states" transform="translate(993.000000, 7708.000000)">
                <mask id="mask-2" fill="white">
                    <use xlink:href="#path-1"></use>
                </mask>
                <use id="mask" fill="#FFFFFF" fill-rule="evenodd" xlink:href="#path-1"></use>
                <g id="Group-98" stroke-width="1" fill-rule="evenodd" mask="url(#mask-2)">
                    <g transform="translate(0.000000, -1.000000)">
                        <polygon id="Fill-1" fill="#E20714" points="0 33 48 33 48 30.54 0 30.54"></polygon>
                        <polygon id="Fill-2" fill="#E20714" points="0 3.46 48 3.46 48 0.999 0 0.999"></polygon>
                        <polygon id="Fill-3" fill="#FEFEFE" points="0 5.92 48 5.92 48 3.46 0 3.46"></polygon>
                        <polygon id="Fill-4" fill="#E20714" points="0 8.38 48 8.38 48 5.92 0 5.92"></polygon>
                        <polygon id="Fill-5" fill="#FEFEFE" points="0 10.84 48 10.84 48 8.379 0 8.379"></polygon>
                        <polygon id="Fill-6" fill="#E20714" points="0 13.3 48 13.3 48 10.84 0 10.84"></polygon>
                        <polygon id="Fill-7" fill="#FEFEFE" points="0 15.76 48 15.76 48 13.3 0 13.3"></polygon>
                        <polygon id="Fill-8" fill="#E20714" points="0 18.219 48 18.219 48 15.759 0 15.759"></polygon>
                        <polygon id="Fill-9" fill="#FEFEFE" points="0 20.68 48 20.68 48 18.219 0 18.219"></polygon>
                        <polygon id="Fill-10" fill="#E20714" points="0 23.16 48 23.16 48 20.7 0 20.7"></polygon>
                        <polygon id="Fill-11" fill="#FEFEFE" points="0 25.62 48 25.62 48 23.16 0 23.16"></polygon>
                        <polygon id="Fill-12" fill="#E20714" points="0 28.08 48 28.08 48 25.62 0 25.62"></polygon>
                        <polygon id="Fill-13" fill="#FEFEFE" points="0 30.54 48 30.54 48 28.079 0 28.079"></polygon>
                        <polygon id="Fill-14" fill="#213A8F" points="0 18.2 24 18.2 24 0.999 0 0.999"></polygon>
                        <polygon id="Fill-15" fill="#FEFEFE" points="1.8054 2.3109 1.2104 2.3229 1.6844 2.6819 1.5124 3.2499 1.9994 2.9119 2.4874 3.2499 2.3154 2.6819 2.7894 2.3229 2.1954 2.3109 1.9994 1.7499"></polygon>
                        <polygon id="Fill-16" fill="#FEFEFE" points="2 3.75 2.195 4.311 2.789 4.322 2.315 4.682 2.487 5.25 2 4.912 1.512 5.25 1.685 4.682 1.211 4.322 1.805 4.311"></polygon>
                        <polygon id="Fill-17" fill="#FEFEFE" points="2 5.75 2.195 6.311 2.789 6.322 2.315 6.682 2.487 7.25 2 6.912 1.512 7.25 1.685 6.682 1.211 6.322 1.805 6.311"></polygon>
                        <polygon id="Fill-18" fill="#FEFEFE" points="2 7.75 2.195 8.311 2.789 8.322 2.315 8.682 2.487 9.25 2 8.912 1.512 9.25 1.685 8.682 1.211 8.322 1.805 8.311"></polygon>
                        <polygon id="Fill-19" fill="#FEFEFE" points="2 9.75 2.195 10.311 2.789 10.322 2.315 10.682 2.487 11.25 2 10.912 1.512 11.25 1.685 10.682 1.211 10.322 1.805 10.311"></polygon>
                        <polygon id="Fill-20" fill="#FEFEFE" points="2 11.75 2.195 12.311 2.789 12.322 2.315 12.682 2.487 13.25 2 12.912 1.512 13.25 1.685 12.682 1.211 12.322 1.805 12.311"></polygon>
                        <polygon id="Fill-21" fill="#FEFEFE" points="2 13.75 2.195 14.311 2.789 14.322 2.315 14.682 2.487 15.25 2 14.912 1.512 15.25 1.685 14.682 1.211 14.322 1.805 14.311"></polygon>
                        <polygon id="Fill-22" fill="#FEFEFE" points="2 15.75 2.195 16.311 2.789 16.322 2.315 16.682 2.487 17.25 2 16.912 1.512 17.25 1.685 16.682 1.211 16.322 1.805 16.311"></polygon>
                        <polygon id="Fill-23" fill="#FEFEFE" points="4 2.75 4.195 3.311 4.789 3.322 4.315 3.682 4.487 4.25 4 3.912 3.512 4.25 3.685 3.682 3.211 3.322 3.805 3.311"></polygon>
                        <polygon id="Fill-24" fill="#FEFEFE" points="4 4.75 4.195 5.311 4.789 5.322 4.315 5.682 4.487 6.25 4 5.912 3.512 6.25 3.685 5.682 3.211 5.322 3.805 5.311"></polygon>
                        <polygon id="Fill-25" fill="#FEFEFE" points="4 6.75 4.195 7.311 4.789 7.322 4.315 7.682 4.487 8.25 4 7.912 3.512 8.25 3.685 7.682 3.211 7.322 3.805 7.311"></polygon>
                        <polygon id="Fill-26" fill="#FEFEFE" points="4 8.75 4.195 9.311 4.789 9.322 4.315 9.682 4.487 10.25 4 9.912 3.512 10.25 3.685 9.682 3.211 9.322 3.805 9.311"></polygon>
                        <polygon id="Fill-27" fill="#FEFEFE" points="4 10.75 4.195 11.311 4.789 11.322 4.315 11.682 4.487 12.25 4 11.912 3.512 12.25 3.685 11.682 3.211 11.322 3.805 11.311"></polygon>
                        <polygon id="Fill-28" fill="#FEFEFE" points="4 12.75 4.195 13.311 4.789 13.322 4.315 13.682 4.487 14.25 4 13.912 3.512 14.25 3.685 13.682 3.211 13.322 3.805 13.311"></polygon>
                        <polygon id="Fill-29" fill="#FEFEFE" points="4 14.75 4.195 15.311 4.789 15.322 4.315 15.682 4.487 16.25 4 15.912 3.512 16.25 3.685 15.682 3.211 15.322 3.805 15.311"></polygon>
                        <polygon id="Fill-30" fill="#FEFEFE" points="5.805 2.3109 5.211 2.3229 5.684 2.6819 5.513 3.2499 6 2.9119 6.487 3.2499 6.315 2.6819 6.789 2.3229 6.195 2.3109 6 1.7499"></polygon>
                        <polygon id="Fill-31" fill="#FEFEFE" points="6 3.75 6.195 4.311 6.789 4.322 6.315 4.682 6.487 5.25 6 4.912 5.512 5.25 5.685 4.682 5.211 4.322 5.805 4.311"></polygon>
                        <polygon id="Fill-32" fill="#FEFEFE" points="6 5.75 6.195 6.311 6.789 6.322 6.315 6.682 6.487 7.25 6 6.912 5.512 7.25 5.685 6.682 5.211 6.322 5.805 6.311"></polygon>
                        <polygon id="Fill-33" fill="#FEFEFE" points="6 7.75 6.195 8.311 6.789 8.322 6.315 8.682 6.487 9.25 6 8.912 5.512 9.25 5.685 8.682 5.211 8.322 5.805 8.311"></polygon>
                        <polygon id="Fill-34" fill="#FEFEFE" points="6 9.75 6.195 10.311 6.789 10.322 6.315 10.682 6.487 11.25 6 10.912 5.512 11.25 5.685 10.682 5.211 10.322 5.805 10.311"></polygon>
                        <polygon id="Fill-35" fill="#FEFEFE" points="6 11.75 6.195 12.311 6.789 12.322 6.315 12.682 6.487 13.25 6 12.912 5.512 13.25 5.685 12.682 5.211 12.322 5.805 12.311"></polygon>
                        <polygon id="Fill-36" fill="#FEFEFE" points="6 13.75 6.195 14.311 6.789 14.322 6.315 14.682 6.487 15.25 6 14.912 5.512 15.25 5.685 14.682 5.211 14.322 5.805 14.311"></polygon>
                        <polygon id="Fill-37" fill="#FEFEFE" points="6 15.75 6.195 16.311 6.789 16.322 6.315 16.682 6.487 17.25 6 16.912 5.512 17.25 5.685 16.682 5.211 16.322 5.805 16.311"></polygon>
                        <polygon id="Fill-38" fill="#FEFEFE" points="8 2.75 8.195 3.311 8.789 3.322 8.315 3.682 8.487 4.25 8 3.912 7.512 4.25 7.685 3.682 7.211 3.322 7.805 3.311"></polygon>
                        <polygon id="Fill-39" fill="#FEFEFE" points="8 4.75 8.195 5.311 8.789 5.322 8.315 5.682 8.487 6.25 8 5.912 7.512 6.25 7.685 5.682 7.211 5.322 7.805 5.311"></polygon>
                        <polygon id="Fill-40" fill="#FEFEFE" points="8 6.75 8.195 7.311 8.789 7.322 8.315 7.682 8.487 8.25 8 7.912 7.512 8.25 7.685 7.682 7.211 7.322 7.805 7.311"></polygon>
                        <polygon id="Fill-41" fill="#FEFEFE" points="8 8.75 8.195 9.311 8.789 9.322 8.315 9.682 8.487 10.25 8 9.912 7.512 10.25 7.685 9.682 7.211 9.322 7.805 9.311"></polygon>
                        <polygon id="Fill-42" fill="#FEFEFE" points="8 10.75 8.195 11.311 8.789 11.322 8.315 11.682 8.487 12.25 8 11.912 7.512 12.25 7.685 11.682 7.211 11.322 7.805 11.311"></polygon>
                        <polygon id="Fill-43" fill="#FEFEFE" points="8 12.75 8.195 13.311 8.789 13.322 8.315 13.682 8.487 14.25 8 13.912 7.512 14.25 7.685 13.682 7.211 13.322 7.805 13.311"></polygon>
                        <polygon id="Fill-44" fill="#FEFEFE" points="8 14.75 8.195 15.311 8.789 15.322 8.315 15.682 8.487 16.25 8 15.912 7.512 16.25 7.685 15.682 7.211 15.322 7.805 15.311"></polygon>
                        <polygon id="Fill-45" fill="#FEFEFE" points="9.8055 2.3109 9.2105 2.3229 9.6845 2.6819 9.5125 3.2499 9.9995 2.9119 10.4875 3.2499 10.3155 2.6819 10.7895 2.3229 10.1955 2.3109 9.9995 1.7499"></polygon>
                        <polygon id="Fill-46" fill="#FEFEFE" points="10 3.75 10.195 4.311 10.789 4.322 10.315 4.682 10.487 5.25 10 4.912 9.512 5.25 9.685 4.682 9.211 4.322 9.805 4.311"></polygon>
                        <polygon id="Fill-47" fill="#FEFEFE" points="10 5.75 10.195 6.311 10.789 6.322 10.315 6.682 10.487 7.25 10 6.912 9.512 7.25 9.685 6.682 9.211 6.322 9.805 6.311"></polygon>
                        <polygon id="Fill-48" fill="#FEFEFE" points="10 7.75 10.195 8.311 10.789 8.322 10.315 8.682 10.487 9.25 10 8.912 9.512 9.25 9.685 8.682 9.211 8.322 9.805 8.311"></polygon>
                        <polygon id="Fill-49" fill="#FEFEFE" points="10 9.75 10.195 10.311 10.789 10.322 10.315 10.682 10.487 11.25 10 10.912 9.512 11.25 9.685 10.682 9.211 10.322 9.805 10.311"></polygon>
                        <polygon id="Fill-50" fill="#FEFEFE" points="10 11.75 10.195 12.311 10.789 12.322 10.315 12.682 10.487 13.25 10 12.912 9.512 13.25 9.685 12.682 9.211 12.322 9.805 12.311"></polygon>
                        <polygon id="Fill-51" fill="#FEFEFE" points="10 13.75 10.195 14.311 10.789 14.322 10.315 14.682 10.487 15.25 10 14.912 9.512 15.25 9.685 14.682 9.211 14.322 9.805 14.311"></polygon>
                        <polygon id="Fill-52" fill="#FEFEFE" points="10 15.75 10.195 16.311 10.789 16.322 10.315 16.682 10.487 17.25 10 16.912 9.512 17.25 9.685 16.682 9.211 16.322 9.805 16.311"></polygon>
                        <polygon id="Fill-53" fill="#FEFEFE" points="12 2.75 12.195 3.311 12.789 3.322 12.315 3.682 12.487 4.25 12 3.912 11.512 4.25 11.685 3.682 11.211 3.322 11.805 3.311"></polygon>
                        <polygon id="Fill-54" fill="#FEFEFE" points="12 4.75 12.195 5.311 12.789 5.322 12.315 5.682 12.487 6.25 12 5.912 11.512 6.25 11.685 5.682 11.211 5.322 11.805 5.311"></polygon>
                        <polygon id="Fill-55" fill="#FEFEFE" points="12 6.75 12.195 7.311 12.789 7.322 12.315 7.682 12.487 8.25 12 7.912 11.512 8.25 11.685 7.682 11.211 7.322 11.805 7.311"></polygon>
                        <polygon id="Fill-56" fill="#FEFEFE" points="12 8.75 12.195 9.311 12.789 9.322 12.315 9.682 12.487 10.25 12 9.912 11.512 10.25 11.685 9.682 11.211 9.322 11.805 9.311"></polygon>
                        <polygon id="Fill-57" fill="#FEFEFE" points="12 10.75 12.195 11.311 12.789 11.322 12.315 11.682 12.487 12.25 12 11.912 11.512 12.25 11.685 11.682 11.211 11.322 11.805 11.311"></polygon>
                        <polygon id="Fill-58" fill="#FEFEFE" points="12 12.75 12.195 13.311 12.789 13.322 12.315 13.682 12.487 14.25 12 13.912 11.512 14.25 11.685 13.682 11.211 13.322 11.805 13.311"></polygon>
                        <polygon id="Fill-59" fill="#FEFEFE" points="12 14.75 12.195 15.311 12.789 15.322 12.315 15.682 12.487 16.25 12 15.912 11.512 16.25 11.685 15.682 11.211 15.322 11.805 15.311"></polygon>
                        <polygon id="Fill-60" fill="#FEFEFE" points="13.8051 2.3109 13.2111 2.3229 13.6841 2.6819 13.5131 3.2499 14.0001 2.9119 14.4871 3.2499 14.3151 2.6819 14.7891 2.3229 14.1951 2.3109 14.0001 1.7499"></polygon>
                        <polygon id="Fill-61" fill="#FEFEFE" points="14 3.75 14.195 4.311 14.789 4.322 14.315 4.682 14.487 5.25 14 4.912 13.512 5.25 13.685 4.682 13.211 4.322 13.805 4.311"></polygon>
                        <polygon id="Fill-62" fill="#FEFEFE" points="14 5.75 14.195 6.311 14.789 6.322 14.315 6.682 14.487 7.25 14 6.912 13.512 7.25 13.685 6.682 13.211 6.322 13.805 6.311"></polygon>
                        <polygon id="Fill-63" fill="#FEFEFE" points="14 7.75 14.195 8.311 14.789 8.322 14.315 8.682 14.487 9.25 14 8.912 13.512 9.25 13.685 8.682 13.211 8.322 13.805 8.311"></polygon>
                        <polygon id="Fill-64" fill="#FEFEFE" points="14 9.75 14.195 10.311 14.789 10.322 14.315 10.682 14.487 11.25 14 10.912 13.512 11.25 13.685 10.682 13.211 10.322 13.805 10.311"></polygon>
                        <polygon id="Fill-65" fill="#FEFEFE" points="14 11.75 14.195 12.311 14.789 12.322 14.315 12.682 14.487 13.25 14 12.912 13.512 13.25 13.685 12.682 13.211 12.322 13.805 12.311"></polygon>
                        <polygon id="Fill-66" fill="#FEFEFE" points="14 13.75 14.195 14.311 14.789 14.322 14.315 14.682 14.487 15.25 14 14.912 13.512 15.25 13.685 14.682 13.211 14.322 13.805 14.311"></polygon>
                        <polygon id="Fill-67" fill="#FEFEFE" points="14 15.75 14.195 16.311 14.789 16.322 14.315 16.682 14.487 17.25 14 16.912 13.512 17.25 13.685 16.682 13.211 16.322 13.805 16.311"></polygon>
                        <polygon id="Fill-68" fill="#FEFEFE" points="16 2.75 16.195 3.311 16.789 3.322 16.315 3.682 16.487 4.25 16 3.912 15.512 4.25 15.685 3.682 15.211 3.322 15.805 3.311"></polygon>
                        <polygon id="Fill-69" fill="#FEFEFE" points="16 4.75 16.195 5.311 16.789 5.322 16.315 5.682 16.487 6.25 16 5.912 15.512 6.25 15.685 5.682 15.211 5.322 15.805 5.311"></polygon>
                        <polygon id="Fill-70" fill="#FEFEFE" points="16 6.75 16.195 7.311 16.789 7.322 16.315 7.682 16.487 8.25 16 7.912 15.512 8.25 15.685 7.682 15.211 7.322 15.805 7.311"></polygon>
                        <polygon id="Fill-71" fill="#FEFEFE" points="16 8.75 16.195 9.311 16.789 9.322 16.315 9.682 16.487 10.25 16 9.912 15.512 10.25 15.685 9.682 15.211 9.322 15.805 9.311"></polygon>
                        <polygon id="Fill-72" fill="#FEFEFE" points="16 10.75 16.195 11.311 16.789 11.322 16.315 11.682 16.487 12.25 16 11.912 15.512 12.25 15.685 11.682 15.211 11.322 15.805 11.311"></polygon>
                        <polygon id="Fill-73" fill="#FEFEFE" points="16 12.75 16.195 13.311 16.789 13.322 16.315 13.682 16.487 14.25 16 13.912 15.512 14.25 15.685 13.682 15.211 13.322 15.805 13.311"></polygon>
                        <polygon id="Fill-74" fill="#FEFEFE" points="16 14.75 16.195 15.311 16.789 15.322 16.315 15.682 16.487 16.25 16 15.912 15.512 16.25 15.685 15.682 15.211 15.322 15.805 15.311"></polygon>
                        <polygon id="Fill-75" fill="#FEFEFE" points="17.8056 2.3109 17.2106 2.3229 17.6846 2.6819 17.5126 3.2499 17.9996 2.9119 18.4866 3.2499 18.3146 2.6819 18.7896 2.3229 18.1946 2.3109 17.9996 1.7499"></polygon>
                        <polygon id="Fill-76" fill="#FEFEFE" points="18 3.75 18.195 4.311 18.789 4.322 18.315 4.682 18.487 5.25 18 4.912 17.512 5.25 17.685 4.682 17.211 4.322 17.805 4.311"></polygon>
                        <polygon id="Fill-77" fill="#FEFEFE" points="18 5.75 18.195 6.311 18.789 6.322 18.315 6.682 18.487 7.25 18 6.912 17.512 7.25 17.685 6.682 17.211 6.322 17.805 6.311"></polygon>
                        <polygon id="Fill-78" fill="#FEFEFE" points="18 7.75 18.195 8.311 18.789 8.322 18.315 8.682 18.487 9.25 18 8.912 17.512 9.25 17.685 8.682 17.211 8.322 17.805 8.311"></polygon>
                        <polygon id="Fill-79" fill="#FEFEFE" points="18 9.75 18.195 10.311 18.789 10.322 18.315 10.682 18.487 11.25 18 10.912 17.512 11.25 17.685 10.682 17.211 10.322 17.805 10.311"></polygon>
                        <polygon id="Fill-80" fill="#FEFEFE" points="18 11.75 18.195 12.311 18.789 12.322 18.315 12.682 18.487 13.25 18 12.912 17.512 13.25 17.685 12.682 17.211 12.322 17.805 12.311"></polygon>
                        <polygon id="Fill-81" fill="#FEFEFE" points="18 13.75 18.195 14.311 18.789 14.322 18.315 14.682 18.487 15.25 18 14.912 17.512 15.25 17.685 14.682 17.211 14.322 17.805 14.311"></polygon>
                        <polygon id="Fill-82" fill="#FEFEFE" points="18 15.75 18.195 16.311 18.789 16.322 18.315 16.682 18.487 17.25 18 16.912 17.512 17.25 17.685 16.682 17.211 16.322 17.805 16.311"></polygon>
                        <polygon id="Fill-83" fill="#FEFEFE" points="21.8052 2.3109 21.2112 2.3229 21.6842 2.6819 21.5122 3.2499 21.9992 2.9119 22.4872 3.2499 22.3152 2.6819 22.7892 2.3229 22.1952 2.3109 21.9992 1.7499"></polygon>
                        <polygon id="Fill-84" fill="#FEFEFE" points="22 3.75 22.195 4.311 22.789 4.322 22.315 4.682 22.487 5.25 22 4.912 21.512 5.25 21.685 4.682 21.211 4.322 21.805 4.311"></polygon>
                        <polygon id="Fill-85" fill="#FEFEFE" points="22 5.75 22.195 6.311 22.789 6.322 22.315 6.682 22.487 7.25 22 6.912 21.512 7.25 21.685 6.682 21.211 6.322 21.805 6.311"></polygon>
                        <polygon id="Fill-86" fill="#FEFEFE" points="22 7.75 22.195 8.311 22.789 8.322 22.315 8.682 22.487 9.25 22 8.912 21.512 9.25 21.685 8.682 21.211 8.322 21.805 8.311"></polygon>
                        <polygon id="Fill-87" fill="#FEFEFE" points="22 9.75 22.195 10.311 22.789 10.322 22.315 10.682 22.487 11.25 22 10.912 21.512 11.25 21.685 10.682 21.211 10.322 21.805 10.311"></polygon>
                        <polygon id="Fill-88" fill="#FEFEFE" points="22 11.75 22.195 12.311 22.789 12.322 22.315 12.682 22.487 13.25 22 12.912 21.512 13.25 21.685 12.682 21.211 12.322 21.805 12.311"></polygon>
                        <polygon id="Fill-89" fill="#FEFEFE" points="22 13.75 22.195 14.311 22.789 14.322 22.315 14.682 22.487 15.25 22 14.912 21.512 15.25 21.685 14.682 21.211 14.322 21.805 14.311"></polygon>
                        <polygon id="Fill-90" fill="#FEFEFE" points="22 15.75 22.195 16.311 22.789 16.322 22.315 16.682 22.487 17.25 22 16.912 21.512 17.25 21.685 16.682 21.211 16.322 21.805 16.311"></polygon>
                        <polygon id="Fill-91" fill="#FEFEFE" points="20 2.75 20.195 3.311 20.789 3.322 20.315 3.682 20.487 4.25 20 3.912 19.512 4.25 19.685 3.682 19.211 3.322 19.805 3.311"></polygon>
                        <polygon id="Fill-92" fill="#FEFEFE" points="20 4.75 20.195 5.311 20.789 5.322 20.315 5.682 20.487 6.25 20 5.912 19.512 6.25 19.685 5.682 19.211 5.322 19.805 5.311"></polygon>
                        <polygon id="Fill-93" fill="#FEFEFE" points="20 6.75 20.195 7.311 20.789 7.322 20.315 7.682 20.487 8.25 20 7.912 19.512 8.25 19.685 7.682 19.211 7.322 19.805 7.311"></polygon>
                        <polygon id="Fill-94" fill="#FEFEFE" points="20 8.75 20.195 9.311 20.789 9.322 20.315 9.682 20.487 10.25 20 9.912 19.512 10.25 19.685 9.682 19.211 9.322 19.805 9.311"></polygon>
                        <polygon id="Fill-95" fill="#FEFEFE" points="20 10.75 20.195 11.311 20.789 11.322 20.315 11.682 20.487 12.25 20 11.912 19.512 12.25 19.685 11.682 19.211 11.322 19.805 11.311"></polygon>
                        <polygon id="Fill-96" fill="#FEFEFE" points="20 12.75 20.195 13.311 20.789 13.322 20.315 13.682 20.487 14.25 20 13.912 19.512 14.25 19.685 13.682 19.211 13.322 19.805 13.311"></polygon>
                        <polygon id="Fill-97" fill="#FEFEFE" points="20 14.75 20.195 15.311 20.789 15.322 20.315 15.682 20.487 16.25 20 15.912 19.512 16.25 19.685 15.682 19.211 15.322 19.805 15.311"></polygon>
                    </g>
                </g>
            </g>
        </g>
    </g>
</svg>