<?xml version="1.0" encoding="UTF-8"?>
<svg width="48px" height="32px" viewBox="0 0 48 32" version="1.1" xmlns="http://www.w3.org/2000/svg" xmlns:xlink="http://www.w3.org/1999/xlink">
    <!-- Generator: Sketch 50.2 (55047) - http://www.bohemiancoding.com/sketch -->
    <title>icons / flag / canada</title>
    <desc>Created with Sketch.</desc>
    <defs>
        <rect id="path-1" x="0" y="0" width="48" height="32" rx="8"></rect>
    </defs>
    <g id="promo_set" stroke="none" stroke-width="1" fill="none" fill-rule="evenodd">
        <g id="web" transform="translate(-1079.000000, -7708.000000)">
            <g id="icons-/-flag-/-canada" transform="translate(1079.000000, 7708.000000)">
                <mask id="mask-2" fill="white">
                    <use xlink:href="#path-1"></use>
                </mask>
                <use id="Mask" fill="#FFFFFF" fill-rule="evenodd" xlink:href="#path-1"></use>
                <rect id="Rectangle" fill="#E81A1A" fill-rule="evenodd" mask="url(#mask-2)" x="0" y="0" width="14" height="32"></rect>
                <rect id="Rectangle-Copy" fill="#E81A1A" fill-rule="evenodd" mask="url(#mask-2)" x="34" y="0" width="14" height="32"></rect>
                <g id="Group" stroke-width="1" fill-rule="evenodd" mask="url(#mask-2)" fill="#E81A1A">
                    <g transform="translate(16.000000, 9.000000)" fill-rule="nonzero" id="Shape">
                        <path d="M7.99968379,0 L6.60241039,2.56386354 C6.44385997,2.84251283 6.15978557,2.81666759 5.87571077,2.66103322 L4.86412206,2.14570081 L5.61807483,6.08374139 C5.77662525,6.80319912 5.26792458,6.80319912 5.01687828,6.49211816 L3.25145928,4.54778197 L2.96484659,5.53516212 C2.93179515,5.66482633 2.78647357,5.80101452 2.56845701,5.76858285 L0.336064512,5.30682276 L0.922416742,7.40403342 C1.04793907,7.87068629 1.14584945,8.06389656 0.795696742,8.18697394 L0,8.5548892 L3.84291922,11.6258047 C3.99502418,11.7419188 4.07187374,11.9508749 4.01772339,12.14007 L3.68138609,13.2259371 C5.00455997,13.0758854 6.19014431,12.8501363 7.5139883,12.711104 C7.6308566,12.6988302 7.82650819,12.8885721 7.82570578,13.0218118 L7.65038715,17 L8.29372088,17 L8.19245261,13.0303433 C8.1916457,12.8971036 8.36914258,12.6988302 8.48601088,12.711104 C9.80985487,12.8501367 10.9954408,13.0758854 12.3186143,13.2259371 L11.9822778,12.14007 C11.9281275,11.9508749 12.0049766,11.7419188 12.1570816,11.6258047 L16,8.5548892 L15.2043041,8.18697394 C14.8541506,8.06389656 14.9520609,7.87068629 15.0775833,7.40403342 L15.6639367,5.30682276 L13.431543,5.76858285 C13.2135264,5.80101452 13.0682049,5.66482633 13.0351526,5.53516212 L12.7485403,4.54778197 L10.9831221,6.49211816 C10.732075,6.80319912 10.2233739,6.80319912 10.3819244,6.08374139 L11.1358759,2.14570081 L10.1242892,2.66103322 C9.84020746,2.81666759 9.55614003,2.84251283 9.3975892,2.56386354"></path>
                    </g>
                </g>
            </g>
        </g>
    </g>
</svg>