<?xml version="1.0" encoding="UTF-8"?>
<svg width="48px" height="32px" viewBox="0 0 48 32" version="1.1" xmlns="http://www.w3.org/2000/svg" xmlns:xlink="http://www.w3.org/1999/xlink">
    <!-- Generator: Sketch 50.2 (55047) - http://www.bohemiancoding.com/sketch -->
    <title>icons / flag / european_union copy</title>
    <desc>Created with Sketch.</desc>
    <defs>
        <rect id="path-1" x="0" y="0" width="48" height="32" rx="8"></rect>
    </defs>
    <g id="promo_set" stroke="none" stroke-width="1" fill="none" fill-rule="evenodd">
        <g id="web" transform="translate(-820.000000, -7778.000000)">
            <g id="icons-/-flag-/-argentina" transform="translate(820.000000, 7778.000000)">
                <mask id="mask-2" fill="white">
                    <use xlink:href="#path-1"></use>
                </mask>
                <use id="mask" fill="#FFFFFF" fill-rule="evenodd" xlink:href="#path-1"></use>
                <g id="Group-12" stroke-width="1" fill-rule="evenodd" mask="url(#mask-2)">
                    <g transform="translate(0.000000, -1.000000)">
                        <polygon id="Fill-1" fill="#36A9E0" points="0 33 48 33 48 22.333 0 22.333"></polygon>
                        <polygon id="Fill-2" fill="#FEFEFE" points="0 22.333 48 22.333 48 11.666 0 11.666"></polygon>
                        <polygon id="Fill-3" fill="#36A9E0" points="0 11.667 48 11.667 48 0.999 0 0.999"></polygon>
                        <polygon id="Fill-4" fill="#D95F07" points="28.25 16.875 25.27 16.875 28.192 16.293 28.144 16.048 25.224 16.629 27.975 15.49 27.879 15.258 25.124 16.399 27.604 14.743 27.465 14.535 24.988 16.189 27.095 14.083 26.918 13.907 24.808 16.017 26.466 13.535 26.258 13.396 24.604 15.871 25.743 13.122 25.513 13.026 24.372 15.778 24.954 12.856 24.709 12.807 24.125 15.739 24.125 12.75 23.875 12.75 23.875 15.73 23.294 12.807 23.049 12.855 23.63 15.777 22.49 13.026 22.259 13.122 23.397 15.871 21.744 13.396 21.536 13.535 23.193 16.016 21.084 13.906 20.907 14.083 23.014 16.189 20.536 14.534 20.397 14.742 22.876 16.398 20.122 15.258 20.026 15.489 22.777 16.628 19.856 16.048 19.808 16.293 22.735 16.875 19.75 16.875 19.75 17.125 22.731 17.125 19.808 17.707 19.856 17.952 22.78 17.37 20.026 18.511 20.122 18.742 22.873 17.603 20.397 19.257 20.536 19.465 23.017 17.808 20.907 19.917 21.084 20.094 23.19 17.987 21.536 20.464 21.744 20.603 23.401 18.122 22.259 20.879 22.49 20.975 23.632 18.219 23.05 21.144 23.295 21.192 23.875 18.275 23.875 21.25 24.125 21.25 24.125 18.269 24.707 21.192 24.952 21.144 24.37 18.22 25.512 20.975 25.743 20.879 24.601 18.122 26.259 20.603 26.467 20.464 24.812 17.987 26.918 20.093 27.095 19.917 24.985 17.808 27.465 19.464 27.604 19.256 25.127 17.602 27.88 18.742 27.976 18.51 25.22 17.369 28.146 17.951 28.194 17.706 25.274 17.125 28.25 17.125"></polygon>
                        <g id="Group-11" stroke-width="1" fill="none" transform="translate(21.000000, 14.000000)">
                            <path d="M5.002,3.0005 C5.002,4.1045 4.106,5.0005 3.002,5.0005 C1.898,5.0005 1.002,4.1045 1.002,3.0005 C1.002,1.8965 1.898,1.0005 3.002,1.0005 C4.106,1.0005 5.002,1.8965 5.002,3.0005" id="Fill-5" fill="#FCC200"></path>
                            <path d="M3,4.875 C1.967,4.875 1.125,4.034 1.125,3 C1.125,1.966 1.967,1.125 3,1.125 C4.034,1.125 4.875,1.966 4.875,3 C4.875,4.034 4.034,4.875 3,4.875 M3,0.875 C1.828,0.875 0.875,1.828 0.875,3 C0.875,4.172 1.828,5.125 3,5.125 C4.172,5.125 5.125,4.172 5.125,3 C5.125,1.828 4.172,0.875 3,0.875" id="Fill-7" fill="#D95F07"></path>
                            <polygon id="Fill-9" fill="#D95F07" points="2 2.625 2.876 2.625 2.876 4 3.126 4 3.126 2.625 4 2.625 4 2.375 2 2.375"></polygon>
                        </g>
                    </g>
                </g>
            </g>
        </g>
    </g>
</svg>