<?xml version="1.0" encoding="UTF-8"?>
<svg width="48px" height="32px" viewBox="0 0 48 32" version="1.1" xmlns="http://www.w3.org/2000/svg" xmlns:xlink="http://www.w3.org/1999/xlink">
    <!-- Generator: Sketch 50.2 (55047) - http://www.bohemiancoding.com/sketch -->
    <title>icons / flag / united_kingdom copy</title>
    <desc>Created with Sketch.</desc>
    <defs>
        <rect id="path-1" x="0" y="0" width="48" height="32" rx="8"></rect>
    </defs>
    <g id="promo_set" stroke="none" stroke-width="1" fill="none" fill-rule="evenodd">
        <g id="web" transform="translate(-906.000000, -7778.000000)">
            <g id="icons-/-flag-/-barbados" transform="translate(906.000000, 7778.000000)">
                <mask id="mask-2" fill="white">
                    <use xlink:href="#path-1"></use>
                </mask>
                <use id="mask" fill="#FFFFFF" fill-rule="evenodd" xlink:href="#path-1"></use>
                <g id="Group-5" stroke-width="1" fill-rule="evenodd" mask="url(#mask-2)">
                    <polygon id="Fill-1" fill="#213A8F" points="0 32 16 32 16 0 0 0"></polygon>
                    <polygon id="Fill-2" fill="#213A8F" points="32 32 47.999 32 47.999 0 32 0"></polygon>
                    <polygon id="Fill-3" fill="#FCC200" points="16 32 32 32 32 0 16 0"></polygon>
                    <polygon id="Fill-4" fill="#0D0803" points="29.7158 11.2236 28.2838 10.7766 25.9488 18.2496 24.7498 18.2496 24.7498 8.9996 23.2498 8.9996 23.2498 18.2496 22.0518 18.2496 19.7158 10.7766 18.2838 11.2236 20.9488 19.7496 23.2498 19.7496 23.2498 22.9996 24.7498 22.9996 24.7498 19.7496 27.0518 19.7496"></polygon>
                </g>
            </g>
        </g>
    </g>
</svg>