<?xml version="1.0" encoding="UTF-8"?>
<svg width="45px" height="45px" viewBox="0 0 45 45" version="1.1" xmlns="http://www.w3.org/2000/svg" xmlns:xlink="http://www.w3.org/1999/xlink">
    <!-- Generator: Sketch 50.2 (55047) - http://www.bohemiancoding.com/sketch -->
    <title>icons / categories / beauty</title>
    <desc>Created with Sketch.</desc>
    <defs>
        <path d="M32.7832,25.6577 C29.4932,25.6577 26.4062,24.6207 24.3032,22.8877 C24.1242,22.6787 23.9432,22.4747 23.7522,22.2827 C23.9432,22.0907 24.1252,21.8857 24.3042,21.6777 C26.4062,19.9447 29.4942,18.9077 32.7832,18.9077 C36.4432,18.9077 39.8652,20.1837 41.9432,22.2827 C39.8642,24.3817 36.4432,25.6577 32.7832,25.6577 Z M25.6592,32.7827 C25.6592,36.4437 24.3822,39.8657 22.2832,41.9437 C20.1832,39.8657 18.9072,36.4447 18.9072,32.7827 C18.9072,29.4927 19.9432,26.4057 21.6762,24.3047 L21.6782,24.3027 C21.8862,24.1237 22.0912,23.9427 22.2832,23.7507 C22.4752,23.9417 22.6792,24.1227 22.8872,24.3017 L22.8902,24.3037 C24.6222,26.4057 25.6592,29.4927 25.6592,32.7827 Z M2.6232,22.2827 C4.7012,20.1837 8.1232,18.9077 11.7832,18.9077 C15.0722,18.9077 18.1592,19.9447 20.2622,21.6757 C20.4412,21.8847 20.6222,22.0897 20.8142,22.2827 C20.6222,22.4747 20.4412,22.6797 20.2622,22.8887 C18.1592,24.6207 15.0722,25.6577 11.7832,25.6577 C8.1232,25.6577 4.7022,24.3817 2.6232,22.2827 Z M22.2832,2.6217 C24.3822,4.6997 25.6592,8.1217 25.6592,11.7827 C25.6592,15.0727 24.6222,18.1597 22.8892,20.2617 C22.6802,20.4407 22.4752,20.6217 22.2832,20.8147 C22.0902,20.6217 21.8852,20.4407 21.6762,20.2607 C19.9432,18.1587 18.9072,15.0727 18.9072,11.7827 C18.9072,8.1207 20.1832,4.6997 22.2832,2.6217 Z M44.0622,21.6567 C41.6732,18.6827 37.4562,16.9077 32.7832,16.9077 C31.3042,16.9077 29.8832,17.1037 28.5392,17.4407 L37.8402,8.1397 L36.4262,6.7257 L27.1262,16.0257 C27.4632,14.6827 27.6592,13.2607 27.6592,11.7827 C27.6592,7.1097 25.8842,2.8927 22.9092,0.5027 L22.2832,-0.0003 L21.6572,0.5027 C18.6822,2.8917 16.9072,7.1087 16.9072,11.7827 C16.9072,13.2607 17.1032,14.6827 17.4402,16.0257 L8.1402,6.7257 L6.7262,8.1397 L16.0272,17.4407 C14.6832,17.1037 13.2622,16.9077 11.7832,16.9077 C7.1102,16.9077 2.8932,18.6827 0.5042,21.6567 L0.0002,22.2827 L0.5042,22.9087 C2.8942,25.8827 7.1112,27.6577 11.7832,27.6577 C13.2622,27.6577 14.6832,27.4617 16.0272,27.1247 L6.7262,36.4257 L8.1402,37.8397 L17.4402,28.5397 C17.1032,29.8827 16.9072,31.3047 16.9072,32.7827 C16.9072,37.4567 18.6822,41.6737 21.6572,44.0627 L22.2832,44.5657 L22.9092,44.0627 C25.8842,41.6727 27.6592,37.4557 27.6592,32.7827 C27.6592,31.3047 27.4632,29.8837 27.1262,28.5397 L36.4252,37.8387 L37.8392,36.4247 L28.5382,27.1237 C29.8822,27.4617 31.3042,27.6577 32.7832,27.6577 C37.4552,27.6577 41.6722,25.8827 44.0622,22.9087 L44.5662,22.2827 L44.0622,21.6567 Z" id="path-1"></path>
        <linearGradient x1="0%" y1="0%" x2="100%" y2="100%" id="linearGradient-3">
            <stop stop-color="#111C3C" offset="0%"></stop>
            <stop stop-color="#10032D" offset="100%"></stop>
        </linearGradient>
    </defs>
    <g id="promo_set" stroke="none" stroke-width="1" fill="none" fill-rule="evenodd">
        <g id="web" transform="translate(-154.000000, -7722.000000)">
            <g id="Group-19-Copy" transform="translate(60.000000, 7460.000000)">
                <g id="Group-28" transform="translate(80.000000, 248.000000)">
                    <g id="icons-/-categories-/-beauty">
                        <g id="Group-6" transform="translate(14.000000, 14.000000)">
                            <mask id="mask-2" fill="white">
                                <use xlink:href="#path-1"></use>
                            </mask>
                            <g id="Fill-1"></g>
                            <g id="colors-/-gradients-/-dark_main" mask="url(#mask-2)" fill="url(#linearGradient-3)">
                                <g transform="translate(-14.000000, -14.000000)" id="frame">
                                    <rect x="0" y="0" width="72" height="72"></rect>
                                </g>
                            </g>
                        </g>
                    </g>
                </g>
            </g>
        </g>
    </g>
</svg>