<?xml version="1.0" encoding="UTF-8"?>
<svg width="39px" height="39px" viewBox="0 0 39 39" version="1.1" xmlns="http://www.w3.org/2000/svg" xmlns:xlink="http://www.w3.org/1999/xlink">
    <!-- Generator: Sketch 50.2 (55047) - http://www.bohemiancoding.com/sketch -->
    <title>icons / categories / beauty copy 10</title>
    <desc>Created with Sketch.</desc>
    <defs>
        <path d="M17.3203,36.8491 L13.9783,31.0621 L16.7393,26.2811 L22.2583,26.2811 L25.0193,31.0631 L21.6793,36.8491 C20.9643,36.9391 20.2393,37.0001 19.5003,37.0001 C18.7603,37.0001 18.0363,36.9391 17.3203,36.8491 Z M21.6793,2.1501 L25.0193,7.9371 L22.2583,12.7191 L16.7393,12.7191 L13.9783,7.9371 L17.3203,2.1511 C18.0363,2.0611 18.7603,2.0001 19.5003,2.0001 C20.2393,2.0001 20.9643,2.0611 21.6793,2.1501 Z M26.7523,8.9371 L33.4203,8.9371 C34.2983,10.0921 35.0503,11.3461 35.6243,12.6981 L32.2723,18.5001 L26.7523,18.5001 L23.9903,13.7191 L26.7523,8.9371 Z M26.7523,6.9371 L24.2973,2.6841 C27.0993,3.4861 29.6153,4.9631 31.6553,6.9371 L26.7523,6.9371 Z M16.7393,24.2811 L13.9783,19.5001 L16.7393,14.7191 L22.2583,14.7191 L25.0193,19.5001 L22.2583,24.2811 L16.7393,24.2811 Z M12.2463,8.9371 L15.0073,13.7191 L12.2463,18.5001 L6.7253,18.5001 L3.3763,12.6981 C3.9493,11.3461 4.7023,10.0921 5.5803,8.9371 L12.2463,8.9371 Z M12.2463,6.9371 L7.3443,6.9371 C9.3843,4.9631 11.8993,3.4861 14.7023,2.6851 L12.2463,6.9371 Z M2.0003,19.5001 C2.0003,18.0341 2.2013,16.6171 2.5433,15.2551 L4.9933,19.5001 L2.5433,23.7451 C2.2013,22.3831 2.0003,20.9661 2.0003,19.5001 Z M12.2463,30.0621 L5.5803,30.0621 C4.7023,28.9081 3.9493,27.6541 3.3763,26.3021 L6.7253,20.5001 L12.2463,20.5001 L15.0073,25.2811 L12.2463,30.0621 Z M12.2463,32.0621 L14.7023,36.3151 C11.8993,35.5141 9.3843,34.0361 7.3443,32.0621 L12.2463,32.0621 Z M26.7523,30.0621 L23.9903,25.2811 L26.7523,20.5001 L32.2723,20.5001 L35.6243,26.3021 C35.0503,27.6541 34.2983,28.9081 33.4203,30.0621 L26.7523,30.0621 Z M26.7523,32.0621 L31.6553,32.0621 C29.6153,34.0361 27.0993,35.5141 24.2973,36.3151 L26.7523,32.0621 Z M37.0003,19.5001 C37.0003,20.9661 36.7993,22.3841 36.4573,23.7451 L34.0053,19.5001 L36.4573,15.2541 C36.7993,16.6161 37.0003,18.0341 37.0003,19.5001 Z M19.5003,0.0001 C8.7483,0.0001 0.0003,8.7471 0.0003,19.5001 C0.0003,30.2521 8.7483,39.0001 19.5003,39.0001 C30.2523,39.0001 39.0003,30.2521 39.0003,19.5001 C39.0003,8.7471 30.2523,0.0001 19.5003,0.0001 Z" id="path-1"></path>
        <linearGradient x1="0%" y1="0%" x2="100%" y2="100%" id="linearGradient-3">
            <stop stop-color="#111C3C" offset="0%"></stop>
            <stop stop-color="#10032D" offset="100%"></stop>
        </linearGradient>
    </defs>
    <g id="promo_set" stroke="none" stroke-width="1" fill="none" fill-rule="evenodd">
        <g id="web" transform="translate(-157.000000, -7965.000000)">
            <g id="Group-19-Copy" transform="translate(60.000000, 7460.000000)">
                <g id="Group-28" transform="translate(80.000000, 248.000000)">
                    <g id="icons-/-categories-/-sport" transform="translate(0.000000, 240.000000)">
                        <g id="Group-3" transform="translate(17.000000, 17.000000)">
                            <mask id="mask-2" fill="white">
                                <use xlink:href="#path-1"></use>
                            </mask>
                            <g id="Fill-1"></g>
                            <g id="colors-/-gradients-/-dark_main" mask="url(#mask-2)" fill="url(#linearGradient-3)">
                                <g transform="translate(-17.000000, -17.000000)" id="frame">
                                    <rect x="0" y="0" width="72" height="72"></rect>
                                </g>
                            </g>
                        </g>
                    </g>
                </g>
            </g>
        </g>
    </g>
</svg>