<?xml version="1.0" encoding="UTF-8"?>
<svg width="16px" height="48px" viewBox="0 0 16 48" version="1.1" xmlns="http://www.w3.org/2000/svg" xmlns:xlink="http://www.w3.org/1999/xlink">
    <!-- Generator: Sketch 50.2 (55047) - http://www.bohemiancoding.com/sketch -->
    <title>icons / categories / beauty copy 15</title>
    <desc>Created with Sketch.</desc>
    <defs>
        <path d="M0.559,1.13686838e-13 L3.83,8.722 L0,40.313 L7.702,48.014 L15.404,40.313 L11.574,8.722 L14.845,1.13686838e-13 L0.559,1.13686838e-13 Z M3.445,2 L11.958,2 L9.859,7.6 L5.546,7.6 L3.445,2 Z M2.103,39.587 L5.739,9.6 L9.665,9.6 L13.3,39.587 L7.702,45.186 L2.103,39.587 Z" id="path-1"></path>
        <linearGradient x1="0%" y1="0%" x2="100%" y2="100%" id="linearGradient-3">
            <stop stop-color="#111C3C" offset="0%"></stop>
            <stop stop-color="#10032D" offset="100%"></stop>
        </linearGradient>
    </defs>
    <g id="promo_set" stroke="none" stroke-width="1" fill="none" fill-rule="evenodd">
        <g id="web" transform="translate(-576.000000, -7960.000000)">
            <g id="Group-19-Copy" transform="translate(60.000000, 7460.000000)">
                <g id="Group-21" transform="translate(488.000000, 248.000000)">
                    <g id="icons-/-categories-/-work" transform="translate(0.000000, 240.000000)">
                        <g id="Group-6" transform="translate(28.000000, 12.000000)">
                            <mask id="mask-2" fill="white">
                                <use xlink:href="#path-1"></use>
                            </mask>
                            <g id="Fill-1"></g>
                            <g id="colors-/-gradients-/-dark_main" mask="url(#mask-2)" fill="url(#linearGradient-3)">
                                <g transform="translate(-28.000000, -12.000000)" id="frame">
                                    <rect x="0" y="0" width="72" height="72"></rect>
                                </g>
                            </g>
                        </g>
                    </g>
                </g>
            </g>
        </g>
    </g>
</svg>