<?xml version="1.0" encoding="UTF-8"?>
<svg width="45px" height="38px" viewBox="0 0 45 38" version="1.1" xmlns="http://www.w3.org/2000/svg" xmlns:xlink="http://www.w3.org/1999/xlink">
    <!-- Generator: Sketch 50.2 (55047) - http://www.bohemiancoding.com/sketch -->
    <title>icons / categories / beauty copy</title>
    <desc>Created with Sketch.</desc>
    <defs>
        <path d="M11.1951,-0.0003 L2.2381,14.3327 L0.0001,14.3327 L0.0001,30.6667 L4.0001,30.6667 L4.0001,37.8327 L13.1671,37.8327 L13.1671,30.6667 L31.8331,30.6667 L31.8331,37.8327 L41.0001,37.8327 L41.0001,30.6667 L45.0001,30.6667 L45.0001,14.3327 L42.7621,14.3327 L33.8051,-0.0003 L11.1951,-0.0003 Z M12.3051,2.0007 L32.6951,2.0007 L40.4051,14.3327 L4.5951,14.3327 L12.3051,2.0007 Z M2.0001,28.6657 L43.0001,28.6657 L43.0001,16.3327 L2.0001,16.3327 L2.0001,28.6657 Z M33.8331,35.8337 L39.0001,35.8337 L39.0001,30.6667 L33.8331,30.6667 L33.8331,35.8337 Z M6.0001,35.8337 L6.0001,30.6667 L11.1671,30.6667 L11.1671,35.8337 L6.0001,35.8337 Z M41,18.093 L41,26.666 L28.25,26.666 L28.25,20.86 L41,18.093 Z M39,24.666 L39,20.573 L30.25,22.473 L30.25,24.666 L39,24.666 Z M16.75,20.86 L16.75,26.666 L4,26.666 L4,18.093 L16.75,20.86 Z M14.75,24.666 L14.75,22.473 L6,20.573 L6,24.666 L14.75,24.666 Z" id="path-1"></path>
        <linearGradient x1="0%" y1="0%" x2="100%" y2="100%" id="linearGradient-3">
            <stop stop-color="#111C3C" offset="0%"></stop>
            <stop stop-color="#10032D" offset="100%"></stop>
        </linearGradient>
    </defs>
    <g id="promo_set" stroke="none" stroke-width="1" fill="none" fill-rule="evenodd">
        <g id="web" transform="translate(-290.000000, -7725.000000)">
            <g id="Group-19-Copy" transform="translate(60.000000, 7460.000000)">
                <g id="Group-27" transform="translate(216.000000, 248.000000)">
                    <g id="icons-/-categories-/-car">
                        <g id="Group-6" transform="translate(14.000000, 17.000000)">
                            <mask id="mask-2" fill="white">
                                <use xlink:href="#path-1"></use>
                            </mask>
                            <g id="Combined-Shape"></g>
                            <g id="colors-/-gradients-/-dark_main" mask="url(#mask-2)" fill="url(#linearGradient-3)">
                                <g transform="translate(-14.000000, -17.000000)" id="frame">
                                    <rect x="0" y="0" width="72" height="72"></rect>
                                </g>
                            </g>
                        </g>
                    </g>
                </g>
            </g>
        </g>
    </g>
</svg>