<?xml version="1.0" encoding="UTF-8"?>
<svg width="49px" height="33px" viewBox="0 0 49 33" version="1.1" xmlns="http://www.w3.org/2000/svg" xmlns:xlink="http://www.w3.org/1999/xlink">
    <!-- Generator: Sketch 50.2 (55047) - http://www.bohemiancoding.com/sketch -->
    <title>icons / categories / beauty copy 2</title>
    <desc>Created with Sketch.</desc>
    <defs>
        <path d="M24.0117,21.7754 L4.4727,12.0054 L24.0117,2.2364 L43.5497,12.0054 L24.0117,21.7754 Z M36.0117,28.7104 C32.1947,30.2334 28.1577,31.0054 24.0057,31.0054 C19.8557,31.0054 15.8237,30.2354 12.0117,28.7154 L12.0117,18.0114 L24.0117,24.0114 L36.0117,18.0114 L36.0117,28.7104 Z M48.0227,12.0054 L24.0117,0.0004 L-0.0003,12.0054 L10.0117,17.0114 L10.0117,30.0484 L10.6217,30.3074 C14.8617,32.0974 19.3647,33.0054 24.0057,33.0054 C28.6497,33.0054 33.1567,32.0964 37.4017,30.3014 L38.0117,30.0444 L38.0117,17.0114 L46.0117,13.0114 L46.0117,24.0054 L48.0117,24.0054 L48.0117,12.0114 L48.0227,12.0054 Z" id="path-1"></path>
        <linearGradient x1="0%" y1="0%" x2="100%" y2="100%" id="linearGradient-3">
            <stop stop-color="#111C3C" offset="0%"></stop>
            <stop stop-color="#10032D" offset="100%"></stop>
        </linearGradient>
    </defs>
    <g id="promo_set" stroke="none" stroke-width="1" fill="none" fill-rule="evenodd">
        <g id="web" transform="translate(-424.000000, -7727.000000)">
            <g id="Group-19-Copy" transform="translate(60.000000, 7460.000000)">
                <g id="Group-26" transform="translate(352.000000, 248.000000)">
                    <g id="icons-/-categories-/-education">
                        <g id="Group-6" transform="translate(12.000000, 19.000000)">
                            <mask id="mask-2" fill="white">
                                <use xlink:href="#path-1"></use>
                            </mask>
                            <g id="Fill-1"></g>
                            <g id="colors-/-gradients-/-dark_main" mask="url(#mask-2)" fill="url(#linearGradient-3)">
                                <g transform="translate(-12.000000, -19.000000)" id="frame">
                                    <rect x="0" y="0" width="72" height="72"></rect>
                                </g>
                            </g>
                        </g>
                    </g>
                </g>
            </g>
        </g>
    </g>
</svg>