<?xml version="1.0" encoding="UTF-8"?>
<svg width="40px" height="40px" viewBox="0 0 40 40" version="1.1" xmlns="http://www.w3.org/2000/svg" xmlns:xlink="http://www.w3.org/1999/xlink">
    <!-- Generator: Sketch 50.2 (55047) - http://www.bohemiancoding.com/sketch -->
    <title>icons / categories / beauty copy 3</title>
    <desc>Created with Sketch.</desc>
    <defs>
        <path d="M27.333,12.667 L40,12.667 L40,26.333 C40,33.869 33.869,40 26.333,40 C19.118,40 13.206,34.377 12.714,27.285 C5.623,26.793 0,20.882 0,13.667 L0,0 L27.333,0 L27.333,12.667 Z M38,26.333 L38,14.667 L27.282,14.667 C26.792,21.389 21.43,26.767 14.714,27.28 C15.199,33.27 20.219,38 26.333,38 C32.767,38 38,32.767 38,26.333 Z M26.333,25.333 C30.376,25.333 33.666,28.623 33.666,32.667 L31.666,32.667 C31.666,29.726 29.273,27.333 26.333,27.333 C23.393,27.333 21,29.726 21,32.667 L19,32.667 C19,28.623 22.29,25.333 26.333,25.333 Z M2,13.667 C2,20.1 7.233,25.333 13.666,25.333 C20.1,25.333 25.333,20.1 25.333,13.667 L25.333,2 L2,2 L2,13.667 Z M21,13.667 C21,17.711 17.71,21 13.666,21 C9.623,21 6.333,17.711 6.333,13.667 L8.333,13.667 C8.333,16.607 10.726,19 13.666,19 C16.607,19 19,16.607 19,13.667 L21,13.667 Z M9.125,7.333 C9.125,8.321 8.321,9.125 7.333,9.125 C6.345,9.125 5.541,8.321 5.541,7.333 C5.541,6.346 6.345,5.542 7.333,5.542 C8.321,5.542 9.125,6.346 9.125,7.333 Z M20,9.125 C19.012,9.125 18.208,8.321 18.208,7.333 C18.208,6.346 19.012,5.542 20,5.542 C20.987,5.542 21.791,6.346 21.791,7.333 C21.791,8.321 20.987,9.125 20,9.125 Z M32.666,21.792 C31.679,21.792 30.875,20.988 30.875,20 C30.875,19.012 31.679,18.208 32.666,18.208 C33.654,18.208 34.458,19.012 34.458,20 C34.458,20.988 33.654,21.792 32.666,21.792 Z" id="path-1"></path>
        <linearGradient x1="0%" y1="0%" x2="100%" y2="100%" id="linearGradient-3">
            <stop stop-color="#111C3C" offset="0%"></stop>
            <stop stop-color="#10032D" offset="100%"></stop>
        </linearGradient>
    </defs>
    <g id="promo_set" stroke="none" stroke-width="1" fill="none" fill-rule="evenodd">
        <g id="web" transform="translate(-564.000000, -7724.000000)">
            <g id="Group-19-Copy" transform="translate(60.000000, 7460.000000)">
                <g id="Group-21" transform="translate(488.000000, 248.000000)">
                    <g id="icons-/-categories-/-entertainment">
                        <g id="Group-6" transform="translate(16.000000, 16.000000)">
                            <mask id="mask-2" fill="white">
                                <use xlink:href="#path-1"></use>
                            </mask>
                            <g id="Combined-Shape"></g>
                            <g id="colors-/-gradients-/-dark_main" mask="url(#mask-2)" fill="url(#linearGradient-3)">
                                <g transform="translate(-16.000000, -16.000000)" id="frame">
                                    <rect x="0" y="0" width="72" height="72"></rect>
                                </g>
                            </g>
                        </g>
                    </g>
                </g>
            </g>
        </g>
    </g>
</svg>