<?xml version="1.0" encoding="UTF-8"?>
<svg width="37px" height="37px" viewBox="0 0 37 37" version="1.1" xmlns="http://www.w3.org/2000/svg" xmlns:xlink="http://www.w3.org/1999/xlink">
    <!-- Generator: Sketch 50.2 (55047) - http://www.bohemiancoding.com/sketch -->
    <title>icons / categories / beauty copy 6</title>
    <desc>Created with Sketch.</desc>
    <defs>
        <path d="M9.75,2 C11.209,2 12.396,3.187 12.396,4.646 C12.396,6.105 11.209,7.292 9.75,7.292 C8.29,7.292 7.103,6.105 7.103,4.646 C7.103,3.187 8.29,2 9.75,2 M9.75,9.292 C7.187,9.292 5.103,7.208 5.103,4.646 C5.103,2.084 7.187,0 9.75,0 C12.313,0 14.396,2.084 14.396,4.646 C14.396,7.208 12.313,9.292 9.75,9.292 Z M27.25,9.292 C24.687,9.292 22.603,7.208 22.603,4.646 C22.603,2.084 24.687,0 27.25,0 C29.813,0 31.896,2.084 31.896,4.646 C31.896,7.208 29.813,9.292 27.25,9.292 Z M27.25,2 C25.79,2 24.603,3.187 24.603,4.646 C24.603,6.105 25.79,7.292 27.25,7.292 C28.709,7.292 29.896,6.105 29.896,4.646 C29.896,3.187 28.709,2 27.25,2 Z M27.25,10.208 C32.626,10.208 37,14.582 37,19.958 L37,37 L0,37 L0,19.958 C0,14.582 4.374,10.208 9.75,10.208 C13.584,10.208 16.908,12.433 18.5,15.659 C20.092,12.433 23.416,10.208 27.25,10.208 Z M35,35 L35,19.958 C35,15.685 31.523,12.208 27.25,12.208 C23.271,12.208 19.986,15.224 19.552,19.089 C21.607,19.568 23.146,21.406 23.146,23.604 C23.146,24.865 22.638,26.007 21.82,26.845 C25.264,28.098 27.813,31.229 28.199,35 L35,35 Z M2,19.958 L2,35 L8.801,35 C9.188,31.229 11.736,28.098 15.18,26.845 C14.361,26.007 13.853,24.865 13.853,23.604 C13.853,21.406 15.393,19.568 17.448,19.089 C17.014,15.224 13.729,12.208 9.75,12.208 C5.477,12.208 2,15.685 2,19.958 Z M18.5,26.25 C19.959,26.25 21.146,25.063 21.146,23.604 C21.146,22.145 19.959,20.958 18.5,20.958 C17.04,20.958 15.853,22.145 15.853,23.604 C15.853,25.063 17.04,26.25 18.5,26.25 Z M18.5,28.25 C14.566,28.25 11.315,31.198 10.822,35 L26.178,35 C25.685,31.198 22.434,28.25 18.5,28.25 Z" id="path-1"></path>
        <linearGradient x1="0%" y1="0%" x2="100%" y2="100%" id="linearGradient-3">
            <stop stop-color="#111C3C" offset="0%"></stop>
            <stop stop-color="#10032D" offset="100%"></stop>
        </linearGradient>
    </defs>
    <g id="promo_set" stroke="none" stroke-width="1" fill="none" fill-rule="evenodd">
        <g id="web" transform="translate(-158.000000, -7806.000000)">
            <g id="Group-19-Copy" transform="translate(60.000000, 7460.000000)">
                <g id="Group-28" transform="translate(80.000000, 248.000000)">
                    <g id="icons-/-categories-/-family" transform="translate(0.000000, 80.000000)">
                        <g id="Group-6" transform="translate(18.000000, 18.000000)">
                            <mask id="mask-2" fill="white">
                                <use xlink:href="#path-1"></use>
                            </mask>
                            <g id="Combined-Shape"></g>
                            <g id="colors-/-gradients-/-dark_main" mask="url(#mask-2)" fill="url(#linearGradient-3)">
                                <g transform="translate(-18.000000, -18.000000)" id="frame">
                                    <rect x="0" y="0" width="72" height="72"></rect>
                                </g>
                            </g>
                        </g>
                    </g>
                </g>
            </g>
        </g>
    </g>
</svg>