<?xml version="1.0" encoding="UTF-8"?>
<svg width="47px" height="32px" viewBox="0 0 47 32" version="1.1" xmlns="http://www.w3.org/2000/svg" xmlns:xlink="http://www.w3.org/1999/xlink">
    <!-- Generator: Sketch 50.2 (55047) - http://www.bohemiancoding.com/sketch -->
    <title>icons / categories / beauty copy 7</title>
    <desc>Created with Sketch.</desc>
    <defs>
        <path d="M47,0 L47,24.5 L39.5,24.5 L39.5,32 L0,32 L0,7.5 L7.5,7.5 L7.5,0 L47,0 Z M45,22.5 L45,2 L9.5,2 L9.5,7.5 L39.5,7.5 L39.5,22.5 L45,22.5 Z M2,30 L37.5,30 L37.5,9.5 L2,9.5 L2,30 Z M18.8125,20.75 C17.2275,20.75 15.9375,19.461 15.9375,17.875 C15.9375,16.312 17.1945,15.041 18.7505,15.007 L18.7505,12.25 L20.7495,12.25 L20.7495,15 L22.5625,15 L22.5625,17 L18.8125,17 C18.3305,17 17.9375,17.393 17.9375,17.875 C17.9375,18.357 18.3305,18.75 18.8125,18.75 L20.6875,18.75 C22.2725,18.75 23.5625,20.04 23.5625,21.625 C23.5625,23.189 22.3055,24.46 20.7495,24.494 L20.7495,27.25 L18.7505,27.25 L18.7505,24.5 L16.9375,24.5 L16.9375,22.5 L20.6875,22.5 C21.1695,22.5 21.5625,22.107 21.5625,21.625 C21.5625,21.143 21.1695,20.75 20.6875,20.75 L18.8125,20.75 Z M25.375,17 L25.375,15 L34.75,15 L34.75,17 L25.375,17 Z M25.375,24.5 L25.375,22.5 L34.75,22.5 L34.75,24.5 L25.375,24.5 Z M4.75,17 L4.75,15 L14.125,15 L14.125,17 L4.75,17 Z M4.75,24.5 L4.75,22.5 L14.125,22.5 L14.125,24.5 L4.75,24.5 Z" id="path-1"></path>
        <linearGradient x1="0%" y1="0%" x2="100%" y2="100%" id="linearGradient-3">
            <stop stop-color="#111C3C" offset="0%"></stop>
            <stop stop-color="#10032D" offset="100%"></stop>
        </linearGradient>
    </defs>
    <g id="promo_set" stroke="none" stroke-width="1" fill="none" fill-rule="evenodd">
        <g id="web" transform="translate(-289.000000, -7808.000000)">
            <g id="Group-19-Copy" transform="translate(60.000000, 7460.000000)">
                <g id="Group-27" transform="translate(216.000000, 248.000000)">
                    <g id="icons-/-categories-/-financial" transform="translate(0.000000, 80.000000)">
                        <g id="Group-6" transform="translate(13.000000, 20.000000)">
                            <mask id="mask-2" fill="white">
                                <use xlink:href="#path-1"></use>
                            </mask>
                            <g id="Combined-Shape"></g>
                            <g id="colors-/-gradients-/-dark_main" mask="url(#mask-2)" fill="url(#linearGradient-3)">
                                <g transform="translate(-13.000000, -20.000000)" id="frame">
                                    <rect x="0" y="0" width="72" height="72"></rect>
                                </g>
                            </g>
                        </g>
                    </g>
                </g>
            </g>
        </g>
    </g>
</svg>