<?xml version="1.0" encoding="UTF-8"?>
<svg width="33px" height="37px" viewBox="0 0 33 37" version="1.1" xmlns="http://www.w3.org/2000/svg" xmlns:xlink="http://www.w3.org/1999/xlink">
    <!-- Generator: Sketch 50.2 (55047) - http://www.bohemiancoding.com/sketch -->
    <title>icons / categories / beauty copy 9</title>
    <desc>Created with Sketch.</desc>
    <defs>
        <path d="M17.312,35 L29.165,35 L29.165,18.042 L17.312,18.042 L17.312,35 Z M3.459,35 L15.313,35 L15.313,18.042 L3.459,18.042 L3.459,35 Z M2,16.042 L15.313,16.042 L15.313,9.292 L2,9.292 L2,16.042 Z M4.863,4.645 C4.863,3.187 6.05,2 7.509,2 C8.216,2 8.881,2.275 9.381,2.774 L13.898,7.292 L7.509,7.292 C6.05,7.292 4.863,6.105 4.863,4.645 Z M23.246,2.774 C23.744,2.275 24.407,2 25.114,2 C26.574,2 27.762,3.187 27.762,4.645 C27.762,6.105 26.574,7.292 25.114,7.292 L18.727,7.292 L23.246,2.774 Z M17.312,16.042 L30.625,16.042 L30.625,9.292 L17.312,9.292 L17.312,16.042 Z M32.625,7.292 L28.926,7.292 C29.449,6.54 29.762,5.63 29.762,4.645 C29.762,2.084 27.677,0 25.114,0 C23.874,0 22.707,0.483 21.829,1.36 L16.312,6.878 L10.794,1.36 C9.918,0.483 8.751,0 7.509,0 C4.947,0 2.863,2.084 2.863,4.645 C2.863,5.63 3.176,6.54 3.699,7.292 L0,7.292 L0,18.042 L1.459,18.042 L1.459,37 L31.165,37 L31.165,18.042 L32.625,18.042 L32.625,7.292 Z" id="path-1"></path>
        <linearGradient x1="0%" y1="0%" x2="100%" y2="100%" id="linearGradient-3">
            <stop stop-color="#111C3C" offset="0%"></stop>
            <stop stop-color="#10032D" offset="100%"></stop>
        </linearGradient>
    </defs>
    <g id="promo_set" stroke="none" stroke-width="1" fill="none" fill-rule="evenodd">
        <g id="web" transform="translate(-568.000000, -7806.000000)">
            <g id="Group-19-Copy" transform="translate(60.000000, 7460.000000)">
                <g id="Group-21" transform="translate(488.000000, 248.000000)">
                    <g id="icons-/-categories-/-gifts" transform="translate(0.000000, 80.000000)">
                        <g id="Group-6" transform="translate(20.000000, 18.000000)">
                            <mask id="mask-2" fill="white">
                                <use xlink:href="#path-1"></use>
                            </mask>
                            <g id="Fill-1"></g>
                            <g id="colors-/-gradients-/-dark_main" mask="url(#mask-2)" fill="url(#linearGradient-3)">
                                <g transform="translate(-20.000000, -18.000000)" id="frame">
                                    <rect x="0" y="0" width="72" height="72"></rect>
                                </g>
                            </g>
                        </g>
                    </g>
                </g>
            </g>
        </g>
    </g>
</svg>