
<svg width="14px" height="10px" viewBox="0 0 14 10" version="1.1" xmlns="http://www.w3.org/2000/svg" xmlns:xlink="http://www.w3.org/1999/xlink">
    <!-- Generator: Sketch 50.2 (55047) - http://www.bohemiancoding.com/sketch -->
    <desc>Created with Sketch.</desc>
    <defs></defs>
    <g id="Page-1" stroke="none" stroke-width="1" fill="none" fill-rule="evenodd">
        <g id="cart_long_step_2" transform="translate(-1051.000000, -51.000000)" fill="#1E1D25">
            <g id="Group-19" transform="translate(1027.000000, 36.000000)">
                <g id="Group-3" transform="translate(24.000000, 15.000000)">
                    <path d="M1.5,4 L2,4 L13.5,4 C13.7761424,4 14,4.22385763 14,4.5 L14,5.5 C14,5.77614237 13.7761424,6 13.5,6 L1.5,6 C1.22385763,6 1,5.77614237 1,5.5 L1,4.5 C1,4.22385763 1.22385763,4 1.5,4 Z" id="Combined-Shape-Copy" transform="translate(7.500000, 5.000000) scale(-1, 1) translate(-7.500000, -5.000000) "></path>
                    <path d="M3.44974747,6.44974747 L7.94974747,6.44974747 C8.22588984,6.44974747 8.44974747,6.67360509 8.44974747,6.94974747 L8.44974747,7.94974747 C8.44974747,8.22588984 8.22588984,8.44974747 7.94974747,8.44974747 L1.94974747,8.44974747 C1.67360509,8.44974747 1.44974747,8.22588984 1.44974747,7.94974747 L1.44974747,1.94974747 C1.44974747,1.67360509 1.67360509,1.44974747 1.94974747,1.44974747 L2.94974747,1.44974747 C3.22588984,1.44974747 3.44974747,1.67360509 3.44974747,1.94974747 L3.44974747,6.44974747 Z" id="Combined-Shape" transform="translate(4.949747, 4.949747) rotate(-315.000000) translate(-4.949747, -4.949747) "></path>
                </g>
            </g>
        </g>
    </g>
</svg>